<?xml version="1.0" encoding="UTF-8"?>
<svg id="Camada_2" data-name="Camada 2" xmlns="http://www.w3.org/2000/svg" viewBox="0 0 222.98 221.2">
  <defs>
    <style>
      .cls-1 {
        fill: #dd186a;
      }

      .cls-2 {
        fill: #1d1d1b;
      }
    </style>
  </defs>
  <g id="Camada_1-2" data-name="Camada 1">
    <g>
      <g>
        <path class="cls-1" d="m76.15,149.3c-1.89,0-4.62-.24-6.59-2.33-1.96-2.09-2.05-4.85-1.92-7.02.29-4.48.18-9.12.06-13.11-.03-.9-.11-3.64,1.83-5.64,1.94-2,4.67-2,5.56-2,10.65.02,21.27.04,31.88.04,14.37,0,28.53-.02,42.09-.07h.02c.99,0,3.76.01,5.76,2.07,1.81,1.86,1.96,4.27,1.91,5.92-.12,4.37-.21,9.06.02,13.67.09,1.75-.01,4.31-1.87,6.26-1.85,1.95-4.41,2.17-6.17,2.17h-.28c-4.77-.07-9.99-.11-16.44-.11-3.38,0-6.76,0-10.15.02-3.28,0-6.56.02-9.83.02-3.34,0-6.68-.02-10.02-.03-3.33-.02-6.66-.03-9.98-.03-6.01,0-10.89.05-15.36.17-.18,0-.36,0-.53,0Z"/>
        <path class="cls-2" d="m149.12,123.16c2.88,0,3.71,1.18,3.64,3.87-.13,4.66-.2,9.33.03,13.99.16,3.21-.91,4.24-4.04,4.24-.07,0-.15,0-.22,0-5.49-.08-10.98-.1-16.47-.1-6.67,0-13.34.03-20,.03-6.68,0-13.36-.06-20.04-.06-5.15,0-10.3.04-15.44.17-.15,0-.29,0-.43,0-3.79,0-4.74-1.43-4.51-5.1.28-4.48.2-8.99.07-13.49-.08-2.56.79-3.52,3.4-3.52h.02c10.64.02,21.28.04,31.92.04,14.01,0,28.03-.02,42.04-.07.01,0,.03,0,.04,0m0-8s-.06,0-.08,0c-13.51.05-27.65.07-42,.07-10.3,0-21.03-.01-31.9-.04-3.57,0-6.41,1.08-8.48,3.22-2.07,2.13-3.07,5.01-2.96,8.54.12,3.9.22,8.43-.05,12.74-.1,1.58-.41,6.39,2.99,10.02,3.37,3.59,7.99,3.59,9.5,3.59.21,0,.42,0,.63,0,4.43-.11,9.27-.17,15.23-.17,3.33,0,6.65.02,9.98.03,3.35.02,6.7.03,10.06.03,3.29,0,6.57,0,9.85-.02,3.38,0,6.77-.02,10.15-.02,6.42,0,11.61.03,16.36.1.11,0,.23,0,.34,0,1.44,0,5.81,0,9.06-3.42,3.26-3.42,3.04-7.79,2.97-9.22-.22-4.48-.14-9.07-.02-13.36.1-3.67-.92-6.64-3.04-8.82-2.11-2.18-5.01-3.28-8.59-3.28h0Z"/>
      </g>
      <g>
        <path class="cls-1" d="m147.74,101.58c-4.53-.09-9.48-.13-15.58-.13-3.3,0-6.6.01-9.9.02-3.31.01-6.62.02-9.93.02-.15,0-.3,0-.44-.02-3.17,0-6.34,0-9.51-.02-3.31,0-6.62-.02-9.93-.02-6.29,0-11.38.04-16.03.11h-.32c-1.8,0-4.42-.23-6.32-2.23-1.91-2.01-2-4.69-1.91-6.52.24-4.48.12-9.14,0-13.64-.02-.94-.09-3.68,1.87-5.7,1.32-1.35,3.13-2.01,5.54-2.01,13.1.04,26.16.05,39.22.05,11.42,0,22.85-.01,34.27-.04h.02c1,0,3.86.01,5.87,2.09,2.01,2.08,1.91,4.92,1.88,5.85-.15,4.18-.25,8.66.03,13.1.12,1.91.05,4.7-1.9,6.78-1.94,2.07-4.65,2.31-6.52,2.31h-.4Z"/>
        <path class="cls-2" d="m75.28,75.45h.03c13.07.04,26.14.05,39.21.05,11.42,0,22.85-.01,34.27-.04h.03c2.79,0,3.82,1,3.72,3.8-.16,4.49-.25,9.01.03,13.49.22,3.58-.88,4.84-4.43,4.84-.11,0-.21,0-.32,0-5.21-.1-10.43-.13-15.65-.13-6.61,0-13.23.05-19.84.05v-.02c-6.63,0-13.27-.04-19.9-.04-5.36,0-10.73.02-16.09.11-.09,0-.17,0-.25,0-3.34,0-4.41-1.17-4.23-4.54.25-4.65.13-9.33.01-13.99-.06-2.5.79-3.57,3.41-3.57m0-8c-3.49,0-6.32,1.08-8.4,3.22-2.09,2.14-3.1,5.02-3.01,8.55.12,4.66.23,9.04,0,13.37-.08,1.48-.32,5.99,3,9.48,3.3,3.48,7.76,3.48,9.22,3.48.13,0,.25,0,.38,0,4.63-.08,9.7-.11,15.96-.11,3.31,0,6.62,0,9.93.02,3.11,0,6.23.02,9.34.02.21.02.42.02.63.02,3.31,0,6.63-.01,9.94-.02,3.3-.01,6.6-.02,9.89-.02,6.07,0,10.99.04,15.49.13.16,0,.32,0,.48,0,1.5,0,6.08,0,9.43-3.57,3.37-3.59,3.08-8.24,2.98-9.77-.27-4.26-.17-8.63-.02-12.7.13-3.63-.88-6.58-3-8.77-2.12-2.2-5.06-3.31-8.72-3.31h-.05c-11.18.03-22.71.04-34.25.04-12.73,0-25.92-.02-39.19-.05h-.05Z"/>
      </g>
      <g>
        <path class="cls-1" d="m42.62,149.45c-3.04,0-4.57-2.38-5.15-3.28-.07-.1-.13-.21-.2-.3-3.41-3.94-7.24-7.48-11.3-11.24-4.73-4.37-9.61-8.89-13.81-14.15-.46-.57-1.55-1.32-2.51-1.98-2.44-1.67-6.97-4.78-5.26-9.92,1.53-4.58,5.24-8.14,8.52-11.29.58-.56,1.17-1.12,1.72-1.67,6.1-6.04,12.26-11.91,18.79-18.13,2.66-2.53,5.37-5.11,8.14-7.77.76-.73,1.76-1.11,2.77-1.11.53,0,1.06.11,1.57.32,1.47.63,2.43,2.08,2.43,3.68v52.72c0,5.4.02,10.98-.03,16.47,0,.12.02.25.04.39.47,4.25-1.64,6.04-3.5,6.79-.74.3-1.49.45-2.23.45Z"/>
        <path class="cls-2" d="m44.34,72.62v47.18c0,7.32.03,14.65-.03,21.97-.01,1.21.67,2.85-.97,3.52-.27.11-.51.16-.72.16-1.17,0-1.65-1.42-2.28-2.14-7.79-9-17.6-15.99-25.05-25.31-2.33-2.92-8.28-4.6-7.1-8.14,1.45-4.35,5.77-7.91,9.27-11.38,8.56-8.49,17.37-16.74,26.88-25.85m0-8c-2.02,0-4.02.77-5.54,2.22-2.77,2.66-5.48,5.24-8.15,7.77-6.54,6.22-12.71,12.1-18.83,18.17-.54.54-1.11,1.08-1.68,1.63-3.61,3.47-7.71,7.4-9.55,12.91-2.67,8,4.21,12.71,6.79,14.48.57.39,1.41.97,1.7,1.25,4.37,5.46,9.35,10.07,14.16,14.52,3.9,3.6,7.58,7.01,10.84,10.74v.02c2.2,3.39,5.06,5.12,8.53,5.12,1.26,0,2.52-.25,3.74-.75,2.07-.84,6.79-3.59,5.97-10.95,0-.04,0-.08-.01-.12.04-5.46.04-11,.03-16.35,0-1.83,0-3.66,0-5.48v-47.18c0-3.2-1.91-6.1-4.86-7.36-1.01-.43-2.08-.64-3.14-.64h0Z"/>
      </g>
      <g>
        <path class="cls-1" d="m178.68,149.58c-.97,0-1.91-.35-2.65-1-.86-.76-1.35-1.85-1.35-3v-72.54c0-1.59.94-3.02,2.39-3.66.52-.23,1.07-.34,1.61-.34.98,0,1.95.36,2.7,1.05.77.7,1.49,1.35,2.18,1.97,1.4,1.26,2.73,2.46,4,3.71,4.75,4.7,9.48,9.42,14.21,14.13,4.7,4.68,9.4,9.36,14.12,14.03l.25.24c1.13,1.11,2.84,2.79,2.85,5.41,0,1.74-.77,3.39-2.29,4.89-6.82,6.74-13.61,13.5-20.41,20.25-4.53,4.51-9.07,9.02-13.61,13.52-1.22,1.21-2.67,1.26-3.29,1.29-.06,0-.13,0-.21.01-.17.02-.33.03-.5.03Z"/>
        <path class="cls-2" d="m178.68,73.04c2.34,2.15,4.27,3.8,6.06,5.58,9.46,9.37,18.87,18.79,28.33,28.16,1.49,1.47,3.01,2.69.81,4.86-11.37,11.23-22.67,22.53-34.02,33.78-.18.17-.6.09-1.19.17v-72.54m0-8c-1.09,0-2.18.22-3.22.68-2.9,1.28-4.78,4.15-4.78,7.32v72.54c0,2.3.99,4.48,2.71,6,1.47,1.3,3.35,2,5.29,2,.28,0,.56-.01.84-.04h.02c.9-.03,3.63-.13,5.96-2.44,4.56-4.52,9.11-9.05,13.67-13.58,6.66-6.63,13.55-13.48,20.34-20.19,2.88-2.85,3.48-5.78,3.48-7.74,0-4.3-2.74-6.97-4.05-8.26l-.23-.23c-4.73-4.69-9.45-9.39-14.18-14.09-4.71-4.69-9.43-9.39-14.15-14.07-1.34-1.33-2.7-2.55-4.15-3.85-.68-.61-1.39-1.25-2.14-1.94-1.5-1.38-3.44-2.1-5.41-2.1h0Z"/>
      </g>
      <g>
        <path class="cls-1" d="m77.71,48.41c-2.08,0-3.8-1.02-4.72-2.8-.62-1.19-1.67-4.26,1.87-6.95l.14-.11c3.84-3.86,7.69-7.71,11.53-11.56,6.71-6.72,13.64-13.66,20.42-20.52.6-.61,2.44-2.47,5.12-2.47s4.47,1.81,5.06,2.41c8.53,8.54,17.1,17.02,26.16,26l9.18,9.1c1.15,1.14,1.5,2.86.88,4.36-.62,1.5-2.08,2.48-3.7,2.48h-19.85c-17.43,0-34.24,0-51.05-.01l-.15.02c-.3.03-.61.05-.91.05Z"/>
        <path class="cls-2" d="m112.08,8c.7,0,1.4.4,2.23,1.23,11.37,11.38,22.82,22.69,35.36,35.12-6.8,0-13.47,0-20.06,0-17.36,0-34.1,0-50.84-.01h0c-.33,0-.71.07-1.06.07-.46,0-.89-.11-1.17-.64-.66-1.27.6-1.71,1.24-2.34,10.67-10.72,21.39-21.4,32.03-32.15.84-.85,1.55-1.28,2.28-1.28m0-8h0c-2.89,0-5.56,1.23-7.96,3.66-6.79,6.86-13.72,13.81-20.43,20.53-3.78,3.78-7.56,7.57-11.33,11.36-4.79,3.7-4.57,8.72-2.91,11.91,1.61,3.1,4.7,4.96,8.27,4.96.54,0,.99-.04,1.26-.07,16.67.01,33.35.01,50.64.01h9.87s10.19,0,10.19,0c3.24,0,6.16-1.96,7.4-4.95s.54-6.44-1.76-8.73c-3.11-3.08-6.15-6.09-9.14-9.06-9.08-9-17.65-17.5-26.2-26.04-2.37-2.37-5.03-3.58-7.89-3.58h0Z"/>
      </g>
      <g>
        <path class="cls-1" d="m115.17,217.2c-2.74,0-4.78-1.76-6.42-3.49-6.61-6.98-13.58-13.89-20.32-20.58-3.03-3-6.05-6-9.06-9.02-.83-.83-1.53-1.71-2.2-2.56-.29-.36-.58-.73-.9-1.11-.91-1.09-1.17-2.58-.69-3.92s1.64-2.32,3.03-2.58c4.18-.78,41.53-.79,43.12-.79,7.74,0,26.11.05,29.57.48,1.82.23,3.25,1.66,3.48,3.49.43,3.56-1.96,5.57-2.99,6.43-.15.13-.31.25-.44.38-3.39,3.39-6.79,6.76-10.2,10.14-6.49,6.43-13.21,13.09-19.67,19.74-1.71,1.75-3.65,3.38-6.32,3.38Z"/>
        <path class="cls-2" d="m121.73,177.16c14,0,26.64.14,29.09.45.22,1.8-1.31,2.53-2.29,3.5-9.97,9.98-20.08,19.81-29.91,29.92-1.38,1.42-2.41,2.17-3.45,2.17s-2.08-.73-3.51-2.24c-9.58-10.11-19.61-19.8-29.45-29.67-1-1-1.83-2.17-2.86-3.41,2.5-.46,23.66-.72,42.38-.72m0-8v8-8c-6.56,0-39.48.04-43.85.85-2.79.52-5.1,2.48-6.06,5.15s-.44,5.65,1.38,7.83c.29.35.57.7.84,1.04.71.89,1.51,1.9,2.5,2.89,3.02,3.03,6.1,6.08,9.08,9.04,6.72,6.66,13.66,13.55,20.23,20.49,1.34,1.42,4.49,4.74,9.32,4.74s7.85-3.22,9.19-4.59c6.44-6.63,13.14-13.27,19.63-19.69,3.33-3.3,6.78-6.72,10.16-10.1.07-.06.15-.12.22-.19,1.26-1.05,5.09-4.26,4.39-9.98-.44-3.64-3.31-6.52-6.95-6.97-3.55-.44-20.37-.51-30.07-.51h0Z"/>
      </g>
    </g>
  </g>
</svg>