<?xml version="1.0" encoding="UTF-8"?>
<svg id="Camada_2" data-name="Camada 2" xmlns="http://www.w3.org/2000/svg" viewBox="0 0 206.94 205.2">
  <defs>
    <style>
      .cls-1 {
        fill: #dd186a;
      }
    </style>
  </defs>
  <g id="Camada_1-2" data-name="Camada 1">
    <g>
      <path class="cls-1" d="m104.01,137.19c-11.83,0-23.66-.2-35.48.11-4.14.11-5.18-1.29-4.94-5.1.28-4.48.2-8.99.07-13.49-.08-2.56.8-3.52,3.42-3.52,24.65.06,49.3.05,73.96-.04,2.91-.01,3.75,1.17,3.68,3.87-.13,4.66-.2,9.33.03,13.99.16,3.28-.96,4.29-4.26,4.24-12.16-.18-24.32-.07-36.48-.07Z"/>
      <path class="cls-1" d="m104.29,89.47c-12,0-24-.12-35.99.08-3.54.06-4.67-1.08-4.49-4.54.25-4.65.13-9.33.01-13.99-.06-2.51.79-3.58,3.44-3.57,24.49.07,48.99.07,73.48,0,2.81,0,3.85.99,3.75,3.8-.16,4.49-.25,9.01.03,13.49.23,3.69-.94,4.91-4.75,4.84-11.83-.23-23.66-.09-35.49-.09v-.02Z"/>
      <path class="cls-1" d="m36.3,64.62c0,16.29,0,31.74,0,47.18,0,7.32.03,14.65-.03,21.97-.01,1.21.67,2.85-.97,3.52-1.73.7-2.25-1.12-3-1.99-7.79-9-17.6-15.99-25.05-25.31-2.33-2.92-8.28-4.6-7.1-8.14,1.45-4.35,5.77-7.91,9.27-11.38,8.56-8.49,17.37-16.74,26.88-25.85Z"/>
      <path class="cls-1" d="m170.63,137.58v-72.54c2.34,2.15,4.27,3.8,6.06,5.58,9.46,9.37,18.87,18.79,28.33,28.16,1.49,1.47,3.01,2.69.81,4.86-11.37,11.23-22.67,22.53-34.02,33.78-.18.17-.6.09-1.19.17Z"/>
      <path class="cls-1" d="m141.63,36.35c-24.71,0-47.8,0-70.9-.01-.77,0-1.75.35-2.23-.57-.66-1.27.6-1.71,1.24-2.34,10.67-10.72,21.39-21.4,32.03-32.15,1.65-1.66,2.82-1.74,4.51-.05,11.37,11.38,22.82,22.69,35.36,35.12Z"/>
      <path class="cls-1" d="m71.31,169.88c4.36-.81,65.75-.98,71.47-.27.22,1.8-1.31,2.53-2.29,3.5-9.97,9.98-20.08,19.81-29.91,29.92-2.75,2.83-4.08,2.97-6.96-.07-9.58-10.11-19.61-19.8-29.45-29.67-1-1-1.83-2.17-2.86-3.41Z"/>
    </g>
  </g>
</svg>