<?xml version="1.0" encoding="UTF-8"?>
<svg id="Camada_2" data-name="Camada 2" xmlns="http://www.w3.org/2000/svg" viewBox="0 0 291.26 221.63">
  <defs>
    <style>
      .cls-1 {
        fill: #f59a2b;
      }

      .cls-2 {
        fill: #1d1d1b;
      }
    </style>
  </defs>
  <g id="Camada_1-2" data-name="Camada 1">
    <g>
      <g>
        <path class="cls-1" d="m137.69,217.26c-8.3-.09-16.83-.14-26.08-.14-8.14,0-16.75.04-26.33.11h-.17c-2.04,0-4.63-.25-6.57-2.19-1.98-1.98-2.21-4.72-2.2-6.61.1-63.6.1-129.18,0-194.94,0-2.23.26-5.06,2.34-7.14,2.08-2.09,4.96-2.33,6.94-2.33h.2c5.24.05,10.87.07,17.22.07,7.17,0,14.34-.03,21.52-.06,4.74-.02,9.47-.04,14.21-.05h1.41c.22.01.43.03.64.07,4.35.75,6.32,3.66,5.86,8.64-.03.3-.06.59-.06.87.05,31.5.05,63.53.05,94.5v19.98c0,6.5,0,13,0,19.5-.01,19.82-.02,40.31.09,60.46.01,2.35-.24,5.03-2.23,7.02-1.99,2-4.7,2.23-6.57,2.23h-.23Zm-42.5-37.9c0,.58-.01,1.22-.02,1.93,0,.88.02,1.67.03,2.37.03,1.4.06,2.51-.08,3.71.13-.02.27-.04.41-.06,2.35-.39,5-.82,5.8-1.22.25-.73.36-2.9.46-5l.05-.98c.05-.98,0-1.55-.06-1.85-.22-.04-.58-.08-1.16-.08-.33,0-.69.01-1.07.03-1.51.08-2.73.1-3.62.1h-.75c0,.34,0,.7-.01,1.04Zm26.14,7.13c.59.18,1.33.27,2.32.27.84,0,1.74-.06,2.69-.13.64-.04,1.29-.09,1.95-.12,0-.77,0-3.84,0-3.84,0-.91,0-1.74,0-2.49,0-.63,0-1.3,0-1.88-.07,0-2.27.01-2.83.01-.43,0-.88,0-1.37,0h-.81c-.39-.02-.77-.03-1.16-.03-.28,0-.53,0-.76.01.02.08.04.16.06.23.12.5.24,1.01.31,1.55.22,1.64-.07,3.19-.33,4.56-.1.55-.25,1.31-.27,1.79.06.02.12.04.2.07Zm-26.18-42.17c-.35,3.12-.69,6.09-.02,8.38.5-.02,1.11-.1,1.75-.17.96-.12,2.05-.25,3.14-.25.51,0,.98.03,1.44.09,0,0,.17,0,.24,0-.01-1.02,0-2.05,0-3.07v-1.48c0-1.56-.01-3.17-.1-4.13-.92-.08-2.45-.08-3.94-.09,0,0-1.86,0-2.42,0-.03.25-.06.49-.08.74Zm26.39,7.69c.66.01,1.44.01,2.21.02h1.62c.67,0,2,0,2.88-.07.08-.97.08-2.58.07-4.15,0-.16,0-.31-.02-.46-.03-.57-.06-1.35.09-2.21.14-.81.16-1.32.14-1.61-.25-.05-.64-.09-1.25-.09-.27,0-.55,0-.85.03l-.96.05c-1.39.08-2.93.16-3.8.29-.12,1.08-.1,3.16-.09,4.89.01,1.33-.03,2.42-.06,3.3,0,0,0,.01,0,.02Zm-23.13-34.7c.96,0,2.05,0,3.27.03-.05-.9-.03-1.74-.01-2.57,0-.38.02-.77.02-1.15,0-1.69.02-3.42-.07-4.41-.97-.09-2.63-.09-4.25-.1-.08,0-.2,0-.31,0-.32,0-.62-.03-.92-.08-.45-.08-.77-.12-.99-.12-.05.33-.09.89-.06,1.75.08,2.08.08,3.75.08,5.09,0,.51,0,1.05,0,1.53.49.01,1,.01,1.31.01h1.92Zm23.24-.01c.35,0,.7,0,.88,0h.74c1.93,0,3.92-.02,4.93-.15.15-1.07.15-3.22.15-5.31,0-1.2.04-2.16.07-2.96-.54,0-1.12,0-1.6,0h-2c-.86,0-2.26,0-3.18.07-.06.9-.06,2.3-.06,3.67,0,1.83,0,3.59.07,4.7Zm-26.4-33.71c1.72.29,3.04.44,4.05.44h0c1.3,0,1.61-.24,1.62-.24.13-.13.8-1.07.79-6.15v-.12c-.02-.35-.05-.92.07-1.6.12-.67.14-1.11.14-1.38-.27-.05-.7-.1-1.38-.1-.29,0-.6,0-.92.03l-.86.04c-1.25.06-2.61.13-3.47.24-.06.95-.04,2.52-.02,3.95,0,.67,0,1.27,0,1.88,0,1.04-.01,2.04,0,3.02Zm29.8-1.02c.97,0,2.05,0,3.28.03-.04-1.04-.02-2.04,0-3.01,0-.41.01-.81.02-1.21-.01-.86-.01-1.69-.01-2.42,0-.52,0-1.07,0-1.56-.41,0-.81,0-1.07,0h-1.4c-.47,0-.98,0-1.52,0h-.15c-.15.01-.3.01-.45.01-.3,0-.6-.02-.9-.06-.42-.06-.79-.09-1.1-.09-.08,0-.15,0-.21,0-.05.29-.09.8-.05,1.61.12,2.33.12,4.13.11,5.57,0,.37,0,.76,0,1.12.55.01,1.13.01,1.48.01h1.99Zm-.17-34.38c.72,0,2.38,0,3.33-.11.14-1.1.13-3.32.12-5.32,0-.88,0-1.64,0-2.32,0-.25,0-.51,0-.76h-2.32s-1.29,0-1.29,0c-.65,0-2.13,0-3.05.08-.09.97-.09,2.65-.09,4.29.03,1.47,0,2.72-.02,3.72,0,.13,0,.26,0,.4.41,0,3.33.01,3.33.01Zm-21.72,0s0,0,0,0Zm-7.84-.16c2.11.04,4.22.08,6.32.14,0-1.2.03-2.35.06-3.47.05-1.69.1-3.33,0-4.89-.57-.03-1.13-.07-1.68-.12-1.05-.08-2.04-.15-2.99-.15-1.23,0-2.2.13-3.04.42.02.03.04.05.06.08.57.66.91,1.5.96,2.37.07,1.24-.02,2.42-.11,3.47-.07.86-.12,1.56-.11,2.14h.52Z"/>
        <path class="cls-2" d="m138.76,8c.45,0,.91,0,1.36.01,3.58.62,2.47,3.48,2.48,5.57.06,38.16.05,76.31.05,114.47,0,26.66-.06,53.32.08,79.98.02,3.76-.88,5.23-4.8,5.23-.06,0-.12,0-.18,0-8.71-.1-17.42-.14-26.13-.14s-17.58.04-26.36.11c-.05,0-.1,0-.14,0-3.49,0-4.78-1-4.77-4.79.1-64.98.1-129.97,0-194.95,0-4.07,1.22-5.46,5.28-5.46.05,0,.11,0,.16,0,5.74.05,11.49.07,17.24.07,11.92,0,23.83-.08,35.75-.1m-46.82,44.03l.22-.06c3.44.07,6.89.12,10.33.23.11,0,.23,0,.34,0,1.71,0,2.97-.48,2.86-2.63-.23-4.57.61-9.19-.57-13.71l-.09-.05c-.47.04-.95.05-1.42.05-2.18,0-4.39-.33-6.57-.33-2.04,0-4.06.29-6.01,1.39-2.21,1.9-1.63,3.81,0,5.71.18,3.07-1.04,6.27.82,9.19l.09.2m34.45-16.34c-.12,0-.24,0-.36,0-.46,0-.9,0-1.31,0-7.15,0-7.15.45-7.14,8.38.14,8.33-1.37,8.09,5.77,8.13.54,0,1.04,0,1.51,0,7.48,0,7.51-.55,7.46-9.45-.04-6.59.57-7.06-3.48-7.06-.68,0-1.49.01-2.46.01m-3.33,50.88c.59,0,1.25,0,1.99,0,1,0,2.14,0,3.42.03.07,0,.14,0,.2,0,2.6,0,3.82-1.02,3.67-3.74-.08-1.48-.01-2.98,0-4.47-.1-7.74.67-8.01-5.08-8.01-.43,0-.9,0-1.41,0-.46,0-.95,0-1.48,0-.01,0-.02,0-.04,0-.2,0-.41.02-.61.02-.12,0-.23,0-.35-.02-.6-.08-1.15-.12-1.65-.12-3.18,0-4.46,1.71-4.25,5.82.53,10.1-1.46,10.5,5.59,10.5m-23.76,1.45c5.16,0,6.43-2.75,6.41-10.4,0-.33-.05-.67,0-1,.86-4.77-1.05-6.19-5.18-6.19-.36,0-.74.01-1.13.03-8.25.43-8.26.12-8.14,8.28,0,2-.05,3.99.02,5.99.04,1.45.6,2.3,2.31,2.62,2.29.43,4.18.67,5.71.67m23.22,33.28c.24,0,.5,0,.77,0,9.09-.03,9.06-.03,9.06-9.54,0-6.77,1.38-6.89-5.52-6.89-.27,0-.55,0-.85,0-.16,0-.32,0-.49,0-.24,0-.47,0-.69,0-7.23,0-7.23.23-7.23,7.74,0,8.31,0,8.7,4.94,8.7m-26.04,0c.58,0,1.22,0,1.93,0,1.06,0,2.27,0,3.66.04.09,0,.17,0,.25,0,2.71,0,3.61-1.14,3.38-3.76-.11-1.31-.02-2.64-.02-3.97q.05-8.49-8.32-8.51h0c-.1,0-.21.01-.31.01-.06,0-.12,0-.18-.01-.7-.13-1.33-.2-1.88-.2-3.17,0-4.06,2.13-3.91,5.92.41,10.07-1.24,10.48,5.4,10.48m28.91,34.72c6.96,0,6.96-.42,6.94-8.23,0-.67-.1-1.35.02-1.99.78-4.57-.67-6.38-5.06-6.38-.34,0-.7.01-1.07.03-8.62.49-8.7.13-8.62,9.27.07,7.42-1.56,7.28,6.56,7.3.43,0,.84,0,1.23,0m-30.57.67c1.6,0,3.52-.43,5.2-.43.36,0,.71.02,1.05.07.1.02.21.02.31.02.2,0,.41-.02.62-.02.02,0,.04,0,.07,0,.05,0,.11,0,.16,0,2.34,0,3.52-1.16,3.49-3.59-.02-1.65,0-3.31,0-4.96q-.05-8.19-8.04-8.22c-.25,0-.5,0-.75,0-1.07,0-2.15,0-3.22.02-1.07.01-2.13.34-2.23,1.49-.41,4.77-1.57,9.98.36,14.16.53,1.14,1.64,1.45,2.99,1.45m1.14,17.61c-.56,0-1.06,0-1.49,0-3.62,0-3.19.35-3.3,6.91,0,2.78.15,4.29-.03,5.76-.4,3.31.96,4.44,3.3,4.44.53,0,1.11-.06,1.74-.16,9.53-1.57,9.17-1.58,9.66-10.94.26-4.87-1.38-6.13-5.21-6.13-.41,0-.84.01-1.29.04-1.34.08-2.45.09-3.39.09m27.69,16.45c1.95,0,3.98-.27,5.93-.27h.02c1.88,0,2.68-1.04,2.69-2.82,0-1.66,0-3.33,0-4.99-.05-7.84.6-8.36-4.21-8.36-.73,0-1.6.01-2.61.01-.41,0-.85,0-1.32,0-.67,0-1.34-.03-2.01-.03s-1.32.02-1.98.1c-4.5.54-2.65,4.25-2.39,6.23.44,3.29-2.9,8.08,2.39,9.7,1.11.34,2.29.44,3.5.44M138.75,0h-.01c-4.74.01-9.48.03-14.22.05-7.05.03-14.35.06-21.51.06-6.33,0-11.94-.02-17.17-.07h-.23c-1.55,0-6.28,0-9.77,3.5-3.15,3.16-3.51,7.2-3.51,9.97.1,65.69.1,131.27,0,194.92,0,1.5,0,6.05,3.37,9.44,3.36,3.36,7.91,3.36,9.4,3.36h.2c9.59-.07,18.19-.11,26.3-.11,9.24,0,17.76.05,26.03.14h.27c1.49,0,6.02,0,9.41-3.41,3.42-3.44,3.4-8.11,3.39-9.86-.11-20.16-.1-40.66-.09-60.49,0-6.48,0-12.96,0-19.44v-20.03c0-30.96,0-62.97-.05-94.45,0-.13.03-.31.04-.5.13-1.39.34-3.71-.6-6.22-1.34-3.57-4.46-6.02-8.56-6.73-.42-.07-.85-.11-1.28-.12h-1.36s-.06-.01-.09-.01h0Z"/>
      </g>
      <g>
        <path class="cls-1" d="m206.38,217.58c-7.73-.14-15.67-.21-24.28-.21s-17.14.06-27.05.2c0,0-.25,0-.25,0-1.02,0-4.06,0-6.18-2.13-1.88-1.88-2.12-4.35-2.12-6.52.04-21.84.04-44.05.03-65.53v-19.89c0-2.99.98-5.63,3.08-8.3,5.45-6.93,10.93-14.03,16.23-20.91,4.58-5.94,9.31-12.08,14.01-18.09,3.53-4.51,7.21-8.98,10.77-13.31,2.32-2.82,4.63-5.64,6.92-8.48,2.23-2.77,4.42-5.71,6.53-8.55l.3-.41c.1-.14.2-.28.3-.42.81-1.16,2.51-3.57,5.72-3.57.83,0,1.68.17,2.53.51,2.86,1.14,4.12,3.54,3.76,7.14-.02.17-.04.33-.04.48.06,15.23.07,30.71.07,45.68v8.79c0,8.5,0,16.99,0,25.49,0,6.66,0,13.32-.02,19.98-.02,18.82-.05,38.28.12,57.42.02,2.78-.25,5.92-2.47,8.16-2.21,2.23-5.34,2.49-7.49,2.49h-.46Zm-8.16-31.08c.86,0,1.58.05,2.28.17.41.06.76.1,1.05.1.05-.33.09-.89.05-1.78l-.03-.71c-.04-1.05-.09-2.2-.17-2.99-.88-.06-2.22-.06-3.45-.06-1.99,0-6.29,0-6.29,0-.66,0-1.52,0-2.21.02-.02.69-.02,1.57-.03,2.4,0,1.01,0,2.11.03,2.9.81.04,1.92.04,2.95.04h2.97c.43,0,.84-.02,1.26-.04.53-.02,1.05-.04,1.58-.04Zm-35.65.08c.67.02,1.43.02,1.86.02h7.64c.85-.02,1.77-.02,2.48-.04.02-.72.02-1.65.02-2.52,0-.96,0-2.01-.03-2.78-.76-.03-1.78-.03-2.73-.03h-2.97c-.54,0-1.08.01-1.62.02-.6.01-1.19.02-1.79.02-.9,0-1.66-.03-2.38-.08-.23-.02-.44-.03-.64-.03,0,.21,0,.47.01.79.08,1.43.1,2.62.12,3.62,0,.33.01.68.02,1.01Zm.16-20.04c.33,0,.72-.03,1.16-.1.64-.1,1.3-.14,2.09-.14.44,0,.87.01,1.31.03.34.01.69.03,1.03.03h.11c.57,0,1.1-.02,1.63-.03.61-.02,1.22-.04,1.82-.04.95,0,1.75.04,2.51.13,0,0,.02,0,.03,0,0-.14,0-.3,0-.48v-.45c-.02-1.82-.04-3.7-.16-4.69-1.05-.13-3.06-.13-4.6-.13h-4.81c-.79,0-1.59,0-2.26.02,0,.08,0,.16,0,.24-.01.96-.03,2.16-.12,3.65-.06,1.03,0,1.63.05,1.95.06,0,.13,0,.21,0Zm26.43-.36c1.15.17,3.51.18,5.8.18h1.8c1.4,0,3.82,0,5-.18.08-1.09-.08-3.27-.25-5.45-1.66.01-3.3.02-4.94.02-2.64,0-5-.02-7.2-.06-.15,2.18-.3,4.38-.21,5.5Zm-26.18-20.21c1.53,0,3.02.11,4.46.21,1.36.1,2.64.19,3.88.19,1.12,0,2.09-.08,2.96-.25.02-.32.03-.64.03-.94,0-1.11,0-2.08.02-2.94,0-.6.02-1.25.01-1.79-.32,0-.7-.01-1.13-.01h-1.42c-.63.01-1.31.01-2.06.01h-1.25c-1.81,0-4.71,0-5.85.26-.17.92-.12,2.96-.02,5.19l.18.05h.19Zm26.37-4.79c-.21,1.97-.4,3.84-.04,5.16.37-.02.82-.08,1.29-.13.79-.1,1.69-.21,2.61-.21.31,0,.62.01.93.04h7.23s0-.05,0-.05c.04-1.84.07-3.67.12-5.51-1.31.01-2.61.02-3.9.02-1.17,0-7.76-.01-8.15-.01-.02.23-.05.47-.07.7Zm-18.7-15.61c1.55,0,2.81.02,3.97.06h.04c-.08-2.26-.06-4.52-.04-6.71,0-.8.01-1.61.02-2.41-.02-.14-.02-.29-.02-.44,0,0,0-4.29,0-4.99-.04.05-.08.1-.12.14-3.82,4.65-7.78,9.46-11.44,14.32,1.02.03,2.04.04,3.07.04.75,0,3.76-.02,4.52-.02Zm19.85-.06c.41,0,.8.02,1.18.06.23.02.45.03.68.03.27,0,.55,0,.82-.02.35,0,.69-.02,1.04-.02h.38c2.34,0,6.11,0,7.44-.38.11-.95-.15-3.03-.49-5.18h-.03c-.13,0-.25-.01-.38-.03-1.71-.19-3.48-.29-5.27-.29s-3.57.09-5.43.28c-.09,0-.17.01-.26.02l-1.7.06c-.48.65-.46,1.63.02,4.28.07.41.15.83.22,1.26.11,0,.22-.01.34-.02.49-.03.98-.05,1.44-.05Zm-1.09-26.05c-.04.32-.07.81-.05,1.56.02.79.04,1.51.06,2.16.02.75.04,1.5.06,2.14.07,0,.14,0,.22,0,.65-.02,1.4-.03,2.26-.03.55,0,1.14,0,1.79.03.14,0,.28,0,.42,0h.3c.21-.04.43-.06.65-.06.74,0,1.47,0,2.21,0,.76,0,1.51-.01,2.27-.01.71,0,1.42,0,2.14.02.56-3.53.43-4.7.3-5.08-.37-.2-1.61-.55-5.66-.55-.55,0-1.08.02-1.6.04-.63.02-1.26.05-1.88.05-.98,0-1.8-.05-2.59-.17-.33-.05-.62-.08-.87-.08Zm5.28-14.79c1.01.01,1.92.02,2.75.02,1.89,0,3.16-.07,3.79-.2.24-1.08.24-3.78.25-6.4,0-.66.01-1.32.02-1.98,0,0,0,0,0-.01-.25.31-.5.62-.75.92-2.01,2.5-4.08,5.07-6.09,7.64h.02Z"/>
        <path class="cls-2" d="m210.39,45.45c.31,0,.65.07,1.04.22,1.91.76,1.2,2.57,1.21,3.92.07,18.15.07,36.3.07,54.46,0,8.49,0,16.99-.01,25.48,0,25.81-.12,51.63.1,77.44.04,4.78-1.05,6.62-5.96,6.62-.13,0-.25,0-.38,0-8.11-.15-16.23-.21-24.35-.21-9.04,0-18.07.08-27.11.2-.06,0-.13,0-.19,0-3.62,0-4.31-1.46-4.31-4.64.06-28.48.03-56.95.02-85.43,0-2.23.78-3.99,2.23-5.83,10.18-12.93,20.1-26.05,30.25-39.01,5.76-7.35,11.8-14.48,17.66-21.75,2.39-2.96,4.65-6.03,6.93-9.08.8-1.08,1.47-2.37,2.81-2.37m-20.42,43.21c.56,0,1.15-.07,1.7-.07.17,0,.34,0,.5.03.39.04.79.06,1.19.06.36,0,.72,0,1.08,0,.07,0,.14,0,.21,0,1.02.01,1.95.02,2.79.02,8.03,0,8.03-.92,8.04-10.59,0-2.15.12-4.31-.04-6.45-.1-1.32.89-3.27-1.15-3.79-.16-.04-.31-.06-.45-.06-1.18,0-1.85,1.3-2.59,2.22-3.71,4.66-7.5,9.25-11.11,13.98-.84,1.1-3.05,1.64-2.36,3.4.42,1.07,1.26,1.27,2.19,1.27m-1.46,20.67c.87,0,1.99-.05,3.44-.05.51,0,1.07,0,1.67.02.18,0,.36,0,.54,0,.32,0,.63,0,.95,0v-.05c1.49,0,2.98-.02,4.48-.02,1,0,1.99,0,2.99.04.07,0,.14,0,.2,0,1.65,0,2.43-.65,2.75-2.47,1.65-9.57.38-11.19-9.16-11.19h-.04c-1.15,0-2.31.09-3.45.09-.68,0-1.35-.03-2.01-.13-.57-.08-1.09-.13-1.56-.13-3.2,0-4.04,1.95-3.93,5.68.22,7.43-.15,8.2,3.14,8.2m-22.38,20.25c1.51,0,3.01-.02,4.52-.02,1.27,0,2.55.01,3.82.06.13,0,.25,0,.37,0,2.71,0,3.93-1.18,3.82-4.08-.12-3.16-.03-6.33-.03-9.49h-.02c0-3.5.02-6.99-.01-10.49,0-.98.05-2.12-1.03-2.61-.23-.1-.44-.15-.63-.15-.8,0-1.35.76-1.82,1.34-5.25,6.44-10.62,12.8-15.6,19.45-2.43,3.24-.98,5.78,2.98,5.91,1.21.04,2.43.05,3.64.05m21.87,0c.83,0,1.71-.09,2.5-.09.26,0,.51,0,.75.04.37.04.74.05,1.11.05.62,0,1.24-.03,1.85-.03h0c.12,0,.24,0,.35,0,12.43,0,12.62-.39,10.4-13.4l-.17-.09c-1.07-.02-2.14-.04-3.21-.06-1.91-.22-3.81-.32-5.72-.32s-3.89.1-5.83.3c-.98.03-1.95.07-2.93.1l-.22.06c-4.43,3.06-2.27,7.62-1.96,11.32.15,1.82,1.5,2.14,3.06,2.14m-18.27,6.86c-.07,0-.14,0-.21,0-.36,0-.71,0-1.05,0-10.32,0-10.3.36-9.76,11.51.14.36.27.73.41,1.09,1.05.31,2.09.61,3.14.92.24,0,.49-.01.73-.01,2.77,0,5.57.41,8.34.41,2.27,0,4.52-.27,6.73-1.26.09-1.32.26-2.63.26-3.95-.04-8.15.88-8.72-5.1-8.72-.97,0-2.12.01-3.49.01m27.85.03c-2.32,0-4.64-.01-6.97-.01-.81,0-1.61,0-2.42,0-1.18,0-2.51.17-2.59,1.68-.19,3.61-1.22,7.63.44,10.73.62,1.16,1.7,1.45,2.93,1.45,1.34,0,2.87-.35,4.22-.35.24,0,.47.01.69.04h.17c2.59,0,5.18,0,7.77,0,.37.1.74.21,1.11.21.33,0,.66-.1.96-.39.37-.18.73-.35,1.1-.53.27-.04.37-.2.29-.46.07-3.13.12-6.27.21-9.4.05-2-.77-2.99-2.84-2.99-.03,0-.06,0-.1,0-1.66.02-3.32.03-4.99.03m-.79,33.87c9.49,0,9.46-.42,8.69-10.31-.01-.16-.02-.33,0-.5.18-2.19-1-2.84-2.95-2.84-.02,0-.05,0-.07,0-1.96.02-3.92.03-5.89.03-2.67,0-5.35-.02-8.02-.08-.05,0-.11,0-.16,0-2.31,0-2.82,1.2-2.96,3.35-.71,10.33-.77,10.33,9.56,10.35.17,0,.33,0,.5,0,.46,0,.9,0,1.32,0m-34.05.18c.53,0,1.12-.05,1.76-.15.49-.07.98-.1,1.48-.1.78,0,1.56.05,2.34.05.05,0,.1,0,.16,0,1.14,0,2.28-.07,3.41-.07.69,0,1.37.02,2.05.1.38.04.74.07,1.07.07,2.66,0,3.45-1.47,3.43-4.55-.09-9.1.06-9.23-8.75-9.23h-.45c-.59,0-1.18,0-1.77,0-.39,0-.78,0-1.17,0-9.23.05-7.32-.44-7.81,7.67-.25,4.12.81,6.2,4.25,6.2m1.7,20.06c.65,0,1.36,0,2.16,0,.17,0,.35,0,.52,0,.23,0,.46,0,.68,0,1.43,0,2.85,0,4.28-.01q6.49-.02,6.49-6.55,0-6.81-6.76-6.81c-.31,0-.61,0-.92,0-.69,0-1.37,0-2.06,0-1.13,0-2.27.05-3.41.05-.69,0-1.37-.02-2.05-.07-.38-.03-.73-.05-1.06-.05-2.91,0-4.09,1.25-3.88,5.01.45,8.09-.97,8.43,6,8.43m28.54-.02c.81,0,1.62,0,2.43,0,.94,0,1.89-.08,2.83-.08.56,0,1.11.03,1.65.11.64.1,1.21.15,1.72.15,3.3,0,4.17-2.08,4.01-5.95-.32-7.56-.07-7.58-7.64-7.59-1.99,0-3.98,0-5.97,0h-.27c-6.28,0-6.28.09-6.29,6.41q-.01,6.94,6.98,6.94c.19,0,.37,0,.56,0m17.42-153.13h0c-5.29,0-7.98,3.83-8.99,5.27-.08.11-.16.22-.24.33l-.34.46c-2.17,2.92-4.22,5.68-6.4,8.38-2.27,2.82-4.62,5.68-6.9,8.45-3.57,4.35-7.27,8.84-10.83,13.39-4.71,6.02-9.45,12.17-14.03,18.11-5.29,6.87-10.76,13.97-16.2,20.88-2.65,3.37-3.94,6.9-3.94,10.78v19.96c.01,21.45.02,43.64-.02,65.45,0,1.65-.01,6.05,3.29,9.36,3.3,3.3,7.6,3.3,9.02,3.3h.3c9.9-.14,18.73-.2,27-.2s16.5.07,24.21.21c.18,0,.36,0,.53,0,1.65,0,6.69,0,10.33-3.68,3.27-3.3,3.66-7.62,3.63-11.01-.16-19.12-.14-38.58-.12-57.4,0-6.66.02-13.31.02-19.97.01-8.49.02-16.99.01-25.48v-8.89c0-14.9-.02-30.3-.07-45.46,0-.07.01-.13.02-.2.76-7.59-4.12-10.4-6.26-11.25-1.32-.53-2.67-.8-4.01-.8h0Z"/>
      </g>
      <g>
        <path class="cls-1" d="m223.25,217.63c-2.55,0-4.46-.68-5.84-2.08-1.86-1.88-2.05-4.42-2.03-6.16.07-6.71.06-13.55.05-20.17,0-2.37,0-4.73,0-7.1-.04-.22-.06-.45-.06-.69,0-2.57,0-5.14.02-7.71.02-6.3.04-12.82-.07-19.21-.04-2.31.18-4.94,2.15-6.94,1.48-1.5,3.57-2.24,6.38-2.24h.16c8.2.08,16.68.12,25.93.12,8.56,0,17.88-.03,28.49-.1h.13c1.84,0,4.52.23,6.5,2.22,1.48,1.49,2.19,3.57,2.18,6.36-.09,17.67-.08,36.32.03,55.44,0,1.74-.19,4.28-2.07,6.16-1.38,1.39-3.29,2.07-5.84,2.07-9.18-.04-18.3-.06-27.41-.06-9.87,0-19.49.03-28.6.08h-.09Zm19.34-31c.32,0,1.02,0,1.64-.03.04-.82.04-1.95.04-2.92v-.37c0-.71,0-1.38-.03-2.02-2.27.03-4.53.04-6.78.04-2,0-3.99,0-5.99-.02-.65,3.35-.48,4.44-.39,4.74.28.15,1.32.53,4.74.53h1.69c.19,0,.38.01.56.04h1.95s2.55,0,2.55,0Zm18.75-.06c.56,0,1.17,0,1.83.01h1.44c2.7,0,5.49,0,6.7-.21.13-.94.13-2.83.13-4.53,0,0,0-.56,0-.65-.01,0-.02,0-.03,0-1.85.1-3.81.15-6,.15-2.33,0-4.65-.05-6.8-.11h-.12c0,.09,0,.19,0,.3.05,1.42.05,2.62.06,3.64,0,.47,0,.96.02,1.41.17,0,2.77,0,2.77,0Zm-2.57-20.63c.4.18,1.62.48,5.3.48h1.53c2.58,0,5.2,0,6.44-.2.07-1.07-.08-3.15-.22-5.2-1.1-.01-2.19-.02-3.29-.04-2.37-.03-4.74-.06-7.11-.06-.78,0-1.56,0-2.34.01-.5,3.32-.42,4.55-.29,5Zm-27.43-5.15c-.77,3.99-.34,4.85-.28,4.94.06.05.85.68,5.2.69h.13c1.06,0,2.11,0,3.17-.02,1.08,0,2.15-.02,3.23-.02.54,0,1.08,0,1.63,0,.21-2.04.42-4.27.35-5.38-1.24-.21-3.94-.21-5.49-.21h-.67c-.2,0-.4,0-.6,0h-4.42c-.75,0-1.49,0-2.24,0Z"/>
        <path class="cls-2" d="m223.83,149.35s.08,0,.13,0c8.65.08,17.31.12,25.96.12,9.51,0,19.02-.04,28.52-.1.03,0,.07,0,.1,0,3.32,0,4.7,1.07,4.69,4.56-.09,18.49-.07,36.99.03,55.48.02,2.92-.83,4.21-3.91,4.21-.02,0-.03,0-.05,0-9.13-.04-18.26-.06-27.39-.06s-19.06.03-28.59.08c-.02,0-.05,0-.07,0-3.14,0-3.9-1.35-3.87-4.19.1-9.33.04-18.66.04-27.99h-.06c0-9,.1-18-.05-26.99-.06-3.39.65-5.11,4.53-5.11m12.52,21.08c2.14,0,4.28-.03,6.42-.03.82,0,1.64,0,2.46.02.04,0,.09,0,.13,0,1.92,0,2.73-.73,2.95-2.86,1.07-10.36,1.01-10.74-9.07-10.74-.21,0-.43,0-.65,0h-.05c-.15,0-.3,0-.45,0-1.49,0-2.98,0-4.47,0-1,0-2.01,0-3.01-.01-.02,0-.04,0-.07,0-1.65,0-2.56.5-2.97,2.43-1.88,8.93-.21,11.2,8.67,11.2h.1m27.71,0h.05c.5,0,.99,0,1.49,0,10.97-.01,10.89,0,10.16-10.05-.17-2.33-1.03-3.32-3.24-3.34-3.71-.03-7.42-.11-11.13-.11-.92,0-1.85,0-2.77.02-1.68.02-3.04.42-3.41,2.7-1.48,9.24-.31,10.79,8.85,10.79m1.34,6.92c-2.23,0-4.46-.05-6.69-.11-.1,0-.21,0-.31,0-2.95,0-4.02,1.26-3.92,4.43.27,8.47-.78,8.92,4.64,8.92.64,0,1.38,0,2.22,0,.55,0,1.13,0,1.77.01.18,0,.37,0,.55,0,.32,0,.63,0,.95,0,10.98,0,10.83,0,10.83-9.09,0-3.05-.85-4.31-3.66-4.31-.19,0-.39,0-.59.02-1.92.1-3.86.14-5.79.14m-27.96-.02c-2.13,0-4.26,0-6.39-.02-.01,0-.02,0-.03,0-1.91,0-2.96.75-3.37,2.77-1.74,8.51-.26,10.51,8.19,10.51.07,0,.13,0,.2,0,.18,0,.36,0,.54,0,.32,0,.63,0,.95,0v.04c.83,0,1.67,0,2.5,0,.49,0,.98,0,1.47,0,.39,0,.75,0,1.1,0,5.62,0,5.67-.43,5.68-6.95,0-1.16.02-2.32-.09-3.47-.17-1.89-1.11-2.94-3.13-2.94-.03,0-.06,0-.09,0-2.51.04-5.01.05-7.52.05m-13.61-35.98c-3.89,0-6.99,1.15-9.23,3.43-3.4,3.46-3.32,8.08-3.29,9.81.11,6.35.09,12.85.07,19.14,0,2.57-.02,5.15-.02,7.72,0,.33.02.66.06.99,0,2.26,0,4.53,0,6.79.01,6.6.02,13.43-.05,20.12-.01,1.42-.06,5.73,3.19,9.01,2.14,2.17,5.06,3.26,8.68,3.26h.12c9.09-.06,18.69-.08,28.54-.08,8.74,0,17.69.02,27.36.06.01,0,.07,0,.09,0,3.61,0,6.53-1.09,8.68-3.25,3.26-3.28,3.24-7.59,3.23-9-.1-19.08-.11-37.72-.03-55.4.02-3.85-1.11-6.95-3.35-9.2-3.39-3.4-7.87-3.4-9.34-3.4h-.15c-10.58.07-19.89.1-28.47.1-9.23,0-17.7-.04-25.89-.11h-.2Zm38.65,39.81h0Zm-27,.52h0,0Z"/>
      </g>
      <g>
        <path class="cls-1" d="m26.58,217.14c-.56,0-1.15-.04-1.8-.13-1.02-.14-2.14-.21-3.53-.21-1.02,0-2.05.03-3.08.07-1.12.04-2.23.07-3.35.07-2.12,0-4.93-.11-7.87-.97-1.55-.45-2.65-1.78-2.85-3.33l-.05-.35c-.03-.2-.05-.4-.04-.6,0-4.02.02-8.03.04-12.05.04-10.62.08-21.59-.04-32.37-.02-2.2.2-4.99,2.2-7,2-2.02,4.74-2.25,6.63-2.25h.23c8.36.09,16.92.14,26.17.14,8.75,0,17.98-.04,28.23-.12h.19c2.07,0,4.69.25,6.63,2.23,1.98,2,2.17,4.73,2.14,6.6-.17,12.25-.18,25.39-.02,41.38.02,1.88-.18,4.62-2.14,6.6-1.4,1.41-3.29,2.1-5.79,2.1-.26,0-.54,0-.83-.02-4-.22-8.12-.26-12.1-.3-1.74-.02-3.47-.04-5.21-.07-.94-.02-1.85-.37-2.56-.99-.86-.75-1.41-1.88-1.42-3.02l-.21-26.84c-1.07-.23-2.27-.33-3.68-.33-1.29,0-2.6.08-4,.17-1.46.09-2.96.19-4.5.19-.14,0-.28,0-.41,0,0,.15,0,.3,0,.44-.09,8.11-.14,15.42.02,22.75.04,1.97-.14,4.46-1.96,6.32-1.25,1.27-2.94,1.92-5.04,1.92Z"/>
        <path class="cls-2" d="m12.83,162.01c.06,0,.12,0,.18,0,8.74.1,17.47.14,26.21.14,9.42,0,18.84-.05,28.26-.12.05,0,.1,0,.16,0,3.5,0,4.83,1,4.78,4.77-.2,13.82-.16,27.65-.02,41.48.03,3.2-.85,4.66-3.93,4.66-.19,0-.4,0-.61-.02-5.81-.31-11.63-.27-17.45-.37,0,0-.05-.04-.05-.04-.08-9.83-.15-19.66-.23-29.48h0s-.11-.26-.11-.26c-2.48-1.12-5.01-1.41-7.55-1.41-2.83,0-5.68.36-8.5.36-.66,0-1.33-.02-1.99-.07,0,0,0,0,0,0,0,0-.03,0-.03,0-3.22.18-2.37,2.67-2.38,4.47-.08,7.63-.15,15.26.02,22.88.06,2.79-.58,4.15-3,4.15-.37,0-.79-.03-1.25-.1-1.35-.19-2.71-.25-4.08-.25-2.14,0-4.28.14-6.43.14-2.26,0-4.52-.16-6.75-.81,0,0-.06-.43-.06-.43.02-14.82.16-29.65,0-44.47-.04-3.77.89-5.21,4.83-5.21m-4.76,50.11s0,0,0,0h0m4.76-58.11c-1.5,0-6.07,0-9.47,3.44C-.07,160.91-.02,165.56,0,167.31c.12,10.74.08,21.69.04,32.28-.01,4.03-.03,8.06-.04,12.09,0,.4.03.81.09,1.21l.04.24c.39,3.08,2.57,5.77,5.7,6.68,3.43,1,6.6,1.13,8.99,1.13,1.2,0,2.36-.04,3.48-.07,1.03-.03,2.01-.07,2.95-.07,1.2,0,2.15.05,2.98.17.84.12,1.61.17,2.36.17,4.01,0,6.51-1.7,7.9-3.12,3.23-3.3,3.13-7.75,3.1-9.21-.14-6.23-.12-12.47-.06-19.22.4-.02.8-.05,1.2-.07,1.22-.08,2.38-.15,3.45-.16l.18,23.05v.16c.02,2.39,1.08,4.53,2.76,5.98,1.42,1.25,3.26,1.97,5.15,2,1.75.03,3.5.05,5.25.07,4.12.04,8.01.08,11.92.29.36.02.71.03,1.04.03,3.57,0,6.47-1.11,8.63-3.29,3.36-3.39,3.31-7.95,3.3-9.45-.16-15.95-.15-29.07.02-41.28.02-1.49.09-6.04-3.29-9.46-3.37-3.42-7.97-3.42-9.48-3.42h-.22c-10.24.08-19.46.12-28.2.12-9.23,0-17.78-.04-26.12-.14h-.27Z"/>
      </g>
      <g>
        <path class="cls-1" d="m69.42,160.83c-.64,0-1.22-.06-1.73-.11-.29-.03-.57-.07-.83-.07-4.42.03-8.84.04-13.25.04h-13.22c-2.67,0-13.37.01-16.05.01-3.97,0-7.95,0-11.92-.04-4.76-.04-6.66-2.07-7.43-3.76-.74-1.64-1.02-4.3,1.87-7.61,4.54-5.22,8.67-11.01,12.66-16.61,4.67-6.54,9.49-13.31,15.13-19.43.64-.7,2.6-2.83,5.51-2.83,3.21,0,5.22,2.58,6.07,3.68,3.8,4.87,7.63,9.73,11.46,14.59,5.07,6.43,10.31,13.08,15.41,19.66.11.15.24.3.37.46,1.12,1.37,3.75,4.59,1.97,8.39-.63,1.36-2.26,3.64-6.02,3.64Z"/>
        <path class="cls-2" d="m40.17,114.41c1.02,0,1.91.84,2.92,2.14,8.92,11.44,17.98,22.77,26.86,34.24,1,1.29,2.7,2.95,1.88,4.71-.5,1.08-1.41,1.33-2.4,1.33-.85,0-1.76-.18-2.56-.18-.01,0-.02,0-.04,0-4.37.03-8.74.04-13.11.04-3.94,0-7.89,0-11.83,0-.5,0-1,0-1.5,0-5.37,0-10.75.02-16.12.02-3.94,0-7.88,0-11.81-.04-4.03-.03-5.13-1.81-2.57-4.75,9.96-11.45,17.43-24.78,27.72-35.96.99-1.08,1.81-1.54,2.56-1.54m0-8c-3.1,0-5.94,1.39-8.45,4.12-5.8,6.31-10.7,13.18-15.44,19.82-4.12,5.78-8.02,11.24-12.43,16.31-4.67,5.37-3.3,10.1-2.5,11.88,1.02,2.26,3.8,6.05,11.04,6.11,3.49.03,7.26.04,11.88.04,2.69,0,5.38,0,8.07,0,2.68,0,5.36,0,8.05,0h1.5s5.91,0,5.91,0h5.92c3.58,0,8.3,0,13.1-.03.15,0,.3.03.46.04.55.06,1.3.13,2.14.13,4.31,0,7.91-2.22,9.65-5.95,2.83-6.08-1.18-10.99-2.5-12.61-.11-.13-.21-.26-.3-.38-5.1-6.59-10.34-13.23-15.4-19.66-3.77-4.78-7.67-9.73-11.48-14.61-1.01-1.29-4.07-5.21-9.23-5.21h0Z"/>
      </g>
      <g>
        <path class="cls-1" d="m220.96,148.71c-1.75,0-3.29-1.13-3.81-2.8-.48-1.52-.96-3.03-1.44-4.55l-.14-.45c-.13-.41-.19-.83-.19-1.25l.07-6.56c0-.6.15-1.2.42-1.74.5-1,1-2.01,1.5-3.02.67-1.36,2.06-2.23,3.58-2.23h1.78c4.49,0,8.98,0,13.48.02,4.49,0,8.97.02,13.46.02,11.11,0,19.59-.05,27.49-.18h.36c2.23,0,5.43.28,7.6,2.72,2.15,2.42,2.04,5.6,1.78,7.78-.09.75-.06,1.64-.03,2.57.06,1.92.13,4.31-.81,6.76-.34.88-.96,1.57-1.72,2.01-.7.59-1.6.94-2.58.94,0,0-60.78-.03-60.78-.03Z"/>
        <path class="cls-2" d="m277.5,129.96c4.57,0,5.93,1.69,5.41,6.02-.34,2.78.45,5.64-.61,8.37-.07-.02-.13-.03-.18-.03-.21,0-.34.14-.38.43-20.26-.01-40.52-.02-60.77-.03-.53-1.67-1.06-3.34-1.59-5.02.02-2.19.04-4.38.07-6.56.5-1.01,1-2.02,1.5-3.03.6,0,1.2,0,1.8,0,8.96,0,17.93.03,26.89.03s18.38-.03,27.57-.18c.1,0,.2,0,.3,0m0-8c-.14,0-.28,0-.42,0-7.88.12-16.35.17-27.45.17-4.48,0-8.95,0-13.43-.02-4.49,0-8.97-.02-13.46-.02h-1.81c-3.04,0-5.82,1.73-7.17,4.46-.5,1.01-.99,2.01-1.49,3.01-.54,1.08-.82,2.27-.84,3.48l-.07,6.56c0,.85.12,1.7.38,2.51.53,1.66,1.06,3.32,1.58,4.98,1.05,3.33,4.14,5.6,7.63,5.6l59.41.03h1.36s0,0,0,0c1.83,0,3.53-.62,4.89-1.67,1.38-.89,2.5-2.21,3.14-3.85,1.24-3.21,1.15-6.17,1.08-8.33-.02-.78-.05-1.52,0-1.97.21-1.7.83-6.86-2.76-10.91-3.61-4.07-8.86-4.07-10.59-4.07h0Z"/>
      </g>
    </g>
  </g>
</svg>