<?xml version="1.0" encoding="UTF-8"?>
<svg id="Camada_2" data-name="Camada 2" xmlns="http://www.w3.org/2000/svg" viewBox="0 0 275.26 205.63">
  <defs>
    <style>
      .cls-1 {
        fill: #f59a2b;
      }
    </style>
  </defs>
  <g id="Camada_1-2" data-name="Camada 1">
    <g>
      <path class="cls-1" d="m132.12.01c3.58.62,2.47,3.48,2.48,5.57.06,38.16.05,76.31.05,114.47,0,26.66-.06,53.32.08,79.98.02,3.82-.91,5.28-4.99,5.23-17.49-.2-34.99-.16-52.49-.03-3.6.03-4.92-.95-4.92-4.79.1-64.98.1-129.97,0-194.95,0-4.12,1.26-5.49,5.44-5.46,17.66.16,35.32,0,52.98-.04.45,0,.91,0,1.36.01Zm-48.27,43.81l.09.2.22-.06c3.44.07,6.89.12,10.33.23,1.88.06,3.31-.34,3.2-2.63-.23-4.57.61-9.19-.57-13.71l-.09-.05c-4.67.37-9.51-1.43-14,1.12-2.21,1.9-1.63,3.81,0,5.71.18,3.07-1.04,6.27.82,9.19Zm25.73,60.78q0,8.72,5.71,8.7c9.09-.03,9.06-.03,9.06-9.54,0-7.17,1.56-6.89-6.85-6.89q-7.92,0-7.92,7.74Zm0-68.55c.14,8.33-1.37,8.09,5.77,8.13,8.99.04,9.03.02,8.97-9.45-.04-7.83.82-7.02-6.29-7.05q-8.45-.03-8.45,8.37Zm14.75,103.74c0-.67-.1-1.35.02-1.99.84-4.93-.9-6.65-6.13-6.35-8.62.49-8.7.13-8.62,9.27.07,7.42-1.56,7.28,6.56,7.3q8.19.03,8.17-8.23Zm-.04,34.88c-.06-9.53.9-8.25-8.14-8.36-1.33-.02-2.68-.09-3.99.07-4.5.54-2.65,4.25-2.39,6.23.44,3.29-2.9,8.08,2.39,9.7,2.89.89,6.28.17,9.44.17,1.88,0,2.68-1.04,2.69-2.82,0-1.66,0-3.33,0-4.99Zm-41.03-103.94c0,2-.05,3.99.02,5.99.04,1.45.6,2.3,2.31,2.62,10,1.87,12.15.21,12.12-9.73,0-.33-.05-.67,0-1,.94-5.19-1.4-6.42-6.31-6.16-8.25.43-8.26.12-8.14,8.28Zm14.44,69.06q-.05-8.19-8.04-8.22c-1.32,0-2.65,0-3.97.02-1.07.01-2.13.34-2.23,1.49-.41,4.77-1.57,9.98.36,14.16,1.28,2.78,6.06.62,9.24,1.09.32.05.66,0,.99,0,2.44.05,3.69-1.1,3.65-3.58-.02-1.65,0-3.31,0-4.96Zm26.64-69.41c-.11-8.84.91-7.93-7.97-8.01-.33,0-.67.04-.99,0-4.39-.6-6.15.94-5.9,5.7.63,12.12-2.36,10.26,10.99,10.52,2.74.05,4.03-.94,3.88-3.74-.08-1.48-.01-2.98,0-4.47Zm-41.18,102.83c0,2.78.15,4.29-.03,5.76-.48,4.06,1.66,4.83,5.04,4.28,9.53-1.57,9.17-1.58,9.66-10.94.28-5.38-1.75-6.36-6.5-6.09-8.83.5-8.03-1.67-8.18,6.99Zm14.52-67.6q.05-8.49-8.32-8.51c-.17,0-.34.03-.5,0-4.71-.89-5.97,1.26-5.79,5.72.5,12.26-2.05,10.2,10.99,10.52,2.91.07,3.87-1.06,3.63-3.76-.11-1.31-.02-2.64-.02-3.97Z"/>
      <path class="cls-1" d="m204.69,121.53c0,25.81-.12,51.63.1,77.44.04,4.91-1.11,6.71-6.35,6.61-17.15-.31-34.31-.24-51.46-.01-3.78.05-4.5-1.4-4.5-4.64.06-28.48.03-56.95.02-85.43,0-2.23.78-3.99,2.23-5.83,10.18-12.93,20.1-26.05,30.25-39.01,5.76-7.35,11.8-14.48,17.66-21.75,2.39-2.96,4.65-6.03,6.93-9.08.98-1.32,1.77-2.98,3.85-2.15,1.91.76,1.2,2.57,1.21,3.92.07,18.15.07,36.3.07,54.46,0,8.49,0,16.99-.01,25.48Zm-7.69,19.78c.27-.04.37-.2.29-.46.07-3.13.12-6.27.2-9.4.05-2.03-.8-3.02-2.94-2.99-4.79.07-9.58,0-14.37.02-1.18,0-2.51.17-2.59,1.68-.19,3.61-1.22,7.63.44,10.73,1.41,2.62,5.16.84,7.85,1.14h.17c2.59,0,5.18,0,7.77,0,.71.18,1.43.43,2.07-.18.37-.18.73-.36,1.1-.53Zm-26.95-.2c.09-1.32.26-2.63.26-3.95-.05-9.54,1.23-8.69-8.8-8.71q-11.37-.01-10.81,11.5c.14.36.27.73.41,1.09,1.05.31,2.09.61,3.14.92,5.28-.15,10.65,1.44,15.81-.86Zm8.84-32.97c-4.43,3.06-2.27,7.62-1.96,11.32.26,3.11,4,1.84,6.31,2.09.98.11,1.98.02,2.97.02,12.78,0,12.99-.26,10.75-13.4l-.17-.09c-1.07-.02-2.14-.04-3.2-.06-3.85-.44-7.7-.4-11.55-.02-.98.03-1.95.07-2.93.1l-.22.06Zm-8.26-.07h-.02c0-3.5.02-6.99-.01-10.49,0-.98.05-2.12-1.03-2.61-1.17-.52-1.87.47-2.46,1.2-5.25,6.44-10.62,12.8-15.6,19.45-2.43,3.24-.98,5.78,2.98,5.91,3.99.14,7.99-.05,11.98.09,2.97.11,4.31-1.04,4.19-4.07-.12-3.16-.03-6.33-.03-9.49Zm16.47-6.76v-.05c2.49,0,4.98-.06,7.46.02,1.79.05,2.62-.57,2.95-2.46,1.66-9.58.38-11.2-9.19-11.19-1.82,0-3.68.22-5.47-.04-4.49-.66-5.62,1.28-5.49,5.55.3,10.08-.49,7.91,8.25,8.17.5.02.99,0,1.49,0Zm.35,61.05q10.81.02,10.01-10.3c-.01-.16-.02-.33,0-.5.18-2.22-1.03-2.86-3.02-2.84-4.63.04-9.27.05-13.91-.06-2.44-.06-2.97,1.15-3.12,3.34-.71,10.33-.77,10.33,9.56,10.35.17,0,.33,0,.5,0Zm-27-.01c1.82,0,3.67-.17,5.47.04,3.51.4,4.52-1.02,4.49-4.49-.09-9.23.07-9.23-9.15-9.23-.99,0-1.99,0-2.98,0-9.23.05-7.32-.44-7.81,7.67-.29,4.76,1.16,6.79,6.01,6.05,1.3-.2,2.65-.03,3.97-.04Zm26.93,20.23c1.49,0,3.02-.2,4.47.04,4.73.76,5.92-1.32,5.73-5.79-.32-7.56-.07-7.58-7.64-7.59-1.99,0-3.98,0-5.97,0q-6.56,0-6.57,6.41-.01,6.94,6.98,6.94c1,0,1.99,0,2.99,0Zm-26.56-13.35c-1.82,0-3.65.12-5.46-.03-3.69-.3-5.18.77-4.94,4.97.5,9-1.31,8.41,8.69,8.43,1.66,0,3.31,0,4.97-.01q6.49-.02,6.49-6.55,0-6.81-6.76-6.81c-.99,0-1.99,0-2.98,0Zm36.64-99.13c0-2.15.12-4.31-.04-6.45-.1-1.32.89-3.27-1.15-3.79-1.47-.38-2.21,1.13-3.03,2.16-3.71,4.66-7.5,9.25-11.11,13.98-.84,1.1-3.05,1.64-2.36,3.4.75,1.92,2.84,1.05,4.39,1.23.82.09,1.65.04,2.48.05q10.82.12,10.83-10.57Z"/>
      <path class="cls-1" d="m211.36,173.45c0-9,.1-18-.05-26.99-.06-3.43.67-5.15,4.65-5.11,18.16.17,36.32.13,54.49.01,3.39-.02,4.81,1.04,4.79,4.56-.09,18.49-.07,36.99.03,55.48.02,2.94-.84,4.22-3.95,4.21-18.66-.08-37.32-.09-55.99.02-3.19.02-3.97-1.33-3.94-4.19.1-9.33.04-18.66.04-27.99h-.06Zm18.74-24.65c-2.49,0-4.99.01-7.48,0-1.69-.01-2.62.48-3.04,2.43-1.88,8.93-.21,11.2,8.67,11.21,2.99,0,5.99-.06,8.98-.01,2.01.03,2.85-.68,3.08-2.86,1.1-10.58,1-10.75-9.72-10.74-.17,0-.33,0-.5,0Zm26.51,33.79c10.98,0,10.83,0,10.83-9.09,0-3.26-.96-4.47-4.25-4.29-4.15.22-8.32.14-12.47.03-3.18-.09-4.33,1.14-4.23,4.42.32,10.13-1.25,8.79,8.62,8.93.5,0,1,0,1.5,0Zm1-20.16c10.97-.01,10.89,0,10.16-10.05-.17-2.33-1.03-3.32-3.24-3.34-4.63-.04-9.27-.15-13.9-.09-1.68.02-3.05.42-3.41,2.7-1.48,9.26-.3,10.79,8.9,10.79.5,0,.99,0,1.49,0Zm-28.08,20.16v.04c1.32,0,2.65,0,3.97,0,6.71.03,6.77-.03,6.77-6.94,0-1.16.02-2.32-.09-3.47-.18-1.92-1.13-2.97-3.22-2.93-4.64.07-9.27.05-13.91.03-1.93,0-2.99.74-3.4,2.77-1.76,8.58-.23,10.54,8.39,10.51.5,0,.99,0,1.49,0Z"/>
      <path class="cls-1" d="m42.02,174.76c-5.88-2.65-12.04-.67-18.05-1.12,0,0-.03,0-.03,0-3.22.18-2.37,2.67-2.38,4.47-.08,7.63-.15,15.26.02,22.88.07,3.23-.79,4.53-4.25,4.05-5.71-.8-11.57.74-17.26-.91,0,0-.06-.43-.06-.43.02-14.82.16-29.65,0-44.47-.04-3.82.92-5.26,5.01-5.21,18.16.2,36.32.16,54.47.01,3.61-.03,4.99.94,4.93,4.77-.2,13.82-.16,27.65-.02,41.48.03,3.41-.96,4.84-4.54,4.64-5.81-.31-11.63-.27-17.45-.37,0,0-.05-.04-.05-.04-.08-9.83-.15-19.66-.23-29.48,0,0-.11-.26-.11-.26Z"/>
      <path class="cls-1" d="m32.39,148.68c-9.31,0-18.62.05-27.93-.02-4.03-.03-5.13-1.81-2.57-4.75,9.96-11.45,17.43-24.78,27.72-35.96,2.33-2.53,3.73-1.65,5.49.6,8.92,11.44,17.98,22.77,26.86,34.24,1,1.29,2.7,2.95,1.88,4.71-.94,2.02-3.26,1.14-4.99,1.15-8.81.06-17.62.03-26.44.03Z"/>
      <path class="cls-1" d="m212.93,122.11c18.76,0,37.52.14,56.27-.14,4.81-.07,6.24,1.6,5.7,6.01-.34,2.78.45,5.64-.61,8.37-.32-.1-.51.04-.56.4-20.26-.01-40.52-.02-60.77-.03-.53-1.67-1.06-3.34-1.59-5.02.02-2.19.04-4.38.07-6.56.5-1.01,1-2.02,1.5-3.03Z"/>
    </g>
  </g>
</svg>