<?xml version="1.0" encoding="UTF-8"?>
<svg id="Camada_2" data-name="Camada 2" xmlns="http://www.w3.org/2000/svg" viewBox="0 0 289.23 155.58">
  <defs>
    <style>
      .cls-1 {
        fill: #bb892d;
      }

      .cls-2 {
        fill: #1d1d1b;
      }
    </style>
  </defs>
  <g id="Camada_1-2" data-name="Camada 1">
    <g>
      <path class="cls-1" d="m217.79,151.58c-18.71,0-36.19-6.86-53.43-20.97-15.22-12.45-24.7-28.81-31.27-41.67-7.36-14.41-15.56-29.49-27.81-41.42-9.17-8.93-19.67-13.45-31.21-13.45-1.82,0-3.69.11-5.56.34-14.46,1.74-24.76,8.57-30.62,20.28-2.12,4.24-2.87,9.41-3.52,13.99l-.16,2.15c-.31,4.83-.64,9.87-.03,14.7,0,.07.02.15.02.22l.15,2.08c1.55,10.48,6.53,18.69,15.22,25.12.25.18.47.39.67.63.55.65.83.68.95.7.07,0,.14.02.21.03,1.19.22,1.96.79,2.44,1.35.1.03.2.07.29.11l1.61.67c.17.07.34.16.5.25,3.12,1.85,6.12,2.76,9.18,2.8.27,0,.54.03.8.09l1.91.42c.07.02.14.03.21.05,1.77.49,3.57.73,5.51.73,2.57,0,5.38-.43,8.59-1.33.45-.12.84-.21,1.23-.3.66-.15,1.28-.29,1.78-.48,1.39-.5,2.88-1.05,4.02-1.51-.75-.83-1.71-1.8-2.55-2.67-1.1-1.13-3.68-3.77-2.85-7.13.83-3.37,4.35-4.52,6.04-5.08,8.33-2.73,16.88-5.02,25.15-7.23,3.75-1.01,7.51-2.01,11.25-3.06,1.62-.45,2.82-.66,3.9-.66,2.39,0,3.81,1.05,4.58,1.94,1.76,2.03,1.67,4.78,1.3,7.45-.62,4.47-1.34,8.98-2.04,13.34-.38,2.39-.77,4.77-1.14,7.16-.29,1.92-.57,3.84-.84,5.76-.54,3.78-1.09,7.68-1.82,11.53-1.21,6.41-5.04,7.1-6.64,7.1-2.16,0-4.19-1.15-6.02-3.42-2.38-2.95-3.77-2.95-4.37-2.95-1.71,0-4.14,1.25-6.28,2.47-10.06,5.74-21.68,8.77-33.61,8.77-16.26,0-32.19-5.57-44.84-15.68-14.91-11.91-23.16-28.09-24.53-48.11l-.16-3.5c0-.07,0-.14,0-.21l.09-11.48c0-.06,0-.11,0-.17l.08-1.55c.72-13.45,3.4-25.36,14.12-39.81C29.6,14.74,46.26,6.14,67.83,4.43c2.18-.17,4.37-.26,6.5-.26,22.64,0,42.51,9.86,59.05,29.31,12.73,14.96,21.72,32.37,29.65,47.72,10.87,21.02,25.92,34.01,46.01,39.71,2.73.77,5.69,1.17,8.79,1.17,12.41,0,27.48-6.62,33.2-21.41,6.41-16.58,5.97-32.46-1.3-47.19-4.41-8.95-11.53-14.47-21.14-16.42-1.71-.35-3.24-.89-4.72-1.42-1.69-.6-3.28-1.17-4.83-1.3-1.45-.12-2.89-.19-4.29-.19-14.6,0-27.12,6.64-39.4,20.91-1.21,1.41-2.35,2.87-3.55,4.43-.86,1.1-1.72,2.21-2.6,3.29-2.07,2.53-4.26,3.06-5.74,3.06-1.4,0-4.03-.5-6.03-3.82-1.97-3.27-3.83-6.64-5.63-9.9-.83-1.5-1.65-2.99-2.49-4.48-2-3.54-1.34-7.22,1.95-10.91,10.15-11.41,24.4-25.15,44.65-30.23,6.67-1.67,13.28-2.52,19.64-2.52,16.55,0,31.98,5.68,45.85,16.87,12.99,10.49,20.39,24.73,21.99,42.34l.97,2.89c.1.3.16.61.19.92.58,6.62,1.24,14.11.01,21.64-.02.13-.05.26-.08.38l-1.05,3.96c-.89,26.56-23.78,52.17-51.25,57.23-4.83.89-9.67,1.34-14.37,1.34Z"/>
      <path class="cls-2" d="m215.52,8c15.66,0,30.16,5.35,43.34,15.98,12.6,10.17,19.19,23.88,20.56,40.05.37,1.12.75,2.23,1.12,3.34.6,6.88,1.17,13.76.05,20.65-.39,1.47-.78,2.94-1.17,4.41-.56,23.88-20.92,48.89-47.99,53.87-4.67.86-9.22,1.27-13.64,1.27-18.93,0-35.63-7.57-50.9-20.06-13.4-10.97-22.48-25.2-30.24-40.39-7.82-15.31-16.11-30.31-28.59-42.46-9.66-9.41-21.1-14.59-34-14.59-1.98,0-3.99.12-6.04.37-14.69,1.77-26.81,8.66-33.72,22.46-2.36,4.72-3.18,10.09-3.93,15.35-.06.76-.11,1.53-.17,2.29-.34,5.16-.66,10.33,0,15.5.05.74.1,1.49.16,2.23,1.69,11.66,7.37,20.92,16.82,27.9.93,1.09,2.03,1.89,3.49,2.08,0,0,.12.02.12.02.39.7.93,1.19,1.79,1.19.54.22,1.07.45,1.61.67,3.45,2.04,7.13,3.31,11.18,3.36.64.14,1.27.28,1.91.42,2.2.61,4.39.87,6.57.87,3.24,0,6.46-.58,9.66-1.47,1.1-.28,2.24-.48,3.3-.87,9.82-3.57,9.89-3.64,2.97-10.73-2.98-3.05-2.36-4.32,1.57-5.61,11.94-3.91,24.15-6.86,36.23-10.24,1.17-.33,2.1-.51,2.82-.51,2,0,2.4,1.39,1.92,4.84-.94,6.83-2.12,13.62-3.17,20.44-.88,5.72-1.56,11.48-2.63,17.16-.47,2.49-1.44,3.84-2.71,3.84-.86,0-1.85-.62-2.91-1.94-2.57-3.18-4.95-4.44-7.48-4.44-2.49,0-5.14,1.22-8.26,3-9.75,5.56-20.67,8.25-31.62,8.25-15.07,0-30.19-5.09-42.34-14.8-14.54-11.62-21.78-26.9-23.04-45.26-.05-1.14-.1-2.28-.16-3.41.03-3.83.06-7.65.09-11.48.03-.52.05-1.03.08-1.55.66-12.32,2.83-23.46,13.34-37.63,11.56-15.58,27.95-22.47,46.64-23.95,2.09-.17,4.15-.25,6.18-.25,22.68,0,41.03,10.3,56.01,27.91,12.07,14.2,20.66,30.54,29.15,46.97,10.54,20.4,26.07,35.37,48.48,41.73,3.09.88,6.44,1.32,9.88,1.32,14.47,0,30.68-7.8,36.93-23.96,6.49-16.79,6.67-33.95-1.44-50.4-4.87-9.86-12.85-16.33-23.94-18.57-3.38-.68-6.43-2.47-10-2.78-1.58-.14-3.12-.2-4.63-.2-17.66,0-31.03,9.05-42.43,22.3-2.17,2.52-4.12,5.22-6.22,7.8-.87,1.07-1.78,1.59-2.64,1.59-.96,0-1.86-.64-2.6-1.88-2.82-4.68-5.39-9.52-8.07-14.28-1.43-2.54-.06-4.6,1.45-6.29,11.77-13.23,24.89-24.56,42.63-29.01,6.39-1.6,12.61-2.4,18.66-2.4m0-8c-6.69,0-13.62.89-20.61,2.64-21.31,5.35-36.13,19.62-46.66,31.45-2.25,2.52-3.38,4.93-3.83,7.11-2.5-3.52-5.16-6.97-8-10.32C119.08,10.51,98.19.17,74.32.17c-2.23,0-4.53.09-6.81.27C44.74,2.25,27.1,11.39,15.08,27.61,3.76,42.86.94,55.42.18,69.58l-.08,1.58c0,.11,0,.22,0,.34l-.08,9.91v1.57c-.01.14-.01.28,0,.43l.02.39.14,3.03c0,.06,0,.12.01.18,1.45,21.18,10.21,38.33,26.02,50.96,13.36,10.67,30.17,16.55,47.34,16.55,12.62,0,24.92-3.22,35.59-9.3,2.58-1.47,3.69-1.84,4.13-1.93.22.15.7.54,1.42,1.44,3.28,4.06,6.78,4.91,9.13,4.91,4.16,0,9.12-2.72,10.57-10.36.74-3.94,1.3-7.88,1.84-11.7.27-1.89.54-3.84.84-5.73.37-2.38.75-4.77,1.13-7.15.36-2.24.73-4.51,1.08-6.8,5.78,8.93,13.08,18.07,22.54,25.81,17.98,14.72,36.29,21.87,55.97,21.87,4.94,0,10.02-.47,15.09-1.41,14.62-2.69,28.31-10.67,38.54-22.48,9.76-11.26,15.41-24.75,15.97-38.09l.06-.21.88-3.32c.07-.25.12-.51.16-.77,1.3-8.02.62-15.78.02-22.63-.05-.63-.18-1.25-.38-1.85l-.3-.88-.53-1.57c-1.79-18.51-9.67-33.52-23.42-44.62C249.29,5.97,233.02,0,215.52,0h0ZM38.34,69.11c.6-4.24,1.31-9,3.12-12.63,5.22-10.44,14.48-16.52,27.52-18.1,1.71-.21,3.42-.31,5.08-.31,10.46,0,20.02,4.15,28.42,12.32,10.93,10.64,18.62,24.06,25.41,37.19-.75.13-1.56.32-2.47.57-3.72,1.04-7.53,2.06-11.22,3.05-8.31,2.23-16.91,4.53-25.34,7.29-2,.65-7.32,2.39-8.68,7.92-.94,3.83.67,6.94,2.18,8.93-.28.07-.56.13-.84.21-.05.01-.1.03-.14.04-2.86.79-5.32,1.18-7.52,1.18-1.57,0-3.03-.19-4.45-.58-.14-.04-.28-.07-.42-.1l-1.91-.42c-.53-.12-1.07-.18-1.61-.18-2.34-.03-4.7-.76-7.19-2.24-.32-.19-.65-.36-1-.5l-1.21-.5c-.91-.8-1.98-1.37-3.2-1.7-.29-.3-.61-.57-.94-.82-7.75-5.73-12.2-13.04-13.62-22.34l-.13-1.92c-.01-.15-.02-.3-.04-.44-.56-4.45-.25-9.27.05-13.94l.15-1.98h0Zm125.11.75c1.92,0,5.62-.59,8.84-4.53.93-1.13,1.81-2.27,2.66-3.37,1.17-1.51,2.28-2.94,3.43-4.27,11.46-13.32,23.01-19.52,36.37-19.52,1.29,0,2.62.06,3.95.17,1.03.09,2.33.55,3.83,1.08,1.54.55,3.28,1.16,5.26,1.57,8.45,1.71,14.46,6.38,18.35,14.27,6.75,13.69,7.14,28.49,1.16,43.98-5.03,13.02-18.43,18.85-29.47,18.85-2.73,0-5.32-.34-7.7-1.01-18.98-5.38-33.22-17.71-43.55-37.7-1.63-3.16-3.31-6.4-5.05-9.69.63.12,1.27.18,1.92.18h0Z"/>
    </g>
  </g>
</svg>