<?xml version="1.0" encoding="UTF-8"?>
<svg id="Camada_2" data-name="Camada 2" xmlns="http://www.w3.org/2000/svg" viewBox="0 0 273.23 139.58">
  <defs>
    <style>
      .cls-1 {
        fill: #bb892d;
      }
    </style>
  </defs>
  <g id="Camada_1-2" data-name="Camada 1">
    <path class="cls-1" d="m42.68,110.26s.12.02.12.02c.39.7.93,1.19,1.79,1.19.54.22,1.07.45,1.61.67,3.45,2.04,7.13,3.31,11.18,3.36.64.14,1.27.28,1.91.42,5.48,1.51,10.87.89,16.24-.6,1.1-.28,2.24-.48,3.3-.87,9.82-3.57,9.89-3.64,2.97-10.73-2.98-3.05-2.36-4.32,1.57-5.61,11.94-3.91,24.15-6.86,36.23-10.24,4.43-1.24,5.39-.37,4.74,4.33-.94,6.83-2.12,13.62-3.17,20.44-.88,5.72-1.56,11.48-2.63,17.16-.79,4.19-3,5.15-5.62,1.91-5.1-6.32-9.44-5.03-15.74-1.44-23.16,13.21-52.98,10.21-73.97-6.55C8.65,112.09,1.41,96.8.16,78.44c-.05-1.14-.1-2.28-.16-3.41.03-3.83.06-7.65.09-11.48.03-.52.05-1.03.08-1.55.66-12.32,2.83-23.46,13.34-37.63C25.06,8.79,41.45,1.9,60.14.42c25.55-2.03,45.87,8.48,62.18,27.66,12.07,14.2,20.66,30.54,29.15,46.97,10.54,20.4,26.07,35.37,48.48,41.73,16.07,4.56,39.08-2.64,46.81-22.65,6.49-16.79,6.67-33.95-1.44-50.4-4.87-9.86-12.85-16.33-23.94-18.57-3.38-.68-6.43-2.47-10-2.78-19.99-1.72-34.69,7.71-47.07,22.1-2.17,2.52-4.12,5.22-6.22,7.8-1.84,2.26-3.83,2.07-5.25-.29-2.82-4.68-5.39-9.52-8.07-14.28-1.43-2.54-.06-4.6,1.45-6.29,11.77-13.23,24.88-24.56,42.63-29.01,22.91-5.75,43.73-1.16,62,13.58,12.6,10.17,19.19,23.88,20.56,40.05.37,1.12.75,2.23,1.12,3.34.6,6.88,1.17,13.76.05,20.65-.39,1.47-.78,2.94-1.17,4.41-.56,23.88-20.92,48.89-47.99,53.87-24.68,4.54-45.71-3.37-64.54-18.79-13.4-10.97-22.48-25.2-30.24-40.39-7.82-15.31-16.11-30.31-28.59-42.46-11.14-10.85-24.64-16.08-40.04-14.22-14.69,1.77-26.81,8.66-33.72,22.46-2.36,4.72-3.18,10.09-3.93,15.35-.06.76-.11,1.53-.17,2.29-.34,5.16-.66,10.33,0,15.5.05.75.1,1.49.16,2.23,1.69,11.66,7.37,20.92,16.82,27.9.93,1.09,2.03,1.89,3.49,2.08Z"/>
  </g>
</svg>