<?xml version="1.0" encoding="UTF-8"?>
<svg id="Camada_2" data-name="Camada 2" xmlns="http://www.w3.org/2000/svg" viewBox="0 0 296.82 151.56">
  <defs>
    <style>
      .cls-1 {
        fill: #3e7e44;
      }
    </style>
  </defs>
  <g id="Camada_1-2" data-name="Camada 1">
    <g>
      <path class="cls-1" d="m148.66,0c5.84.42,13.2,1.03,20.4,1.15,8.79.14,16.93,2.92,25.47,3.74,4.77.46,9.32,3.09,14.01,4.61,17.12,5.55,32.68,14.1,47.38,24.37,15.12,10.56,28.11,23.3,39.18,38.06,2.28,3.05,2.32,5.37-.04,8.36-4.27,5.42-8.97,10.45-13.53,15.6-11.68,13.2-26.11,22.95-40.84,32.05-8.76,5.42-18.58,9.31-28.37,12.96-30.09,11.22-60.96,12.48-92.52,8.85-12.13-1.4-23.31-5.32-34.7-9.08-21.7-7.16-40.07-19.8-57.46-34.15-9.99-8.25-18.18-18.17-26.39-28.09-1.8-2.18-1.57-3.65.2-5.86,9.34-11.68,19.76-22.42,31.14-31.94,9.54-7.98,20.41-14.37,31.41-20.44,7.97-4.4,16.36-7.9,24.77-10.95,9.79-3.55,20.24-5.34,30.63-6.93,9.23-1.41,18.49-2.21,29.26-2.3Zm-19.14,73.51c.45-.38.89-.76,1.34-1.14,1.61,1.84,3.14,3.75,4.83,5.52,3.27,3.42,6.75,3.87,9.49.94,2.97-3.17,1.3-5.97-1.17-8.62-2.13-2.28-5-4.01-5.92-7.34,3.64,2.29,9.02,2.83,10.45,6.98,1.7,4.95,5.03,6.63,9.29,7.89,2.27.67,4.47,1.47,5.67,3.7-1.24,1.47-4.05.18-3.86,2.79.09,1.22,1.46,2.37,2.36,2.19,1.39-.28,3.82.26,3.74-2.43-.03-.86.29-1.18,1.08-1.25,4.29-.41,4.68-3.61,4.76-6.88.04-1.64.15-3.04,2.04-3.44,1.93-.41,3.24.46,3.96,2.21.62,1.53,1.24,3.07,1.66,4.66,1.48,5.69,5.33,9.33,10.26,12.04.67.37,1.81.67,2.34.35,1.03-.62.57-1.65.08-2.61-.53-1.02-.84-2.15-1.26-3.23-2.19-5.69-.81-8.1,4.94-10.5,3.05-1.27,7.95-2.55,3.26-7.6-.62-.67-.68-2.05.2-2.73.88-.69,1.91-.2,2.68.53,1.76,1.66,3.61,3.2,5.95,1.09,2.18-1.97,2.48-4.51,1.67-7.27-3.69-12.67-10.49-23.32-20.75-31.64-8.68-7.05-18.6-10.78-29.68-12.97-15.63-3.09-29.2.91-42.38,8.45,3.51.33,7.06.6,10.35-.19,7.64-1.84,7.48,5.23,10.51,8.65.87.98,1.82,1.88,2.61,2.91.14.18-.21,1-.54,1.23-3.19,2.17-6.19,4.8-10.5,5.12.21-2.28,2.06-2.34,3.15-3.19.87-.68,2.44-.94,2.09-2.41-.38-1.57-1.98-1.09-2.96-.94-6.8,1-13.58,2.08-20.34,3.31-1.01.18-1.91,1.24-2.75,2.02-1.32,1.24-1.28,2.49,0,3.87,3.17,3.44,9.51,3.84,12.98.62,1.48-1.37,2.73-2.98,5.04-1.39q-5.43,5.63-12.72,5.47c-4.46-.09-10.34-1.01-12.15,3.36-2.23,5.38-5.65,4.48-9.58,4.82-2.04.18-4.53,1.82-2.72,4.36,2.26,3.16.86,5.27-1.1,7.43-1.04,1.15-1.71,2.22-1.8,3.88-.52,8.96,1.47,17.46,4.21,25.89,1.04,3.2,2.91,3.5,5.56,2.46,2.64-1.04,5.06-3.57,8.11-.6,2.03,1.98,2.6,5.48,6.11,5.93-.82,4.24,2.8,7.06,3.45,11.09.98,6.12,1.44,9.76,9.09,4.98,7.82-4.89,9.99-13.45,11.38-21.9.51-3.11,1.11-5.65,3.46-7.9,3.77-3.61,3.46-5.11-.79-8.1-3.7-2.6-6.87-5.61-7.15-10.44Zm46.68,37.35c.89,2.31,1.71,5.58,3.37,8.35,1.25,2.08,3.37-.68,4.91-.24,1.62.47,3.4.22,4.78.9,2.25,1.12,3.88.3,5.31-1.09,5.91-5.77,10.25-12.57,12.51-20.54.52-1.84-.28-3.85-1.62-5.37-1-1.13-2.12-.6-3.13.05-4.79,3.1-10.25,4.2-15.68,5.47-6,1.4-10.5,6.5-10.44,12.46Zm9.45,14.52c-5.59-.39-10.42-.98-14.48,2.98-1.56,1.53-3.34,2.82-5.77,1.88-3.35-1.3-6.9-1.86-10.31-3.09-5.99-2.15-12.42-1.41-18.59-.09-2.68.58-4.48,2.72-5.63,5.27-.82,1.83-.46,3.36,1.42,4.08,2.29.89,4.66,1.9,7.06,2.13,13.73,1.34,26.94-.51,39.27-7.1,2.49-1.33,4.94-2.71,7.03-6.08Zm25.87-47.5c-.4-2.63-.64-4.75-1.07-6.82-.39-1.9-2.01-2.77-3.64-2.64-2.6.21-.13,1.98-.63,2.99-.64,1.29-1.08,2.7-1.5,4.09-1.35,4.37-.05,8.08,3.08,11.2,1.08,1.08,2.65,1.49,2.71-.63.08-2.97.13-5.9,1.06-8.19Zm-118.4-25.28c1.47-.53,3.07-1.19,4.37-2.58,1.46-1.55,3.2-2.84,4.77-4.29.86-.8,2.92-1.24,1.76-2.87-.78-1.08-2.28-1.78-3.96-1.46-3.02.58-8.67,6.83-8.74,9.81-.03,1.09.64,1.38,1.81,1.4Zm41.96,51.21c.28,1.26-.77,3.04,1,3.46,1.75.42,1.91-1.63,2.32-2.6,1.22-2.84,2.1-5.84,2.95-8.82.3-1.04.61-2.54-.62-3.11-1.49-.69-2.45.69-3.19,1.7-2.02,2.8-1.67,6.28-2.46,9.36Zm-33.38-64.68c2.96-.62,5.79-1.79,6.57-5.28.41-1.85-.8-2.68-2.64-2.47-3.55.4-5.38,2.82-6.33,5.89-.46,1.48.99,1.79,2.4,1.87Z"/>
      <path class="cls-1" d="m92.57,63c4.65-1.62,8.63-2.95,12.3-5.12,2.43-1.44,3.49.71,4.22,2.7.59,1.61.31,4.43,3.12.96.78-.96,5.36.93,8.08,1.86.92.31.77,1.84.17,2.69-1.69,2.4-4.13,3.37-6.95,2.75-6.84-1.49-13.21-4.67-20.93-5.84Z"/>
    </g>
  </g>
</svg>