<?xml version="1.0" encoding="UTF-8"?>
<svg id="Camada_2" data-name="Camada 2" xmlns="http://www.w3.org/2000/svg" viewBox="0 0 312.83 167.56">
  <defs>
    <style>
      .cls-1 {
        fill: #3e7e44;
      }

      .cls-2 {
        fill: #1d1d1b;
      }
    </style>
  </defs>
  <g id="Camada_1-2" data-name="Camada 1">
    <g>
      <g>
        <path class="cls-1" d="m157.75,163.56c-9.68,0-19.63-.6-30.41-1.84-11.6-1.33-22.41-4.92-32.85-8.38l-2.65-.88c-24.38-8.05-44.21-22.86-58.75-34.86-10.24-8.45-18.66-18.63-26.8-28.47l-.12-.15c-4.36-5.26-.96-9.51.16-10.91,9.62-12.03,20.28-22.97,31.7-32.52,9.89-8.27,21.25-14.92,32.04-20.87,7.31-4.03,15.36-7.59,25.34-11.21,10.27-3.72,21.14-5.56,31.39-7.12,9.92-1.51,19.39-2.26,29.83-2.34h.03c.1,0,.19,0,.29.01l2.56.19c5.41.4,11.54.85,17.62.95,5.41.09,10.51,1.09,15.44,2.06,3.56.7,6.92,1.36,10.35,1.69,3.73.36,7.12,1.74,10.39,3.08,1.55.63,3.02,1.24,4.47,1.71,16.07,5.21,31.91,13.35,48.43,24.89,15.18,10.6,28.66,23.7,40.09,38.94,3.39,4.52,3.36,8.85-.1,13.23-3.31,4.2-6.88,8.19-10.34,12.04-1.11,1.24-2.23,2.49-3.34,3.74-11.35,12.83-24.89,22.39-41.73,32.81-9.25,5.72-19.44,9.71-29.07,13.3-19.7,7.34-40.62,10.92-63.96,10.92Zm-14.81-22.4c1.72.67,3.34,1.27,4.81,1.42,2.65.26,5.27.39,7.79.39,5.16,0,10.04-.53,14.69-1.59-1.06-.33-2.16-.62-3.3-.92-1.68-.44-3.42-.9-5.19-1.53-2.11-.76-4.4-1.12-7.02-1.12s-5.62.38-9.37,1.18c-1.05.23-1.85,1.19-2.41,2.18Zm-33.95-38.7c2.1,0,4.04.85,5.77,2.53,1.03,1,1.71,2.1,2.31,3.07.93,1.49,1.15,1.71,1.51,1.76,1.1.14,2.09.73,2.74,1.62.65.9.9,2.02.69,3.11-.21,1.06.32,2.13,1.27,3.93.86,1.62,1.83,3.47,2.2,5.78l.04.25c.17,1.05.38,2.36.6,3.26.52-.22,1.29-.61,2.38-1.29,5.95-3.72,8.06-10.09,9.55-19.16.56-3.42,1.38-7.02,4.63-10.14.43-.41.73-.73.95-.98-.28-.24-.69-.55-1.27-.96-3.91-2.75-8.45-6.76-8.85-13.48-.07-1.25.44-2.47,1.39-3.28l1.34-1.14c.75-.64,1.68-.96,2.6-.96,1.12,0,2.23.47,3.02,1.37.51.58,1.01,1.17,1.51,1.76,1.09,1.28,2.11,2.48,3.19,3.62,1.15,1.21,2.09,1.64,2.58,1.64.31,0,.68-.23,1.1-.67.45-.48.5-.73.5-.73,0-.02,0-.63-1.68-2.43-.46-.5-1.01-1-1.59-1.53-1.91-1.75-4.28-3.93-5.26-7.48-.44-1.59.15-3.29,1.47-4.27.71-.52,1.54-.79,2.39-.79.74,0,1.48.2,2.13.61.88.55,2.03,1.02,3.24,1.53,3.25,1.34,7.3,3.01,8.86,7.54.99,2.89,2.54,4.14,6.64,5.35,1.93.57,5.41,1.6,7.57,4.83.5-.06.67-.17.67-.17.1-.14.32-.72.37-2.81.04-1.53.15-6.17,5.19-7.26.59-.13,1.18-.19,1.75-.19,3.01,0,5.53,1.79,6.76,4.8.59,1.45,1.33,3.27,1.82,5.17.52,2,1.42,3.73,2.77,5.29-1.14-6.99,3.63-10.04,8.18-11.93.29-.12.59-.24.9-.36.35-.14.82-.33,1.24-.51-.08-.09-.17-.2-.27-.31-1.1-1.18-1.65-2.82-1.52-4.5.13-1.63.93-3.13,2.19-4.11.99-.77,2.16-1.17,3.39-1.17,1.59,0,3.15.67,4.5,1.95.33.31.6.55.82.73.37-.44.7-1.2.21-2.88-3.51-12.06-10.05-22.04-19.43-29.66-7.36-5.98-16.23-9.84-27.94-12.15-3.27-.65-6.55-.97-9.76-.97-4.83,0-9.61.71-14.53,2.19,2.77,1.6,4.13,4.5,5.06,6.47.5,1.07.98,2.08,1.48,2.64.28.32.57.62.86.93.61.65,1.3,1.38,1.94,2.21.71.92.99,2.09.8,3.3-.18,1.11-.88,2.73-2.26,3.67-.48.32-.95.66-1.42.99-2.88,2.04-6.13,4.35-10.7,4.79-.15.25-.34.49-.54.71-4.85,5.03-6.49,6.73-12.89,6.73-.79,0-1.69-.02-2.74-.04-.66-.01-1.29-.04-1.93-.07-.83-.04-1.69-.07-2.53-.07-3.53,0-3.84.75-3.96,1.04-2.85,6.88-7.91,7.06-11.26,7.18-.13,0-.25,0-.38.01,2.39,5.17-1.09,9.01-2.49,10.56-.74.82-.75,1.04-.77,1.42-.52,9.02,1.74,17.41,4.02,24.42,0,.03.02.05.03.08.08-.03.17-.06.27-.1.37-.15.82-.38,1.3-.63,1.39-.73,3.13-1.64,5.3-1.64Zm83.12,20.46c.5,0,1,.07,1.48.21.33.1.84.14,1.39.2,1.16.11,2.61.25,4.06.97.08.04.14.06.19.08.1-.06.27-.19.55-.45,5.63-5.49,9.48-11.81,11.45-18.76,0-.03.01-.06.01-.1-4.68,2.7-9.69,3.85-14.55,4.97l-1.15.27c-4.07.95-7.06,4.21-7.32,7.9.17.49.35,1,.53,1.54.39,1.14.8,2.38,1.31,3.55.6-.21,1.28-.37,2.06-.37ZM119.98,49.56c.86.52,1.96.82,3.1.82,1.34,0,2.55-.41,3.33-1.13l.38-.36c.21-.2.45-.43.7-.66-2.58.43-5.06.86-7.46,1.3-.01.01-.03.02-.04.04Z"/>
        <path class="cls-2" d="m156.66,8c5.84.42,13.2,1.03,20.4,1.15,8.79.14,16.93,2.92,25.47,3.74,4.77.46,9.32,3.09,14.01,4.61,17.12,5.55,32.68,14.1,47.38,24.37,15.12,10.56,28.11,23.3,39.18,38.06,2.28,3.05,2.32,5.37-.04,8.36-4.27,5.42-8.97,10.45-13.53,15.6-11.68,13.2-26.11,22.95-40.84,32.05-8.76,5.42-18.58,9.31-28.37,12.96-20.5,7.64-41.37,10.66-62.57,10.66-9.91,0-19.89-.66-29.95-1.82-12.13-1.4-23.31-5.32-34.7-9.08-21.7-7.16-40.07-19.8-57.46-34.15-9.99-8.25-18.18-18.17-26.39-28.09-1.8-2.18-1.57-3.65.2-5.86,9.34-11.68,19.76-22.42,31.14-31.94,9.54-7.98,20.41-14.37,31.41-20.44,7.97-4.4,16.36-7.9,24.77-10.95,9.79-3.55,20.24-5.34,30.63-6.93,9.23-1.41,18.49-2.21,29.26-2.3m-26.7,23.5c1.68,0,3.33-.13,4.92-.52.86-.21,1.61-.3,2.29-.3,5.36,0,5.53,5.91,8.22,8.95.87.98,1.82,1.88,2.61,2.91.14.18-.21,1-.54,1.23-3.19,2.17-6.19,4.8-10.5,5.12.21-2.28,2.06-2.34,3.15-3.19.87-.68,2.44-.94,2.09-2.41-.22-.9-.84-1.13-1.52-1.13-.5,0-1.03.12-1.44.18-6.8,1-13.58,2.08-20.34,3.31-1.01.18-1.91,1.24-2.75,2.02-1.32,1.24-1.28,2.49,0,3.87,1.7,1.85,4.33,2.82,6.93,2.82,2.23,0,4.45-.72,6.05-2.2,1.04-.97,1.97-2.05,3.24-2.05.53,0,1.12.19,1.81.66-4.65,4.83-5.32,5.51-10.01,5.51-.78,0-1.67-.02-2.71-.04-1.41-.03-2.97-.14-4.5-.14-3.28,0-6.42.52-7.66,3.51-2.23,5.38-5.65,4.48-9.58,4.82-2.04.18-4.53,1.82-2.72,4.36,2.26,3.16.86,5.27-1.1,7.43-1.04,1.15-1.71,2.22-1.8,3.88-.52,8.96,1.47,17.46,4.21,25.89.7,2.16,1.78,3,3.22,3,.7,0,1.48-.2,2.34-.54,1.73-.68,3.36-1.99,5.13-1.99.94,0,1.92.37,2.98,1.4,2.03,1.98,2.6,5.48,6.11,5.93-.82,4.24,2.8,7.06,3.45,11.09.66,4.16,1.09,7.17,3.7,7.17,1.23,0,2.94-.67,5.39-2.2,7.82-4.89,9.99-13.45,11.38-21.9.51-3.11,1.11-5.65,3.46-7.9,3.77-3.61,3.46-5.11-.79-8.1-3.7-2.6-6.87-5.61-7.15-10.44.45-.38.89-.76,1.34-1.14,1.61,1.84,3.14,3.75,4.83,5.52,1.81,1.9,3.69,2.88,5.47,2.88,1.43,0,2.8-.63,4.02-1.94,2.97-3.17,1.3-5.97-1.17-8.62-2.13-2.28-5-4.01-5.92-7.34,3.64,2.29,9.02,2.83,10.45,6.98,1.7,4.95,5.03,6.63,9.29,7.89,2.27.67,4.47,1.47,5.67,3.7-1.24,1.47-4.05.18-3.86,2.79.08,1.13,1.28,2.21,2.17,2.21.07,0,.13,0,.2-.02,1.39-.28,3.82.26,3.74-2.43-.03-.86.29-1.18,1.08-1.25,4.29-.41,4.68-3.61,4.76-6.88.04-1.64.15-3.04,2.04-3.44.32-.07.62-.1.91-.1,1.44,0,2.46.85,3.05,2.31.62,1.53,1.24,3.07,1.66,4.66,1.48,5.69,5.33,9.33,10.26,12.04.47.26,1.18.49,1.74.49.23,0,.44-.04.6-.13,1.03-.62.57-1.65.08-2.61-.53-1.02-.84-2.15-1.26-3.23-2.19-5.69-.81-8.1,4.94-10.5,3.05-1.27,7.95-2.55,3.26-7.6-.62-.67-.68-2.05.2-2.73.3-.23.61-.33.93-.33.62,0,1.24.38,1.75.86,1.15,1.09,2.34,2.12,3.67,2.12.71,0,1.46-.29,2.27-1.02,2.18-1.97,2.48-4.51,1.67-7.27-3.69-12.67-10.49-23.32-20.75-31.64-8.68-7.05-18.6-10.78-29.68-12.97-3.62-.72-7.12-1.05-10.54-1.05-11.35,0-21.71,3.71-31.85,9.5,1.81.17,3.64.33,5.43.33m-20.24,15.63c2.96-.62,5.79-1.79,6.57-5.28.37-1.67-.58-2.5-2.11-2.5-.17,0-.35.01-.53.03-3.55.4-5.38,2.82-6.33,5.89-.46,1.48.99,1.79,2.4,1.87m-8.58,13.47c1.47-.53,3.07-1.19,4.37-2.58,1.46-1.55,3.2-2.84,4.77-4.29.86-.8,2.92-1.24,1.76-2.87-.65-.91-1.8-1.54-3.14-1.54-.27,0-.54.03-.82.08-3.02.58-8.67,6.83-8.74,9.81-.03,1.09.64,1.38,1.81,1.4m116.31,34.99c.56,0,1-.42,1.03-1.51.08-2.97.13-5.9,1.06-8.19-.4-2.63-.64-4.74-1.07-6.82-.37-1.78-1.81-2.65-3.33-2.65-.11,0-.21,0-.32.01-2.6.21-.13,1.98-.63,2.99-.64,1.29-1.08,2.7-1.5,4.09-1.35,4.37-.05,8.08,3.08,11.2.52.52,1.16.89,1.68.89m-28.65,32.42c1.05,0,2.28-1.07,3.33-1.07.12,0,.24.02.36.05,1.62.47,3.4.22,4.78.9.74.37,1.4.53,2.02.53,1.27,0,2.33-.68,3.29-1.62,5.91-5.77,10.25-12.57,12.51-20.54.52-1.84-.28-3.85-1.62-5.37-.42-.48-.87-.66-1.32-.66-.61,0-1.23.33-1.82.71-4.79,3.1-10.25,4.2-15.68,5.47-6,1.4-10.5,6.5-10.44,12.46.89,2.31,1.71,5.58,3.37,8.35.35.58.77.78,1.22.78m-44.26-12.67c1.34,0,1.51-1.78,1.88-2.65,1.22-2.84,2.1-5.84,2.95-8.82.3-1.04.61-2.54-.62-3.11-.28-.13-.54-.19-.78-.19-1.06,0-1.81,1.06-2.4,1.89-2.02,2.8-1.67,6.28-2.46,9.36.28,1.26-.77,3.04,1,3.46.16.04.3.06.44.06m30.5,23.24c-.51,0-1.05-.1-1.62-.32-3.35-1.3-6.9-1.86-10.31-3.09-2.72-.98-5.53-1.36-8.37-1.36-3.41,0-6.85.55-10.21,1.27-2.68.58-4.48,2.72-5.63,5.27-.82,1.83-.46,3.36,1.42,4.08,2.29.89,4.66,1.9,7.06,2.13,2.75.27,5.48.41,8.18.41,10.8,0,21.23-2.24,31.09-7.51,2.49-1.33,4.94-2.71,7.03-6.08-1.85-.13-3.63-.28-5.32-.28-3.4,0-6.45.62-9.16,3.27-1.19,1.17-2.51,2.2-4.15,2.2M156.66,0s-.04,0-.07,0c-10.63.09-20.29.85-30.4,2.39-10.45,1.59-21.54,3.47-32.15,7.31-10.17,3.69-18.41,7.33-25.91,11.47-10.97,6.05-22.52,12.82-32.68,21.31-11.63,9.72-22.48,20.85-32.26,33.09-5.7,7.12-2.52,13.06-.12,15.96l.13.15c8.26,9.99,16.81,20.32,27.34,29.01,14.82,12.23,35.03,27.32,60.05,35.58l2.64.87c10.64,3.53,21.65,7.18,33.66,8.56,10.93,1.26,21.03,1.87,30.86,1.87,23.83,0,45.21-3.65,65.36-11.17,9.82-3.66,20.22-7.73,29.78-13.65,17.14-10.6,30.95-20.36,42.62-33.56,1.1-1.25,2.21-2.48,3.32-3.72,3.5-3.9,7.11-7.93,10.5-12.23,4.6-5.84,4.66-12.1.16-18.11-11.68-15.58-25.47-28.97-41-39.82-16.85-11.77-33.04-20.09-49.49-25.42-1.31-.43-2.71-1-4.19-1.6-3.37-1.38-7.2-2.94-11.52-3.36-3.23-.31-6.5-.95-9.96-1.64-5.1-1-10.37-2.04-16.15-2.14-5.97-.1-12.05-.55-17.41-.94l-2.54-.19c-.19-.01-.38-.02-.57-.02h0Zm-7.35,30.23c2.37-.38,4.71-.57,7.06-.57,2.95,0,5.97.3,8.98.9,11.03,2.18,19.36,5.78,26.19,11.33,7.55,6.13,12.96,13.61,16.46,22.75-.01,0-.03,0-.04,0-2.13,0-4.15.7-5.84,2.02-2.14,1.67-3.5,4.2-3.72,6.95-.09,1.07,0,2.14.24,3.16-2.16,1.08-3.93,2.31-5.31,3.71-.13-.31-.25-.61-.37-.9-1.86-4.57-5.77-7.29-10.46-7.29-.85,0-1.72.09-2.59.28-2.45.53-6.27,2.13-7.75,7.02-1.59-.79-3.07-1.23-4.09-1.53-3.36-.99-3.56-1.56-3.99-2.82-2.14-6.24-7.76-8.55-11.12-9.94-1.01-.41-2.05-.84-2.64-1.21-1.31-.82-2.78-1.23-4.26-1.23-1.68,0-3.36.53-4.77,1.58-2.48,1.85-3.67,4.95-3.08,7.95-1.63.13-3.23.75-4.57,1.89l-.77.66-.56.48c-1.91,1.63-2.94,4.06-2.79,6.56.44,7.42,4.96,12.15,8.21,14.78-2.37,3.29-3.13,6.78-3.64,9.89-1.05,6.41-2.39,11.23-5.3,14.4-.58-1.78-1.37-3.27-1.99-4.45-.29-.54-.66-1.26-.82-1.66.3-2.06-.21-4.16-1.44-5.86-.98-1.36-2.36-2.36-3.93-2.89-.06-.09-.11-.18-.16-.26-.65-1.05-1.54-2.48-2.92-3.82-3.11-3.03-6.37-3.67-8.56-3.67-1.68,0-3.14.36-4.39.82-1.99-6.99-2.78-12.55-2.57-17.92,3.02-3.43,4.12-6.63,4.14-9.47,3.3-.69,7.19-2.55,9.84-7.75.25-.01.55-.02.93-.02.73,0,1.52.03,2.36.07.67.03,1.34.06,1.97.07h.05c1.08.02,2.01.04,2.83.04,7.65,0,10.36-2.36,15.52-7.7,4.76-.89,8.28-3.38,10.93-5.27.45-.32.9-.64,1.35-.95,2.43-1.66,3.64-4.37,3.96-6.35.37-2.3-.19-4.56-1.58-6.36-.76-.99-1.52-1.8-2.2-2.51-.25-.27-.5-.53-.75-.8-.2-.29-.61-1.15-.88-1.72-.3-.65-.7-1.48-1.21-2.4h0Zm43.01,87.58c.45-1.68,2.07-3.15,4.13-3.63l1.13-.26c2.01-.46,4.11-.95,6.26-1.57-1.52,2.61-3.39,5.09-5.6,7.42-1.12-.27-2.11-.36-2.89-.44-.25-.02-.59-.06-.74-.08-.62-.17-1.27-.28-1.92-.32-.05-.16-.11-.32-.16-.49-.07-.21-.14-.42-.22-.64h0Z"/>
      </g>
      <g>
        <path class="cls-1" d="m123.11,81.03c-.81,0-1.63-.09-2.46-.27-3.15-.68-6.18-1.7-9.11-2.67-3.69-1.23-7.51-2.51-11.58-3.12-1.82-.28-3.21-1.76-3.38-3.59-.17-1.83.93-3.54,2.67-4.15l.68-.24c4.16-1.44,7.75-2.69,10.9-4.55,1.15-.68,2.32-1.02,3.49-1.02,3.1,0,4.8,2.16,5.73,3.94.31-.05.64-.08.99-.08,1.86,0,4.12.76,7.12,1.84.51.18.99.36,1.42.5,1.47.5,2.59,1.66,3.08,3.17.58,1.78.21,3.98-.94,5.61-2.1,2.99-5.16,4.63-8.61,4.63Z"/>
        <path class="cls-2" d="m114.32,65.42c1.44,0,2.2,1.63,2.76,3.17.38,1.05.4,2.61,1.14,2.61.4,0,1-.45,1.98-1.66.15-.19.44-.27.84-.27,1.64,0,5.05,1.38,7.24,2.13.92.31.77,1.84.17,2.69-1.36,1.93-3.2,2.93-5.34,2.93-.52,0-1.06-.06-1.61-.18-6.84-1.49-13.21-4.67-20.93-5.84,4.65-1.62,8.63-2.95,12.3-5.12.55-.33,1.03-.47,1.46-.47m0-8c-1.89,0-3.75.53-5.53,1.58-2.8,1.65-6.05,2.78-10.16,4.21l-.7.24c-3.47,1.21-5.68,4.63-5.34,8.29s3.13,6.62,6.77,7.17c3.73.57,7.22,1.73,10.91,2.96,3.03,1.01,6.16,2.06,9.52,2.79,1.11.24,2.22.36,3.31.36,4.72,0,9.05-2.31,11.88-6.33,1.88-2.66,2.44-6.17,1.48-9.14-.88-2.72-2.92-4.81-5.59-5.72-.41-.14-.88-.31-1.36-.48-2.88-1.04-5.18-1.82-7.35-2.02-2.62-3.31-5.84-3.92-7.84-3.92h0Z"/>
      </g>
    </g>
  </g>
</svg>