<?xml version="1.0" encoding="UTF-8"?>
<svg id="Camada_2" data-name="Camada 2" xmlns="http://www.w3.org/2000/svg" viewBox="0 0 218.75 183.95">
  <defs>
    <style>
      .cls-1 {
        fill: #1a95d2;
      }
    </style>
  </defs>
  <g id="Camada_1-2" data-name="Camada 1">
    <g>
      <path class="cls-1" d="m133.82,183.88c-16.58.88-32.18-6.14-47.53-13.75-11.06-5.48-21.33-12.31-31-19.96-2.8-2.21-3.74-.96-5.22,1.4-10.22,16.29-23.75,28.15-43.3,31.76-1.62.3-3.61,1.22-4.74-.11-1.31-1.55.56-3.04,1.29-4.42,6.71-12.73,12.28-25.75,13.21-40.45.83-13.19-2.59-25.34-7.69-37.2-1.83-4.26-3.84-8.46-6.52-12.31-1.48-2.13-1.06-3.08,1.79-3.19,7.85-.29,14.69,2.69,21.18,6.47,10.56,6.16,18.73,14.86,24.94,25.32,1.6,2.7,2.52,2.99,5.1,1.02,15.68-11.97,32.46-22.01,51.17-28.63,32.43-11.47,60.78-2.78,86.79,17.45,8.84,6.87,16.64,14.84,23.61,23.6,1.44,1.81,2.9,3.51.79,6.08-16.37,19.9-35.36,36.15-60.54,43.82-7.19,2.19-14.58,3.37-23.33,3.09Zm39.4-56.93c.04-8.38-5.04-14.03-12.66-14.09-7.38-.06-13.26,5.82-13.32,13.32-.06,7.17,5.75,13.47,12.5,13.57,7.63.11,13.44-5.4,13.48-12.8Z"/>
      <path class="cls-1" d="m.22,45.54c.02-6.43.15-6.73,5.95-4.35,15.53,6.35,29.63,4.03,42.33-6.65,2.63-2.21,4.24-1.33,6.47.2,8.13,5.57,16.95,8.97,27.01,9.09,8.95.1,16.69-2.76,23.4-8.46,2.69-2.28,4.42-2.72,7.49-.09,13.3,11.41,31.91,11.67,48.65.5,4.21-2.81,6.5-2.7,10.53.45,12.28,9.63,26,10.85,40.39,4.87,4.94-2.05,4.73-1.9,5.23,3.62.44,4.9-1.61,7.66-5.63,10.01-13.19,7.7-27.07,6.16-40.4-5.3-2.96-2.55-4.6-2.5-7.38,0-9.62,8.68-20.98,11.67-33.5,8.38-6.54-1.72-12.75-4.74-18.15-8.99-2.48-1.95-4.2-1.96-6.92,0-8.05,5.8-16.71,10.04-27.11,10.12-8.65.07-16.03-2.81-22.54-8.04-3.91-3.14-6.7-4.21-11.14-.16-6.33,5.78-14.32,8.97-23.09,9.11-8.11.12-14.43-4.3-20.55-8.93-1.95-1.48-.62-3.75-1.03-5.39Z"/>
      <path class="cls-1" d="m198.79,26.21c-12.18-.18-19.91-3.87-26.6-9.68-3.08-2.67-5.05-2.76-8.37-.13-14.98,11.87-32.83,12.28-48.43.93-4.43-3.22-7.34-3.76-11.98-.3-7.11,5.31-15.47,8.63-24.46,8.77-9.43.14-17.8-3.61-24.88-9.74-2.9-2.51-4.64-2.36-7.53.1-12.98,11.03-28.04,14.48-44.14,2.7C.48,17.47-.89,9.08.7,7.45c1.25-1.28,2.66-.58,4.11-.03,5.94,2.24,12.01,3.62,18.47,3.58,9.24-.06,17.36-2.85,24.23-8.97,2.64-2.35,4.62-2.58,7.75-.47,10.53,7.08,21.98,11.04,34.91,8.18,5.95-1.32,11.15-4.23,15.74-8.14,2.1-1.79,3.49-2.33,5.9-.3,15.15,12.76,32.52,11.85,48.56,1.85,4.85-3.03,8-3.26,12.78.54,11.22,8.91,24.08,9.23,37.35,4.88,2.1-.69,4.27-3.56,6.65-.83,1.49,1.7.11,9.72-1.72,11.14-5.79,4.52-12.14,7.56-16.65,7.33Z"/>
    </g>
  </g>
</svg>