<?xml version="1.0" encoding="UTF-8"?>
<svg id="Camada_2" data-name="Camada 2" xmlns="http://www.w3.org/2000/svg" viewBox="0 0 234.75 199.95">
  <defs>
    <style>
      .cls-1 {
        fill: #1d1d1b;
      }

      .cls-2 {
        fill: #1a95d2;
      }
    </style>
  </defs>
  <g id="Camada_1-2" data-name="Camada 1">
    <g>
      <g>
        <path class="cls-2" d="m138.99,195.95c-16.37,0-31.32-6.73-46.47-14.24-10.41-5.16-20.6-11.68-31.11-19.94-11.97,19.04-26.99,30-45.91,33.49-.25.05-.52.12-.79.18-.83.21-1.87.47-3.01.47-2.42,0-3.9-1.15-4.72-2.12-2-2.35-1.86-5.14.4-8.29.14-.19.34-.47.4-.58,5.79-10.98,11.83-24.18,12.75-38.83.69-10.99-1.58-21.9-7.37-35.37-1.55-3.61-3.5-7.82-6.13-11.6-1.63-2.35-1.98-4.5-1.03-6.4,1.45-2.9,4.84-3.03,5.96-3.07.41-.02.82-.02,1.22-.02,8.91,0,16.5,3.76,22.12,7.03,10.51,6.12,19.28,14.96,26.08,26.26,17.48-13.27,34.42-22.71,51.79-28.86,10.02-3.55,20.07-5.34,29.86-5.34,20.61,0,40.48,7.66,60.73,23.41,8.65,6.73,16.82,14.89,24.29,24.26l.1.13c1.43,1.79,4.77,5.98.65,10.98-19.52,23.74-39.37,38.07-62.47,45.11-7.41,2.26-14.39,3.31-21.98,3.31-.81,0-1.64-.01-2.48-.04-.95.05-1.91.07-2.87.07Zm29.47-71.1c-5.12,0-9.17,4.11-9.21,9.35-.04,4.93,4.04,9.47,8.56,9.54h.17c5.34,0,9.23-3.71,9.25-8.82.03-6.17-3.3-10.03-8.69-10.07h-.08Z"/>
        <path class="cls-1" d="m143.02,92.73c20.95,0,40.18,8.49,58.27,22.56,8.84,6.87,16.64,14.84,23.61,23.6,1.44,1.81,2.9,3.51.79,6.08-16.37,19.9-35.36,36.15-60.54,43.82-6.49,1.98-13.14,3.13-20.82,3.13-.83,0-1.66-.01-2.51-.04-.95.05-1.89.07-2.83.07-15.53,0-30.22-6.65-44.7-13.82-11.06-5.47-21.33-12.31-31-19.96-1.02-.81-1.79-1.15-2.44-1.15-1.12,0-1.84,1.05-2.79,2.56-10.22,16.29-23.75,28.15-43.3,31.76-.98.18-2.09.59-3.07.59-.64,0-1.22-.17-1.67-.7-1.31-1.55.56-3.04,1.29-4.42,6.71-12.73,12.28-25.75,13.21-40.45.83-13.19-2.59-25.34-7.69-37.2-1.83-4.26-3.84-8.46-6.52-12.31-1.48-2.13-1.06-3.08,1.79-3.19.36-.01.72-.02,1.07-.02,7.4,0,13.91,2.88,20.11,6.49,10.56,6.16,18.73,14.86,24.94,25.32.91,1.54,1.6,2.29,2.51,2.29.68,0,1.48-.43,2.59-1.27,15.68-11.97,32.46-22.01,51.17-28.63,9.87-3.49,19.36-5.11,28.52-5.12m24.95,55.02c7.52,0,13.22-5.48,13.25-12.8.04-8.38-5.04-14.03-12.66-14.09-.04,0-.07,0-.11,0-7.33,0-13.15,5.86-13.21,13.32-.06,7.17,5.75,13.47,12.5,13.57.08,0,.15,0,.22,0m-24.95-63.02v8-8c-10.25,0-20.74,1.88-31.19,5.57-16.6,5.87-32.8,14.67-49.39,26.84-6.78-10.12-15.22-18.15-25.13-23.93-6.05-3.53-14.26-7.58-24.14-7.58-.45,0-.91,0-1.37.03-5.69.21-8.25,2.99-9.39,5.28-1.13,2.27-1.82,5.94,1.33,10.47,2.43,3.49,4.26,7.47,5.74,10.9,5.53,12.86,7.7,23.21,7.05,33.54-.87,13.8-6.38,25.97-12.22,37.07-.06.08-.12.17-.18.26-4.73,6.57-1.72,11.43-.21,13.22,1.93,2.27,4.69,3.53,7.77,3.53,1.64,0,3.05-.36,3.99-.59.18-.05.36-.1.54-.13,18.82-3.47,33.96-13.83,46.16-31.62,9.53,7.19,18.85,13.01,28.36,17.72,14.97,7.41,31.03,14.65,48.25,14.65.97,0,1.95-.02,2.91-.07.82.02,1.63.03,2.43.03,7.99,0,15.35-1.11,23.15-3.48,23.89-7.28,44.35-22.02,64.39-46.39,3.46-4.21,3.06-8.31,2.51-10.38-.68-2.58-2.15-4.42-3.12-5.63l-.1-.12c-7.66-9.62-16.06-18.01-24.96-24.93-20.98-16.32-41.65-24.25-63.18-24.25h0Zm24.95,55.02h-.11c-2.11-.03-4.65-2.49-4.62-5.51.03-3.07,2.27-5.39,5.21-5.39,3.97.03,4.78,3.31,4.77,6.05-.01,2.89-2.13,4.84-5.25,4.84h0Z"/>
      </g>
      <g>
        <path class="cls-2" d="m29.47,71.87c-9.01,0-15.85-4.61-22.64-9.75-3.08-2.33-2.73-5.7-2.59-7.14.02-.21.05-.49.05-.64-.06-.27-.08-.54-.08-.82.02-4.09.04-9.7,5.63-9.7,1.65,0,3.38.66,5.83,1.66,5.2,2.13,10.27,3.21,15.08,3.21,8.21,0,15.79-3.01,23.16-9.22,1.82-1.53,3.63-2.27,5.54-2.27,2.51,0,4.47,1.34,5.77,2.23,8.1,5.55,16.21,8.29,24.79,8.39h.42c7.74,0,14.39-2.45,20.34-7.51,1.65-1.41,3.71-2.84,6.38-2.84s4.92,1.58,6.31,2.77c5.91,5.08,13.12,7.76,20.85,7.76s15.57-2.61,22.98-7.55c1.88-1.25,4.4-2.69,7.33-2.69,3.22,0,5.79,1.68,7.88,3.32,6.49,5.08,13.54,7.66,20.96,7.66,4.91,0,10.1-1.12,15.43-3.33,2.2-.92,3.66-1.52,5.19-1.52,4.81,0,5.22,4.7,5.49,7.81l.06.67c.72,7.99-3.99,11.72-7.6,13.82-6.03,3.52-12.26,5.31-18.52,5.31-9.07,0-17.99-3.71-26.51-11.03-.55-.47-.91-.72-1.11-.84-.19.12-.5.35-.98.78-7.88,7.11-16.79,10.71-26.48,10.72-3.49,0-7.1-.48-10.72-1.43-7.23-1.9-13.83-5.17-19.6-9.72-.51-.4-.79-.54-.91-.59-.14.05-.5.2-1.2.7-10.18,7.34-19.53,10.8-29.42,10.87h-.33c-9.05,0-17.37-3-24.75-8.92-.59-.47-2.38-1.91-3.3-1.91-.56,0-1.52.58-2.63,1.59-7.12,6.5-16.01,10.01-25.73,10.15h-.39Z"/>
        <path class="cls-1" d="m59.46,41.21c1.17,0,2.24.66,3.51,1.53,8.13,5.57,16.95,8.97,27.01,9.09.16,0,.31,0,.47,0,8.75,0,16.34-2.87,22.93-8.46,1.41-1.2,2.57-1.89,3.79-1.89,1.1,0,2.25.56,3.7,1.8,6.76,5.8,14.89,8.72,23.46,8.72s16.96-2.73,25.2-8.22c2.01-1.34,3.58-2.02,5.11-2.02,1.68,0,3.31.82,5.42,2.47,7.35,5.76,15.21,8.51,23.43,8.51,5.51,0,11.18-1.24,16.97-3.64,1.82-.76,2.94-1.21,3.66-1.21,1.23,0,1.26,1.34,1.57,4.83.44,4.9-1.61,7.66-5.63,10.01-5.41,3.16-10.94,4.76-16.5,4.76-7.99,0-16.04-3.31-23.9-10.06-1.47-1.27-2.62-1.89-3.74-1.89-1.13,0-2.24.64-3.64,1.9-7.07,6.38-15.08,9.69-23.8,9.69-3.14,0-6.38-.43-9.7-1.3-6.54-1.72-12.75-4.74-18.15-8.99-1.24-.98-2.29-1.47-3.37-1.47-1.08,0-2.19.49-3.55,1.47-8.05,5.8-16.71,10.04-27.11,10.12-.1,0-.2,0-.3,0-8.53,0-15.81-2.87-22.25-8.04-2.12-1.7-3.91-2.79-5.81-2.79-1.61,0-3.29.78-5.33,2.64-6.33,5.78-14.31,8.97-23.09,9.11-.11,0-.22,0-.33,0-7.95,0-14.18-4.37-20.22-8.94-1.95-1.48-.62-3.75-1.03-5.39.02-4.11.07-5.72,1.63-5.72.88,0,2.23.51,4.32,1.36,5.72,2.34,11.26,3.51,16.59,3.51,9.14,0,17.72-3.41,25.74-10.15,1.13-.95,2.08-1.33,2.96-1.33m0-8c-2.85,0-5.58,1.08-8.11,3.21-6.62,5.57-13.36,8.28-20.59,8.28-4.28,0-8.84-.98-13.56-2.91-2.89-1.18-4.97-1.96-7.35-1.96-4.53,0-8.14,2.95-9.19,7.52-.39,1.72-.43,3.47-.44,6.16,0,.33.02.66.06.98,0,.03,0,.05,0,.08-.18,1.74-.73,7.05,4.15,10.74,5.56,4.2,13.95,10.56,25.05,10.56.15,0,.3,0,.45,0,10.71-.16,20.52-4.03,28.36-11.2.02-.02.03-.03.05-.04.19.14.42.32.68.53,8.1,6.51,17.27,9.81,27.25,9.81h.36c13.3-.1,23.59-5.93,30.47-10.74,5.86,4.32,12.45,7.46,19.61,9.34,3.95,1.04,7.9,1.56,11.73,1.56,10.04,0,19.28-3.47,27.52-10.33,8.8,7.1,18.06,10.7,27.56,10.7,6.97,0,13.88-1.97,20.54-5.85,7.03-4.1,10.24-10.03,9.56-17.63l-.06-.66c-.16-1.88-.29-3.36-.74-4.82-1.22-4.04-4.65-6.64-8.74-6.64-2.33,0-4.27.81-6.72,1.82-4.84,2.01-9.52,3.03-13.9,3.03-6.6,0-12.65-2.23-18.49-6.81-2.48-1.94-5.89-4.17-10.35-4.17-4,0-7.2,1.8-9.55,3.36-6.74,4.5-13.92,6.88-20.76,6.88s-13.07-2.35-18.25-6.79c-1.08-.92-4.35-3.73-8.91-3.73-3.99,0-6.89,2.03-8.97,3.8-5.19,4.41-11,6.56-17.74,6.56h-.38c-7.77-.09-15.16-2.61-22.58-7.69-1.5-1.02-4.28-2.93-8.03-2.93h0Z"/>
      </g>
      <g>
        <path class="cls-2" d="m30.7,38.23c-7.66,0-15.29-2.74-22.66-8.13-3.09-2.26-3.81-8.19-3.96-9.96-.29-3.52.28-5.96,1.76-7.48,1.23-1.26,2.78-1.93,4.5-1.93,1.43,0,2.61.46,3.57.83l.32.12c5.92,2.24,11.4,3.32,16.76,3.32h.27c8.58-.06,15.65-2.66,21.6-7.96,1.41-1.26,3.64-2.93,6.64-2.93,1.94,0,3.85.68,6.01,2.13,8.44,5.67,16.36,8.43,24.23,8.43,2.5,0,5.06-.28,7.58-.84,4.9-1.08,9.61-3.53,14.01-7.28,1.48-1.26,3.32-2.55,5.73-2.55,1.81,0,3.56.73,5.34,2.24,6.71,5.66,14.08,8.52,21.88,8.52,7.13,0,14.53-2.36,21.99-7,2.16-1.35,5.07-2.89,8.4-2.89,2.96,0,5.81,1.18,8.99,3.7,5.71,4.53,12,6.74,19.25,6.74,4.41,0,9.25-.85,14.37-2.53.16-.06.61-.33.91-.51,1.17-.71,2.76-1.67,4.82-1.67,1.36,0,3.36.44,5.18,2.53,1.35,1.55,1.85,3.96,1.52,7.38-.16,1.67-.91,7.3-3.79,9.55-6.67,5.2-13.45,8.19-18.61,8.19-.21,0-.42,0-.63-.01-11.84-.19-20.82-3.48-29.09-10.65-1.13-.98-1.56-1.07-1.58-1.08.02,0-.44.08-1.69,1.06-8.29,6.57-17.69,10.04-27.18,10.04-8.96,0-17.97-3.12-26.08-9.01-1.78-1.29-3.02-1.9-3.9-1.9-.82,0-1.91.51-3.33,1.57-8.18,6.11-17.45,9.42-26.79,9.56h-.59c-9.69,0-18.76-3.6-26.97-10.72-.55-.48-.89-.69-1.07-.79-.19.1-.59.34-1.26.91-8.59,7.3-17.49,11.01-26.43,11.01Z"/>
        <path class="cls-1" d="m117.04,8c.82,0,1.69.39,2.77,1.3,7.73,6.51,16.04,9.46,24.46,9.46s16.25-2.72,24.1-7.61c2.37-1.48,4.34-2.29,6.28-2.29s4.06.89,6.5,2.83c6.74,5.36,14.07,7.61,21.73,7.61,5.09,0,10.32-.99,15.62-2.73,1.45-.47,2.93-1.98,4.48-1.98.7,0,1.42.31,2.16,1.16,1.49,1.7.11,9.72-1.72,11.14-5.58,4.35-11.68,7.34-16.15,7.34-.17,0-.33,0-.5-.01-12.18-.18-19.91-3.87-26.6-9.68-1.57-1.36-2.85-2.05-4.17-2.05-1.27,0-2.57.64-4.2,1.93-7.71,6.11-16.17,9.18-24.7,9.18-8.05,0-16.15-2.74-23.73-8.25-2.35-1.71-4.28-2.66-6.26-2.66-1.75,0-3.55.74-5.72,2.37-7.11,5.31-15.47,8.63-24.46,8.77-.18,0-.35,0-.53,0-9.22,0-17.4-3.72-24.35-9.75-1.41-1.22-2.55-1.82-3.68-1.82-1.19,0-2.37.65-3.85,1.92-7.34,6.24-15.35,10.06-23.84,10.06-6.51,0-13.31-2.24-20.3-7.36-1.91-1.4-3.29-9.79-1.7-11.42.52-.53,1.07-.72,1.63-.72.79,0,1.63.37,2.47.69,5.85,2.21,11.83,3.58,18.18,3.58.1,0,.2,0,.3,0,9.24-.06,17.36-2.85,24.23-8.97,1.42-1.27,2.65-1.92,3.98-1.92,1.13,0,2.33.48,3.78,1.45,8.18,5.5,16.91,9.12,26.46,9.12,2.75,0,5.56-.3,8.45-.94,5.95-1.32,11.15-4.23,15.74-8.14,1.16-.99,2.11-1.6,3.13-1.6m0-8c-4.2,0-7.09,2.46-8.32,3.51-3.95,3.36-7.97,5.46-12.28,6.42-2.25.5-4.51.75-6.72.75-7.05,0-14.24-2.54-22-7.75-2.81-1.89-5.51-2.81-8.24-2.81-4.87,0-8.2,2.97-9.3,3.94-5.19,4.62-11.39,6.9-18.96,6.95h-.24c-4.87,0-9.89-1-15.35-3.06l-.29-.11c-1.13-.44-2.83-1.1-5.01-1.1-2.77,0-5.39,1.11-7.36,3.14C.63,12.26-.31,15.73.09,20.47c.29,3.49,1.4,9.79,5.59,12.85,8.08,5.91,16.49,8.9,25.02,8.9,9.44,0,18.74-3.64,27.67-10.83,8.48,6.83,18.14,10.42,28.07,10.42.22,0,.43,0,.65,0,10.19-.16,20.26-3.74,29.12-10.36.43-.32.74-.52.95-.64.3.16.79.46,1.53,1,8.79,6.4,18.63,9.78,28.43,9.78s19.98-3.53,28.77-10.21c8.76,7.27,18.27,10.62,30.65,10.83.25.01.5.02.75.02,8.26,0,16.75-5.66,21.07-9.03,3.89-3.03,5-9.02,5.31-12.33.44-4.57-.38-7.97-2.49-10.38-2.19-2.51-5.1-3.9-8.19-3.9-3.17,0-5.5,1.41-6.89,2.25-.12.07-.27.16-.39.23-4.61,1.48-8.92,2.24-12.83,2.24-6.3,0-11.78-1.92-16.76-5.87-2.47-1.96-6.34-4.57-11.48-4.57-4.34,0-7.9,1.87-10.51,3.5-6.82,4.25-13.5,6.4-19.87,6.4-6.84,0-13.33-2.55-19.31-7.58-2.5-2.11-5.17-3.18-7.92-3.18h0Z"/>
      </g>
    </g>
  </g>
</svg>