<?xml version="1.0" encoding="UTF-8"?>
<svg id="Camada_2" data-name="Camada 2" xmlns="http://www.w3.org/2000/svg" viewBox="0 0 198.03 193.45">
  <defs>
    <style>
      .cls-1 {
        fill: #60b347;
      }
    </style>
  </defs>
  <g id="Camada_1-2" data-name="Camada 1">
    <g>
      <path class="cls-1" d="m56.71,103.92c-7.32,0-14.65.01-21.97,0-17.3-.04-29.25-17.01-19.55-34.5,1.68-3.04,1.65-4.34-1.21-6.59-6.85-5.4-8.85-13.38-6.29-21.06,2.66-7.98,8.27-14.4,18.02-14.66,3.47-.09,4.13-2.47,4.86-5.22C36.75-1.52,63.94-6.42,78.45,8.48c7.53,7.74,10.98,17.67,6.98,28.35-1.57,4.19-.5,5.27,2.88,6.19,9.29,2.54,15.19,8.98,18.39,17.54,8.43,22.57-8.05,43.56-29.02,43.49-6.99-.02-13.98,0-20.97,0v-.14Z"/>
      <path class="cls-1" d="m98.99,156.09c31.15,0,62.3.09,93.45-.1,4.35-.03,5.74,1,5.55,5.48-.35,8.19-.07,8.2-8.28,8.2-61.14,0-122.27.01-183.41-.06-1.95,0-5.05,1.35-5.66-1.45-.79-3.66-1.01-7.68.27-11.29.57-1.6,3.03-.73,4.62-.73,31.15-.04,62.3-.03,93.45-.04Z"/>
      <path class="cls-1" d="m99.26,180c30.98,0,61.95.09,92.93-.1,4.44-.03,6.08.96,5.82,5.69-.42,7.6-.11,7.63-7.59,7.63-61.29,0-122.57.01-183.86-.05-1.95,0-4.98,1.27-5.63-1.56-.8-3.51-.97-7.38.24-10.83.53-1.5,3.04-.76,4.66-.76,31.14-.03,62.29-.02,93.43-.02Z"/>
      <path class="cls-1" d="m143.78,74.25c5.19-1.57,9.85,1.62,14.31,3.66,2.68,1.22,3.69.57,5.45-.48,8.46-5.07,19.28-4.81,26.3.63.79.61,1.55,1.27,2.21,2,.71.79.96,1.8.47,2.78-.62,1.23-1.6.73-2.57.43-10.38-3.18-19.63-.99-27.7,6.13-2.3,2.03-3.75.88-5.57-.6-7.76-6.32-16.24-9.76-26.34-6.16-.95.34-1.98.76-2.62-.41-.71-1.31.18-2.25,1.06-3.01,4.18-3.66,8.92-5.8,14.99-4.97Z"/>
      <path class="cls-1" d="m120.04,24.55c1.73.09,2.73-.15,3.37.23,6.99,4.1,13.3,1.55,20.1-1.09,5.18-2.01,10.8-.73,15.52,2.88,1.09.83,2.4,1.34,1.55,3.02-.63,1.23-1.64,1.43-2.95,1.07-7.84-2.17-14.55.04-20.41,5.39-1.71,1.56-3.19,2.54-5.61.72-6.67-5.02-14.11-6.39-22.19-3.9-.97.3-2.19,1.31-2.98-.31-.59-1.22.53-1.79,1.15-2.46,3.59-3.88,8.17-5.41,12.44-5.55Z"/>
      <path class="cls-1" d="m54.01,128.11c0-3.83.15-7.67-.05-11.49-.16-3.11,1.1-4.25,4.07-3.96.99.1,2.02.12,2.99-.03,4.71-.72,6.53,1,6.2,5.97-.43,6.47-.33,13-.03,19.48.22,4.67-1.55,6.49-6.11,5.83-.98-.14-2.02-.17-2.99-.01-3.49.55-4.27-1.22-4.13-4.29.17-3.82.04-7.66.04-11.49Z"/>
      <path class="cls-1" d="m145.54,4.89c4.96-5.75,12.87-6.49,18.17-1.8,3.31,2.93,6.39,3.67,10.57,3.21,5.02-.55,9.42,1.28,12.59,5.48.85,1.13,1.61,2.39.65,3.58-.8,1-2.13.66-3.22.08-5.05-2.68-10.33-1.82-15.58-.93-1.49.25-3.08.97-4.12-.56-4.32-6.4-10.2-9.77-19.07-9.06Z"/>
    </g>
  </g>
</svg>