<?xml version="1.0" encoding="UTF-8"?>
<svg id="Camada_2" data-name="Camada 2" xmlns="http://www.w3.org/2000/svg" viewBox="0 0 214.04 209.45">
  <defs>
    <style>
      .cls-1 {
        fill: #60b347;
      }

      .cls-2 {
        fill: #1d1d1b;
      }
    </style>
  </defs>
  <g id="Camada_1-2" data-name="Camada 1">
    <g>
      <g>
        <path class="cls-1" d="m85.67,116.07c-2.63,0-5.26-.01-7.89-.01h-13.06c-.37,0-.72-.04-1.06-.14h-12.87c-2.68,0-5.36,0-8.05,0-9.97-.02-18.76-4.88-23.54-13-4.81-8.19-4.63-18.19.5-27.44.24-.43.39-.73.48-.94-.15-.14-.36-.33-.67-.57-7.99-6.29-10.83-15.81-7.61-25.47,3.65-10.94,11.36-17.12,21.71-17.39.18,0,.3-.02.37-.04.24-.4.54-1.52.72-2.21,3.99-15.1,16.36-24.86,31.51-24.86,8.82,0,17.03,3.44,23.11,9.69,9.33,9.59,12.13,21.15,7.86,32.55-.12.32-.21.58-.27.8.13.04.29.09.46.13,9.92,2.71,17.21,9.63,21.08,20,4.36,11.67,2.97,23.96-3.81,33.72-6.59,9.5-17.38,15.17-28.85,15.17h-.12Z"/>
        <path class="cls-2" d="m66.21,8c7.35,0,14.72,2.8,20.24,8.48,7.53,7.74,10.98,17.67,6.98,28.35-1.57,4.19-.5,5.27,2.88,6.19,9.29,2.54,15.19,8.98,18.39,17.54,8.41,22.53-7.99,43.49-28.91,43.49-.03,0-.07,0-.1,0-2.61,0-5.23-.01-7.84-.01-4.38,0-8.75,0-13.13,0v-.14c-4.57,0-9.15,0-13.72,0-2.75,0-5.5,0-8.25,0-17.3-.04-29.25-17.01-19.55-34.5,1.68-3.04,1.65-4.34-1.21-6.59-6.85-5.4-8.85-13.38-6.29-21.06,2.66-7.98,8.27-14.4,18.02-14.66,3.47-.09,4.13-2.47,4.86-5.22,3.83-14.48,15.7-21.88,27.64-21.88m0-8c-16.57,0-30.66,10.94-35.22,27.28-10.75,1.21-19.01,8.36-22.88,19.95-3.46,10.37-.75,20.99,7.07,28.28-4.8,9.96-4.62,20.58.58,29.43,5.5,9.35,15.58,14.95,26.98,14.98,2.76,0,5.51,0,8.27,0h6.86s5.35,0,5.35,0c.49.09.99.14,1.51.14,2.19,0,4.38,0,6.57,0,2.19,0,4.37,0,6.56,0,2.6,0,5.21,0,7.81.01h.13c12.78,0,24.8-6.31,32.14-16.89,7.53-10.86,9.09-24.49,4.27-37.4-3.87-10.37-10.83-17.68-20.25-21.31,3.17-11.76-.29-23.83-9.76-33.56C85.34,3.87,76.11,0,66.21,0h0Zm31.62,43.13h0s0,0,0,0h0Z"/>
      </g>
      <g>
        <path class="cls-1" d="m11.03,181.93c-3.28,0-5.63-1.84-6.3-4.93-1.1-5.08-.96-9.61.41-13.48.3-.85,1.6-3.63,5.58-3.63.71,0,1.37.08,1.95.15.31.04.69.08.85.08,23.15-.03,46.3-.03,69.45-.04h24.01c7.52,0,15.05,0,22.57,0,7.52,0,15.04,0,22.56,0,13.18,0,30.58-.01,48.29-.12h.19c2.49,0,5.3.28,7.31,2.38,2.03,2.12,2.18,5,2.08,7.27l-.03.79c-.18,4.35-.3,7.23-2.59,9.28-2.17,1.95-4.83,1.95-9.66,1.95h-47.73c-40.92,0-88.52,0-135.68-.06-.18,0-.63.07-.96.11-.68.1-1.46.21-2.3.21Z"/>
        <path class="cls-2" d="m10.73,163.89c.91,0,1.97.24,2.8.24h0c31.15-.04,62.3-.03,93.45-.04,15.01,0,30.03.02,45.05.02,16.14,0,32.27-.02,48.41-.12.05,0,.11,0,.16,0,4.22,0,5.58,1.05,5.39,5.48-.35,8.19-.07,8.2-8.28,8.2h-4.64c-14,0-27.99,0-41.98,0-45.59,0-91.19,0-136.78-.06h0c-.95,0-2.19.32-3.27.32s-2.08-.35-2.39-1.77c-.79-3.66-1.01-7.68.27-11.29.27-.77.98-.97,1.81-.97m0-8c-5.25,0-8.27,3.25-9.35,6.29-1.63,4.58-1.81,9.85-.55,15.66,1.06,4.91,5.07,8.08,10.21,8.08,1.13,0,2.14-.14,2.87-.25.18-.03.36-.06.52-.07,46.99.06,95.18.06,136.66.06h20.99s20.99,0,20.99,0h4.64c5.23,0,9.02,0,12.33-2.98,3.54-3.18,3.71-7.31,3.91-12.09l.03-.79c.12-2.83-.08-6.96-3.18-10.21-3.46-3.62-8.35-3.62-10.19-3.62h-.21c-17.73.11-35.16.12-48.36.12-7.51,0-15.01,0-22.52-.01-7.51,0-15.02-.01-22.53-.01h-23.78c-22.8,0-46.38,0-69.58.04-.15-.01-.3-.04-.46-.05-.63-.08-1.49-.18-2.44-.18h0Z"/>
      </g>
      <g>
        <path class="cls-1" d="m11.43,205.45c-3.3,0-5.69-1.85-6.4-4.95-1.08-4.76-.96-9.27.37-13.04.38-1.09,1.7-3.62,5.71-3.62.65,0,1.27.06,1.82.11.32.03.63.07.9.07,19.57-.02,39.15-.02,58.72-.02h34.71c7.51,0,15.02,0,22.53.01,7.51,0,15.02.01,22.52.01,13.05,0,30.29-.01,47.85-.12h.19c2.59,0,5.51.29,7.57,2.47,2.1,2.22,2.19,5.31,2.07,7.44l-.05.87c-.48,8.86-2.31,10.54-11.53,10.54h-52.34c-41.69,0-86.48,0-131.52-.05-.18,0-.61.06-.95.1-.65.09-1.38.18-2.18.18Z"/>
        <path class="cls-2" d="m11.1,187.83c.89,0,1.92.18,2.72.18h0c19.79-.02,39.58-.02,59.37-.02,11.35,0,22.7,0,34.06,0,15.03,0,30.07.02,45.1.02,15.94,0,31.89-.02,47.83-.12.06,0,.11,0,.17,0,4.31,0,5.91,1.02,5.65,5.69-.42,7.6-.11,7.63-7.59,7.63-18.13,0-36.26,0-54.39,0-43.16,0-86.31,0-129.47-.06h0c-.92,0-2.09.28-3.12.28-1.16,0-2.16-.35-2.5-1.84-.8-3.51-.97-7.38.24-10.83.26-.75,1.03-.94,1.93-.94m0-8c-5.36,0-8.41,3.25-9.48,6.3-1.57,4.49-1.74,9.76-.49,15.25,1.12,4.9,5.16,8.06,10.3,8.06,1.06,0,2.01-.13,2.7-.22.18-.02.36-.05.52-.07,44.76.05,88.64.06,129.37.06h36.63s17.76,0,17.76,0c4.72,0,8.44,0,11.67-2.9,3.4-3.06,3.61-6.93,3.85-11.42l.05-.86c.09-1.65.37-6.68-3.16-10.41-3.12-3.3-7.24-3.73-10.48-3.73h-.21c-17.54.1-34.75.12-47.78.12-7.51,0-15.03,0-22.54-.01-7.52,0-15.04-.01-22.55-.01h-14.49s-19.56,0-19.56,0c-19.78,0-39.56,0-59.33.02-.17,0-.36-.03-.55-.05-.61-.06-1.36-.13-2.21-.13h0Z"/>
      </g>
      <g>
        <path class="cls-1" d="m167.91,102.49c-2.56,0-4.4-1.5-5.75-2.59-5.63-4.59-10.63-6.72-15.74-6.72-2.19,0-4.45.41-6.73,1.22l-.1.04c-.62.22-1.56.56-2.68.56-2,0-3.71-1.04-4.7-2.86-.86-1.58-1.75-4.71,1.94-7.93,4.72-4.13,9.65-6.14,15.07-6.14.74,0,1.5.04,2.26.12,1.02-.24,2.07-.36,3.13-.36,4.14,0,7.74,1.79,10.91,3.36.75.37,1.49.74,2.23,1.08.4.18.64.26.76.28.21-.1.6-.33.9-.51,4.66-2.79,9.9-4.25,15.23-4.25,5.85,0,11.41,1.81,15.66,5.1,1.13.88,2,1.67,2.74,2.49,1.86,2.07,2.27,4.85,1.06,7.25-.95,1.9-2.67,2.99-4.69,2.99-1,0-1.83-.27-2.38-.46l-.24-.08c-2.7-.83-5.35-1.25-7.86-1.25-5.78,0-11.02,2.14-16.02,6.55-1.57,1.39-3.25,2.09-5,2.09Z"/>
        <path class="cls-2" d="m184.64,81.79c4.85,0,9.55,1.43,13.21,4.26.79.61,1.55,1.27,2.21,2,.71.79.96,1.8.47,2.78-.3.6-.69.79-1.12.79s-.95-.21-1.45-.36c-3.11-.95-6.12-1.42-9.03-1.42-6.79,0-13.02,2.57-18.66,7.55-.89.78-1.65,1.09-2.35,1.09-1.12,0-2.1-.78-3.22-1.7-5.6-4.56-11.57-7.62-18.26-7.62-2.58,0-5.26.46-8.08,1.46-.48.17-.98.36-1.44.36s-.87-.19-1.18-.77c-.71-1.31.18-2.25,1.06-3.01,3.58-3.13,7.56-5.15,12.44-5.15.82,0,1.67.06,2.55.18.97-.29,1.91-.42,2.84-.42,4.07,0,7.83,2.42,11.47,4.08,1.03.47,1.81.66,2.49.66,1.08,0,1.88-.5,2.96-1.14,4.05-2.43,8.64-3.63,13.1-3.63m0-8c-5.73,0-11.37,1.48-16.38,4.29-.31-.15-.63-.31-.95-.47-3.39-1.68-7.6-3.78-12.69-3.78-1.13,0-2.26.11-3.37.32-.68-.05-1.36-.08-2.02-.08-6.43,0-12.22,2.33-17.7,7.12-6.32,5.53-3.46,11.68-2.82,12.85,1.69,3.1,4.75,4.95,8.21,4.95,1.81,0,3.25-.51,4.02-.79l.09-.03c1.88-.67,3.64-.99,5.39-.99,4.13,0,8.33,1.85,13.21,5.82,1.6,1.31,4.29,3.49,8.27,3.49,2.75,0,5.32-1.04,7.64-3.09,4.23-3.74,8.6-5.55,13.37-5.55,2.11,0,4.36.36,6.69,1.07l.16.05c.7.23,1.99.65,3.63.65,3.54,0,6.64-1.94,8.27-5.2,1.93-3.84,1.28-8.44-1.66-11.72-.91-1.01-1.95-1.96-3.27-2.98-4.94-3.83-11.37-5.94-18.11-5.94h0Z"/>
      </g>
      <g>
        <path class="cls-1" d="m142.05,49.76c-1.63,0-3.26-.6-4.83-1.79-3.85-2.9-7.81-4.31-12.11-4.31-2.09,0-4.27.35-6.5,1.03-.04.01-.12.05-.2.09-.59.25-1.57.68-2.79.68-2.06,0-3.8-1.15-4.77-3.15-.67-1.38-1.34-4.09,1.65-6.78.06-.05.12-.11.18-.16,3.89-4.2,9.3-6.62,15.23-6.81.04,0,.08,0,.13,0,.07,0,.14,0,.22,0,.26.01.49.02.71.02s1.02-.01,1.21-.01c.96,0,2.11.09,3.26.77,1.87,1.09,3.68,1.6,5.7,1.6,3.27,0,6.84-1.38,10.62-2.85l.31-.12c2.09-.81,4.28-1.22,6.52-1.22,4.45,0,8.9,1.61,12.88,4.65.12.09.24.18.36.26,4.02,2.8,3.18,6.06,2.32,7.75-1.1,2.17-3.1,3.42-5.47,3.42-.68,0-1.38-.1-2.12-.31-1.63-.45-3.23-.68-4.76-.68-4.19,0-8.07,1.69-11.88,5.17-.98.89-3.01,2.75-5.87,2.75Z"/>
        <path class="cls-2" d="m156.58,30.75c3.62,0,7.24,1.38,10.45,3.83,1.09.83,2.4,1.34,1.55,3.02-.45.88-1.09,1.23-1.9,1.23-.32,0-.67-.06-1.05-.16-2.02-.56-3.96-.83-5.83-.83-5.41,0-10.23,2.24-14.58,6.22-1.05.96-2.02,1.7-3.17,1.7-.72,0-1.51-.29-2.43-.98-4.5-3.38-9.35-5.11-14.51-5.11-2.49,0-5.05.4-7.68,1.21-.56.17-1.21.59-1.81.59-.43,0-.84-.22-1.17-.9-.59-1.22.53-1.79,1.15-2.46,3.59-3.88,8.17-5.41,12.44-5.55.34.02.64.02.93.02.47,0,.86-.02,1.21-.02.53,0,.93.04,1.24.22,2.65,1.55,5.21,2.15,7.73,2.15,4.12,0,8.16-1.6,12.38-3.24,1.66-.64,3.36-.95,5.07-.95m0-8c-2.73,0-5.41.5-7.96,1.49l-.31.12c-3.57,1.38-6.65,2.58-9.18,2.58-1.3,0-2.43-.33-3.68-1.06-2.02-1.18-3.98-1.32-5.28-1.32-.21,0-.43,0-.66,0-.17,0-.35,0-.54,0-.15,0-.31,0-.49-.01-.14,0-.29-.01-.43-.01-.08,0-.17,0-.25,0-6.94.22-13.3,3.05-17.92,7.97l-.03.02c-5.28,4.74-3.31,10-2.58,11.5,1.64,3.38,4.77,5.41,8.37,5.41,2.04,0,3.62-.68,4.37-1h0c1.77-.53,3.49-.79,5.11-.79,3.4,0,6.57,1.15,9.7,3.5,2.28,1.72,4.72,2.59,7.24,2.59,4.42,0,7.33-2.66,8.57-3.8,3.04-2.78,6.04-4.13,9.18-4.13,1.17,0,2.41.18,3.69.54,1.08.3,2.15.45,3.19.45,3.87,0,7.25-2.1,9.03-5.61.65-1.28,3.52-7.89-3.6-12.84-.07-.05-.15-.1-.22-.16-4.68-3.58-9.98-5.47-15.31-5.47h0Z"/>
      </g>
      <g>
        <path class="cls-1" d="m70.74,156.03c-.69,0-1.44-.06-2.23-.17-.35-.05-.69-.08-1.02-.08-.28,0-.54.02-.78.06-.63.1-1.23.15-1.78.15-2.6,0-4.18-1.08-5.05-1.99-1.9-1.99-2.01-4.71-1.93-6.58.12-2.55.09-5.08.06-7.77-.01-1.18-.02-2.36-.02-3.54,0-1.17.01-2.34.03-3.52.03-2.69.06-5.22-.07-7.76-.14-2.62.49-4.68,1.88-6.14,1.3-1.38,3.1-2.07,5.35-2.07.39,0,.8.02,1.24.06.39.04.76.06,1.08.06s.65-.02.91-.06c.89-.13,1.69-.2,2.46-.2,2.61,0,4.69.8,6.17,2.39,1.69,1.81,2.4,4.42,2.16,7.99-.36,5.5-.37,11.54-.02,19.03.16,3.46-.59,6-2.28,7.77-1.5,1.57-3.58,2.37-6.16,2.37Z"/>
        <path class="cls-2" d="m70.88,120.47c3.33,0,4.62,1.87,4.34,6.12-.43,6.47-.33,13-.03,19.48.19,4.05-1.12,5.96-4.45,5.96-.5,0-1.06-.04-1.66-.13-.52-.08-1.06-.12-1.59-.12-.47,0-.95.03-1.4.11-.42.07-.81.1-1.16.1-2.51,0-3.1-1.7-2.97-4.39.17-3.82.04-7.66.04-11.49,0-3.83.15-7.67-.05-11.49-.15-2.79.86-4,3.23-4,.26,0,.55.02.84.04.49.05.98.08,1.48.08s1.02-.03,1.52-.11c.68-.1,1.3-.16,1.86-.16m0-8c-.97,0-1.97.08-3.06.25-.02,0-.12.02-.31.02s-.43-.01-.68-.04c-.56-.06-1.11-.08-1.64-.08-4.21,0-6.81,1.81-8.25,3.32-2.17,2.29-3.17,5.35-2.97,9.11.13,2.41.1,4.88.07,7.5-.01,1.19-.03,2.38-.03,3.57,0,1.19.01,2.39.02,3.59.03,2.62.05,5.1-.06,7.54-.07,1.5-.28,6.07,3.03,9.53,1.41,1.47,3.92,3.23,7.94,3.23.76,0,1.57-.07,2.4-.2,0,0,.05,0,.16,0,.13,0,.29.01.44.03.98.14,1.92.21,2.8.21,4.64,0,7.49-1.96,9.06-3.61,2.46-2.57,3.6-6.18,3.39-10.72-.34-7.34-.33-13.24.02-18.59.11-1.74.46-7.04-3.24-10.99-1.56-1.67-4.41-3.66-9.09-3.66h0Z"/>
      </g>
      <g>
        <path class="cls-1" d="m194.16,27.99c-1.2,0-2.45-.34-3.73-1.02-1.72-.91-3.6-1.34-5.92-1.34s-4.75.42-7.11.82c-.19.03-.39.08-.58.12-.66.15-1.48.33-2.41.33-2.12,0-3.93-.96-5.11-2.72-3.45-5.11-7.61-7.39-13.49-7.39-.63,0-1.28.03-1.95.08-.11,0-.21.01-.32.01-1.5,0-2.88-.84-3.57-2.19-.73-1.45-.52-3.19.54-4.42,3.43-3.98,8.23-6.26,13.17-6.26,3.91,0,7.71,1.45,10.68,4.08,1.9,1.68,3.52,2.33,5.78,2.33.52,0,1.08-.03,1.7-.1.73-.08,1.45-.12,2.16-.12,5.66,0,10.52,2.48,14.06,7.17,2.96,3.92,1.95,6.78.58,8.49-1.1,1.38-2.69,2.13-4.49,2.13Z"/>
        <path class="cls-2" d="m163.68,8.02c2.87,0,5.7,1.01,8.03,3.07,2.72,2.4,5.28,3.33,8.43,3.33.68,0,1.4-.04,2.14-.13.58-.06,1.16-.1,1.72-.1,4.3,0,8.06,1.86,10.87,5.58.85,1.13,1.61,2.39.65,3.58-.37.46-.85.63-1.37.63-.61,0-1.27-.24-1.85-.55-2.55-1.36-5.16-1.81-7.8-1.81s-5.18.43-7.78.87c-.78.13-1.58.39-2.32.39-.68,0-1.3-.22-1.8-.95-3.94-5.84-9.18-9.15-16.81-9.15-.73,0-1.49.03-2.26.09,2.78-3.22,6.49-4.87,10.14-4.87M163.68.02c-6.11,0-12.01,2.79-16.2,7.65-2.12,2.46-2.54,5.95-1.08,8.84,1.37,2.7,4.14,4.38,7.13,4.38.21,0,.42,0,.64-.03.56-.04,1.11-.07,1.63-.07,4.53,0,7.48,1.63,10.17,5.63,1.92,2.85,4.99,4.48,8.43,4.48,1.37,0,2.51-.25,3.27-.42.13-.03.26-.06.39-.08,2.2-.37,4.49-.76,6.44-.76,1.66,0,2.91.27,4.05.87,1.86.99,3.74,1.49,5.6,1.49,2.99,0,5.76-1.33,7.61-3.64,1.16-1.45,4.55-6.7-.51-13.4-4.26-5.65-10.39-8.76-17.25-8.76-.85,0-1.73.05-2.6.14-.47.05-.9.08-1.26.08-1.01,0-1.73-.09-3.13-1.33C173.3,1.82,168.57.02,163.68.02h0Z"/>
      </g>
    </g>
  </g>
</svg>