<?xml version="1.0" encoding="UTF-8"?>
<svg id="Camada_2" data-name="Camada 2" xmlns="http://www.w3.org/2000/svg" viewBox="0 0 225.84 222.76">
  <defs>
    <style>
      .cls-1 {
        fill: #03699d;
      }
    </style>
  </defs>
  <g id="Camada_1-2" data-name="Camada 1">
    <g>
      <path class="cls-1" d="m191.48,58.08c-6.01-1.09-5.96,2.32-5.17,6.17.82,4.01,1.72,8,2.02,12.17-3.13-3.51-3.87-8.07-3.98-12.33-.14-5.44-2.21-5.33-6.35-3.99-11.93,3.88-17.96,12.87-17.79,28.56.11,9.69-.34,19.28-3.29,28.48-6.05,18.85-19.58,30.01-38.13,35.57-4.13,1.24-8.38,2.22-12.64,2.87-2.59.39-3.32,1.44-3.26,3.88.13,5.49.1,10.99.03,16.49-.03,1.96.35,3.11,2.69,3.11,18.63,0,37.29,1.2,55.85-1.75,3.18-.51,3.69-1.76,3.59-4.46-.46-12.57.63-10.92,11.25-10.95,9.66-.03,19.33.13,28.99-.07,4.17-.09,5.59,1.56,5.54,5.6-.15,11.33-.16,22.66.02,33.98.07,4.24-1.75,5.48-5.72,5.43-11.16-.15-22.32-.02-33.49-.06-5.83-.02-6.59-.85-6.62-6.63-.04-8.61-.07-8.34-8.25-9.39-21.67-2.79-43.4-1.38-65.11-1.08-23.15.32-46.29.94-69.43,1.71-4.46.15-5.74-1.1-5.58-5.53.32-8.92.08-9.03,8.97-8.82,17.48.4,34.96.85,52.44,1.48,3.59.13,5.19-.6,4.91-4.56-.33-4.81-.09-9.66-.12-14.49,0-1.48.21-2.64-2.23-2.82-10.51-.77-20.46-3.86-29.67-8.9-7.99-4.38-15.66-9.36-24.52-14.71,3.47,0,5.81-.1,8.13.02,11.27.59,20.23-4.33,28.29-11.6,5.15-4.64,9.4-10.33,17.28-13.64-3.18-.85-4.98-1.36-6.8-1.8-11.75-2.9-20-10.1-25.53-20.69-4.64-8.88-7.17-18.36-8.74-28.21-.7-4.41-2.07-8.75-3.57-12.97-2.18-6.15-4.93-12.04-11.72-16.43,8.03-1.63,14.8-.73,21.48.61,15.94,3.21,28.74,11.9,39.93,23.3,4.8,4.89,10.02,9.23,16.22,12.34,13.14,6.6,25.47,5.07,36.94-3.72,6.07-4.65,11.72-9.85,17.71-14.61,2.99-2.38,6.38-4.09,10.31-4.67,6.12-.91,10.62,1.51,14.27,6.23,2.2,2.84,3.86,3.76,5.25-.95,1.78-6.02,6.06-10.64,10.24-15.2,3.15-3.43,6.28-6.89,9.49-10.27.7-.74,1.11-2.68,2.54-1.65,1.7,1.23-.15,2.46-.81,3.22-4.24,4.91-8.65,9.67-12.98,14.5-.89.99-1.75,2.02-2.5,3.11-2,2.89-3.25,6.14-4.64,9.35-2.01,4.66,3.48,5.06,4.26,8.78Zm-94.36,109.73c0-2.15-.05-4.3.01-6.45.08-2.65.15-4.89-3.76-4.65-3.19.2-4.95.82-4.71,4.51.27,4.12.18,8.27.01,12.4-.13,3.11.45,4.86,4.22,4.94,3.85.08,4.45-1.7,4.25-4.8-.13-1.98-.02-3.97-.02-5.95Z"/>
      <path class="cls-1" d="m188.23,211.02c6.49,0,12.97.03,19.46-.01,4.06-.03,7.02,1.44,6.98,5.88-.04,4.47-3.18,5.83-7.12,5.84-12.81.02-25.62.05-38.42,0-4.66-.02-7.8-2.49-7.58-6.01.31-4.78,3.59-5.79,7.72-5.73,6.32.09,12.64.02,18.96.03Z"/>
      <path class="cls-1" d="m188.08,157.2c-6.67,0-13.33-.05-20,.02-3.72.04-6.31-1.47-6.47-5.3-.18-4.11,2.42-5.99,6.36-5.99,13.5-.02,27-.02,40.49.01,3.71,0,6.25,1.81,6.27,5.61.02,3.76-2.31,5.66-6.16,5.64-6.83-.04-13.66,0-20.5,0v.02Z"/>
      <path class="cls-1" d="m12.78,184.46c0,1.5.02,2.99,0,4.49-.06,4.12-2.18,5.92-6.29,5.96-4.16.04-6.22-1.95-6.4-5.92-.14-2.99-.09-5.98,0-8.97.14-4.98,2.02-6.89,6.54-6.81,4.44.08,5.97,2.84,6.15,6.78.07,1.49.01,2.99.02,4.49Z"/>
      <path class="cls-1" d="m225.84,4.25c0,6.63-6.12,12.59-12.87,12.59-1.79,0-2.66-.77-2.98-2.58-1.11-6.42,7.47-15.2,13.95-14.17q1.91.3,1.9,4.16Z"/>
      <path class="cls-1" d="m190.41,27.37c-.74,2.72-.55,7.54-3.64,8.21-3.32.73-5.78-3.23-7.29-6.39-2.06-4.32-.79-8.43,1.37-12.37.63-1.16,1.42-1.99,2.73-.97,3.63,2.83,6.72,6.03,6.84,11.51Z"/>
      <path class="cls-1" d="m190.98,11.58c.14-4.11.3-8.37,3.69-9.15,3.08-.71,5.24,3.04,6.8,5.75,2.5,4.35,1.35,8.67-.79,12.85-.97,1.89-2.23,1.67-3.61.56-3.46-2.77-6.35-5.87-6.09-10.01Z"/>
      <path class="cls-1" d="m215.17,34.51c-2.94-.35-7.66-1.24-8.02-4.4-.38-3.34,4.21-4.84,7.53-5.95.15-.05.33-.05.49-.08,3.69-.55,10.18,2.05,10.44,4.19.27,2.26-6.04,6.27-10.44,6.23Z"/>
      <path class="cls-1" d="m203.5,38c.95,0,1.29-.03,1.62,0,3.72.34,6.5,2.38,8.74,5.14,1.02,1.25-.1,2.2-1.17,2.72-3.61,1.75-7.13,4.64-11.41,1.88-2.3-1.48-6.21-2.98-5.51-5.65.86-3.3,5.1-3.56,7.74-4.09Z"/>
    </g>
  </g>
</svg>