<?xml version="1.0" encoding="UTF-8"?>
<svg id="Camada_2" data-name="Camada 2" xmlns="http://www.w3.org/2000/svg" viewBox="0 0 200.38 196.01">
  <defs>
    <style>
      .cls-1 {
        fill: #15466a;
      }
    </style>
  </defs>
  <g id="Camada_1-2" data-name="Camada 1">
    <path class="cls-1" d="m100.04,0c22.92.57,39.31,11.14,48.71,32.23.93,2.09,1.83,3,4.26,3.08,17.88.59,37.23,14.94,43.29,31.44,8.39,22.87,3.87,42.68-13.61,59.51-2.11,2.03-2.52,4-1.88,6.63,6.1,24.98-11.04,52.9-35.54,60.22-15.29,4.56-28.92,2.51-42.21-5.2-2.41-1.4-4-.51-5.89.63-12.22,7.4-26.05,9.24-39.09,5.79-19.48-5.16-32.82-18.29-38.27-38.45-2.07-7.66-3.02-15.25-.39-22.92,1.07-3.12.06-5.17-2.31-7.37C.91,110.63-3.52,91.91,2.69,71.45c6.29-20.76,21.34-32.78,42.89-36.25,3.48-.56,5.68-1.94,7.33-5.42C60.11,14.55,72.2,5.11,88.48.87c3.81-.99,7.63-.38,11.56-.87Zm-.17,64.18c1.69-.74,1.92-2.19,2.6-3.3,7.36-12,17.65-20.2,31.22-24.19,5.51-1.62,5.59-1.86,2.49-6.82C118.68,1.93,78.44,3.48,62.44,32.65c-1.78,3.24.3,3.17,2.37,3.61,7.46,1.59,13.99,5.05,20.05,9.64,6.5,4.92,11.05,11.39,15.01,18.28Zm-36.21,26.63c-.62-1.12-.93-2.09-1.57-2.78-10.17-11.04-15.1-24-14.16-39.02.22-3.54-1.29-3.87-4.13-3.21-17.42,4.06-28.41,15.14-32.61,32.09-3.53,14.25.6,27.21,10.56,38.16,1.66,1.82,2.82,2.43,4.44-.21,8.56-13.93,21.46-21.58,37.46-25.02Zm126.62-3.88c-.15-1.78-.3-4.11-.57-6.42-.13-1.15-.41-2.29-.73-3.4-4.59-16.11-14.61-26.16-31.17-30.66-6.28-1.71-5.26.52-5.23,4.33.13,14.05-4.28,26.48-13.94,36.77-2.88,3.07-1.55,3.36,1.48,4,14.55,3.09,25.91,10.97,33.87,23.51,2.11,3.33,3.41,2.5,5.47.16,7.01-7.95,10.48-17.23,10.81-28.29ZM28.38,143.49c.12,5.52,1.11,10.81,3.29,15.94,5.67,13.39,16.28,21.2,29.54,25.57,8.79,2.9,17.43.68,25.76-2.81,5.29-2.22,5.33-2.12,1.88-6.55-8.6-11.04-13.18-23.61-11.73-37.5.63-5.98-1.56-3.89-4.27-2.99-.62.21-1.17.62-1.78.87-11.39,4.86-23.07,5.06-34.74,1.52-7.98-2.42-7.88-2.75-7.96,5.94Zm101.1,41.67c5.82.85,11.32-1.15,16.68-3.35,17.09-7.01,27.55-24.96,25.63-43.32-.33-3.19-1.27-4.17-4.37-2.74-2.67,1.23-5.48,2.8-8.3,2.98-10.68.69-21.51,2.07-31.59-3.33-3.71-1.99-5.48-1.38-5.08,3.41,1.18,14.25-2.25,27.22-11.64,38.27-1.76,2.07-1.16,2.94.92,4.05,5.52,2.92,11.27,4.62,17.75,4.04Zm.14-84.5c-5.46-.17-10.53,1.19-15.59,2.98-3.46,1.22-3.83,2.7-1.94,5.71,11.22,17.91,32.4,24.4,51.73,17,2.99-1.15,3.81-2.58,1.92-5.52-8.49-13.18-20.57-19.76-36.11-20.17Zm-77.06,28.67c15.85-.35,27.85-7.44,36.35-20.76,1.4-2.2.76-3.43-1.44-4.08-4.08-1.2-8.14-2.9-12.31-3.28-17.59-1.62-30.88,5.78-40.65,20.21-1.73,2.56-1.19,3.82,1.48,4.79,5.35,1.94,10.82,3.21,16.59,3.13Zm60.38,13.36c-.05-10.18-3.93-18.91-10.02-26.86-2.12-2.77-3.62-2.37-5.78.09-12.98,14.75-12.73,40.21.5,54.59,2.39,2.59,3.68,2.22,5.71-.26,6.58-8.05,9.62-17.24,9.6-27.56Zm28.89-89.06c0-.83,0-1.66,0-2.5.04-6.34.08-6.21-6.34-4.34-16.83,4.91-30.22,21.55-30.09,41.87.03,4.73,1.81,5.34,5.66,4.25,18.99-5.38,32.06-22.74,30.77-39.29Zm-47.94,29.55c.47-18.41-16.08-33.63-31.84-37.2-3.08-.7-4.47.07-4.6,3.64-.61,16.7,9.4,33.31,24.8,40.63,11.03,5.24,11.65,4.87,11.63-7.07Z"/>
  </g>
</svg>