<?xml version="1.0" encoding="UTF-8"?>
<svg id="Camada_2" data-name="Camada 2" xmlns="http://www.w3.org/2000/svg" viewBox="0 0 216.4 212.01">
  <defs>
    <style>
      .cls-1 {
        fill: #15466a;
      }

      .cls-2 {
        fill: #1d1d1b;
      }
    </style>
  </defs>
  <g id="Camada_1-2" data-name="Camada 1">
    <g>
      <path class="cls-1" d="m78.92,208.01c-4.64,0-9.3-.61-13.84-1.81-21.1-5.58-35.32-19.86-41.11-41.27-1.84-6.81-3.54-15.83-.31-25.26.34-1,.52-1.51-1.25-3.14C5.46,120.85.09,100.71,6.89,78.29c6.59-21.75,22.53-35.25,46.08-39.04,2.41-.39,3.35-1.07,4.35-3.18,7.56-15.98,20.41-26.44,38.18-31.07,2.73-.71,5.29-.74,7.77-.77,1.5-.02,2.92-.03,4.3-.2.16-.02.33-.03.49-.03.03,0,.07,0,.1,0,24.72.61,42.3,12.25,52.26,34.6.16.35.27.56.34.68.09.01.22.02.4.03,19.21.63,40.25,15.91,46.91,34.06,8.94,24.38,4.03,45.83-14.59,63.77-.98.94-1.1,1.41-.77,2.8,6.5,26.6-11.39,56.97-38.28,65-5.71,1.7-11.36,2.57-16.81,2.57-9.77,0-19.1-2.66-28.55-8.14-.27-.16-.39-.18-.4-.18-.21.04-1.03.54-1.42.77-8.69,5.26-18.49,8.04-28.34,8.04Zm-38.51-56.55c.12,5.26,1.09,9.97,2.97,14.41,4.77,11.26,13.64,18.89,27.11,23.34,2.32.77,4.67,1.14,7.19,1.14,4.51,0,9.52-1.22,15.77-3.84,0,0,.4-.17.44-.18-.04-.05-.08-.1-.12-.15-9.44-12.13-13.71-25.09-12.76-38.62-.11.05-.22.1-.33.15-6.63,2.83-13.57,4.27-20.63,4.27-5.5,0-11.16-.87-16.84-2.59l-.91-.28c-.61-.19-1.26-.38-1.85-.55-.02.8-.03,1.75-.04,2.67v.25Zm97.1,37.7c.19,0,.39.01.58.04.72.11,1.46.16,2.21.16,4.1,0,8.19-1.54,12.36-3.25,15.08-6.19,24.53-21.78,23.26-38.17-.03.02-.07.03-.1.05-2.48,1.19-5.3,2.53-8.43,2.73-.98.06-1.95.13-2.93.2-3.42.24-6.95.49-10.48.49-4.94,0-12.24-.43-19.46-4.04,1.05,14.95-2.82,28.03-11.52,38.92,4.2,2.03,8.04,2.98,11.98,2.98h0c.71,0,1.44-.03,2.16-.1.12-.01.24-.02.36-.02Zm-29.43-62.49c-11.52,13.21-11.35,35.94.31,48.9,5.78-7.14,8.59-15.28,8.58-24.87-.04-8.26-2.95-16.13-8.89-24.03Zm15.5-11.32c7.22,11.45,18.98,18.01,32.27,18.01h0c4.84,0,9.67-.89,14.36-2.66-7.69-11.75-18.37-17.66-32.66-18.04-.28,0-.54-.01-.81-.01-4.8,0-9.33,1.35-13.16,2.7Zm-77.16,15.48c4.98,1.71,9.34,2.52,13.65,2.52h.47c13.75-.3,24.28-6.04,32.12-17.53-.57-.18-1.14-.37-1.71-.56-2.85-.93-5.53-1.82-8.13-2.05-1.46-.13-2.91-.2-4.31-.2-13.17,0-23.67,5.83-32.09,17.83Zm5.5-72.93c-15.3,3.82-24.99,13.56-28.8,28.95-2.98,12.03-.07,23.26,8.66,33.4,7.7-11.76,18.64-19.62,33.31-23.89-9.37-11.17-13.81-24.1-13.17-38.46Zm99.55,38.31c14.15,3.59,25.39,11.62,33.44,23.91,6-6.99,9.08-15.21,9.41-25.08-.04-.43-.07-.89-.11-1.37-.11-1.45-.24-3.1-.43-4.7-.09-.77-.27-1.62-.6-2.76-4.26-14.93-13.27-23.79-28.37-27.9-.06-.02-.13-.03-.19-.05,0,.16,0,.32,0,.48.14,14.49-4.29,27.08-13.16,37.47Zm-57.72,17.91h0Zm50.89-55.47c-16.14,4.71-27.33,20.34-27.21,38,0,.22,0,.41.02.58.16-.04.35-.09.55-.15,16.8-4.76,29.04-20.19,27.87-35.12,0-.1-.01-.21-.01-.31v-.77c0-.58,0-1.17,0-1.75,0,0,0-.59,0-.83-.27.08-1.22.36-1.22.36Zm-75.16-.68c-.47,15.08,8.77,30.15,22.53,36.69,1.45.69,4.08,1.94,5.75,2.52.18-1.69.17-4.45.17-5.97,0-.04,0-.07,0-.11.42-16.29-14.39-29.82-28.45-33.13Zm5.61-17.28c6.93,1.7,13.56,4.99,20.22,10.04,5.59,4.23,9.73,9.45,12.91,14.31,7.91-12.04,18.79-20.17,32.37-24.16.18-.05.4-.12.64-.19-.16-.25-.3-.49-.42-.67-7.23-11.56-19.05-18.18-32.42-18.18s-26,7.01-33.31,18.86Z"/>
      <path class="cls-2" d="m108.07,8c22.92.57,39.3,11.14,48.71,32.23.93,2.09,1.83,3,4.26,3.08,17.88.59,37.23,14.94,43.29,31.44,8.39,22.87,3.87,42.68-13.61,59.51-2.11,2.03-2.52,4-1.88,6.63,6.1,24.98-11.04,52.9-35.54,60.22-5.41,1.61-10.61,2.4-15.67,2.4-9.23,0-17.96-2.62-26.54-7.6-.88-.51-1.65-.72-2.37-.72-1.24,0-2.32.62-3.52,1.35-8.27,5-17.27,7.47-26.27,7.47-4.3,0-8.6-.56-12.82-1.68-19.48-5.16-32.82-18.29-38.27-38.45-2.07-7.66-3.02-15.25-.39-22.92,1.07-3.12.06-5.17-2.31-7.37-16.18-14.97-20.62-33.69-14.41-54.14,6.29-20.76,21.34-32.78,42.89-36.25,3.48-.56,5.68-1.94,7.33-5.42,7.2-15.22,19.3-24.67,35.57-28.9,3.81-.99,7.63-.38,11.56-.87m-.17,64.18c1.69-.74,1.92-2.19,2.6-3.3,7.36-12,17.65-20.2,31.22-24.19,5.51-1.62,5.59-1.86,2.49-6.82-8.42-13.44-22.1-20.06-35.81-20.06-14.79,0-29.62,7.7-37.92,22.84-1.78,3.24.3,3.17,2.37,3.61,7.46,1.59,13.99,5.05,20.05,9.64,6.5,4.92,11.05,11.39,15.01,18.28m-75.78,53.43c.67,0,1.34-.52,2.12-1.79,8.56-13.93,21.46-21.58,37.46-25.02-.62-1.12-.93-2.09-1.57-2.78-10.17-11.04-15.1-24-14.16-39.02.16-2.63-.62-3.49-2.2-3.49-.55,0-1.2.1-1.93.28-17.42,4.06-28.41,15.14-32.61,32.09-3.53,14.25.6,27.21,10.56,38.16.86.95,1.59,1.57,2.32,1.57m84.3-24.23c.74,0,1.63-.17,2.66-.46,18.99-5.38,32.06-22.74,30.77-39.29,0-.83,0-1.66,0-2.5.03-4.05.05-5.46-1.61-5.46-.94,0-2.41.45-4.73,1.13-16.83,4.91-30.22,21.55-30.09,41.87.02,3.46.98,4.71,3,4.71m-17.44.09c2.72,0,2.94-2.97,2.93-10.28.47-18.41-16.08-33.63-31.83-37.2-.67-.15-1.25-.23-1.77-.23-1.85,0-2.73,1.08-2.83,3.87-.61,16.7,9.4,33.31,24.8,40.63,4.27,2.03,6.98,3.22,8.7,3.22m85.66,23.8c.9,0,1.77-.81,2.87-2.05,7.01-7.95,10.48-17.23,10.81-28.29-.15-1.78-.3-4.11-.57-6.42-.13-1.15-.41-2.29-.73-3.4-4.59-16.11-14.61-26.16-31.17-30.66-1.46-.4-2.53-.58-3.3-.58-2.55,0-1.95,1.99-1.92,4.91.13,14.05-4.28,26.48-13.94,36.77-2.88,3.07-1.55,3.36,1.48,4,14.55,3.09,25.91,10.97,33.87,23.51.99,1.57,1.81,2.21,2.6,2.21m-28.8,12.09c5.31,0,10.72-.98,16-3,2.99-1.15,3.81-2.58,1.92-5.52-8.49-13.18-20.57-19.76-36.11-20.17-.3,0-.61-.01-.91-.01-5.11,0-9.9,1.3-14.68,2.99-3.46,1.22-3.83,2.7-1.94,5.71,8.16,13.02,21.58,20,35.73,20m-95.77-.02c.17,0,.35,0,.52,0,15.85-.35,27.85-7.44,36.35-20.76,1.4-2.2.76-3.43-1.44-4.08-4.08-1.2-8.14-2.9-12.31-3.28-1.59-.15-3.15-.22-4.67-.22-15.3,0-27.09,7.31-35.98,20.42-1.73,2.56-1.19,3.82,1.48,4.79,5.19,1.88,10.49,3.13,16.06,3.13m48.41,42.95c.94,0,1.81-.72,2.88-2.04,6.58-8.05,9.61-17.24,9.6-27.56-.05-10.18-3.93-18.91-10.02-26.86-1.01-1.32-1.88-1.92-2.75-1.92-.95,0-1.9.72-3.04,2.01-12.98,14.75-12.73,40.21.5,54.59,1.12,1.22,2,1.78,2.82,1.78m-48.43-32.33c-5.21,0-10.44-.83-15.68-2.42-2.89-.88-4.72-1.48-5.88-1.48-2.05,0-2.03,1.87-2.08,7.42.12,5.52,1.11,10.81,3.29,15.94,5.67,13.39,16.28,21.2,29.54,25.57,2.83.93,5.65,1.34,8.44,1.34,5.88,0,11.67-1.78,17.32-4.15,5.29-2.22,5.33-2.12,1.88-6.55-8.6-11.04-13.18-23.61-11.73-37.5.33-3.19-.13-4.08-1.06-4.08-.8,0-1.95.68-3.21,1.1-.62.21-1.17.61-1.78.87-6.28,2.68-12.65,3.94-19.06,3.94m74.93,45.3c.83,0,1.67-.04,2.52-.11.94.14,1.87.2,2.8.2,4.8,0,9.39-1.71,13.88-3.55,17.09-7.01,27.55-24.96,25.63-43.32-.23-2.23-.76-3.38-2.12-3.38-.58,0-1.32.21-2.25.64-2.67,1.23-5.48,2.8-8.3,2.98-4.38.28-8.79.68-13.16.68-6.28,0-12.49-.83-18.43-4.01-1.28-.69-2.34-1.07-3.15-1.07-1.53,0-2.19,1.34-1.94,4.47,1.18,14.25-2.25,27.22-11.64,38.27-1.76,2.07-1.16,2.94.92,4.05,4.79,2.54,9.76,4.15,15.23,4.15M108.07,0c-.33,0-.66.02-.99.06-1.15.14-2.46.16-3.84.17-2.59.03-5.53.06-8.74.89-18.98,4.94-32.7,16.12-40.79,33.23-.2.42-.34.63-.41.72-.11.04-.39.14-.96.23C27.17,39.36,10.13,53.82,3.06,77.13c-7.26,23.93-1.55,45.44,16.5,62.21-3.15,10.09-1.38,19.5.55,26.63,3.07,11.35,8.43,20.92,15.94,28.42,7.46,7.46,16.88,12.73,28.01,15.67,4.88,1.29,9.88,1.94,14.86,1.94,10.34,0,20.63-2.85,29.79-8.25,9.52,5.21,19,7.75,28.91,7.75,5.83,0,11.87-.92,17.95-2.73,13.66-4.08,25.99-13.93,33.83-27.04,7.97-13.33,10.56-28.28,7.33-42.17,9.56-9.36,15.71-19.78,18.28-31,2.61-11.4,1.53-23.7-3.18-36.56-3.48-9.49-10.58-18.51-20-25.39-8.86-6.48-18.89-10.4-28.46-11.17-5.24-11.13-12.47-19.77-21.49-25.7C132.55,3.6,121.24.32,108.26,0c-.07,0-.13,0-.2,0h0Zm-26.5,38.48c6.67-8.04,16.29-12.67,26.82-12.67s19.95,4.59,26.49,12.73c-10.64,3.99-19.57,10.55-26.64,19.58-2.84-3.7-6.29-7.4-10.52-10.61-5.33-4.04-10.67-7.03-16.15-9.04h0ZM31.68,113.54c-5.37-7.99-6.94-16.63-4.68-25.74,3.04-12.28,9.91-20.34,20.91-24.49.49,11.28,4.03,21.67,10.59,31.03-10.99,4.15-19.97,10.58-26.82,19.2h0Zm62.23-22.43c-.07-.03-.14-.07-.2-.09-10.68-5.07-18.33-15.86-19.95-27.43,10.74,4.66,20.45,15.47,20.15,27.39,0,.05,0,.09,0,.14h0Zm64.26,2.94c6.17-8.86,9.63-19.03,10.32-30.36,10.9,4.17,17.41,11.61,20.83,23.6.16.57.39,1.42.47,2.12.18,1.53.3,3.14.41,4.55.03.4.06.79.09,1.16-.27,7.03-1.99,12.95-5.34,18.22-7.07-9.03-16.04-15.49-26.79-19.29h0Zm-36.43-2.59c1.63-12.3,9.34-22.87,20.2-27.61.05,11.13-8.3,22.34-20.2,27.61h0Zm8.38,26.06c2.12-.52,4.36-.88,6.61-.88.22,0,.44,0,.67.01,10.98.29,19.59,4.18,26.17,11.85-2.56.56-5.15.85-7.74.85-10.11,0-19.23-4.25-25.71-11.84h0Zm-76.87,11.08c6.95-7.8,15.26-11.6,25.25-11.6,1.28,0,2.6.06,3.94.19,1.1.1,2.28.36,3.53.71-6.62,7.45-15.03,11.21-25.53,11.45-.13,0-.25,0-.38,0-2.2,0-4.44-.24-6.81-.74h0Zm55.03,40.13c-6.13-10.19-6.25-24.69-.31-35.05,3.35,5.63,4.95,11.16,4.98,17.06,0,6.73-1.53,12.67-4.67,17.99h0Zm21,15.72c6.04-9.15,9.19-19.57,9.39-31.12,5.84,1.81,11.29,2.08,15.3,2.08,3.67,0,7.28-.25,10.76-.5.97-.07,1.94-.14,2.91-.2,1.5-.1,2.92-.39,4.25-.79-1.11,12.49-9.03,23.68-20.76,28.49-3.79,1.56-7.47,2.95-10.84,2.95-.56,0-1.11-.04-1.64-.12-.38-.06-.77-.08-1.16-.08-.24,0-.48.01-.71.03-.6.05-1.21.08-1.81.08-1.88,0-3.76-.27-5.7-.82h0Zm-69.24-28.48c5.73,0,11.38-.88,16.87-2.61.41,10.82,3.98,21.24,10.66,31.1-3.78,1.28-7,1.88-9.91,1.88-2.09,0-4.03-.31-5.93-.93-12.31-4.06-20.38-10.97-24.68-21.1-1.37-3.24-2.21-6.67-2.52-10.4,5.22,1.37,10.43,2.06,15.51,2.06h0Z"/>
    </g>
  </g>
</svg>