<?xml version="1.0" encoding="UTF-8"?>
<svg id="Camada_2" data-name="Camada 2" xmlns="http://www.w3.org/2000/svg" viewBox="0 0 301.96 314.21">
  <defs>
    <style>
      .cls-1 {
        fill: #bb892d;
      }

      .cls-2 {
        fill: #15466a;
      }

      .cls-3 {
        fill: #a11d45;
      }

      .cls-4 {
        fill: #dda739;
        stroke: #1d1d1b;
        stroke-linecap: round;
        stroke-linejoin: round;
        stroke-width: 8px;
      }

      .cls-5 {
        fill: #ed6a2d;
      }

      .cls-6 {
        fill: #dd186a;
      }

      .cls-7 {
        fill: #e3253c;
      }

      .cls-8 {
        fill: #3e7e44;
      }

      .cls-9 {
        fill: #28bbe0;
      }

      .cls-10 {
        fill: #60b347;
      }

      .cls-11 {
        fill: #f7c211;
      }

      .cls-12 {
        fill: #e8402c;
      }

      .cls-13 {
        fill: #03699d;
      }

      .cls-14 {
        fill: #c51e2e;
      }

      .cls-15 {
        fill: #4c9f44;
      }

      .cls-16 {
        fill: #1d1d1b;
      }

      .cls-17 {
        fill: #1a95d2;
      }
    </style>
  </defs>
  <g id="Camada_1-2" data-name="Camada 1">
    <g>
      <rect class="cls-9" x="4" y="4" width="61.11" height="61.11" rx="4" ry="4"/>
      <path class="cls-16" d="m61.11,8v53.11H8V8h53.11m0-8H8C3.58,0,0,3.58,0,8v53.11c0,4.42,3.58,8,8,8h53.11c4.42,0,8-3.58,8-8V8c0-4.42-3.58-8-8-8h0Z"/>
    </g>
    <g>
      <rect class="cls-12" x="81.62" y="4" width="61.11" height="61.11" rx="4" ry="4"/>
      <path class="cls-16" d="m138.72,8v53.11h-53.11V8h53.11m0-8h-53.11c-4.42,0-8,3.58-8,8v53.11c0,4.42,3.58,8,8,8h53.11c4.42,0,8-3.58,8-8V8c0-4.42-3.58-8-8-8h0Z"/>
    </g>
    <g>
      <rect class="cls-14" x="159.23" y="4" width="61.11" height="61.11" rx="4" ry="4"/>
      <path class="cls-16" d="m216.34,8v53.11h-53.11V8h53.11m0-8h-53.11c-4.42,0-8,3.58-8,8v53.11c0,4.42,3.58,8,8,8h53.11c4.42,0,8-3.58,8-8V8c0-4.42-3.58-8-8-8h0Z"/>
    </g>
    <g>
      <rect class="cls-15" x="236.85" y="4" width="61.11" height="61.11" rx="4" ry="4"/>
      <path class="cls-16" d="m293.96,8v53.11h-53.11V8h53.11m0-8h-53.11c-4.42,0-8,3.58-8,8v53.11c0,4.42,3.58,8,8,8h53.11c4.42,0,8-3.58,8-8V8c0-4.42-3.58-8-8-8h0Z"/>
    </g>
    <rect class="cls-4" x="8" y="89.7" width="53.11" height="53.11"/>
    <g>
      <rect class="cls-7" x="81.62" y="85.7" width="61.11" height="61.11" rx="4" ry="4"/>
      <path class="cls-16" d="m138.72,89.7v53.11h-53.11v-53.11h53.11m0-8h-53.11c-4.42,0-8,3.58-8,8v53.11c0,4.42,3.58,8,8,8h53.11c4.42,0,8-3.58,8-8v-53.11c0-4.42-3.58-8-8-8h0Z"/>
    </g>
    <g>
      <rect class="cls-5" x="159.23" y="85.7" width="61.11" height="61.11" rx="4" ry="4"/>
      <path class="cls-16" d="m216.34,89.7v53.11h-53.11v-53.11h53.11m0-8h-53.11c-4.42,0-8,3.58-8,8v53.11c0,4.42,3.58,8,8,8h53.11c4.42,0,8-3.58,8-8v-53.11c0-4.42-3.58-8-8-8h0Z"/>
    </g>
    <g>
      <rect class="cls-6" x="236.85" y="85.7" width="61.11" height="61.11" rx="4" ry="4"/>
      <path class="cls-16" d="m293.96,89.7v53.11h-53.11v-53.11h53.11m0-8h-53.11c-4.42,0-8,3.58-8,8v53.11c0,4.42,3.58,8,8,8h53.11c4.42,0,8-3.58,8-8v-53.11c0-4.42-3.58-8-8-8h0Z"/>
    </g>
    <g>
      <rect class="cls-3" x="4" y="167.4" width="61.11" height="61.11" rx="4" ry="4"/>
      <path class="cls-16" d="m61.11,171.4v53.11H8v-53.11h53.11m0-8H8c-4.42,0-8,3.58-8,8v53.11c0,4.42,3.58,8,8,8h53.11c4.42,0,8-3.58,8-8v-53.11c0-4.42-3.58-8-8-8h0Z"/>
    </g>
    <g>
      <rect class="cls-1" x="81.62" y="167.4" width="61.11" height="61.11" rx="4" ry="4"/>
      <path class="cls-16" d="m138.72,171.4v53.11h-53.11v-53.11h53.11m0-8h-53.11c-4.42,0-8,3.58-8,8v53.11c0,4.42,3.58,8,8,8h53.11c4.42,0,8-3.58,8-8v-53.11c0-4.42-3.58-8-8-8h0Z"/>
    </g>
    <g>
      <rect class="cls-17" x="159.23" y="167.4" width="61.11" height="61.11" rx="4" ry="4"/>
      <path class="cls-16" d="m216.34,171.4v53.11h-53.11v-53.11h53.11m0-8h-53.11c-4.42,0-8,3.58-8,8v53.11c0,4.42,3.58,8,8,8h53.11c4.42,0,8-3.58,8-8v-53.11c0-4.42-3.58-8-8-8h0Z"/>
    </g>
    <g>
      <rect class="cls-11" x="236.85" y="167.4" width="61.11" height="61.11" rx="4" ry="4"/>
      <path class="cls-16" d="m293.96,171.4v53.11h-53.11v-53.11h53.11m0-8h-53.11c-4.42,0-8,3.58-8,8v53.11c0,4.42,3.58,8,8,8h53.11c4.42,0,8-3.58,8-8v-53.11c0-4.42-3.58-8-8-8h0Z"/>
    </g>
    <g>
      <rect class="cls-8" x="4" y="249.11" width="61.11" height="61.11" rx="4" ry="4"/>
      <path class="cls-16" d="m61.11,253.11v53.11H8v-53.11h53.11m0-8H8c-4.42,0-8,3.58-8,8v53.11c0,4.42,3.58,8,8,8h53.11c4.42,0,8-3.58,8-8v-53.11c0-4.42-3.58-8-8-8h0Z"/>
    </g>
    <g>
      <rect class="cls-10" x="81.62" y="249.11" width="61.11" height="61.11" rx="4" ry="4"/>
      <path class="cls-16" d="m138.72,253.11v53.11h-53.11v-53.11h53.11m0-8h-53.11c-4.42,0-8,3.58-8,8v53.11c0,4.42,3.58,8,8,8h53.11c4.42,0,8-3.58,8-8v-53.11c0-4.42-3.58-8-8-8h0Z"/>
    </g>
    <g>
      <rect class="cls-13" x="159.23" y="249.11" width="61.11" height="61.11" rx="4" ry="4"/>
      <path class="cls-16" d="m216.34,253.11v53.11h-53.11v-53.11h53.11m0-8h-53.11c-4.42,0-8,3.58-8,8v53.11c0,4.42,3.58,8,8,8h53.11c4.42,0,8-3.58,8-8v-53.11c0-4.42-3.58-8-8-8h0Z"/>
    </g>
    <g>
      <rect class="cls-2" x="236.85" y="249.11" width="61.11" height="61.11" rx="4" ry="4"/>
      <path class="cls-16" d="m293.96,253.11v53.11h-53.11v-53.11h53.11m0-8h-53.11c-4.42,0-8,3.58-8,8v53.11c0,4.42,3.58,8,8,8h53.11c4.42,0,8-3.58,8-8v-53.11c0-4.42-3.58-8-8-8h0Z"/>
    </g>
  </g>
</svg>