<?xml version="1.0" encoding="UTF-8"?>
<svg id="Camada_2" data-name="Camada 2" xmlns="http://www.w3.org/2000/svg" viewBox="0 0 316.91 148.79">
  <defs>
    <style>
      .cls-1 {
        fill: #e3253c;
      }

      .cls-2 {
        fill: #1d1d1b;
      }
    </style>
  </defs>
  <g id="Camada_1-2" data-name="Camada 1">
    <g>
      <g>
        <path class="cls-1" d="m78.51,89.54c-5.48-.2-11.33-7.96-11.33-13.28,0-4.34,1.71-11.62,13.07-11.69h.12c7.73,0,12.63,4.41,12.78,11.51.07,3.2-1.29,6.38-3.81,8.96-2.8,2.86-6.58,4.51-10.35,4.51-.16,0-.31,0-.47,0Z"/>
        <path class="cls-2" d="m80.37,68.57c5.57,0,8.67,2.69,8.78,7.59.1,4.77-4.94,9.38-10.17,9.38-.11,0-.21,0-.32,0-2.91-.11-7.48-5.77-7.47-9.27,0-5.19,2.92-7.66,9.09-7.69.03,0,.06,0,.1,0m0-8h-.14c-12.55.07-17.04,8.15-17.04,15.68,0,7.3,7.35,16.99,15.18,17.28.2,0,.41.01.61.01,4.84,0,9.66-2.08,13.21-5.71,3.28-3.35,5.04-7.56,4.95-11.84-.19-9.23-6.93-15.43-16.77-15.43h0Z"/>
      </g>
      <g>
        <g>
          <path class="cls-1" d="m42.18,144.79c-1.45,0-2.85-.31-4.16-.93-1.04-.49-2.44-1.39-3.58-2.98-2.52,3.35-6.38,3.72-7.93,3.72-4.91,0-10.16-3.14-10.17-11.94-.02-14.72-.03-29.44-.03-44.16-.96.54-2.04.89-3.22.99-.26.02-.52.03-.77.03-3.81,0-6.89-2.49-7.85-6.34-.29-1.17-.43-2.45-.43-3.93,0-2.48,0-4.97-.02-7.45-.02-7.24-.05-14.73.1-22.11.2-10.47,7.01-17.55,17.34-18.02,4.38-.2,9.47-.41,14.48-.41,4.21,0,7.98.15,11.51.45,9.17.78,18.22,7.56,17.77,18.99-.23,5.71-.17,11.58-.11,17.26.02,2.53.05,5.06.05,7.59,3.92.52,5.58,3.79,6.5,5.61.21.42.41.82.59,1.1,2.04,3.23,5.63,5.24,9.37,5.24,1.28,0,2.52-.23,3.71-.69,1.26-.49,2.02-2.14,2.89-4.25l.21-.54c.75-1.9,2-5.08,5.53-5.74,2.97-.55,3.57-1.93,4.37-7.1.07-.43.13-.85.2-1.27,1.46-8.76,5.12-16.36,8.73-23.39,2.27-4.42,6.8-6.96,12.41-6.96.17,0,.35,0,.52,0,2.05.06,4.27.08,6.99.08,1.69,0,3.39,0,5.08-.02,1.71,0,3.42-.02,5.12-.02h.69c9.84.02,17.2,5.96,18.76,15.15.8,4.7,2.25,9.18,3.79,13.93.8,2.46,1.63,5.01,2.35,7.59.09.31.18.62.28.93.44,1.44.99,3.23.9,5.19-.32,6.48-4.2,8.44-6.48,9.03-.75.19-1.48.29-2.19.29-.4,0-.87-.03-1.36-.12.7,2.5,1.46,4.97,2.32,7.38.46,1.3,1.69,4.77-.26,7.52-1.9,2.68-5.27,2.68-6.54,2.68-.23,0-.48,0-.73-.01-.96-.03-1.78-.06-2.47-.06,0,.14,0,.27,0,.4.01.72.03,1.56.02,2.52-.03,4.18-.02,8.37-.02,12.55,0,3.48,0,6.95,0,10.43-.01,2.46-.03,7.03-4.24,9.9-1.82,1.24-3.79,1.89-5.72,1.89-2.65,0-4.91-1.15-6.5-3.11-1.61,1.9-3.99,2.96-6.93,2.96-.13,0-.27,0-.4,0-5.62-.18-9.25-4.04-9.25-9.83,0-2.61-.01-5.23-.03-7.84-.03-6.14-.07-12.48.1-18.75,0-.25,0-.47,0-.66-.46.08-.93.12-1.46.12-.32,0-.65-.02-.98-.03-.19,0-.38-.02-.57-.02-.01,0-.1,0-.14,0-.54.07-1.05.1-1.53.1-2.99,0-4.61-1.33-5.45-2.44-2.01-2.68-1.02-6.11-.7-7.24.87-3.02,1.75-6.04,2.62-9.07-.51.11-1.03.17-1.57.17-.61,0-1.21-.07-1.81-.22-.09-.02-.18-.04-.24-.05-.13.19-.28.45-.39.65-.22.38-.45.76-.69,1.11-.9,1.32-1.69,2.76-2.54,4.29-1.1,2-2.25,4.07-3.73,6.06-.59.79-.61,2.12-.06,4.31.29,1.17.74,2.37,1.21,3.65.71,1.91,1.43,3.89,1.8,6.09.03.19.21.71.35,1.08.6,1.7,1.6,4.54.01,7.24-.73,1.24-1.85,2.17-3.36,2.79-.02,2.37-.01,4.92.03,7.76v.23c.04,2.44.09,5.78-2.25,8.18-1.42,1.46-3.36,2.21-5.76,2.24h-.16c-2.34,0-4.26-.67-5.69-2-1.39,1.3-3.3,2.03-5.6,2.08h-.21c-3.84,0-8.01-2.33-8.18-8.86-.04-1.45-.04-2.91-.04-4.36,0-1.38,0-2.76-.03-4.13,0-.38,0-.78.02-1.18-1.41-.25-2.6-1.01-3.36-2.15-1.57-2.37-.55-5.07-.22-5.96.71-1.89,1.04-4.02,1.38-6.28.46-3,.93-6.11,2.35-9.22-.02-.13-.12-.49-.55-1.3l-.74-1.4c-1.49-2.83-3.02-5.76-4.66-8.5l-.22-.38c-.43-.72-1.07-1.82-1.4-2.02-.09.03-.43.06-1.09.3-.94.35-1.85.53-2.73.53-.68,0-1.5-.1-2.33-.42,0,14.11,0,28.22-.02,42.33v.58c.02,2.71.04,6.81-3.53,9.84-2.08,1.77-4.61,2.75-7.12,2.75Z"/>
          <path class="cls-2" d="m35.93,35.24c3.74,0,7.47.12,11.17.44,7.09.61,14.48,5.61,14.12,14.85-.33,8.48-.06,16.99-.07,25.49,0,1.76-.31,3.47,2.29,3.47.12,0,.24,0,.36-.01.08,0,.16,0,.24,0,2.92,0,3.57,2.95,4.8,4.91,2.81,4.45,7.7,7.1,12.75,7.1,1.73,0,3.47-.31,5.16-.96,2.84-1.1,4.08-3.89,5.14-6.46.66-1.61,1.24-3.58,2.78-3.86,6.71-1.25,6.98-6.81,7.79-11.64,1.34-8,4.72-15.17,8.35-22.22,1.69-3.29,4.97-4.79,8.86-4.79.14,0,.28,0,.42,0,2.37.06,4.73.08,7.1.08,3.4,0,6.8-.04,10.21-.04.23,0,.46,0,.69,0,7.66.01,13.56,4.36,14.82,11.81,1.29,7.58,4.18,14.62,6.24,21.93.45,1.59,1.11,3.25,1.03,4.84-.11,2.3-.81,4.66-3.49,5.35-.43.11-.82.16-1.18.16-2.15,0-3.1-1.84-3.61-3.8-1.71-6.54-4.77-12.65-5.96-19.37-.4-2.27-.93-4.77-3.5-7.52-1.17,5.81.92,10.24,2.16,14.3,2.94,9.6,4.75,19.52,8.1,28.98,1.31,3.7.45,4.87-3.03,4.87-.19,0-.39,0-.6-.01-1.13-.04-2.06-.07-2.84-.07-4.55,0-3.69.98-3.73,6.89-.05,7.66,0,15.33-.02,22.99-.01,2.49-.16,5.02-2.49,6.61-1.19.81-2.38,1.2-3.47,1.2-2.66,0-4.74-2.29-4.89-6.21-.25-6.49-.07-12.99-.07-19.49,0-2.5.12-5.01-.05-7.49-.09-1.38.96-3.78-1.53-3.78-.05,0-.1,0-.15,0-2.13.08-1.43,2.29-1.44,3.64-.07,8-.03,15.99-.04,23.99,0,1.17.02,2.33-.03,3.5-.14,3.43-1.74,5.7-5.23,5.7-.09,0-.18,0-.27,0-3.53-.11-5.38-2.22-5.37-5.83,0-8.83-.17-17.66.07-26.49.08-3.11-.55-4.85-3.19-4.85-.43,0-.92.05-1.46.14-.26.05-.53.06-.8.06-.51,0-1.03-.05-1.55-.05-.22,0-.43,0-.65.04-.38.05-.72.07-1.03.07-2.87,0-3.05-1.98-2.3-4.57,3.7-12.81,7.43-25.61,11.15-38.41.09-.32.21-.64.26-.96.2-1.26,1.1-2.96-.56-3.52-.24-.08-.45-.12-.63-.12-1.23,0-1.34,1.63-1.65,2.63-2.11,6.96-4.34,13.89-6.15,20.92-.79,3.09-2.85,5.45-5.21,5.45-.28,0-.57-.03-.87-.11-.54-.13-1.02-.19-1.44-.19-2.51,0-3.14,2.08-4.13,3.54-2.22,3.27-3.76,6.98-6.16,10.2-1.7,2.28-1.37,5.11-.73,7.68.81,3.19,2.41,6.21,2.94,9.42.41,2.47,3.39,6.25-2.2,7.2-1.19.2-.84,1.64-.85,2.57-.03,2.83-.02,5.66.02,8.5.04,3.09.2,6.55-4.07,6.6-.04,0-.07,0-.11,0-4.51,0-4.23-3.67-4.24-6.86,0-2.83,0-5.66-.02-8.5-.01-1.1.03-2.4-1.44-2.4-.08,0-.16,0-.25.01-1.45.13-1.1,1.41-1.11,2.33-.03,3.5,0,7,0,10.5,0,2.89-1.18,4.94-4.3,5-.05,0-.09,0-.13,0-3.13,0-4.11-2.2-4.18-4.96-.07-2.83,0-5.66-.07-8.5-.06-2.18.82-4.83-3.01-4.98-1.67-.07-1.2-1.75-.81-2.79,1.86-4.95,1.4-10.44,3.65-15.3.77-1.66.12-3.29-.67-4.78-1.78-3.39-3.54-6.8-5.5-10.09-1.29-2.17-2.41-4.33-5.03-4.33-.72,0-1.55.16-2.53.53-.5.19-.94.27-1.32.27-2.24,0-2.49-2.94-2.53-5.05-.14-7.49-.09-14.99-.12-22.49,0-1.17,0-2.34-.09-3.49-.09-1.06-.54-2.05-1.74-2.06-.01,0-.02,0-.03,0-1.2,0-1.63,1-1.71,2.04-.11,1.32-.09,2.66-.09,3.99-.01,24.32,0,48.65-.03,72.97,0,2.65.2,5.4-2.12,7.38-1.36,1.16-2.95,1.79-4.53,1.79-.84,0-1.67-.18-2.46-.55-2.56-1.2-3.35-3.86-3.34-6.72.04-13.33.02-26.65.02-39.98,0-1.17,0-2.33-.01-3.5-.02-1.34.06-3.05-1.67-3.12-.05,0-.1,0-.15,0-2.07,0-1.73,1.94-1.74,3.32-.04,7.66-.01,15.33-.01,22.99,0,6.5.07,13-.04,19.49-.09,5.28-2.28,7.88-6.28,7.88h0c-3.98,0-6.16-2.71-6.17-7.95-.04-24.49-.03-48.98-.03-73.47,0-.83.08-1.67-.01-2.5-.17-1.51.72-3.91-1.7-3.98-.04,0-.07,0-.11,0-2.64,0-1.97,2.59-2,4.2-.11,7-.04,13.99-.05,20.99,0,1.33.02,2.67-.15,3.99-.25,2.06-1.63,3.45-3.54,3.61-.14.01-.29.02-.43.02-1.96,0-3.44-1.21-3.96-3.31-.24-.96-.31-1.98-.31-2.97,0-9.83-.11-19.66.08-29.49.16-8.24,5.27-13.72,13.53-14.1,4.75-.22,9.53-.41,14.3-.41m0-8c-5.09,0-10.24.22-14.66.42C8.86,28.23.35,37.04.11,49.6-.03,57.02,0,64.52.02,71.77c0,2.49.02,4.98.02,7.47,0,1.81.18,3.41.55,4.89,1.39,5.61,6.11,9.37,11.72,9.38,0,12.98,0,26.14.03,39.14.02,11.76,7.64,15.94,14.17,15.94,2.62,0,5.43-.68,7.86-2.26.75.53,1.43.9,1.96,1.15,1.85.87,3.82,1.31,5.86,1.31,3.46,0,6.92-1.32,9.72-3.71,4.98-4.24,4.95-9.88,4.93-12.91v-.55c0-12.68.01-25.36.02-38.05.15-.02.29-.05.44-.08,1.54,2.59,2.95,5.28,4.44,8.13l.48.92c-1.11,3.01-1.56,5.93-1.96,8.56-.31,2.04-.6,3.97-1.17,5.47-1.71,4.55-.6,7.72.63,9.58.71,1.08,1.63,1.96,2.7,2.63,0,.85,0,1.72,0,2.62,0,1.45,0,2.95.04,4.47.23,8.81,6.28,12.76,12.18,12.76.1,0,.19,0,.29,0,2.06-.04,3.92-.49,5.54-1.28,1.47.7,3.34,1.21,5.67,1.21h.21c4.37-.06,7.08-1.91,8.58-3.46,3.5-3.6,3.43-8.25,3.39-11.03v-.23c-.03-1.91-.04-3.69-.04-5.38,1.35-.98,2.24-2.11,2.82-3.09,2.53-4.3,1.03-8.55.31-10.59-.07-.19-.16-.45-.2-.59-.44-2.5-1.25-4.69-1.96-6.64-.43-1.17-.84-2.28-1.08-3.24-.18-.71-.25-1.15-.27-1.41.1-.14.21-.29.31-.43.17,1.96.83,3.71,1.98,5.23,1.13,1.51,3.77,4.04,8.65,4.04.2,0,.4,0,.6-.01-.08,5.14-.05,10.29-.03,15.29.01,2.6.03,5.2.03,7.8,0,8.02,5.27,13.57,13.12,13.82.18,0,.35,0,.53,0,2.58,0,4.89-.62,6.83-1.75,1.91,1.22,4.15,1.9,6.6,1.9,2.73,0,5.49-.89,7.97-2.58,5.95-4.05,5.98-10.45,5.99-13.18.01-3.48.01-6.96,0-10.44,0-3.75,0-7.61.01-11.41,4.04-.17,7.07-1.64,8.99-4.36,3.14-4.45,1.35-9.51.76-11.17-.3-.84-.58-1.69-.86-2.54,2.62-.86,8.37-3.74,8.8-12.51.13-2.66-.56-4.91-1.07-6.56-.09-.28-.17-.56-.25-.84-.75-2.65-1.58-5.24-2.4-7.74-1.49-4.61-2.91-8.96-3.65-13.37-1.87-11.03-10.99-18.46-22.7-18.48h-.7c-1.72,0-3.43,0-5.15.02-1.69,0-3.37.02-5.06.02-2.68,0-4.87-.03-6.89-.08-.21,0-.42,0-.63,0-7.17,0-12.99,3.33-15.97,9.13-3.6,6.99-7.57,15.24-9.12,24.56-.07.43-.14.87-.21,1.31-.18,1.13-.46,2.96-.78,3.69-.09.03-.21.06-.37.09-5.7,1.06-7.67,6.06-8.52,8.2-.06.16-.13.33-.19.48-.2.47-.67,1.63-1.02,2.18-.61.19-1.24.29-1.88.29-2.38,0-4.67-1.29-5.98-3.37-.08-.12-.27-.5-.41-.77-.78-1.55-2.5-4.94-6.08-6.73,0-1.59-.02-3.17-.04-4.72-.05-5.62-.11-11.44.11-17.05.55-13.94-10.36-22.19-21.43-23.13-3.65-.31-7.53-.46-11.85-.46h0Z"/>
        </g>
        <g>
          <path class="cls-1" d="m200.67,144.71c-3.44,0-5.54-1.38-6.69-2.54-.17-.17-.32-.34-.47-.52-.13.16-.27.3-.42.45-1.14,1.14-3.21,2.5-6.59,2.5h-.27c-2.78-.06-9.25-1.25-9.22-11.02,0-2.69,0-5.38-.02-8.06-.03-5.74-.07-11.68.13-17.55,0-.17,0-.32,0-.45-.19,0-.4,0-.61.02-1.27.06-2.32.1-3.25.1-1.42,0-4.37,0-6.15-2.26-1.86-2.37-1.22-5-.15-9.36l.21-.86c.5-2.04,1.04-4.07,1.61-6.08-.65.13-1.32.2-2.02.2-.56,0-1.12-.05-1.66-.14-2.05-.35-3.96-1.72-5.12-3.67-1.15-1.94-1.4-4.16-.69-6.25,1.34-3.96,2.31-7.99,3.34-12.26,1.64-6.81,3.33-13.85,6.65-20.51,2.98-5.98,7.97-9.01,14.83-9.01.64,0,1.31.03,1.99.08,1.9.14,3.97.21,6.53.21,1.59,0,3.17-.02,4.76-.05,1.63-.02,3.26-.05,4.89-.05.52,0,1.04,0,1.56,0,6.67.07,12.91,4.55,14.82,10.64,2.87,9.12,5.67,18.42,8.37,27.42l.2.66c.53,1.77.76,3.33.69,4.77-.19,3.82-2.69,6.88-6.71,8.2-.78.26-1.56.38-2.32.38-.27,0-.57-.02-.89-.06.66,2.32,1.33,4.64,2.01,6.95.6,2.04,1.51,5.13-.39,7.66-1.89,2.53-5.22,2.53-6.31,2.53-.19,0-.82-.01-.94-.01-1.41,0-2.02.27-2.15.41-.17.19-.44,1.01-.27,2.8.51,5.27.4,10.57.3,15.7-.05,2.51-.11,5.11-.08,7.62.09,9.85-5.83,11.38-9.37,11.42-.01,0-.13,0-.14,0Z"/>
          <path class="cls-2" d="m184.14,41.43c.55,0,1.11.02,1.69.07,2.27.17,4.55.22,6.83.22,3.21,0,6.43-.1,9.64-.1.51,0,1.01,0,1.52,0,4.91.05,9.64,3.35,11.05,7.84,2.93,9.32,5.74,18.68,8.56,28.03.33,1.1.58,2.29.52,3.42-.12,2.48-1.95,3.93-3.96,4.59-.39.13-.75.19-1.08.19-1.69,0-2.65-1.54-3.23-3.28-2.12-6.38-4.11-12.81-6.48-19.1-.43-1.13-.19-3.65-1.77-3.65-.16,0-.34.03-.53.08-1.95.54-.69,2.69-.25,4.23,3.2,11.24,6.26,22.52,9.55,33.73.94,3.21,1.26,5.06-2.86,5.06-.15,0-.3,0-.46,0-.16,0-.33,0-.49,0-4.42,0-6.95,1.92-6.4,7.6.74,7.59.12,15.31.19,22.97.04,3.9-.81,7.33-5.41,7.38-.03,0-.07,0-.1,0-4.45,0-5.54-3.21-5.49-7.2.09-8.83.05-17.66-.02-26.48-.01-1.33.69-3.5-1.57-3.52,0,0-.01,0-.02,0-2.24,0-1.58,2.16-1.59,3.49-.06,8.83-.05,17.66-.03,26.49,0,3.85-1.03,7.11-5.44,7.11-.06,0-.13,0-.19,0-4.29-.09-5.32-3.29-5.3-7.01.02-8.5-.19-17,.11-25.48.12-3.56-.91-4.59-3.99-4.59-.25,0-.52,0-.8.02-1.22.06-2.23.1-3.06.1-4.25,0-3.76-1.14-2.2-7.53,2.88-11.81,7.37-23.16,9.62-35.14.28-1.47.85-2.77-.83-5.18-2.31,6.65-4.7,12.3-5.96,18.38-.57,2.75-1.46,5.46-2.45,8.1-.8,2.15-2.84,3-4.68,3-.34,0-.67-.03-.98-.08-1.63-.28-3.47-2.41-2.7-4.68,3.62-10.65,4.69-22.07,9.78-32.28,2.44-4.89,6.19-6.8,11.25-6.8m0-8c-10.59,0-15.85,6.1-18.41,11.22-3.53,7.07-5.27,14.33-6.96,21.36-1,4.18-1.95,8.13-3.24,11.91-1.08,3.17-.7,6.66,1.04,9.58,1.59,2.68,4.19,4.65,7.06,5.39-.11.44-.22.87-.33,1.31l-.21.85c-1.12,4.56-2.18,8.87.88,12.78,2.84,3.63,7.16,3.79,9.05,3.8-.09,4.68-.06,9.35-.04,13.9.02,2.64.03,5.37.02,8.03-.03,10.89,7.06,14.9,13.14,15.03.12,0,.24,0,.35,0,2.98,0,5.26-.79,6.97-1.78,1.74,1.05,4.09,1.89,7.2,1.89h.18c4.98-.05,8.99-2.27,11.29-6.24,1.87-3.24,2.06-6.81,2.04-9.21-.02-2.46.03-4.91.08-7.5.1-4.87.21-9.89-.21-14.99,3.9-.15,6.85-1.53,8.79-4.12,3.09-4.13,1.75-8.72,1.02-11.18-.25-.86-.5-1.71-.75-2.57,5.2-1.95,8.56-6.33,8.81-11.58.09-1.9-.19-3.9-.85-6.12l-.22-.72c-2.71-8.99-5.5-18.28-8.37-27.4-2.42-7.69-10.24-13.34-18.59-13.44-.54,0-1.07,0-1.6,0-1.67,0-3.33.03-4.94.05-1.62.02-3.15.05-4.7.05-2.45,0-4.43-.06-6.23-.2-.78-.06-1.55-.09-2.28-.09h0Zm29.79,75.12h0s0,0,0,0h0Z"/>
        </g>
        <g>
          <path class="cls-1" d="m274.14,144.62c-2.87,0-5.2-1.33-6.69-2.34-3.77-2.53-3.58-6.39-3.49-8.25.01-.29.03-.59.03-.87-.08-10.34-.06-20.85-.04-31.02,0,0,.01-11.64.02-13.98-1.25.83-2.95,1.39-5.27,1.39-3.73,0-6.4-2.54-6.83-6.47-.28-2.56-.42-5.3-.45-8.35-.05-7.43-.05-14.84,0-22.04.1-13.85,7.52-21.19,21.48-21.23,1.58,0,3.15-.01,4.73-.03,2.19-.01,4.38-.03,6.57-.03,2.98,0,5.46.03,7.79.08,13.4.33,19.97,6.82,20.69,20.43.33,6.32.25,12.7.16,18.86-.04,2.61-.07,5.22-.08,7.83,0,2.68-.02,10.84-8.4,10.84h-.17c-1.63-.02-2.93-.36-3.97-.9,0,9.06-.01,18.07-.01,26.94v15.15c0,.36,0,.72,0,1.08.01,1.02.02,2.07-.05,3.17-.37,5.83-4.3,9.6-9.99,9.6h-.14c-3.53-.04-6.34-1.41-8.07-3.75-1.05,1.34-2.34,2.24-3.52,2.83-1.39.69-2.84,1.05-4.31,1.05Z"/>
          <path class="cls-2" d="m284.17,35.42c2.57,0,5.15.02,7.72.08,11.8.29,16.21,5.5,16.79,16.64.46,8.8.1,17.65.08,26.47,0,3.24-.04,6.84-4.4,6.84-.04,0-.07,0-.11,0-4.19-.06-4.11-3.49-4.09-6.61.04-6.99.1-13.99-.05-20.98-.04-1.85,1.19-5.07-1.96-5.07-.04,0-.08,0-.11,0-2.78.07-1.74,3.13-1.75,4.91-.08,24.31-.06,48.62-.08,72.94,0,1.33.05,2.67-.03,4-.24,3.76-2.38,5.86-6,5.86-.03,0-.06,0-.1,0-3.64-.04-5.96-2.11-6.04-5.92-.12-5.83-.04-11.66-.05-17.48,0-8.49.06-16.99-.05-25.48-.02-1.72,1.02-4.63-1.92-4.63-.03,0-.07,0-.1,0-2.69.06-1.64,2.83-1.66,4.44-.09,13.99-.09,27.98-.05,41.96.01,2.93-.87,5.26-3.56,6.6-.87.44-1.71.63-2.53.63-1.54,0-3-.68-4.47-1.66-2.31-1.55-1.67-3.83-1.69-5.83-.09-12.66-.05-25.31-.03-37.97,0-11.82.09-23.65-.08-35.47-.03-2.36,1.46-6.71-1.7-6.71-.02,0-.03,0-.05,0-3.88.05-1.83,4.51-1.97,6.96-.34,5.81-.16,11.65-.08,17.48.03,2.02-.27,3.93-1.04,5.79-.82,1.96-2.49,2.35-4.35,2.35h-.02c-1.91,0-2.67-1.35-2.84-2.9-.29-2.63-.4-5.3-.42-7.95-.05-7.33-.05-14.65,0-21.98.08-11.74,5.65-17.22,17.49-17.26,3.75-.01,7.51-.05,11.26-.05m0-8c-2.2,0-4.39.01-6.59.03-1.57.01-3.13.02-4.7.03-16.31.05-25.36,9-25.47,25.2-.05,7.22-.05,14.66,0,22.09.02,3.2.18,6.06.47,8.76.64,5.9,5.08,10.03,10.78,10.03.45,0,.88-.02,1.29-.05,0,.55,0,1.1,0,1.65v6.88c-.03,10.2-.04,20.75.03,31.14,0,.21-.01.43-.02.65-.11,2.18-.4,7.98,5.26,11.77,3.03,2.03,5.95,3.01,8.92,3.01,2.1,0,4.15-.49,6.1-1.47.53-.26,1.12-.6,1.73-1.01,2.22,1.48,4.96,2.32,8.03,2.35h.18c7.85,0,13.47-5.36,13.98-13.35.08-1.25.07-2.43.06-3.47,0-.34,0-.69,0-1.03v-15.05c0-7.3,0-14.7.01-22.14h.14c5.13,0,9.32-2.65,11.2-7.08,1.19-2.81,1.2-5.66,1.2-7.75,0-2.58.04-5.22.08-7.78.08-6.23.17-12.68-.17-19.13-.83-15.69-9.1-23.84-24.59-24.22-2.37-.06-4.89-.08-7.91-.08h0Z"/>
        </g>
        <g>
          <path class="cls-1" d="m245.34,144.69c-1.95,0-4.06-.67-5.74-2.31-1.07,1.05-2.92,2.23-5.82,2.24h0c-3.04,0-4.86-1.2-5.87-2.21-2.56-2.57-2.55-6.32-2.55-8.8,0-4.46.02-9.21-.09-14.1-.95.77-2.18,1.29-3.8,1.29-.85,0-1.75-.17-2.66-.5-2.27-.82-3.34-2.26-3.83-3.33-1.18-2.54-.27-5.02.33-6.66l.09-.24c.54-1.47,1.05-2.95,1.57-4.43,1.44-4.12,2.93-8.38,4.84-12.48,3.25-6.99,8.09-8.45,11.58-8.45.4,0,.8.02,1.22.06.53.05,1.11.07,1.75.07,1.05,0,2.13-.06,3.28-.13,1.21-.07,2.46-.14,3.74-.14,2.19,0,5.48.19,8.79,1.84,3.15,1.56,5.02,3.69,6.06,6.9,1.2,3.71,2.73,7.3,4.34,11.09.55,1.3,1.11,2.6,1.64,3.91.41,1,1.67,4.05.4,6.99-.52,1.19-1.66,2.81-4.14,3.74-.89.33-1.76.5-2.6.5-1.62,0-2.83-.55-3.72-1.32v11.79c0,.49,0,.97-.01,1.46-.01,1-.02,1.95.02,2.87.25,5.78-2.82,9.83-7.84,10.32-.33.03-.66.05-.97.05Z"/>
          <path class="cls-2" d="m243.37,88.56c2.37,0,4.72.28,7.01,1.42,1.97.98,3.27,2.19,4.03,4.55,1.69,5.21,4,10.22,6.09,15.29.92,2.23,1.21,4.46-1.45,5.46-.46.17-.85.25-1.19.25-1.81,0-2.12-2.15-2.63-3.62-1.22-3.48-3.64-6.46-3.45-10.49-.54.1-1.09.2-1.63.31,0,9.43,0,18.86,0,28.28,0,1.5-.06,3,.01,4.5.14,3.15-.97,5.84-4.23,6.16-.2.02-.39.03-.58.03-3.35,0-4.56-3.11-4.89-5.88-.46-3.77-.23-7.66.07-11.47.09-1.16.83-2.49-.68-2.66-.07,0-.14-.01-.21-.01-1.27,0-1.3,1.51-1.3,2.62-.02,3.5-.08,7,0,10.5.09,3.44-.66,6.81-4.59,6.84-.02,0-.03,0-.05,0-4.24,0-4.36-3.7-4.35-7.01.02-10.48,0-20.97-1.09-31.76-1.27,3.74-2.61,7.46-3.79,11.24-.57,1.84-1.18,3.71-3.01,3.71-.38,0-.81-.08-1.3-.26-2.67-.96-1.69-3.22-1.01-5.1,2.03-5.56,3.79-11.25,6.28-16.6,1.5-3.21,3.85-6.14,7.95-6.14.28,0,.56.01.85.04.71.07,1.42.09,2.13.09,2.33,0,4.69-.27,7.02-.27m0-8c-1.4,0-2.71.08-3.97.15-1.09.06-2.11.12-3.04.12-.52,0-.97-.02-1.38-.06-.53-.05-1.07-.08-1.6-.08-3.81,0-10.84,1.4-15.2,10.77-1.99,4.27-3.51,8.63-4.98,12.84-.51,1.47-1.02,2.93-1.56,4.39l-.08.23c-.68,1.84-2.09,5.68-.21,9.73.82,1.75,2.54,4.11,6.1,5.4,1.31.47,2.62.72,3.9.73.02,3.02.02,5.97.01,8.8,0,2.76-.01,7.89,3.72,11.63,1.54,1.55,4.29,3.39,8.63,3.39.02,0,.08,0,.1,0,2.37-.02,4.27-.58,5.78-1.35,1.88.99,3.9,1.42,5.76,1.42.45,0,.9-.02,1.36-.07,7.19-.71,11.79-6.53,11.44-14.48-.04-.81-.03-1.7-.01-2.65,0-.5.01-1,.01-1.5v-6.48c1.23-.03,2.48-.29,3.72-.75,3.79-1.42,5.58-3.99,6.4-5.89,1.3-2.98,1.17-6.38-.37-10.11-.54-1.32-1.1-2.64-1.66-3.95-1.58-3.71-3.06-7.21-4.21-10.76-1.36-4.2-4-7.22-8.08-9.25-4.06-2.02-7.98-2.25-10.57-2.25h0Z"/>
        </g>
        <g>
          <path class="cls-1" d="m34.24,34.1c-4.39,0-8.65-1.75-11.7-4.81-2.71-2.71-4.19-6.18-4.18-9.75.02-8.86,6.83-15.54,15.83-15.54h.18c8.32.08,14.87,6.72,14.92,15.1.02,4.06-1.49,7.83-4.25,10.61-2.79,2.82-6.61,4.37-10.75,4.39h-.05Z"/>
          <path class="cls-2" d="m34.19,8s.09,0,.14,0c6.16.06,10.92,4.9,10.96,11.12.03,6.23-4.71,10.96-11.01,10.98-.01,0-.03,0-.04,0-6.4,0-11.9-4.87-11.88-10.55.02-6.67,5.03-11.55,11.83-11.55m0-8h0C22.92,0,14.39,8.39,14.36,19.53c-.01,4.65,1.89,9.12,5.35,12.59,3.79,3.81,9.09,5.99,14.53,5.99,0,0,.06,0,.07,0,5.21-.02,10.03-1.99,13.58-5.57,3.51-3.54,5.43-8.32,5.41-13.45C53.24,8.49,44.94.11,34.41,0h-.22Z"/>
        </g>
        <g>
          <path class="cls-1" d="m281.91,36.85c-7.74-.15-14.76-7.69-14.73-15.81.03-8.63,5.83-14.04,15.12-14.14h.32c9.54,0,14.41,4.77,14.48,14.18.03,4.48-1.56,8.57-4.48,11.51-2.73,2.75-6.42,4.27-10.4,4.27h-.31Z"/>
          <path class="cls-2" d="m282.62,10.89c7.42,0,10.43,2.94,10.48,10.21.05,6.75-4.6,11.75-10.88,11.75-.08,0-.16,0-.23,0-5.62-.11-10.83-5.81-10.81-11.8.02-6.44,4.02-10.08,11.16-10.15.09,0,.19,0,.28,0m0-8h-.36c-11.56.12-19.05,7.23-19.08,18.12-.04,10.37,8.68,19.63,18.66,19.83.13,0,.26,0,.39,0,5.05,0,9.75-1.93,13.24-5.45,3.68-3.7,5.68-8.8,5.64-14.36-.09-11.7-6.65-18.15-18.48-18.15h0Z"/>
        </g>
        <g>
          <path class="cls-1" d="m128.78,40.61c-3.47,0-6.78-1.42-9.32-3.98-2.78-2.81-4.34-6.76-4.29-10.83.09-7.77,6.98-14.59,14.74-14.59h.25c8.72.17,13.76,5.65,13.88,15.07.43,2.97-.46,5.99-2.52,8.52-2.81,3.46-7.56,5.68-12.41,5.81h-.33Z"/>
          <path class="cls-2" d="m129.92,15.2c.06,0,.11,0,.17,0,6.56.12,9.96,4.01,9.96,11.4.95,5.17-4.71,9.84-11.03,10-.08,0-.15,0-.23,0-5.35,0-9.68-4.9-9.61-10.76.07-5.58,5.2-10.64,10.74-10.64m0-8h0c-9.87,0-18.62,8.66-18.74,18.54-.06,5.13,1.92,10.12,5.45,13.69,3.3,3.34,7.62,5.17,12.17,5.17.14,0,.29,0,.44,0,6.07-.16,11.84-2.88,15.41-7.29,2.72-3.35,3.91-7.35,3.41-11.35-.25-11.38-7.02-18.55-17.8-18.76-.11,0-.22,0-.32,0h0Z"/>
        </g>
        <g>
          <path class="cls-1" d="m194.17,40.57c-.42,0-.86-.02-1.31-.05-8.78-.69-13.78-6.18-13.7-15.06.07-8.01,6.38-14.28,14.36-14.28h.17c8.12.09,13.55,5.83,13.53,14.28,0,.03,0,.07,0,.1-.26,9.26-5.26,15.01-13.04,15.01Z"/>
          <path class="cls-2" d="m193.52,15.18s.08,0,.12,0c5.97.07,9.59,3.95,9.57,10.27-.18,6.3-2.9,11.12-9.04,11.12-.32,0-.65-.01-.99-.04-6.39-.5-10.08-4.01-10.02-11.04.05-5.79,4.67-10.31,10.36-10.31m0-8h0c-10.03,0-18.27,8.19-18.35,18.24-.09,10.92,6.57,18.23,17.39,19.08.55.04,1.09.06,1.62.06,10.03,0,16.72-7.42,17.04-18.89,0-.07,0-.14,0-.2.03-10.65-7.16-18.17-17.48-18.29h-.21Z"/>
        </g>
        <g>
          <path class="cls-1" d="m239.07,89.62c-6.34-.16-11.82-6.15-11.95-13.09-.08-3.82.87-6.68,2.88-8.74,2.09-2.14,5.15-3.2,9.36-3.21h.15c8.66,0,12.53,3.67,12.53,11.9,0,3.55-1.27,6.85-3.57,9.28-2.36,2.49-5.58,3.86-9.07,3.86h-.33Z"/>
          <path class="cls-2" d="m239.5,68.58c6.46,0,8.53,1.93,8.53,7.91,0,5.22-3.72,9.14-8.64,9.14-.08,0-.15,0-.23,0-4.16-.1-7.96-4.42-8.05-9.17-.11-5.51,2.35-7.85,8.25-7.87.04,0,.09,0,.13,0m0-8h-.17c-5.33.02-9.32,1.47-12.2,4.42-2.76,2.83-4.11,6.74-4.02,11.61.18,9.01,7.44,16.8,15.85,17.01.14,0,.28,0,.43,0,4.6,0,8.85-1.81,11.97-5.11,3.01-3.18,4.67-7.45,4.66-12.03,0-7.25-2.88-15.9-16.53-15.9h0Z"/>
        </g>
      </g>
    </g>
  </g>
</svg>