<?xml version="1.0" encoding="UTF-8"?>
<svg id="Camada_2" data-name="Camada 2" xmlns="http://www.w3.org/2000/svg" viewBox="0 0 300.91 132.79">
  <defs>
    <style>
      .cls-1 {
        fill: #e3253c;
      }
    </style>
  </defs>
  <g id="Camada_1-2" data-name="Camada 1">
    <g>
      <path class="cls-1" d="m72.27,60.57c5.63-.03,8.77,2.66,8.87,7.59.1,4.87-5.15,9.57-10.49,9.37-2.91-.11-7.48-5.77-7.47-9.27,0-5.19,2.92-7.66,9.09-7.69Z"/>
      <g>
        <path class="cls-1" d="m134.42,47.02c-1.17,5.81.92,10.24,2.16,14.3,2.94,9.6,4.75,19.52,8.1,28.98,1.38,3.9.35,4.99-3.63,4.86-7.71-.26-6.53-.1-6.58,6.83-.05,7.66,0,15.33-.02,22.99-.01,2.49-.16,5.02-2.49,6.61-4.11,2.8-8.15.51-8.36-5.01-.25-6.49-.07-12.99-.07-19.49,0-2.5.12-5.01-.05-7.49-.1-1.41,1-3.88-1.69-3.78-2.13.08-1.43,2.29-1.44,3.64-.07,8-.03,15.99-.04,23.99,0,1.17.02,2.33-.03,3.5-.14,3.52-1.82,5.81-5.5,5.69-3.53-.11-5.38-2.22-5.37-5.83,0-8.83-.17-17.66.07-26.49.1-3.62-.78-5.38-4.66-4.71-.97.17-2.01-.08-2.99.04-3.85.49-4.16-1.63-3.33-4.5,3.7-12.81,7.43-25.61,11.15-38.41.09-.32.21-.64.26-.96.2-1.26,1.1-2.96-.56-3.52-1.83-.62-1.93,1.36-2.28,2.51-2.11,6.96-4.34,13.89-6.15,20.92-.89,3.47-3.36,6.01-6.08,5.35-3.76-.91-4.42,1.65-5.57,3.35-2.22,3.27-3.76,6.98-6.16,10.2-1.7,2.28-1.37,5.11-.73,7.68.81,3.19,2.41,6.21,2.94,9.42.41,2.47,3.39,6.25-2.2,7.2-1.19.2-.84,1.64-.85,2.57-.03,2.83-.02,5.66.02,8.5.04,3.09.2,6.55-4.07,6.6-4.63.06-4.34-3.64-4.35-6.86,0-2.83,0-5.66-.02-8.5-.01-1.16.03-2.54-1.69-2.39-1.45.13-1.1,1.41-1.11,2.33-.03,3.5,0,7,0,10.5,0,2.89-1.18,4.94-4.3,5-3.24.06-4.24-2.16-4.31-4.96-.07-2.83,0-5.66-.07-8.5-.06-2.18.82-4.83-3.01-4.98-1.67-.07-1.2-1.75-.81-2.79,1.86-4.95,1.4-10.44,3.65-15.3.77-1.66.12-3.29-.67-4.78-1.78-3.39-3.54-6.8-5.5-10.09-1.65-2.77-3.01-5.51-7.56-3.8-3.46,1.3-3.81-2.31-3.86-4.77-.14-7.49-.09-14.99-.12-22.49,0-1.17,0-2.34-.09-3.49-.09-1.06-.54-2.05-1.74-2.06-1.23-.02-1.66,1-1.74,2.04-.11,1.32-.09,2.66-.09,3.99-.01,24.32,0,48.65-.03,72.97,0,2.65.2,5.4-2.12,7.38-2.08,1.77-4.7,2.32-6.99,1.24-2.56-1.2-3.35-3.86-3.34-6.72.04-13.33.02-26.65.02-39.98,0-1.17,0-2.33-.01-3.5-.02-1.34.06-3.05-1.67-3.12-2.24-.09-1.88,1.91-1.88,3.32-.04,7.66-.01,15.33-.01,22.99,0,6.5.07,13-.04,19.49-.09,5.28-2.28,7.89-6.28,7.88-3.98,0-6.16-2.71-6.17-7.95-.04-24.49-.03-48.98-.03-73.47,0-.83.08-1.67-.01-2.5-.17-1.51.72-3.91-1.7-3.98-2.77-.07-2.08,2.57-2.11,4.2-.11,7-.04,13.99-.05,20.99,0,1.33.02,2.67-.15,3.99-.25,2.06-1.63,3.45-3.54,3.61-2.16.19-3.83-1.04-4.39-3.29-.24-.96-.31-1.98-.31-2.97,0-9.83-.11-19.66.08-29.49.16-8.24,5.27-13.72,13.53-14.1,8.48-.39,17.04-.7,25.47.03,7.09.61,14.48,5.61,14.12,14.85-.33,8.48-.06,16.99-.07,25.49,0,1.84-.34,3.62,2.66,3.46,3.13-.17,3.78,2.89,5.05,4.91,3.77,5.97,11.29,8.71,17.91,6.14,2.84-1.1,4.08-3.89,5.14-6.46.66-1.61,1.24-3.58,2.78-3.86,6.71-1.25,6.98-6.81,7.79-11.64,1.34-8,4.72-15.17,8.35-22.22,1.75-3.41,5.2-4.89,9.27-4.78,5.99.16,11.99.03,17.99.04,7.66.01,13.56,4.36,14.82,11.81,1.29,7.58,4.18,14.62,6.24,21.93.45,1.59,1.11,3.25,1.03,4.84-.11,2.3-.81,4.66-3.49,5.35-3,.78-4.2-1.34-4.8-3.63-1.71-6.54-4.77-12.65-5.96-19.37-.4-2.27-.93-4.77-3.5-7.52Z"/>
        <path class="cls-1" d="m171.87,47.79c-2.31,6.65-4.7,12.3-5.96,18.38-.57,2.75-1.46,5.46-2.45,8.1-.95,2.54-3.63,3.26-5.66,2.92-1.63-.28-3.47-2.41-2.7-4.68,3.62-10.65,4.69-22.07,9.78-32.28,2.7-5.42,7.01-7.17,12.94-6.73,5.96.44,11.99.06,17.98.13,4.91.05,9.64,3.35,11.05,7.84,2.93,9.32,5.74,18.68,8.56,28.03.33,1.1.58,2.29.52,3.42-.12,2.48-1.95,3.93-3.96,4.59-2.38.78-3.61-1.01-4.31-3.09-2.12-6.38-4.11-12.81-6.48-19.1-.47-1.24-.13-4.17-2.3-3.57-1.95.54-.69,2.69-.25,4.23,3.2,11.24,6.26,22.52,9.55,33.73.97,3.32,1.28,5.19-3.32,5.06-4.72-.14-7.46,1.7-6.88,7.59.74,7.59.12,15.31.19,22.97.04,3.9-.81,7.33-5.41,7.38-4.53.05-5.63-3.18-5.59-7.2.09-8.83.05-17.66-.02-26.48-.01-1.33.69-3.5-1.57-3.52-2.26-.01-1.61,2.15-1.61,3.49-.06,8.83-.05,17.66-.03,26.49,0,3.9-1.06,7.2-5.63,7.11-4.29-.09-5.32-3.29-5.3-7.01.02-8.5-.19-17,.11-25.48.13-3.85-1.08-4.74-4.79-4.57-7.45.35-7.12.2-5.26-7.43,2.88-11.81,7.37-23.16,9.62-35.14.28-1.47.85-2.77-.83-5.18Z"/>
        <path class="cls-1" d="m259.95,87.17c0-11.82.09-23.65-.08-35.47-.03-2.37,1.48-6.75-1.74-6.71-3.88.05-1.83,4.51-1.97,6.96-.34,5.81-.16,11.65-.08,17.48.03,2.02-.27,3.93-1.04,5.79-.82,1.96-2.5,2.35-4.37,2.35-1.91,0-2.67-1.35-2.84-2.9-.29-2.63-.4-5.3-.42-7.95-.05-7.33-.05-14.65,0-21.98.08-11.74,5.65-17.22,17.49-17.26,6.33-.02,12.66-.13,18.98.03,11.8.29,16.21,5.5,16.79,16.64.46,8.8.1,17.65.08,26.47,0,3.27-.04,6.9-4.51,6.84-4.19-.06-4.11-3.49-4.09-6.61.04-6.99.1-13.99-.05-20.98-.04-1.87,1.22-5.14-2.08-5.07-2.78.07-1.74,3.13-1.75,4.91-.08,24.31-.06,48.62-.08,72.94,0,1.33.05,2.67-.03,4-.24,3.79-2.42,5.9-6.1,5.86-3.64-.04-5.96-2.11-6.04-5.92-.12-5.83-.04-11.66-.05-17.48,0-8.49.06-16.99-.05-25.48-.02-1.74,1.05-4.69-2.02-4.63-2.69.06-1.64,2.83-1.66,4.44-.09,13.99-.09,27.98-.05,41.96.01,2.93-.87,5.26-3.56,6.6-2.52,1.26-4.75.47-6.99-1.03-2.31-1.55-1.67-3.83-1.69-5.83-.09-12.66-.05-25.31-.03-37.97Z"/>
        <path class="cls-1" d="m242.14,93.71c0,9.43,0,18.86,0,28.28,0,1.5-.06,3,.01,4.5.14,3.15-.97,5.84-4.23,6.16-3.79.37-5.12-2.93-5.47-5.85-.46-3.77-.23-7.66.07-11.47.09-1.16.83-2.49-.68-2.66-1.47-.17-1.5,1.44-1.51,2.61-.02,3.5-.08,7,0,10.5.09,3.44-.66,6.81-4.59,6.84-4.28.03-4.4-3.69-4.4-7.01.02-10.48,0-20.97-1.09-31.76-1.27,3.74-2.61,7.46-3.79,11.24-.69,2.22-1.44,4.49-4.32,3.45-2.67-.96-1.69-3.22-1.01-5.1,2.03-5.56,3.79-11.25,6.28-16.6,1.6-3.43,4.17-6.53,8.8-6.1,5.38.5,10.93-1.36,16.15,1.24,1.97.98,3.27,2.19,4.03,4.55,1.69,5.21,4,10.22,6.09,15.29.92,2.23,1.21,4.46-1.45,5.46-2.89,1.08-3.21-1.63-3.83-3.37-1.22-3.48-3.64-6.46-3.45-10.49-.54.1-1.09.2-1.63.31Z"/>
        <path class="cls-1" d="m37.29,11.12c.03,6.23-4.71,10.96-11.01,10.98-6.42.02-11.94-4.86-11.92-10.55C14.38,4.83,19.46-.07,26.34,0c6.16.06,10.92,4.9,10.96,11.12Z"/>
        <path class="cls-1" d="m274.34,2.9c7.62-.07,10.71,2.85,10.76,10.21.05,6.83-4.72,11.87-11.11,11.75-5.62-.11-10.83-5.81-10.81-11.8.02-6.44,4.02-10.08,11.16-10.15Z"/>
        <path class="cls-1" d="m132.05,18.6c.95,5.17-4.71,9.84-11.03,10-5.45.14-9.91-4.81-9.84-10.76.07-5.64,5.31-10.74,10.92-10.64,6.56.12,9.96,4.01,9.96,11.4Z"/>
        <path class="cls-1" d="m195.21,17.45c-.19,6.63-3.19,11.62-10.04,11.08-6.39-.5-10.08-4.01-10.02-11.04.05-5.83,4.73-10.38,10.48-10.31,5.97.07,9.59,3.95,9.57,10.27Z"/>
        <path class="cls-1" d="m240.03,68.48c0,5.3-3.83,9.26-8.87,9.13-4.16-.1-7.96-4.42-8.05-9.17-.11-5.51,2.35-7.85,8.25-7.87,6.57-.03,8.66,1.89,8.67,7.91Z"/>
      </g>
    </g>
  </g>
</svg>