<?xml version="1.0" encoding="UTF-8"?>
<svg id="Camada_2" data-name="Camada 2" xmlns="http://www.w3.org/2000/svg" viewBox="0 0 218.45 186.83">
  <defs>
    <style>
      .cls-1 {
        fill: #dda739;
      }
    </style>
  </defs>
  <g id="Camada_1-2" data-name="Camada 1">
    <g>
      <path class="cls-1" d="m109.1,93.72c34.31,0,68.61,0,102.92,0,6.55,0,7.27.82,5.78,7.37-7.15,31.36-25.86,53.72-53.79,68.88-4.54,2.47-9.23,4.63-14.15,6.18-2.84.89-4.13,2.3-3.67,5.31.59,3.88-1.24,5.38-5.09,5.37-20.65-.08-41.3-.06-61.95-.02-3.9,0-6.65-1.07-6.12-5.68.33-2.89-1.55-3.36-3.71-4.22-26.7-10.61-48.14-27.3-61.1-53.59-3.54-7.18-6.17-14.71-7.69-22.61-1.22-6.3-.69-7.02,5.66-7.03,34.31,0,68.61,0,102.92,0v.03Z"/>
      <path class="cls-1" d="m118.35,86c-7.41.01-7.32.03-6.47-6.92.9-7.38-1.68-13.69-6.33-19.32-2.63-3.18-5.58-6.2-7.65-9.73-4.36-7.43-4.66-15.81-3.75-24.06.88-7.96,4.56-15.05,8.75-21.8,2.45-3.93,7.27-5.34,10.74-3.02,3.97,2.67,3.16,6.05,1.09,9.59-4.26,7.27-6.97,14.9-6.57,23.58.28,6.1,2.89,11.07,6.54,15.39,8.15,9.65,13.47,19.91,10.61,33.09-1.14,5.26-5.11,2.08-6.96,3.19Z"/>
      <path class="cls-1" d="m153.91,80.9c.96-8.9-2.03-16.03-7.91-22.97-11.85-13.97-12.84-29.73-4.86-46.11,1.45-2.98,2.7-6.09,4.88-8.66,2.73-3.24,6.11-4.12,9.79-2.02,3.55,2.04,3.42,5.34,1.96,8.63-1.53,3.44-3.4,6.72-4.9,10.17-5.27,12.14-2.65,22.72,6.06,32.41,6.81,7.58,10.26,16.5,9.53,26.98-.32,4.62-1.85,6.74-6.64,6.04-1.62-.24-3.32.02-4.98.05-3.16-.09-2.92-2.38-2.92-4.51Z"/>
      <path class="cls-1" d="m68.9,82.85c3.25-10.07-1.24-17.86-7.46-25.09-10.04-11.65-11.7-24.77-7.54-39.24,1.53-5.33,3.86-10.11,6.91-14.61C63.46-.01,67.35-.83,71.08,1.69c3.82,2.58,2.65,6.1,1.1,9.23-3.41,6.9-6.09,13.74-6.16,21.79-.06,7.42,2.48,13.15,7.12,18.42,7.33,8.31,11.69,17.7,10.37,29.09-.22,1.93,0,4.11-2.24,5.19-1.02,0-2.04,0-3.06,0-2.97.05-5.94.1-8.91.15-.14-.9-.28-1.8-.42-2.7Z"/>
    </g>
  </g>
</svg>