<?xml version="1.0" encoding="UTF-8"?>
<svg id="Camada_2" data-name="Camada 2" xmlns="http://www.w3.org/2000/svg" viewBox="0 0 234.45 202.83">
  <defs>
    <style>
      .cls-1 {
        fill: #dda739;
      }

      .cls-2 {
        fill: #1d1d1b;
      }
    </style>
  </defs>
  <g id="Camada_1-2" data-name="Camada 1">
    <g>
      <g>
        <path class="cls-1" d="m149.09,198.83c-10.23-.04-20.46-.05-30.7-.05s-20.82.01-31.23.03c-2.44,0-5.89-.3-8.2-2.9-1.53-1.71-2.18-4.01-1.94-6.81-.21-.08-1.17-.46-1.17-.46-29.99-11.91-50.66-30.08-63.21-55.54-3.79-7.68-6.49-15.63-8.03-23.62-.6-3.1-1.28-6.62.85-9.2,2.13-2.58,5.64-2.58,8.73-2.58h102.92c.15,0,.3,0,.45.02,0,0,85.27,0,102.46,0,3.75,0,7.01.21,9.03,2.73,2.03,2.54,1.49,5.82.65,9.52-7.12,31.23-25.89,55.29-55.78,71.51-5.33,2.89-10.19,5.01-14.86,6.48-.51.16-.81.3-.96.39,0,.11,0,.28.05.51.45,2.97-.1,5.39-1.64,7.18-1.59,1.85-4.06,2.79-7.35,2.79h-.07Z"/>
        <path class="cls-2" d="m64.25,101.7c17.62,0,35.23,0,52.85,0v.03c17.68,0,35.37,0,53.06,0,16.62,0,33.24,0,49.86,0,6.55,0,7.27.82,5.78,7.37-7.15,31.36-25.86,53.72-53.79,68.88-4.54,2.47-9.23,4.63-14.15,6.18-2.84.89-4.13,2.3-3.67,5.31.59,3.86-1.22,5.37-5.03,5.37-.02,0-.04,0-.06,0-10.22-.04-20.44-.05-30.65-.05s-20.86.01-31.3.03h-.04c-3.88,0-6.61-1.09-6.08-5.68.33-2.89-1.55-3.36-3.71-4.22-26.7-10.61-48.14-27.3-61.1-53.59-3.54-7.18-6.17-14.71-7.69-22.61-1.22-6.3-.69-7.03,5.66-7.03,16.69,0,33.38,0,50.07,0m0-8H14.19c-3.38,0-8.49,0-11.82,4.04-3.33,4.04-2.39,8.93-1.7,12.51,1.61,8.34,4.43,16.63,8.37,24.63,12.82,26.01,33.77,44.66,64.01,56.96.35,3.18,1.68,5.37,2.91,6.75,3.78,4.24,9.32,4.24,11.15,4.24,0,0,.05,0,.05,0,10.43-.02,20.85-.03,31.28-.03,11.24,0,21.26.02,30.62.05h.09c4.51,0,8-1.41,10.39-4.19,1.29-1.5,2.67-3.94,2.75-7.54,4.29-1.5,8.74-3.5,13.53-6.1,30.94-16.79,50.38-41.73,57.77-74.13.79-3.44,1.97-8.65-1.42-12.91-3.38-4.24-8.66-4.24-12.15-4.24-16.62,0-33.24,0-49.86,0h-26.53s-25.89,0-25.89,0c-.21-.02-.42-.03-.64-.03h-26.42s-26.42,0-26.42,0h0Z"/>
      </g>
      <g>
        <path class="cls-1" d="m125.36,98c-3.43,0-6.39,0-8.36-2.22-1.95-2.2-1.62-4.88-1.12-8.93l.03-.25c.69-5.69-1.09-11.01-5.44-16.28-.66-.8-1.35-1.59-2.03-2.39-2.1-2.43-4.27-4.94-5.98-7.86-5.44-9.26-5.04-19.57-4.28-26.53,1-9.06,5.28-16.96,9.33-23.48,2.31-3.72,6.3-6.03,10.41-6.03,2.14,0,4.2.62,5.96,1.8,3.62,2.43,6.96,7,2.31,14.93-4.44,7.57-6.35,14.36-6.02,21.37.22,4.6,2,8.73,5.6,13,7.18,8.49,14.98,20.32,11.46,36.52-.87,4.01-3.47,6.3-7.13,6.3-.71,0-1.35-.08-1.87-.15-.16-.02-.35-.04-.5-.06-.43.16-.89.24-1.35.24,0,0-.99,0-1,0Z"/>
        <path class="cls-2" d="m117.91,8.03c1.3,0,2.59.36,3.73,1.13,3.97,2.67,3.16,6.05,1.09,9.59-4.26,7.27-6.97,14.9-6.57,23.58.28,6.1,2.89,11.07,6.54,15.39,8.15,9.65,13.47,19.91,10.61,33.09-.57,2.63-1.85,3.15-3.22,3.15-.89,0-1.82-.22-2.61-.22-.42,0-.81.06-1.13.26-.33,0-.65,0-.95,0-6.45,0-6.34-.29-5.53-6.92.9-7.38-1.68-13.69-6.33-19.32-2.63-3.18-5.58-6.2-7.65-9.73-4.36-7.43-4.66-15.81-3.75-24.06.88-7.96,4.56-15.05,8.75-21.8,1.64-2.64,4.35-4.14,7.01-4.14m0-8h0c-5.48,0-10.77,3.04-13.8,7.92-4.29,6.9-8.82,15.29-9.91,25.15-.83,7.52-1.23,18.7,4.8,28.99,1.9,3.24,4.3,6.01,6.41,8.46.69.8,1.35,1.56,1.97,2.32,3.67,4.44,5.11,8.65,4.55,13.25l-.03.25c-.53,4.38-1.04,8.52,2.1,12.06,3.16,3.57,7.54,3.57,11.4,3.57h.92c.56,0,1.13-.06,1.68-.18.56.07,1.28.14,2.09.14,5.54,0,9.77-3.62,11.04-9.45,3.93-18.1-5.15-31.47-12.32-39.95-3.01-3.56-4.49-6.93-4.66-10.6-.29-6.2,1.45-12.29,5.48-19.16,6.99-11.93-.94-18.54-3.53-20.28C123.68.89,120.85.03,117.91.03h0Z"/>
      </g>
      <g>
        <path class="cls-1" d="m171.47,97.5c-.69,0-1.44-.06-2.23-.17-.27-.04-.58-.06-.95-.06-.54,0-1.09.04-1.63.07-.58.04-1.17.07-1.75.08-.02,0-.14,0-.18,0-3.13-.08-6.85-1.56-6.82-8.09v-.41c0-.15,0-.29.02-.44.77-7.19-1.38-13.34-6.98-19.95-12.46-14.7-14.33-32.14-5.41-50.45.26-.53.51-1.06.76-1.59,1.25-2.65,2.54-5.39,4.66-7.9,3.19-3.79,6.62-4.58,8.94-4.58,1.98,0,3.96.56,5.9,1.67,4.85,2.78,6.21,7.91,3.63,13.72-.77,1.74-1.62,3.43-2.44,5.06-.88,1.75-1.71,3.39-2.44,5.08-4.43,10.2-2.72,19.14,5.36,28.14,7.78,8.65,11.32,18.72,10.55,29.93-.57,8.18-5.2,9.89-8.98,9.89Z"/>
        <path class="cls-2" d="m159.9,8c1.25,0,2.56.37,3.91,1.14,3.55,2.04,3.42,5.34,1.96,8.63-1.53,3.44-3.4,6.72-4.9,10.17-5.27,12.14-2.65,22.72,6.06,32.41,6.81,7.58,10.26,16.5,9.53,26.98-.28,4.04-1.49,6.17-4.99,6.17-.5,0-1.05-.04-1.65-.13-.5-.07-1.02-.1-1.53-.1-1.14,0-2.31.13-3.45.15-3.16-.09-2.92-2.38-2.92-4.51.96-8.9-2.03-16.03-7.91-22.97-11.85-13.97-12.84-29.73-4.86-46.11,1.45-2.98,2.7-6.09,4.88-8.66,1.73-2.05,3.72-3.16,5.88-3.16m0-8h0c-3.17,0-7.82,1.04-12,6-2.45,2.91-3.92,6.03-5.22,8.77-.24.51-.48,1.03-.73,1.54-9.67,19.85-7.61,38.79,5.95,54.79,4.9,5.78,6.71,10.85,6.06,16.94-.03.29-.05.59-.05.88v.38c0,1.53-.02,3.84,1.14,6.26,1.73,3.6,5.22,5.73,9.57,5.85.07,0,.14,0,.22,0,.05,0,.09,0,.14,0,.69-.01,1.35-.05,1.92-.09.52-.03,1.01-.06,1.39-.06.26,0,.36.01.37.02.98.14,1.93.22,2.81.22,2.82,0,12.1-.98,12.97-13.62.85-12.33-3.04-23.39-11.56-32.88-7.01-7.8-8.45-15.16-4.67-23.88.69-1.58,1.49-3.18,2.34-4.87.84-1.68,1.72-3.41,2.53-5.24,4.11-9.28-.04-15.8-5.3-18.82-2.55-1.46-5.2-2.2-7.89-2.2h0Z"/>
      </g>
      <g>
        <path class="cls-1" d="m77.33,97.55c-1.97,0-3.65-1.44-3.95-3.39l-.42-2.69c-.1-.62-.05-1.25.15-1.84,2.63-8.14-.77-14.38-6.69-21.25-10.44-12.13-13.18-26.18-8.35-42.96,1.6-5.55,4.03-10.7,7.44-15.74,2.37-3.5,5.68-5.42,9.32-5.42,2.23,0,4.42.71,6.51,2.12,4.74,3.2,5.56,8.01,2.45,14.32-2.95,5.96-5.68,12.52-5.74,20.05-.05,6.03,1.84,10.89,6.12,15.74,8.96,10.16,12.68,20.69,11.35,32.2-.03.25-.05.5-.07.76-.14,1.83-.44,5.65-4.39,7.57-.55.27-1.14.4-1.75.4,0,0-3,0-3,0,0,0-8.94.15-8.96.15Z"/>
        <path class="cls-2" d="m74.82,8.25c1.4,0,2.85.47,4.27,1.44,3.82,2.58,2.65,6.1,1.1,9.23-3.41,6.9-6.09,13.74-6.16,21.79-.06,7.42,2.48,13.15,7.12,18.42,7.33,8.31,11.69,17.7,10.37,29.09-.22,1.93,0,4.11-2.24,5.19-1.02,0-2.04,0-3.06,0-2.97.05-5.94.1-8.91.15-.14-.9-.28-1.8-.42-2.7,3.25-10.07-1.24-17.86-7.46-25.09-10.04-11.65-11.7-24.77-7.54-39.24,1.53-5.33,3.86-10.11,6.91-14.61,1.64-2.43,3.75-3.66,6.01-3.66m0-8h0c-4.94,0-9.54,2.62-12.63,7.18-3.65,5.39-6.26,10.91-7.97,16.88-5.15,17.92-2.07,33.63,9.17,46.67,6.12,7.1,7.72,11.82,5.91,17.41-.38,1.19-.48,2.45-.29,3.68l.42,2.69c.6,3.91,3.97,6.78,7.9,6.78.05,0,.09,0,.14,0l8.82-.15h2.97s.02,0,.03,0c1.21,0,2.41-.28,3.5-.81,6-2.92,6.46-8.68,6.63-10.85.02-.21.03-.41.05-.61,1.47-12.69-2.56-24.24-12.32-35.3-3.63-4.12-5.16-8.02-5.12-13.06.05-6.35,2.17-11.91,5.33-18.31,5.43-11-.05-16.88-3.8-19.41-2.72-1.83-5.74-2.8-8.74-2.8h0Z"/>
      </g>
    </g>
  </g>
</svg>