<?xml version="1.0" encoding="UTF-8"?>
<svg id="Camada_2" data-name="Camada 2" xmlns="http://www.w3.org/2000/svg" viewBox="0 0 287.18 204.73">
  <defs>
    <style>
      .cls-1 {
        fill: #4c9f44;
      }

      .cls-2 {
        fill: #1d1d1b;
      }
    </style>
  </defs>
  <g id="Camada_1-2" data-name="Camada 1">
    <g>
      <g>
        <path class="cls-1" d="m158.85,200.73c-.22,0-.44,0-.68-.03-6.47-.47-7.69-6.44-8.08-8.4-1.64-8.11-2.98-16.37-4.27-24.36-1.25-7.73-2.54-15.73-4.1-23.49-.76-3.78-1.33-7.65-1.89-11.38-.61-4.13-1.24-8.35-2.14-12.64-1.62,3.02-3.18,5.92-4.76,8.77-1.72,3.1-3.46,6.19-5.2,9.27-2.11,3.74-4.3,7.6-6.39,11.42-2,3.66-5.1,5.76-8.51,5.76-.27,0-.53-.01-.8-.04-2.64-.26-5.98-1.93-6.94-8.36-.5-3.37-1-6.75-1.5-10.13-1.77-12.03-3.6-24.46-5.74-36.6-.2-1.13-.31-2.25-.39-3.34-.57,1.61-1.19,3.25-2.04,4.86-2.28,4.28-4.07,8.78-5.96,13.55-.8,2.01-1.6,4.03-2.44,6.02-1.73,4.12-5,6.29-9.46,6.29-9.94-.02-19.85-.03-29.77-.03-11.25,0-22.5,0-33.75-.04-8.25-.03-10.03-4.49-10.06-8.23-.02-2.49.71-4.52,2.19-6.01,2.46-2.48,6.01-2.49,8.14-2.49,4.74,0,9.48-.02,14.22-.04,5.64-.02,11.28-.04,16.92-.04,9.49,0,17.25.06,24.42.2h.28c2.63,0,3.31-.48,4.27-3.05,2.25-6.02,4.98-11.86,7.62-17.52,3.13-6.7,6.36-13.64,8.71-20.69.36-1.09.89-2.15,1.56-3.17.27-.4.55-.96.85-1.56,1.11-2.21,3.16-6.31,8.24-6.31.77,0,1.58.1,2.41.3,6.07,1.45,6.41,6.65,6.58,9.16.04.61.08,1.19.16,1.61,3.11,15.56,5.09,31.48,7,46.87.19,1.53.38,3.06.57,4.59.2-.39.41-.79.63-1.19,4.95-8.9,9.81-18.07,14.52-26.93l.37-.69c.8-1.51,3.24-6.11,8.37-6.11.78,0,1.58.11,2.38.33,5.25,1.43,5.84,6.29,6.15,8.9l.26,2.14c.78,6.37,1.59,12.95,3.31,19,.78,2.75,1.02,5.37,1.25,7.92.2,2.22.39,4.32.93,6.28,1.13,4.08,1.97,8.23,2.78,12.25.59,2.92,1.2,5.95,1.91,8.85.17.7.28,1.4.36,2.07,1.56-5.2,3.12-10.39,4.69-15.59,1.71-5.66,3.41-11.32,5.11-16.99l.46-1.53c4.24-14.17,8.63-28.82,12.87-43.25,1.12-3.82,2.2-7.74,3.25-11.53,2.01-7.29,4.09-14.83,6.6-22.15,3.34-9.72,6.19-19.8,8.94-29.55l.67-2.38c.51-1.81,1.87-6.62,7.97-7.26.38-.04.74-.06,1.09-.06,5.27,0,7.35,4.25,8.14,5.86,5.1,10.41,10.22,20.82,15.33,31.22,2.86,5.81,8.85,18,8.85,18,1.13,2.26,4.57,9.12-2.65,12.92-1.46.77-2.92,1.16-4.35,1.16-5.39,0-7.88-5.13-8.81-7.07-3.7-7.62-7.34-15.4-10.86-22.93-1.3-2.78-2.6-5.56-3.91-8.34-1.37,3.94-2.73,8.12-3.91,12.34-3.36,12.01-6.18,21.73-8.85,30.58-4.83,15.98-9.83,32.5-14.9,48.8-4.41,14.15-8.61,28.68-12.67,42.74l-.62,2.15c-.8,2.76-1.71,5.49-2.59,8.13-1.51,4.52-2.94,8.8-3.86,13.25-1.02,4.95-4.19,7.91-8.47,7.91Z"/>
        <path class="cls-2" d="m213.01,8c2.45,0,3.54,1.56,4.54,3.61,7.94,16.23,15.94,32.43,23.9,48.64,1.41,2.86,3.4,6.07-.63,8.2-.92.49-1.75.7-2.49.7-2.55,0-4.09-2.5-5.22-4.81-5.67-11.68-11.09-23.48-16.64-35.22-.54-1.13-.67-2.67-2.82-3.11-2.42,6.57-4.79,13.33-6.68,20.08-2.85,10.19-5.77,20.37-8.83,30.5-4.92,16.27-9.84,32.54-14.9,48.77-4.64,14.9-8.97,29.95-13.32,44.96-2.1,7.25-4.99,14.25-6.53,21.69-.46,2.21-1.66,4.72-4.55,4.72-.13,0-.25,0-.39-.01-3.07-.22-3.93-2.6-4.45-5.21-3.22-15.88-5.17-31.99-8.36-47.84-2.18-10.85-2.73-22.04-6.68-34.07-3.62,6.72-6.52,12.23-9.53,17.67-3.83,6.92-7.81,13.77-11.6,20.71-1.15,2.11-2.93,3.68-5,3.68-.14,0-.27,0-.41-.02-2.31-.23-3.03-2.67-3.38-4.97-2.33-15.62-4.51-31.28-7.26-46.83-.81-4.57.09-9.54-2.79-14.22-4.21,4.18-4.63,9.9-7.11,14.55-3.38,6.35-5.76,13.24-8.55,19.9-1.08,2.57-2.89,3.84-5.77,3.84,0,0-.02,0-.02,0-21.16-.05-42.32,0-63.48-.06-2.88,0-6.04-.34-6.07-4.27-.04-4.25,3.19-4.46,6.33-4.46,10.37-.01,20.74-.08,31.11-.08,8.13,0,16.25.04,24.37.2.12,0,.24,0,.36,0,4.47,0,6.53-1.67,8.02-5.65,4.88-13.02,11.98-25.11,16.38-38.35.26-.77.64-1.53,1.1-2.21,1.6-2.4,2.27-6.08,5.76-6.08.44,0,.93.06,1.48.19,4.18,1,3.17,4.77,3.75,7.66,3.67,18.35,5.71,36.94,8.07,55.48.2,1.58.96,3.1,1.59,5.06,3.2-2.52,4.27-6.07,5.96-9.12,5.09-9.17,10.01-18.43,14.92-27.69,1.14-2.16,2.56-3.98,4.84-3.98.41,0,.86.06,1.33.19,2.79.76,2.96,3.28,3.28,5.91.89,7.17,1.69,14.45,3.65,21.36,1.34,4.72.87,9.5,2.17,14.17,1.92,6.89,2.96,14.02,4.66,20.98.78,3.2-.02,6.55,1.39,9.7.52,1.15.31,2.92,1.85,3.04.08,0,.15,0,.22,0,1.66,0,1.97-1.64,2.4-3.08,3.97-13.34,8.01-26.65,12-39.98,4.47-14.93,8.94-29.85,13.33-44.8,3.28-11.17,6.02-22.51,9.79-33.51,3.64-10.61,6.63-21.38,9.68-32.14.71-2.49,1.71-4.08,4.53-4.37.24-.02.46-.04.67-.04m0-8c-.49,0-.99.03-1.5.08-4.01.42-9.25,2.52-11.41,10.15l-.68,2.39c-2.74,9.69-5.57,19.72-8.87,29.33-2.55,7.44-4.65,15.04-6.67,22.39-1.04,3.77-2.12,7.68-3.23,11.46-4.24,14.41-8.62,29.05-12.86,43.22l-.46,1.55c-1.68,5.63-3.38,11.25-5.07,16.88-.06.19-.11.38-.17.56-.56-2.64-1.17-5.3-1.91-7.97-.45-1.61-.61-3.44-.8-5.57-.23-2.6-.5-5.54-1.38-8.65-1.64-5.75-2.39-11.9-3.19-18.4l-.22-1.76-.05-.37c-.34-2.77-1.23-10.14-9.07-12.28-1.15-.31-2.3-.47-3.44-.47-5,0-9.01,2.77-11.91,8.23l-.37.69c-3,5.66-6.07,11.44-9.19,17.19-1.65-13.03-3.46-26.33-6.08-39.43-.03-.18-.07-.71-.09-1.09-.17-2.63-.7-10.65-9.64-12.78-1.13-.27-2.26-.41-3.33-.41-7.55,0-10.65,6.19-11.82,8.52-.21.42-.47.93-.6,1.13-.87,1.31-1.55,2.69-2.03,4.12-2.27,6.83-5.31,13.35-8.53,20.26-2.67,5.72-5.43,11.64-7.74,17.8-.07.18-.13.33-.18.45-.1,0-.22,0-.35,0h-.2c-7.2-.14-14.99-.2-24.52-.2-5.64,0-11.27.02-16.91.04-4.74.02-9.48.04-14.21.04-2.39,0-7.35,0-10.98,3.68C1.8,112.35-.04,115.16,0,119.64c.03,2.85,1.12,12.16,14.05,12.19,11.26.03,22.71.04,33.77.04,9.9,0,19.81,0,29.71.03,6.06,0,10.86-3.19,13.19-8.74.86-2.04,1.67-4.1,2.46-6.09.81-2.03,1.6-4.02,2.41-5.95,1.45,8.89,2.76,17.84,4.05,26.58.5,3.38.99,6.76,1.5,10.14,1.46,9.81,7.83,11.48,10.5,11.75.4.04.8.06,1.2.06,4.84,0,9.33-2.93,12.02-7.85,2.07-3.79,4.25-7.64,6.36-11.37,1.48-2.61,2.99-5.29,4.49-7.98.06.4.12.79.18,1.19.56,3.79,1.14,7.71,1.92,11.59,1.54,7.68,2.83,15.64,4.07,23.33,1.3,8.03,2.63,16.34,4.3,24.52,1.92,9.49,8.16,11.34,11.71,11.6.32.02.65.04.97.04,6.22,0,10.97-4.25,12.39-11.1.87-4.22,2.27-8.39,3.74-12.79.9-2.68,1.82-5.45,2.64-8.29l.62-2.15c4.06-14.03,8.25-28.55,12.65-42.66,5.08-16.31,10.08-32.85,14.91-48.83,2.69-8.89,5.51-18.63,8.87-30.66.24-.85.48-1.7.74-2.55,3.41,7.28,6.93,14.78,10.5,22.14,3,6.18,7.18,9.32,12.41,9.32,2.09,0,4.18-.54,6.22-1.62,4.45-2.35,6.88-6.36,6.64-11-.15-3-1.38-5.46-2.28-7.25-.09-.19-.19-.37-.27-.55-2.84-5.77-5.68-11.55-8.52-17.32-5.13-10.44-10.27-20.87-15.38-31.31-2.63-5.37-6.58-8.1-11.73-8.1h0Z"/>
      </g>
      <g>
        <path class="cls-1" d="m245.48,153.68c-2.19,0-3.73-1.3-4.84-2.44-4.85-4.99-9.86-10.01-14.71-14.87-3.79-3.79-7.57-7.59-11.33-11.41-4.91-5-7.73-11.47-7.74-17.75-.01-9.64,6.37-19.21,15.16-22.74,2.35-.94,4.7-1.42,7.01-1.42,5.08,0,9.94,2.3,14.44,6.84,1.15,1.16,1.7,1.45,1.87,1.52.17-.06.73-.31,1.8-1.32,5.02-4.71,9.93-7,15.01-7,4.01,0,8.05,1.5,12.01,4.46,7.71,5.76,11.22,18.95,7.52,28.24-1.84,4.61-4.36,8.43-7.71,11.67-7.42,7.18-15.11,14.9-23.51,23.6-.88.92-2.53,2.62-4.99,2.62Z"/>
        <path class="cls-2" d="m229.03,87.05c4.4,0,8.22,2.25,11.6,5.66,1.72,1.73,3.15,2.72,4.7,2.72,1.35,0,2.78-.75,4.55-2.42,4.28-4.01,8.31-5.92,12.27-5.92,3.22,0,6.4,1.26,9.62,3.67,6.27,4.68,9.25,15.91,6.2,23.55-1.55,3.88-3.7,7.3-6.78,10.28-8.01,7.75-15.86,15.67-23.6,23.69-.87.9-1.47,1.4-2.11,1.4-.56,0-1.15-.39-1.97-1.23-8.6-8.85-17.4-17.49-26.05-26.29-4.32-4.39-6.59-9.83-6.59-14.95,0-7.98,5.36-16.1,12.65-19.03,1.93-.78,3.77-1.13,5.52-1.13m0-8h0c-2.82,0-5.68.58-8.5,1.71-10.25,4.12-17.68,15.25-17.67,26.46,0,7.32,3.25,14.81,8.89,20.55,3.77,3.84,7.63,7.7,11.35,11.44,4.83,4.85,9.83,9.86,14.67,14.83.88.9,3.55,3.65,7.71,3.65s6.76-2.69,7.87-3.84c8.37-8.67,16.03-16.36,23.41-23.5,3.77-3.65,6.6-7.92,8.65-13.07,4.38-10.99.33-26.07-8.85-32.92-4.67-3.49-9.52-5.26-14.41-5.26-5.69,0-11.31,2.4-16.7,7.14-5.05-4.77-10.57-7.18-16.42-7.18h0Z"/>
      </g>
    </g>
  </g>
</svg>