<?xml version="1.0" encoding="UTF-8"?>
<svg id="Camada_2" data-name="Camada 2" xmlns="http://www.w3.org/2000/svg" viewBox="0 0 271.18 188.73">
  <defs>
    <style>
      .cls-1 {
        fill: #4c9f44;
      }
    </style>
  </defs>
  <g id="Camada_1-2" data-name="Camada 1">
    <g>
      <path class="cls-1" d="m130.97,101.59c-3.62,6.72-6.52,12.23-9.53,17.67-3.83,6.92-7.81,13.77-11.6,20.71-1.23,2.25-3.16,3.89-5.41,3.66-2.31-.23-3.03-2.67-3.38-4.97-2.33-15.62-4.51-31.28-7.26-46.83-.81-4.57.09-9.54-2.79-14.22-4.21,4.18-4.63,9.9-7.11,14.55-3.38,6.35-5.76,13.24-8.55,19.9-1.08,2.58-2.9,3.85-5.79,3.84-21.16-.05-42.32,0-63.48-.06-2.88,0-6.04-.34-6.07-4.27-.04-4.25,3.19-4.46,6.33-4.46,18.49-.02,36.99-.24,55.48.11,4.72.09,6.85-1.57,8.38-5.64,4.88-13.02,11.98-25.11,16.38-38.35.26-.77.64-1.53,1.1-2.21,1.8-2.71,2.42-7.04,7.24-5.89,4.18,1,3.17,4.77,3.75,7.66,3.67,18.35,5.71,36.94,8.07,55.48.2,1.58.96,3.1,1.59,5.06,3.2-2.52,4.27-6.07,5.96-9.12,5.09-9.17,10.01-18.43,14.92-27.69,1.35-2.55,3.08-4.64,6.17-3.79,2.79.76,2.96,3.28,3.28,5.91.89,7.17,1.69,14.45,3.65,21.36,1.34,4.72.87,9.5,2.17,14.17,1.92,6.89,2.96,14.02,4.66,20.98.78,3.2-.02,6.55,1.39,9.7.52,1.15.31,2.92,1.85,3.04,1.86.15,2.17-1.57,2.62-3.07,3.97-13.34,8.01-26.65,12-39.98,4.47-14.93,8.94-29.85,13.33-44.8,3.28-11.17,6.02-22.51,9.79-33.51,3.64-10.61,6.63-21.38,9.68-32.14.71-2.49,1.71-4.08,4.53-4.37,2.94-.3,4.12,1.35,5.22,3.58,7.94,16.23,15.94,32.43,23.9,48.64,1.41,2.86,3.4,6.07-.63,8.2-4.11,2.16-6.26-1.13-7.71-4.11-5.67-11.68-11.09-23.48-16.64-35.22-.54-1.13-.66-2.67-2.82-3.11-2.42,6.57-4.79,13.33-6.68,20.08-2.85,10.19-5.77,20.37-8.83,30.5-4.92,16.27-9.84,32.54-14.9,48.77-4.64,14.9-8.97,29.95-13.32,44.96-2.1,7.25-4.99,14.25-6.53,21.69-.48,2.31-1.76,4.93-4.94,4.7-3.07-.22-3.93-2.6-4.45-5.21-3.22-15.88-5.17-31.99-8.36-47.84-2.18-10.85-2.73-22.04-6.68-34.07Z"/>
      <path class="cls-1" d="m202.86,99.21c0-7.98,5.36-16.1,12.65-19.03,6.81-2.74,12.4-.24,17.12,4.52,3.21,3.24,5.44,3.88,9.25.3,7.75-7.27,14.7-7.63,21.89-2.25,6.27,4.68,9.25,15.91,6.2,23.55-1.55,3.88-3.7,7.3-6.78,10.28-8.01,7.75-15.86,15.67-23.6,23.69-1.63,1.68-2.33,1.98-4.08.17-8.6-8.85-17.4-17.49-26.05-26.29-4.32-4.39-6.59-9.83-6.59-14.95Z"/>
    </g>
  </g>
</svg>