<?xml version="1.0" encoding="UTF-8"?>
<svg id="Camada_2" data-name="Camada 2" xmlns="http://www.w3.org/2000/svg" viewBox="0 0 242.19 200.12">
  <defs>
    <style>
      .cls-1 {
        fill: #c51e2e;
      }

      .cls-2 {
        fill: #1d1d1b;
      }
    </style>
  </defs>
  <g id="Camada_1-2" data-name="Camada 1">
    <g>
      <g>
        <path class="cls-1" d="m106.45,180.71c-2.13,0-3.52-.94-4.3-1.73-1.88-1.89-2.09-4.63-2.09-6.53.12-42.24.15-76.37.09-107.42,0-5.03,2.93-7.36,5.48-8.83,12.51-7.18,25.21-14.52,37.49-21.63l10.86-6.28c1.68-.97,3.36-1.93,5.05-2.88,3.98-2.26,8.09-4.59,11.98-7.05,1.51-.95,3.14-1.83,4.9-1.83,1.34,0,2.59.51,3.52,1.45,1.64,1.65,1.77,3.98,1.75,6.03-.09,15.91-.08,32.08-.06,47.73,0,5.07,0,10.14.01,15.21,0,5.48-.01,10.95-.02,16.43-.03,15.08-.06,30.67.15,45.98.08,5.89-2.62,9.57-8.27,11.25-4.18,1.24-8.36,2.46-12.55,3.69-6.83,1.99-13.9,4.06-20.8,6.18-3.03.93-6.11,1.79-9.09,2.61-6.92,1.91-13.46,3.72-19.72,6.52-1.67.75-3.06,1.09-4.37,1.09Z"/>
        <path class="cls-2" d="m175.9,20.53c.99,0,1.29,1.08,1.28,3.46-.12,20.99-.06,41.98-.05,62.97,0,20.82-.16,41.65.13,62.47.06,4.42-1.8,6.29-5.41,7.36-11.12,3.31-22.3,6.47-33.39,9.88-9.79,3.01-19.87,5.1-29.27,9.3-1.11.5-2.01.74-2.73.74-1.72,0-2.4-1.42-2.39-4.24.1-35.81.15-71.63.09-107.44,0-2.85,1.3-4.1,3.47-5.35,16.15-9.26,32.24-18.6,48.36-27.92,5.74-3.32,11.57-6.48,17.16-10.02,1.25-.79,2.14-1.21,2.76-1.21m0-8h0c-2.78,0-5.11,1.24-7.03,2.45-3.81,2.41-7.7,4.62-11.82,6.96-1.69.96-3.39,1.92-5.07,2.9l-10.94,6.33c-12.25,7.09-24.91,14.42-37.39,21.57-1.86,1.06-7.51,4.3-7.49,12.31.05,30.99.03,65.12-.09,107.41,0,1.5-.02,6.08,3.26,9.36,1.87,1.87,4.4,2.9,7.13,2.9,1.87,0,3.83-.47,6-1.44,5.99-2.68,12.39-4.44,19.16-6.32,3.01-.83,6.12-1.69,9.21-2.64,6.89-2.12,13.96-4.18,20.79-6.18,4.1-1.2,8.35-2.44,12.53-3.68,9.33-2.78,11.2-9.77,11.13-15.14-.22-15.28-.18-30.85-.15-45.91.01-5.48.02-10.96.02-16.44,0-5.03,0-10.06-.01-15.09-.01-15.68-.03-31.9.06-47.83.01-1.92.03-5.91-2.92-8.88-1.68-1.69-3.94-2.63-6.36-2.63h0Z"/>
      </g>
      <g>
        <path class="cls-1" d="m93.87,180.57c-1.19,0-2.47-.29-4.02-.92-9.51-3.86-19.66-6.69-29.47-9.41-7.97-2.22-16.22-4.51-24.22-7.38-1.22-.44-2.8-.67-4.47-.93-3.87-.58-8.68-1.31-11.15-5.4-2.14-3.54-1.64-7.95-1.19-11.85.18-1.55.35-3.02.35-4.32.02-12.13.01-24.25.01-36.38v-32.73c0-15.26,0-30.53,0-45.79,0-3.32,0-8.87,5.14-8.87,1.82,0,3.4.9,5.83,2.36,6.96,4.18,14.16,8.26,21.12,12.2,9.8,5.55,19.93,11.28,29.64,17.45,3.87,2.46,8.12,4.63,12.24,6.73l.98.5c3.66,1.87,5.44,4.84,5.42,9.07-.09,33.66-.07,67.88-.06,100.98v6.91c0,2.02-.28,3.47-.93,4.69-1.04,1.96-2.94,3.08-5.22,3.08Z"/>
        <path class="cls-2" d="m24.85,20.6c.72,0,1.88.65,3.77,1.78,16.77,10.08,34.15,19.11,50.68,29.6,4.34,2.75,8.96,5.07,13.53,7.42,2.36,1.21,3.25,2.77,3.25,5.5-.09,35.97-.07,71.93-.06,107.9,0,2.47-.53,3.77-2.15,3.77-.65,0-1.48-.21-2.51-.63-17.47-7.1-36.12-10.5-53.84-16.85-4.6-1.65-11.25-.83-13.55-4.64-2.1-3.48-.27-9.3-.27-14.09.02-17.48,0-34.97.01-52.45,0-20.81,0-41.63,0-62.44,0-3.43.07-4.87,1.14-4.87m0-8h0c-3.66,0-7.81,2.36-8.83,7.64-.29,1.51-.31,3.12-.31,5.22,0,15.12,0,30.24,0,45.36v17.09s0,16.06,0,16.06c0,12.13,0,24.25-.01,36.38,0,1.07-.16,2.43-.32,3.87-.49,4.31-1.11,9.67,1.75,14.37,3.45,5.7,9.79,6.66,13.98,7.29,1.41.21,2.87.43,3.72.74,8.13,2.91,16.45,5.23,24.49,7.46,10.15,2.82,19.74,5.49,29.04,9.27,2.04.83,3.8,1.22,5.52,1.22,3.75,0,7.02-1.95,8.75-5.21,1.25-2.37,1.4-4.88,1.4-6.56v-6.66c-.02-33.18-.03-67.49.06-101.22.02-7.22-4.12-10.86-7.6-12.64l-.97-.49c-4.22-2.16-8.21-4.19-11.92-6.55-9.8-6.22-19.98-11.99-29.82-17.56-6.94-3.93-14.12-8-21.03-12.15-2.5-1.51-4.87-2.93-7.89-2.93h0Z"/>
      </g>
      <g>
        <path class="cls-1" d="m98.83,196.12c-5.79,0-11.74-1.1-18.19-3.35-12.36-4.33-25.27-7.84-37.75-11.23-5.16-1.4-10.49-2.85-15.72-4.34-2.12-.6-4.32-1.03-6.64-1.47-3.65-.7-7.41-1.43-11.17-2.93-5.24-2.11-5.26-6.12-5.26-8.05-.01-4.22-.01-8.43-.01-12.65v-4.35c0-9.47,0-18.94.01-28.41.02-29.01.03-59-.11-88.5-.04-8.45,5.01-12.1,9.96-14.56.56-.28,1.17-.42,1.78-.42.73,0,1.46.2,2.11.6,1.18.73,1.89,2.02,1.89,3.4v134.86c0,2,0,4.06.2,4.75.68.45,3.18,1.17,4.86,1.65,3.96,1.13,8.05,2.17,12.01,3.17,5.77,1.46,11.74,2.97,17.56,4.85,6.72,2.17,13.72,3.98,20.49,5.73,5.91,1.53,12.03,3.12,18.01,4.95,2.37.72,4.67,1.08,7.03,1.08,2.68,0,5.35-.45,8.15-1.39,15.47-5.16,31.24-10.27,46.48-15.22l11.23-3.64c.87-.28,1.75-.57,2.62-.86,3.5-1.16,7.11-2.36,10.84-3.22,1.94-.45,2.06-.47,2.05-2.9-.14-33.9-.12-68.37-.1-101.7,0-9.41.01-31.73.01-31.73,0-1.4.73-2.7,1.93-3.42.63-.38,1.35-.58,2.07-.58.64,0,1.28.15,1.86.46,5.19,2.73,9.99,6.44,9.93,15.05-.28,37.36-.21,75.36-.14,112.11l.03,15.78c0,3.91-.56,8.25-7.45,10.29l-4.37,1.29c-23.16,6.83-47.11,13.9-70.17,22.09-5.39,1.91-10.64,2.84-16.03,2.84Z"/>
        <path class="cls-2" d="m15.74,19.85v15.26c0,39.81,0,79.62,0,119.42,0,7.94-.06,8.12,7.95,10.41,9.77,2.8,19.78,4.86,29.44,7.98,12.72,4.1,25.8,6.79,38.56,10.7,2.75.84,5.48,1.25,8.2,1.25,3.12,0,6.25-.54,9.41-1.59,19.19-6.4,38.44-12.6,57.68-18.85,4.35-1.41,8.68-2.96,13.12-3.98,3.89-.89,5.17-2.65,5.15-6.81-.18-43.3-.09-86.61-.08-129.92,0-1,0-1.99,0-3.49,4.92,2.58,7.83,5.24,7.79,11.48-.32,42.64-.18,85.28-.11,127.92,0,3.46-.44,5.22-4.58,6.44-25.05,7.4-50.15,14.72-74.75,23.44-5.08,1.8-9.93,2.61-14.69,2.61-5.67,0-11.2-1.15-16.86-3.13-17.62-6.17-35.77-10.54-53.69-15.64-5.73-1.63-11.75-2-17.41-4.27-2.54-1.02-2.75-2.35-2.75-4.35-.02-5.66,0-11.33,0-16.99,0-38.98.09-77.95-.1-116.93-.03-5.5,2.53-8.37,7.74-10.96m0-8c-1.22,0-2.44.28-3.56.84C6.93,15.3-.05,20.02,0,30.85c.14,29.52.12,59.55.11,88.58,0,9.43-.01,18.87-.01,28.3v4.35c0,4.22,0,8.44,0,12.66.02,5.73,2.63,9.69,7.77,11.75,4.11,1.65,8.25,2.45,11.9,3.15,2.23.43,4.34.84,6.3,1.39,5.26,1.5,10.6,2.95,15.76,4.35,12.41,3.37,25.25,6.86,37.48,11.14,6.88,2.41,13.26,3.58,19.51,3.58,5.86,0,11.54-1.01,17.37-3.07,22.96-8.15,46.86-15.2,69.97-22.02l4.37-1.29c10.34-3.05,10.32-11.1,10.32-14.13l-.03-15.78c-.07-36.74-.14-74.72.14-112.06.08-10.85-6.41-15.66-12.07-18.63-1.17-.61-2.44-.92-3.72-.92-1.44,0-2.87.39-4.14,1.15-2.4,1.45-3.86,4.05-3.86,6.85v3.49c0,9.42,0,18.84-.01,28.25-.02,33.08-.04,67.27.09,100.93-3.52.87-6.88,1.98-10.14,3.06-.87.29-1.73.57-2.6.86-3.75,1.22-7.5,2.43-11.25,3.65-15.25,4.95-31.01,10.06-46.49,15.22-2.39.8-4.64,1.18-6.88,1.18-1.96,0-3.88-.3-5.86-.9-6.07-1.86-12.23-3.45-18.18-4.99-6.71-1.74-13.65-3.54-20.26-5.67-5.93-1.91-11.96-3.44-17.8-4.92-3.93-1-8-2.02-11.9-3.14-.58-.17-1.4-.4-2.15-.63,0-.61,0-1.28,0-1.91v-.18c0-29.53,0-59.06,0-88.58v-30.84s0-15.26,0-15.26c0-2.77-1.43-5.34-3.79-6.8-1.29-.8-2.75-1.2-4.21-1.2h0Z"/>
      </g>
      <g>
        <path class="cls-1" d="m225.16,185.01c-.11,0-.23,0-.34-.01-1.83-.16-3.31-1.54-3.61-3.35-.73-4.51-2.12-8.86-3.6-13.47-2.2-6.88-4.48-13.99-4.47-21.85.05-30.95.03-62.41,0-92.85v-16.54c-.01-.28-.02-.56-.02-.83-.04-1.98-.09-4.44,1.77-6.33.77-.79,2.17-1.73,4.41-1.73,1.06,0,2.27.21,3.68.64,0,0,.17.05.6.05.88,0,2.1-.2,3.29-.39.9-.15,1.83-.3,2.75-.39.47-.05.9-.07,1.3-.07,2.17,0,3.91.66,5.2,1.95,1.86,1.87,2.08,4.42,2.06,6.44-.09,11.7-.08,23.6-.07,35.11,0,3.77,0,7.54,0,11.31v17.06c-.01,15.46-.02,30.91.01,46.37.02,10.75-3.52,20.49-6.95,29.9-.76,2.08-1.52,4.17-2.24,6.28-.56,1.62-2.09,2.7-3.78,2.7Z"/>
        <path class="cls-2" d="m230.93,31.88c2.67,0,3.28,1.53,3.26,4.35-.12,15.48-.07,30.97-.07,46.46,0,21.15-.03,42.29.01,63.44.03,12.31-5.01,23.35-8.97,34.87-1.91-11.78-8.04-22.47-8.02-34.67.06-36.47.02-72.93,0-109.4,0-2.54-.4-4.88,2.17-4.88.64,0,1.46.14,2.51.47.53.16,1.12.22,1.76.22,1.97,0,4.36-.59,6.45-.81.32-.03.62-.05.9-.05m0-8h0c-.55,0-1.12.03-1.71.09-1.04.11-2.03.27-2.99.42-.9.15-1.92.31-2.51.34-1.62-.46-3.07-.69-4.41-.69-3.64,0-5.96,1.59-7.27,2.93-3.03,3.09-2.96,6.92-2.91,9.21,0,.25.01.5.01.75v16.81c.03,30.34.06,61.72,0,92.57-.01,8.48,2.36,15.9,4.66,23.07,1.43,4.46,2.78,8.67,3.46,12.89.59,3.62,3.56,6.38,7.22,6.69.23.02.46.03.69.03,3.39,0,6.44-2.15,7.56-5.4.71-2.06,1.48-4.17,2.22-6.21,3.55-9.74,7.21-19.82,7.19-31.28-.03-15.36-.03-30.99-.02-46.1,0-5.78,0-11.55,0-17.33,0-3.81,0-7.61,0-11.42,0-11.47-.02-23.33.07-34.97.01-1.64.05-5.99-3.22-9.29-1.42-1.43-3.96-3.13-8.03-3.13h0Z"/>
      </g>
      <g>
        <path class="cls-1" d="m230.6,29.09c-.82,0-1.61-.09-2.3-.17-.5-.06-.97-.11-1.29-.11,0,0-.06,0-.08,0-.38.11-.77.17-1.16.17h-.01c-5.13-.02-7.71-.02-9.81-1.49-2.78-1.95-2.78-5-2.77-8.53.01-7.4,1.48-14.96,12.2-14.96h.44c10.42.18,11.64,6.84,12.15,15.53.2,3.36-.47,5.8-2.04,7.47-1.31,1.39-3.11,2.1-5.33,2.1Z"/>
        <path class="cls-2" d="m225.37,8c.12,0,.25,0,.38,0,6.49.11,7.69,2.51,8.23,11.76.26,4.5-1.37,5.33-3.38,5.33-1.17,0-2.47-.28-3.59-.28-.45,0-.87.05-1.24.17q-8.61-.03-8.59-6.02c.02-8.23,2.03-10.97,8.2-10.97m0-8h0c-5.73,0-10.04,1.89-12.82,5.61-2.98,4-3.37,9.23-3.38,13.34,0,3.86-.02,8.67,4.48,11.81,3.13,2.19,6.5,2.2,12.09,2.22,0,0,.02,0,.02,0,.52,0,1.03-.05,1.54-.15.17.02.37.04.54.06.76.09,1.7.2,2.76.2,4.2,0,6.8-1.82,8.24-3.35,3.52-3.73,3.22-8.79,3.12-10.45-.42-7.12-1.12-19.03-16.08-19.29-.17,0-.34,0-.51,0h0Z"/>
      </g>
    </g>
  </g>
</svg>