<?xml version="1.0" encoding="UTF-8"?>
<svg id="Camada_2" data-name="Camada 2" xmlns="http://www.w3.org/2000/svg" viewBox="0 0 159.83 215.48">
  <defs>
    <style>
      .cls-1 {
        fill: #e8402c;
      }
    </style>
  </defs>
  <g id="Camada_1-2" data-name="Camada 1">
    <g>
      <path class="cls-1" d="m127.9,17.95c-5.97,0-10.88-.15-15.77.06-2.96.12-4.02-.71-4.12-3.86C107.55.09,107.44.09,121.32.09c11.33,0,22.65.1,33.98-.09,3.45-.06,4.57.98,4.53,4.51-.18,14.15-.18,28.31,0,42.47.04,3.48-.99,4.54-4.49,4.55-13.42.03-13.41.14-13.53-13.49-.01-1.43.42-2.95-.91-4.95-4.67,4.57-9.25,8.99-13.75,13.48-7.03,7.01-6.86,6.95-2.56,15.71,19.37,39.46-2.85,84.07-43.57,93.73-3.45.82-4.92,2-4.52,5.55.56,4.89-2.13,11.2,1.17,14.37,3.05,2.94,9.24.95,14.02.78,4.13-.15,5.42,1.09,5.37,5.29-.15,13.81.01,13.8-13.8,13.75-8.51-.03-6.82-.26-6.86,6.94-.07,12.72-.02,12.49-12.94,12.8-4.93.12-6.34-1.45-6.05-6.2.26-4.25,1.89-9.74-.75-12.55-2.7-2.87-8.21-.81-12.47-.94-6.98-.21-6.98-.09-7.35-6.89q-.65-12.1,11.1-12.08,9.57.01,9.56-9.8c0-2.99.84-6.58-.51-8.78-1.04-1.69-4.89-1.72-7.53-2.37-20.45-5.02-34.14-18.32-43.71-36.28C1.86,112.28.49,104.09.09,95.75c-1.24-26.28,9.91-46.66,31.7-60.02,20.88-12.8,43.37-13.24,65.48-1.53.88.47,1.79.9,2.62,1.45,2.16,1.46,4.71,4.54,6.33,4.1,2.55-.69,4.55-3.64,6.63-5.78,4.8-4.94,10-9.51,15.06-16.02Zm-62.32,26.26c-26.38-1.79-48.42,21.82-48.75,47.82-.3,23.85,21.46,49.82,49.85,48.6,23.73-1.02,50.21-19.5,47.23-54.08-1.76-20.44-20.56-43.9-48.33-42.35Z"/>
      <path class="cls-1" d="m66.29,112.95c-8.82,0-17.65-.09-26.47.05-2.81.05-3.7-.88-3.83-3.7-.51-11.77-.6-11.77,11.17-11.77,14.65,0,29.3.08,43.95-.07,3.37-.03,4.89.33,4.75,4.44-.39,11.05-.14,11.06-11.09,11.06h-18.48v-.02Z"/>
      <path class="cls-1" d="m65.67,87.43c-8.49,0-16.99-.11-25.48.06-3.16.06-4.54-.78-4.44-4.18.36-13.05-1.86-10.93,10.55-11.04,14.82-.13,29.64.1,44.46-.11,4.04-.06,5.51.93,5.39,5.22-.27,10.01-.05,10.02-10,10.02-6.83,0-13.66,0-20.48,0v.03Z"/>
    </g>
  </g>
</svg>