<?xml version="1.0" encoding="UTF-8"?>
<svg id="Camada_2" data-name="Camada 2" xmlns="http://www.w3.org/2000/svg" viewBox="0 0 175.83 231.48">
  <defs>
    <style>
      .cls-1 {
        fill: #e8402c;
      }

      .cls-2 {
        fill: #1d1d1b;
      }
    </style>
  </defs>
  <g id="Camada_1-2" data-name="Camada 1">
    <g>
      <g>
        <path class="cls-1" d="m70.96,227.47c-2.15,0-5.26-.27-7.42-2.56-2.17-2.31-2.27-5.43-2.12-7.89.07-1.13.22-2.3.36-3.42.26-2.01.69-5.37-.03-6.14-.01-.01-.27-.28-1.62-.28-.97,0-2.1.13-3.3.27-1.38.16-2.8.33-4.24.33-.17,0-.87-.02-.87-.02-8.67-.25-10.4-1.95-10.87-10.66-.39-7.21-.59-10.84,2.02-13.58,2.57-2.72,6.5-2.72,11.93-2.72h2.07c1.26,0,3.43,0,4.47-.16.17-1.08.16-3.39.16-5.63,0-.99.07-1.96.14-2.9.07-1,.19-2.57.06-3.39-.65-.19-1.76-.36-2.48-.48-.9-.14-1.82-.29-2.71-.51-20.04-4.92-35.18-17.44-46.29-38.28-3.68-6.91-5.63-15.02-6.12-25.53-1.29-27.35,10.33-49.35,33.6-63.61,11.43-7.01,23.44-10.56,35.7-10.56,11.23,0,22.59,3,33.75,8.9l.56.29c.74.38,1.58.82,2.41,1.38.9.61,1.74,1.33,2.56,2.04.37.32.85.74,1.27,1.07.75-.6,1.68-1.65,2.42-2.49.54-.61,1.08-1.22,1.62-1.77,1.3-1.34,2.64-2.66,3.99-3.99,1.73-1.71,3.49-3.44,5.24-5.29-.35,0-.69,0-1.03,0-2.31,0-4.18.03-5.88.1-.24.01-.47.02-.7.02-3.35,0-7.38-1.34-7.59-7.74v-.31c-.27-7.99-.4-12,2.44-14.93,2.84-2.94,6.86-2.94,14.85-2.94h.69c2.8,0,5.59,0,8.39.01,2.79,0,5.58.01,8.38.01,6.64,0,11.73-.04,16.47-.11h.32c1.76,0,4.31.22,6.19,2.12,1.91,1.94,2.1,4.6,2.08,6.44-.18,13.8-.18,28.06,0,42.36.03,1.99-.19,4.53-2.07,6.43-1.88,1.91-4.42,2.16-6.41,2.16h-1.99c-5.78,0-10.34,0-13.1-3.35-1.94-2.36-2.3-5.33-2.4-10.53-2.69,2.62-5.27,5.15-7.88,7.75-2,1.99-4.27,4.25-4.4,4.96-.11.62,1.2,3.29,2.36,5.65l.24.5c9.66,19.67,9.97,42.02.86,61.33-9.08,19.24-26.25,33.11-47.1,38.06-.83.2-1.28.37-1.5.47,0,.15,0,.39.04.74.25,2.17.01,4.33-.21,6.41-.24,2.16-.53,4.84.18,5.53.15.14.68.48,2.36.48,1.29,0,2.78-.19,4.36-.39,1.44-.18,2.94-.37,4.39-.42.26,0,.51-.01.76-.01,1.84,0,4.53.23,6.51,2.24,2.04,2.06,2.27,4.88,2.25,7.1v.46c-.08,7.09-.12,11-2.45,13.84-2.79,3.41-7.54,3.41-13.04,3.41h-4.49c-.16-.01-.43-.01-.74-.01.03.81.07,1.79.06,2.96v.14c-.04,7.01-.06,10.87-2.71,13.61-2.67,2.76-6.5,2.85-13.46,3.01l-.68.02c-.2,0-.4,0-.59,0Zm-.19-171.36c-22.04,0-41.63,20.55-41.93,43.97-.14,10.92,4.92,22.65,13.52,31.36,8.42,8.53,19.22,13.23,30.4,13.23h0c.58,0,1.16-.01,1.75-.04,12.66-.54,25.04-6.36,33.11-15.55,7.89-8.98,11.46-20.81,10.3-34.19-1.61-18.64-18.02-38.76-41.73-38.76-.79,0-1.59.02-2.38.07-.07,0-.15,0-.22,0-.09,0-.18,0-.27,0-.85-.06-1.7-.09-2.55-.09Z"/>
        <path class="cls-2" d="m163.55,8c3.25,0,4.31,1.07,4.27,4.51-.18,14.15-.18,28.31,0,42.47.04,3.48-.99,4.54-4.49,4.55-.7,0-1.37,0-2,0-11.41,0-11.41-.57-11.53-13.49-.01-1.43.42-2.95-.91-4.95-4.67,4.57-9.25,8.99-13.75,13.48-7.03,7.01-6.86,6.95-2.56,15.71,19.37,39.46-2.85,84.07-43.57,93.73-3.45.82-4.92,2-4.52,5.55.56,4.89-2.13,11.2,1.17,14.37,1.27,1.23,3.09,1.59,5.13,1.59,2.84,0,6.1-.72,8.89-.82.21,0,.42-.01.61-.01,3.65,0,4.8,1.31,4.76,5.3-.14,12.99,0,13.76-11.48,13.76-.73,0-1.5,0-2.32,0-.82,0-1.54,0-2.18,0-6.02,0-4.64.44-4.68,6.94-.07,12.72-.02,12.49-12.94,12.8-.17,0-.33,0-.5,0-4.53,0-5.84-1.62-5.55-6.2.26-4.25,1.89-9.74-.75-12.55-1.12-1.19-2.73-1.54-4.54-1.54-2.4,0-5.14.6-7.54.6-.13,0-.26,0-.39,0-6.98-.21-6.98-.09-7.35-6.89-.63-11.7-.65-12.09,9.96-12.09.37,0,.75,0,1.14,0,.32,0,.63,0,.93,0,8.64,0,8.66-.32,8.63-9.8,0-2.99.84-6.58-.51-8.78-1.04-1.69-4.89-1.72-7.53-2.37-20.45-5.02-34.14-18.32-43.71-36.28-3.89-7.31-5.26-15.5-5.66-23.84-1.24-26.28,9.91-46.66,31.7-60.02,10.86-6.66,22.16-9.97,33.61-9.97,10.57,0,21.26,2.82,31.88,8.44.88.47,1.79.9,2.62,1.45,2.02,1.36,4.38,4.14,6,4.14.11,0,.22-.01.33-.04,2.55-.69,4.55-3.64,6.63-5.78,4.8-4.94,10-9.51,15.06-16.02-3.54,0-6.71-.05-9.72-.05-2.07,0-4.06.02-6.06.11-.18,0-.36.01-.53.01-2.56,0-3.5-.92-3.59-3.87-.46-14.06-.56-14.05,13.31-14.05.19,0,.37,0,.56,0,5.63,0,11.26.02,16.89.02s11.02-.02,16.53-.11c.09,0,.17,0,.26,0m-90.79,140.67c.64,0,1.28-.01,1.93-.04,23.73-1.02,50.21-19.5,47.23-54.08-1.71-19.79-19.39-42.42-45.72-42.42-.86,0-1.73.02-2.61.07-.95-.06-1.89-.1-2.82-.1-25.11,0-45.61,22.85-45.93,47.92-.3,23.31,20.49,48.64,47.92,48.64M163.55,0c-.13,0-.26,0-.39,0-4.73.08-9.79.11-16.4.11-2.81,0-5.62,0-8.43-.01-2.82,0-5.64-.01-8.46-.01h-.56c-8.57,0-13.73,0-17.75,4.16-4.02,4.15-3.85,9.31-3.57,17.85v.31c.22,6.44,3.84,10.69,9.6,11.48-.83.82-1.67,1.66-2.49,2.51-.52.53-1,1.07-1.46,1.58-.41-.33-.85-.65-1.3-.96-1.02-.69-2.01-1.2-2.81-1.61-.18-.09-.35-.18-.53-.27-11.74-6.21-23.73-9.37-35.62-9.37-13,0-25.72,3.75-37.79,11.15C11.02,51.98-1.26,75.22.1,104.12c.52,11.12,2.62,19.77,6.59,27.22,11.51,21.6,27.95,35.15,48.86,40.29.7.17,1.41.31,2.08.42-.07.91-.13,1.93-.13,2.98,0,.58,0,1.19,0,1.78-.24,0-.46,0-.63,0h-.92s-1.15,0-1.15,0c-5.95,0-11.09,0-14.84,3.97-3.79,4-3.52,8.99-3.11,16.55.24,4.35.44,8.11,3.53,11.15,3.11,3.06,6.87,3.17,11.22,3.3h.35c.21.02.42.02.63.02,1.67,0,3.28-.19,4.7-.36.25-.03.5-.06.74-.09-.07.62-.15,1.25-.21,1.74-.15,1.19-.31,2.42-.39,3.69-.19,3.01-.06,7.41,3.2,10.87,3.6,3.82,8.67,3.82,10.34,3.82.22,0,.45,0,.69,0l.68-.02c7.48-.18,12.42-.29,16.23-4.22,3.62-3.73,3.79-8.46,3.84-15.49.41,0,.8,0,1.18,0,5.97,0,12.14,0,16.13-4.87,3.21-3.93,3.26-8.59,3.35-16.33v-.47c.04-2.77-.28-6.81-3.4-9.96-3.39-3.43-7.88-3.43-9.36-3.43-.29,0-.59,0-.9.02-1.63.06-3.22.26-4.75.45-.91.12-1.79.23-2.57.29.05-.52.11-1.06.16-1.51.16-1.42.32-2.97.34-4.59,21.27-5.57,38.73-20,48.08-39.82,9.63-20.41,9.3-44.03-.89-64.79l-.24-.5c-.54-1.09-1.12-2.28-1.52-3.17.77-.84,1.89-1.95,2.79-2.85.67-.67,1.34-1.34,2.02-2,.49,1.66,1.23,3.12,2.35,4.48,3.96,4.82,9.89,4.82,16.18,4.82h1.7s.32,0,.32,0c1.47,0,5.96-.01,9.25-3.36,3.29-3.34,3.24-7.82,3.22-9.29-.18-14.29-.18-28.51,0-42.26.02-1.47.08-5.95-3.23-9.3-3.27-3.32-7.61-3.32-9.04-3.32h0Zm-90.79,140.67c-10.1,0-19.89-4.27-27.55-12.04-7.87-7.97-12.49-18.63-12.37-28.5.27-21.32,17.99-40.02,37.93-40.02.76,0,1.52.03,2.28.08.18.01.36.02.54.02.15,0,.3,0,.45-.01.72-.04,1.45-.06,2.16-.06,22.66,0,36.48,20.39,37.75,35.11,1.06,12.27-2.17,23.06-9.32,31.21-7.37,8.39-18.69,13.69-30.28,14.19-.53.02-1.06.03-1.58.03h0Z"/>
      </g>
      <g>
        <path class="cls-1" d="m47.63,125c-3.33,0-7.36-1.31-7.63-7.52v-.26c-.3-6.65-.46-10.31,2.1-12.99,2.57-2.69,6.29-2.69,13.05-2.69h.53c3.72,0,7.43,0,11.15.01,3.71,0,7.43,0,11.14,0,8.48,0,14.99-.03,21.1-.09h.42c1.54,0,4.4,0,6.43,2.1,1.88,1.94,2.01,4.63,1.94,6.48l-.03.72c-.21,6.06-.32,9.4-2.92,11.82-2.54,2.37-5.95,2.37-12.15,2.37h-18.48c-.15,0-.29,0-.44-.02-2.32,0-4.65,0-6.97-.01-2.46,0-4.92-.01-7.38-.01-4.55,0-8.24.03-11.62.08h-.25Z"/>
        <path class="cls-2" d="m99.49,105.47c3.11,0,4.52.48,4.38,4.44-.39,11.05-.14,11.06-11.09,11.06h-18.48v-.02c-4.93,0-9.85-.03-14.78-.03-3.9,0-7.79.02-11.69.08-.06,0-.13,0-.19,0-2.66,0-3.52-.95-3.64-3.7-.51-11.77-.6-11.77,11.17-11.77.15,0,.3,0,.46,0,7.44,0,14.89.02,22.33.02,7.06,0,14.11-.02,21.16-.09.13,0,.25,0,.37,0m0-8h-.45c-6.11.07-12.61.09-21.08.09-3.72,0-7.44,0-11.16-.01-3.73,0-7.45-.01-11.18-.01h-.46c-7.35,0-12.2,0-15.95,3.92-3.74,3.91-3.53,8.69-3.22,15.93v.26c.32,7,4.77,11.35,11.64,11.35.11,0,.21,0,.32,0,3.35-.05,7.03-.08,11.56-.08,2.46,0,4.91,0,7.37.01,2.27,0,4.53.01,6.8.01.2.02.41.02.61.02h18.48c6.74,0,11.19,0,14.88-3.45,3.8-3.55,3.96-8.19,4.18-14.61l.03-.72c.05-1.49.21-6.01-3.06-9.4-3.21-3.32-7.49-3.32-9.31-3.32h0Z"/>
      </g>
      <g>
        <path class="cls-1" d="m47.88,99.49c-1.74,0-4.27-.22-6.14-2.14-2.1-2.16-2.01-5.16-1.99-6.15.05-1.93.05-3.54.05-4.84-.01-3.82-.02-6.34,1.91-8.28,1.87-1.87,4.44-1.87,6.15-1.87.6,0,1.28.01,2.05.03.97.02,2.09.04,3.4.04h.94c3.66-.04,7.32-.05,10.97-.05,2.99,0,5.98,0,8.96.01,2.98,0,5.96.01,8.95.01,6.22,0,11.02-.03,15.56-.09h.38c2.18,0,4.93.26,6.92,2.31,2.04,2.09,2.2,5.01,2.15,7.02l-.02.64c-.14,5.43-.23,8.7-2.69,11.02-2.4,2.26-5.56,2.26-11.29,2.26h-20.03c-.15.02-.3.03-.46.03-2.42,0-4.84,0-7.26-.02-2.41,0-4.82-.02-7.23-.02-4.26,0-7.73.03-10.91.09h-.4Z"/>
        <path class="cls-2" d="m99.08,80.16c3.79,0,5.18,1.05,5.07,5.22-.27,10.01-.05,10.02-10,10.02-2.93,0-5.85,0-8.78,0-3.9,0-7.8,0-11.7,0v.03c-4.83,0-9.66-.04-14.48-.04-3.67,0-7.33.02-10.99.09-.11,0-.21,0-.32,0-2.94,0-4.22-.9-4.13-4.19.28-10.06-.98-11.1,4.11-11.1,1.34,0,3.11.07,5.46.07.31,0,.64,0,.97,0,3.65-.03,7.3-.04,10.94-.04,5.97,0,11.94.03,17.91.03,5.2,0,10.41-.02,15.61-.1.11,0,.22,0,.32,0m0-8c-.14,0-.29,0-.44,0-4.52.07-9.3.09-15.49.09-2.98,0-5.96,0-8.94-.01-2.99,0-5.98-.01-8.97-.01-4.23,0-7.73.01-11.01.04-.31,0-.61,0-.9,0-1.26,0-2.36-.02-3.32-.04-.81-.02-1.52-.03-2.14-.03-1.93,0-5.95,0-8.98,3.05-3.1,3.11-3.09,6.82-3.08,11.11,0,1.34,0,2.86-.04,4.72-.11,3.77.94,6.82,3.12,9.05,3.26,3.36,7.59,3.36,9.01,3.36.16,0,.32,0,.48,0,3.15-.06,6.6-.09,10.83-.09,2.4,0,4.81,0,7.21.02,2.42,0,4.85.02,7.27.02.22,0,.44,0,.65-.03h5.2s5.85,0,5.85,0h8.78c6.08,0,10.47,0,14.03-3.35,3.68-3.46,3.79-7.81,3.95-13.83l.02-.63c.04-1.58.17-6.37-3.28-9.92-3.07-3.15-7.05-3.52-9.78-3.52h0Z"/>
      </g>
    </g>
  </g>
</svg>