<?xml version="1.0" encoding="UTF-8"?>
<svg id="Camada_2" data-name="Camada 2" xmlns="http://www.w3.org/2000/svg" viewBox="0 0 165.44 221.97">
  <defs>
    <style>
      .cls-1 {
        fill: #28bbe0;
      }

      .cls-2 {
        fill: #1d1d1b;
      }
    </style>
  </defs>
  <g id="Camada_1-2" data-name="Camada 1">
    <g>
      <path class="cls-1" d="m83.39,217.97c-2.51,0-4.2-1.7-4.75-2.26-5.69-5.72-11.51-11.5-17.13-17.09-2.64-2.62-8.02-7.97-8.02-7.97-2.66-2.59-2.27-5.04-1.47-6.63.94-1.86,2.63-2.85,5.02-2.93h.19c.43-.08.97-.12,1.57-.12.84,0,1.65.08,2.36.16.39.04.76.08,1.08.1-.08-.54-.25-1.24-.38-1.77-.26-1.07-.55-2.27-.62-3.54-.06-1.04-.27-2.15-.48-3.33-.36-1.98-.78-4.23-.56-6.59.03-.36.04-.64.04-.85-.23-.02-.55-.04-.99-.04-.26,0-.52,0-.79.01-2.07.06-4.26.09-6.89.09-2.02,0-4.04-.02-6.06-.03-2-.02-3.99-.04-5.99-.04-1.2,0-2.41,0-3.61.02h-.19c-4.72,0-7.68-2.63-8.11-7.22-.87-9.23-2.53-18.58-4.14-27.62-.4-2.22-.79-4.45-1.18-6.67-1.81-10.48-3.5-21.15-5.14-31.46-1.32-8.31-2.68-16.91-4.09-25.34-.97-5.8-2.02-11.71-3.04-17.41-2.06-11.62-4.2-23.64-5.84-35.57-.31-2.24-.42-5.1,1.52-7.32,1.97-2.26,4.95-2.52,7.02-2.52,23.6.06,46.77.1,68.91.1,24.2,0,48.11-.04,71.05-.11h.03c1.28,0,4.84.02,7.05,2.58,1.97,2.29,1.79,5.28,1.49,7.34-.78,5.22-1.54,10.44-2.3,15.67-1.51,10.34-3.08,21.03-4.71,31.54-.64,4.1-1.41,8.22-2.15,12.2-1.19,6.38-2.42,12.97-3.1,19.43-.72,6.92-1.9,13.82-3.04,20.48-.94,5.53-1.92,11.25-2.61,16.87-.78,6.36-1.76,12.78-2.71,18.99-.47,3.04-.93,6.09-1.38,9.13-.64,4.41-3.68,6.94-8.32,6.94h-.18c-1.81-.02-3.63-.03-5.44-.03-2.02,0-4.03,0-6.05.02-2.03,0-4.06.02-6.08.02-1.8,0-3.61,0-5.41-.03h-.1c-.85,0-1.14.13-1.17.15,0,0-.19.25-.37,1.05-.43,1.87-.5,3.92-.57,6.09-.09,2.65-.19,5.56-.99,8.51.54,0,6.88,0,6.88,0,1.59,0,3.03.94,3.66,2.39l.62,1.42c.66,1.52.33,3.29-.85,4.45l-6.66,6.58c-6.74,6.67-13.49,13.33-20.2,20.03-1.43,1.42-2.99,2.15-4.63,2.15Zm-.16-146.12c-1.53,2.31-3.09,4.59-4.61,6.81-5.15,7.52-10,14.63-13.63,22.53-3.33,7.26-3.17,14.65.44,20.28,3.54,5.52,10,8.69,17.7,8.69.11,0,.25,0,.36.01.59.05,1.19.08,1.77.08,6.23,0,11.81-2.95,15.32-8.08,3.7-5.41,4.46-12.35,2.04-18.57-3.41-8.76-8.71-16.35-14.33-24.39-1.68-2.4-3.4-4.87-5.07-7.37Zm-27.63-38.88c6.46,0,13.06,1.56,20.19,4.78,9.43,4.26,18.75,6.42,27.72,6.42,7.81,0,15.62-1.63,23.24-4.85l1.03-.44c4.27-1.82,9.12-3.89,14.54-3.89.61,0,1.21.03,1.81.08.7-4.57,1.57-10.11,2.71-15.41.05-.23.08-.42.11-.59-.21-.01-.46-.02-.76-.02h-.15c-8.81.08-18.14.11-30.27.11-5.54,0-11.07,0-16.61-.01-5.35,0-10.7-.01-16.04-.01-.18.03-.37.04-.56.04h-29.5c-11.37,0-22.75,0-34.12,0,1.48,5.18,2.4,10.44,3.29,15.54.3,1.73.61,3.47.93,5.19.02.1.04.19.06.27.13,0,.27-.02.41-.03,4.78-.46,10.33-1.23,15.19-3.44,5.46-2.47,11.1-3.73,16.78-3.73Z"/>
      <path class="cls-2" d="m152.74,8c4.31,0,5.08,1.76,4.55,5.34-2.34,15.73-4.57,31.47-7.01,47.18-1.65,10.63-4.17,21.16-5.28,31.83-1.3,12.53-4.11,24.8-5.64,37.28-1.15,9.37-2.72,18.68-4.08,28.03-.38,2.59-1.82,3.51-4.36,3.51-.04,0-.09,0-.13,0-1.82-.02-3.65-.03-5.48-.03-4.05,0-8.1.04-12.16.04-1.78,0-3.57,0-5.35-.03-.05,0-.1,0-.15,0-3.05,0-4.71,1.14-5.43,4.3-1.28,5.63.17,11.59-2.5,17.09-.82,1.7,1.2,2.39,2.84,2.4,1.22,0,2.44,0,3.66,0,1.74,0,3.48,0,5.22,0,.21.47.42.95.62,1.42-8.96,8.87-17.94,17.72-26.87,26.62-.67.66-1.24.98-1.8.98-.61,0-1.21-.37-1.92-1.08-8.31-8.36-16.7-16.64-25.05-24.96-.57-.57-1.31-1.16-.83-2.12.46-.91,1.41-.64,2.19-.77.33-.05.67-.07,1.02-.07,1.26,0,2.62.27,3.85.27s2.32-.27,3.04-1.35c1.49-2.23-.29-5.45-.46-8.22-.19-3.16-1.33-6.27-1.05-9.32.41-4.49-1.55-5.25-4.93-5.25-.29,0-.6,0-.92.02-2.25.07-4.5.09-6.76.09-4.01,0-8.03-.07-12.04-.07-1.23,0-2.45,0-3.68.02-.05,0-.09,0-.14,0-2.58,0-3.89-1.04-4.13-3.6-1.1-11.64-3.37-23.09-5.36-34.6-3.27-18.89-6.05-37.87-9.23-56.78-2.96-17.62-6.43-35.16-8.86-52.87-.53-3.86.42-5.3,4.58-5.3.02,0,.03,0,.05,0,22.96.06,45.91.1,68.87.1s47.37-.04,71.06-.11c.02,0,.04,0,.05,0m-37.05,7.15c-11.05,0-22.1-.03-33.15-.03v.04c-9.74,0-19.48,0-29.22,0-11.57,0-23.14,0-34.72,0-.24,0-.48,0-.72,0-2.21,0-4.31.17-3.27,3.56,2.22,7.17,3.22,14.59,4.59,21.92.51,2.74,1.74,3.54,3.78,3.54.32,0,.65-.02,1.01-.05,5.65-.55,11.32-1.45,16.46-3.78,5.13-2.32,10.15-3.37,15.13-3.37,6.19,0,12.32,1.62,18.54,4.43,9.69,4.38,19.49,6.77,29.37,6.77,8.2,0,16.46-1.65,24.8-5.17,4.46-1.89,9.02-4.01,14.01-4.01.92,0,1.86.07,2.81.23.24.04.47.06.67.06,1.75,0,1.96-1.46,2.21-3.09.81-5.25,1.63-10.51,2.74-15.7.9-4.16-.39-5.45-4.57-5.45-.06,0-.12,0-.19,0-10.1.09-20.2.11-30.29.11m-32.57,119.01h.02c.71.06,1.41.09,2.11.09,16.48,0,27.04-16.82,21.09-32.1-5.11-13.13-14.32-23.83-21.78-35.57-.46-.72-.89-1.01-1.3-1.01-.6,0-1.15.63-1.66,1.42-6.9,10.76-14.92,20.88-20.26,32.52-8.18,17.83,2.64,34.64,21.78,34.64M152.74,0h-.07c-22.92.08-46.82.11-71.04.11C59.52.11,36.35.08,12.79.02c0,0-.06,0-.07,0C11.07.02,6.08.02,2.68,3.91-.7,7.79-.01,12.77.21,14.41c1.65,12.01,3.8,24.07,5.87,35.73,1.01,5.7,2.06,11.59,3.03,17.37,1.41,8.41,2.77,17,4.09,25.3,1.64,10.33,3.33,21.01,5.15,31.52.39,2.23.78,4.46,1.18,6.69,1.67,9.37,3.24,18.23,4.1,27.3.62,6.59,5.37,10.85,12.09,10.85h.25c1.19-.02,2.38-.02,3.57-.02,1.98,0,3.97.02,5.95.03,2.03.02,4.06.03,6.09.03,1.7,0,3.22-.01,4.64-.04.13,1.52.38,2.91.61,4.13.19,1.06.38,2.06.43,2.85.02.3.05.59.08.88-.16.02-.33.04-.49.06-5.17.2-7.48,3.29-8.4,5.13-.72,1.44-2.68,6.49,2.25,11.29l.09.08c2.65,2.64,5.31,5.28,7.97,7.92,5.6,5.57,11.4,11.33,17.06,17.01,2.27,2.28,4.82,3.44,7.59,3.44s5.24-1.11,7.45-3.31c6.72-6.7,13.59-13.49,20.24-20.06l6.61-6.54c2.35-2.33,3.03-5.87,1.7-8.9l-.62-1.42c-1.28-2.91-4.15-4.79-7.33-4.79h-2.13c.15-1.55.2-3.02.24-4.38.04-1.19.08-2.34.18-3.4,1.15,0,2.29.01,3.44.01,2.04,0,4.08,0,6.12-.02,2.01,0,4.03-.02,6.04-.02s3.76,0,5.38.03h.23c6.64,0,11.34-3.97,12.28-10.36.44-3.04.91-6.08,1.37-9.11.95-6.23,1.94-12.68,2.73-19.1.68-5.53,1.65-11.2,2.58-16.69,1.15-6.73,2.34-13.68,3.07-20.74.65-6.3,1.82-12.52,3.05-19.11.75-4.01,1.53-8.17,2.17-12.32,1.64-10.53,3.2-21.23,4.72-31.57.76-5.22,1.53-10.44,2.3-15.66.24-1.63.98-6.6-2.42-10.54-2.27-2.63-5.65-3.97-10.04-3.97h0Zm-37.05,23.15c10.35,0,18.68-.03,26.37-.08-.51,2.73-.96,5.44-1.36,7.96-5.54.34-10.28,2.36-14.51,4.16l-1.01.43c-7.12,3.01-14.41,4.54-21.68,4.54-8.4,0-17.17-2.04-26.08-6.06-7.65-3.46-14.79-5.13-21.83-5.13-6.24,0-12.44,1.37-18.43,4.08-3.32,1.5-7.1,2.27-10.69,2.74-.1-.59-.21-1.18-.31-1.78-.62-3.56-1.26-7.19-2.09-10.85,9.75,0,19.5,0,29.25,0h14.61s14.61,0,14.61,0c.27,0,.53-.01.79-.04,5.26,0,10.51,0,15.77.01,5.53,0,11.05.01,16.58.01h0Zm-32.57,103.01c-6.32,0-11.54-2.5-14.34-6.85-2.86-4.46-2.92-10.46-.17-16.46,3.48-7.59,8.25-14.56,13.29-21.94.44-.64.88-1.29,1.33-1.94.59.85,1.18,1.7,1.77,2.53,5.47,7.84,10.64,15.24,13.88,23.55,1.94,4.99,1.34,10.54-1.61,14.86-2.75,4.03-7.14,6.34-12.02,6.34-.47,0-.95-.02-1.43-.06-.23-.02-.45-.03-.68-.03h-.02Z"/>
    </g>
  </g>
</svg>