<?xml version="1.0" encoding="UTF-8"?>
<svg id="Camada_2" data-name="Camada 2" xmlns="http://www.w3.org/2000/svg" viewBox="0 0 149.43 205.97">
  <defs>
    <style>
      .cls-1 {
        fill: #28bbe0;
      }
    </style>
  </defs>
  <g id="Camada_1-2" data-name="Camada 1">
    <path class="cls-1" d="m104.06,178.37c-8.96,8.87-17.94,17.72-26.87,26.62-1.39,1.39-2.37,1.26-3.72-.1-8.31-8.36-16.7-16.64-25.05-24.96-.57-.57-1.31-1.16-.83-2.12.46-.91,1.41-.64,2.19-.77,2.69-.44,6.27,1.3,7.91-1.15,1.49-2.23-.29-5.45-.46-8.22-.19-3.16-1.33-6.27-1.05-9.32.44-4.88-1.91-5.35-5.85-5.23-7.49.23-14.99-.06-22.48.04-2.67.04-4.02-.99-4.26-3.6-1.1-11.64-3.37-23.09-5.36-34.6-3.27-18.89-6.05-37.87-9.23-56.78C6.04,40.56,2.57,23.03.13,5.32-.4,1.44.56,0,4.76.02,51.4.14,98.05.15,144.69,0c4.36-.01,5.13,1.74,4.6,5.34-2.34,15.73-4.57,31.47-7.01,47.18-1.65,10.63-4.17,21.16-5.28,31.83-1.3,12.53-4.11,24.8-5.64,37.28-1.15,9.37-2.72,18.68-4.08,28.03-.38,2.63-1.87,3.55-4.49,3.51-7.66-.1-15.33.07-22.99-.02-3.15-.04-4.85,1.08-5.59,4.3-1.28,5.63.17,11.59-2.5,17.09-.83,1.7,1.2,2.39,2.84,2.4,2.96.02,5.92,0,8.88,0,.21.47.42.95.62,1.42ZM74.55,7.12v.04c-21.31,0-42.63,0-63.94,0-2.44,0-5.14-.2-3.98,3.55,2.22,7.17,3.22,14.59,4.59,21.92.59,3.16,2.14,3.74,4.79,3.49,5.65-.55,11.32-1.45,16.46-3.78,11.5-5.21,22.45-4.01,33.67,1.06,17.74,8.01,35.79,9.37,54.16,1.6,5.29-2.24,10.7-4.8,16.82-3.78,2.36.39,2.6-1.21,2.88-3.03.81-5.25,1.63-10.51,2.74-15.7.91-4.22-.43-5.49-4.75-5.45-21.14.19-42.29.09-63.44.09Zm.6,119.04c17.67,1.51,29.39-16.09,23.19-32.01-5.11-13.13-14.32-23.83-21.78-35.57-1.14-1.79-2.1-.92-2.96.41-6.9,10.76-14.92,20.88-20.26,32.52-8.18,17.84,2.64,34.66,21.8,34.64Z"/>
  </g>
</svg>