<?xml version="1.0" encoding="UTF-8"?>
<svg id="Camada_2" data-name="Camada 2" xmlns="http://www.w3.org/2000/svg" viewBox="0 0 206.3 205.98">
  <defs>
    <style>
      .cls-1 {
        fill: #f7c211;
      }
    </style>
  </defs>
  <g id="Camada_1-2" data-name="Camada 1">
    <g>
      <path class="cls-1" d="m162.14,102.84c1.69,31.5-26.37,59.56-59.01,59.95-27.88.33-60.47-25.19-59.41-60.17,1.01-33.64,27.48-58.79,59.78-58.78,33.98,0,60.3,29.31,58.64,59Zm-90.15-.45c-.9,18.1,19.99,37.15,39.54,30.32,12.67-4.43,21.65-14.82,22.44-27.65.84-13.64-6.04-24.95-18.56-30.77-1.47-.68-2.39-1.07-3.07.72-1.36,3.59.44,9.87,3.58,12.47,7.73,6.39,9.58,15.18,5.2,24.61-3.4,7.33-14.28,13.14-22.2,10.8-7.66-2.26-13.41-7.39-15.34-15.61-1.78-7.6.14-14.49,6.2-19.31,3.66-2.91,4.45-5.96,4.31-10.17-.12-3.65-1.16-4.55-4.42-2.83-11.08,5.84-16.61,15.19-17.68,27.41Zm27.07-24.87h-.08c0,3.15.03,6.3,0,9.45-.04,2.82,1.43,4.45,4.11,4.63,2.66.17,4.05-1.95,4.12-4.08.24-6.79.2-13.59-.05-20.38-.08-2.25-1.54-4.12-4.25-3.87-2.49.24-3.86,1.7-3.85,4.3.01,3.32,0,6.63,0,9.95Z"/>
      <path class="cls-1" d="m38.75,71.15c-1.06-.45-2.88-.92-4.35-1.92-6.21-4.21-13.54-6.49-19.34-11.41-2.46-2.09-2.97-4.58-1.24-6.98,1.81-2.53,4.65-2.37,7.18-.94,7.05,3.99,14.01,8.12,21.03,12.17,2.33,1.34,3.31,3.24,2.44,5.81-.78,2.31-2.59,3.33-5.71,3.28Z"/>
      <path class="cls-1" d="m140.05,44.08c-4.63.06-6.66-4.27-4.32-8.49,2.98-5.37,6.2-10.62,9.31-15.92,1-1.71,1.88-3.51,3-5.14,1.66-2.43,4.12-2.98,6.58-1.66,2.56,1.36,3.29,3.91,1.92,6.43-4.15,7.57-8.48,15.04-12.83,22.51-.88,1.52-2.53,2.05-3.66,2.28Z"/>
      <path class="cls-1" d="m71.85,166.04c.15,1.62-.81,2.85-1.54,4.14-3.73,6.64-7.36,13.34-11.27,19.87-1.41,2.35-3.77,4.09-6.69,2.56-2.62-1.37-3.96-3.81-2.41-6.72,3.92-7.32,7.93-14.6,12.1-21.77,1.33-2.29,3.6-3.45,6.44-2.55,2.18.69,3.17,2.29,3.36,4.48Z"/>
      <path class="cls-1" d="m193.15,53.4c.02,2.38-1.08,4.05-3.14,5.22-6.5,3.71-12.97,7.47-19.46,11.19-2.85,1.63-5.87,2.45-7.87-.91-2-3.37-.41-6.04,2.76-7.87,6.76-3.9,13.44-7.96,20.32-11.63,3.98-2.12,7.36-.08,7.39,4Z"/>
      <path class="cls-1" d="m71.86,39.2c-.26,2.17-1.52,4-3.6,4.8-1.88.72-4.02.63-5.26-1.53-4.47-7.78-8.96-15.54-13.32-23.38-1.09-1.96-.64-4.17,1.36-5.25,2.22-1.2,5.4-1.78,6.82.49,4.88,7.73,9.24,15.77,13.79,23.71.15.27.12.65.21,1.16Z"/>
      <path class="cls-1" d="m108.17,188.19c0,3.98.03,7.96,0,11.93-.03,3.42-1.5,5.96-5.16,5.85-3.31-.1-4.87-2.35-4.84-5.71.06-7.79.09-15.58.05-23.37-.02-3.55,1.32-5.86,5.14-5.8,3.59.06,4.77,2.43,4.78,5.66,0,3.81,0,7.62,0,11.44h.04Z"/>
      <path class="cls-1" d="m139.73,162.03c2.76-.77,4.14,1.57,5.39,3.62,3.79,6.25,7.48,12.57,11.02,18.98,1.55,2.81,2,5.75-1.58,7.67-3.44,1.85-5.44.37-7.15-2.74-3.75-6.8-7.85-13.41-11.55-20.24-2.29-4.23-.69-7.2,3.87-7.29Z"/>
      <path class="cls-1" d="m38.31,135.12c2.75-.54,5.15.47,5.95,3.11.89,2.96-1.11,4.84-3.66,6.22-6.84,3.7-13.8,7.24-20.35,11.4-2.69,1.71-4.01,1.26-5.83-.7-2.1-2.25-2.18-5.36-.24-6.67,7.31-4.93,15.04-9.24,22.64-13.73.3-.17.93.22,1.49.37Z"/>
      <path class="cls-1" d="m108.16,17.22c0,3.99.04,7.99-.01,11.98-.04,2.9-1.43,4.82-4.44,5-3.15.19-5.32-1.5-5.4-4.6-.22-8.48-.2-16.97-.04-25.46.05-2.62,1.71-3.98,4.61-4.13,3.57-.18,4.93,1.98,5.17,4.73.35,4.13.09,8.31.09,12.47,0,0,.02,0,.03,0Z"/>
      <path class="cls-1" d="m166.31,135c1.51-.03,2.96.16,4.33.92,6.96,3.87,14,7.59,20.87,11.61,2.23,1.31,2.76,3.66,1.54,6.14-1.25,2.54-3.7,3.48-5.85,2.34-8.08-4.26-16-8.83-23.84-13.51-1.92-1.14-1.67-3.54-1.13-5.52.56-2.09,2.4-1.97,4.08-1.98Z"/>
      <path class="cls-1" d="m17.07,107.39c-4.16,0-8.32-.02-12.47,0-3.16.02-4.65-1.82-4.6-4.67.05-2.66,1.13-4.78,4.42-4.77,8.48.04,16.97,0,25.45-.01,3.31,0,4.99,1.87,5.01,4.94.02,2.98-1.87,4.49-4.84,4.5-4.32.03-8.65,0-12.97,0Z"/>
      <path class="cls-1" d="m188.58,107.43c-3.98,0-7.96,0-11.94,0-3.05,0-4.64-1.7-4.79-4.55-.16-2.97,1.61-4.81,4.49-4.86,8.46-.15,16.92-.2,25.37.03,2.65.07,4.76,1.69,4.57,4.82-.18,2.88-1.75,4.55-4.77,4.57-4.31.02-8.62,0-12.94,0Z"/>
    </g>
  </g>
</svg>