<?xml version="1.0" encoding="UTF-8"?>
<svg id="Camada_2" data-name="Camada 2" xmlns="http://www.w3.org/2000/svg" viewBox="0 0 222.29 221.98">
  <defs>
    <style>
      .cls-1 {
        fill: #f7c211;
      }

      .cls-2 {
        fill: #1d1d1b;
      }
    </style>
  </defs>
  <g id="Camada_1-2" data-name="Camada 1">
    <g>
      <g>
        <path class="cls-1" d="m110.6,174.79c-15.95,0-32.86-7.61-45.22-20.35-11.87-12.23-18.14-27.84-17.65-43.95.52-17.21,7.4-33.1,19.36-44.75,11.87-11.55,27.63-17.91,44.4-17.91,17.21,0,33.97,7.3,45.98,20.01,11.4,12.06,17.47,27.72,16.68,43,.77,15.61-5.1,30.93-16.55,43.15-12.18,13.01-29.1,20.58-46.42,20.79h-.58Zm-26.61-64.12c-.29,6.26,2.53,12.98,7.73,18.44,5.46,5.74,12.54,9.03,19.44,9.03h0c2.41,0,4.78-.4,7.06-1.2,11.52-4.03,19.1-13.27,19.77-24.12.69-11.11-4.39-20.37-14-25.75.29,1.99,1.22,4.28,2.49,5.34,9.15,7.57,11.44,18.28,6.28,29.38-3.56,7.65-13.23,13.64-22.03,13.64-1.73,0-3.39-.23-4.94-.69-9.53-2.81-15.95-9.4-18.1-18.54-2.21-9.41.49-17.7,7.6-23.35,1.97-1.56,2.71-2.93,2.8-5.53-8.54,5.01-13.16,12.67-14.11,23.34Zm27.2-15.07c.01-.06.02-.13.03-.21.23-6.36.21-13.12-.05-20.09,0,0,0,0,0-.01-.03,0-.06,0-.09.01,0,.07-.01.16-.01.27,0,2.33,0,4.65,0,6.98v2.98c0,.27-.03.53-.08.78v2.08c.01,2.21.02,4.42-.01,6.64,0,.26.02.44.04.54.04,0,.1.02.16.03Z"/>
        <path class="cls-2" d="m111.49,51.84h.02c33.98,0,60.3,29.31,58.64,59,1.69,31.5-26.37,59.56-59.01,59.95-.18,0-.36,0-.54,0-27.76,0-59.92-25.42-58.87-60.17,1.01-33.64,27.47-58.77,59.76-58.78m-.1,47.77c2.46,0,3.75-2.04,3.82-4.09.24-6.79.2-13.59-.05-20.38-.08-2.11-1.36-3.89-3.76-3.89-.16,0-.32,0-.49.02-2.49.24-3.86,1.7-3.85,4.3.01,3.32,0,6.63,0,9.95h-.08c0,3.15.03,6.3,0,9.45-.04,2.82,1.43,4.45,4.11,4.63.1,0,.2,0,.3,0m-.66,31.82c-1.31,0-2.59-.17-3.81-.52-7.66-2.26-13.41-7.39-15.34-15.61-1.78-7.6.14-14.49,6.2-19.31,3.66-2.91,4.45-5.96,4.31-10.17-.08-2.46-.58-3.67-1.9-3.67-.64,0-1.46.28-2.52.84-11.08,5.84-16.61,15.19-17.68,27.41-.77,15.52,14.48,31.74,31.16,31.74,2.77,0,5.59-.45,8.38-1.42,12.67-4.43,21.65-14.82,22.44-27.65.84-13.64-6.04-24.95-18.56-30.77-.68-.32-1.25-.57-1.72-.57-.55,0-.98.34-1.35,1.29-1.36,3.59.44,9.87,3.58,12.47,7.73,6.39,9.58,15.18,5.2,24.61-2.88,6.2-11.13,11.33-18.4,11.33m.78-87.6h-.02c-17.81,0-34.57,6.76-47.19,19.04-12.71,12.37-20.02,29.24-20.57,47.49-.52,17.2,6.15,33.84,18.78,46.85,13.1,13.5,31.08,21.56,48.09,21.56.21,0,.42,0,.63,0,18.4-.22,36.37-8.26,49.29-22.06,12.15-12.97,18.4-29.25,17.63-45.88.78-16.3-5.68-32.95-17.77-45.75-12.77-13.51-30.58-21.26-48.87-21.26h0Z"/>
      </g>
      <g>
        <path class="cls-1" d="m46.69,83.15c-.52,0-1.04-.12-1.52-.32-.24-.1-.52-.2-.84-.31-1.14-.41-2.71-.97-4.18-1.97-2.41-1.63-5.04-2.97-7.83-4.38-4.01-2.04-8.15-4.14-11.86-7.29-4.06-3.45-4.81-8.3-1.91-12.36,1.68-2.35,4.15-3.64,6.96-3.64,1.77,0,3.66.53,5.44,1.54,4.33,2.45,8.69,4.99,12.9,7.45,2.72,1.58,5.43,3.17,8.16,4.74,4.09,2.36,5.67,6.3,4.23,10.56-.93,2.74-3.29,6-9.3,6h-.26Z"/>
        <path class="cls-2" d="m25.52,56.86c1.14,0,2.34.38,3.47,1.03,7.05,3.99,14.01,8.12,21.03,12.17,2.33,1.34,3.31,3.24,2.44,5.81-.77,2.26-2.51,3.28-5.51,3.28-.07,0-.14,0-.21,0-1.06-.45-2.88-.92-4.35-1.92-6.21-4.21-13.54-6.49-19.34-11.41-2.46-2.09-2.97-4.58-1.24-6.98,1-1.39,2.31-1.97,3.7-1.97m0-8h0c-4.07,0-7.79,1.94-10.21,5.31-4.14,5.79-3.11,12.91,2.57,17.74,4.07,3.46,8.43,5.67,12.64,7.81,2.67,1.36,5.19,2.64,7.39,4.13,1.88,1.28,3.8,1.97,5.07,2.42.23.08.44.15.62.23.96.41,1.98.63,3.03.64h.33c9.14,0,12.19-6.09,13.08-8.72,2.07-6.11-.24-11.98-6.02-15.31-2.71-1.56-5.41-3.13-8.11-4.71-4.24-2.47-8.61-5.02-12.98-7.49-2.39-1.35-4.95-2.06-7.41-2.06h0Z"/>
      </g>
      <g>
        <path class="cls-1" d="m147.95,56.09c-3.45,0-6.35-1.57-7.96-4.32-1.73-2.94-1.64-6.72.24-10.12,2.07-3.73,4.27-7.43,6.4-11.01.99-1.66,1.98-3.32,2.95-4.99.32-.55.64-1.12.95-1.68.67-1.21,1.36-2.46,2.21-3.7,1.81-2.64,4.41-4.1,7.32-4.1,1.5,0,3,.39,4.45,1.17,2.18,1.16,3.73,2.99,4.38,5.16.65,2.17.35,4.55-.84,6.72-4.01,7.33-8.04,14.27-12.88,22.6-.87,1.5-2.68,3.45-6.31,4.19-.25.05-.5.08-.75.08h-.16Z"/>
        <path class="cls-2" d="m160.05,20.17c.83,0,1.7.23,2.57.7,2.56,1.36,3.29,3.91,1.92,6.43-4.15,7.57-8.48,15.04-12.83,22.51-.88,1.52-2.53,2.05-3.66,2.28-.03,0-.07,0-.1,0-4.56,0-6.54-4.31-4.22-8.49,2.98-5.37,6.2-10.62,9.31-15.92,1-1.71,1.88-3.51,3-5.14,1.08-1.57,2.49-2.36,4.02-2.36m0-8h0c-4.21,0-8.08,2.13-10.62,5.84-.95,1.39-1.73,2.79-2.41,4.02-.29.53-.59,1.07-.9,1.59-.97,1.66-1.95,3.31-2.94,4.96-2.14,3.61-4.36,7.34-6.46,11.12-2.58,4.65-2.65,9.91-.19,14.09,2.32,3.94,6.58,6.28,11.41,6.28h.21c.5,0,1-.06,1.49-.16,5.09-1.04,7.69-3.89,8.97-6.1,4.03-6.92,8.59-14.77,12.93-22.69,1.7-3.11,2.12-6.58,1.16-9.78-.95-3.2-3.2-5.88-6.33-7.55-2.04-1.09-4.17-1.64-6.33-1.64h0Z"/>
      </g>
      <g>
        <path class="cls-1" d="m62.53,205.18c-1.36,0-2.72-.35-4.03-1.03-2.44-1.28-4.16-3.23-4.86-5.5-.66-2.16-.39-4.45.78-6.65,4.4-8.22,8.38-15.38,12.17-21.9,1.79-3.08,4.72-4.84,8.03-4.84,1.01,0,2.04.17,3.07.49,3.6,1.14,5.78,3.96,6.14,7.94.24,2.63-.93,4.59-1.7,5.89-.11.19-.22.37-.33.56-.95,1.7-1.9,3.39-2.84,5.09-2.72,4.9-5.54,9.96-8.48,14.87-1.93,3.23-4.83,5.08-7.95,5.08Z"/>
        <path class="cls-2" d="m74.63,169.26c.59,0,1.21.1,1.86.3,2.18.69,3.17,2.29,3.36,4.48.15,1.62-.81,2.84-1.54,4.14-3.73,6.64-7.36,13.34-11.27,19.87-1.04,1.73-2.6,3.13-4.52,3.13-.68,0-1.41-.18-2.17-.58-2.62-1.37-3.96-3.81-2.41-6.72,3.92-7.32,7.93-14.6,12.1-21.77,1.03-1.76,2.61-2.86,4.58-2.86m0-8h0c-4.77,0-8.96,2.49-11.49,6.83-3.82,6.56-7.82,13.76-12.24,22.02-1.66,3.11-2.05,6.56-1.08,9.71,1.01,3.3,3.44,6.09,6.82,7.87,1.89.99,3.87,1.49,5.89,1.49,4.56,0,8.71-2.56,11.38-7.02,2.97-4.96,5.8-10.05,8.53-14.96.95-1.7,1.89-3.4,2.84-5.1.09-.16.18-.31.28-.47.91-1.53,2.62-4.38,2.25-8.33-.49-5.57-3.74-9.73-8.91-11.36-1.42-.45-2.86-.68-4.28-.68h0Z"/>
      </g>
      <g>
        <path class="cls-1" d="m174.33,83.23c-2.93,0-5.45-1.52-7.09-4.29-1.73-2.91-1.59-5.42-1.18-7,.46-1.75,1.77-4.29,5.38-6.37,1.9-1.1,3.8-2.21,5.7-3.32,4.79-2.8,9.73-5.7,14.74-8.37,1.64-.88,3.31-1.32,4.96-1.32,4.77,0,8.27,3.71,8.31,8.82.03,3.77-1.75,6.79-5.16,8.73-3.9,2.22-7.79,4.47-11.68,6.71-2.59,1.49-5.18,2.99-7.77,4.48-2.32,1.33-4.29,1.95-6.21,1.95Z"/>
        <path class="cls-2" d="m196.84,56.56c2.5,0,4.28,1.89,4.31,4.85.02,2.38-1.08,4.05-3.14,5.22-6.5,3.71-12.97,7.47-19.46,11.19-1.41.81-2.86,1.42-4.21,1.42s-2.65-.63-3.65-2.33c-2-3.37-.41-6.04,2.76-7.87,6.76-3.9,13.44-7.96,20.32-11.63,1.09-.58,2.14-.85,3.08-.85m0-8h0c-2.31,0-4.61.6-6.84,1.79-5.08,2.71-10.07,5.63-14.89,8.45-1.89,1.11-3.78,2.21-5.67,3.3-4.81,2.78-6.6,6.33-7.25,8.82-.61,2.33-.82,5.96,1.61,10.06,2.35,3.97,6.19,6.25,10.53,6.25,2.61,0,5.29-.81,8.2-2.48,2.59-1.49,5.18-2.98,7.77-4.47,3.82-2.21,7.78-4.49,11.67-6.71,4.67-2.66,7.22-7.01,7.18-12.24-.06-7.29-5.35-12.78-12.31-12.78h0Z"/>
      </g>
      <g>
        <path class="cls-1" d="m74.25,56.41c-2.83,0-5.27-1.44-6.71-3.94l-2.18-3.79c-3.69-6.42-7.5-13.05-11.17-19.64-1.09-1.96-1.37-4.16-.78-6.17.56-1.93,1.89-3.54,3.73-4.53,1.83-.99,3.84-1.53,5.66-1.53,2.73,0,5.08,1.24,6.45,3.41,3.67,5.82,7.09,11.87,10.39,17.72,1.16,2.05,2.31,4.09,3.48,6.14.53.93.61,1.81.66,2.29,0,.06,0,.13.02.21.06.37.07.75.02,1.12-.45,3.74-2.74,6.75-6.13,8.06-1.16.45-2.32.67-3.45.67Z"/>
        <path class="cls-2" d="m62.81,20.79c1.23,0,2.36.43,3.07,1.54,4.88,7.73,9.24,15.77,13.79,23.71.15.27.12.65.21,1.16-.26,2.17-1.52,4-3.6,4.8-.65.25-1.34.41-2.01.41-1.25,0-2.44-.53-3.24-1.93-4.47-7.78-8.96-15.54-13.32-23.38-1.09-1.96-.64-4.17,1.36-5.25,1.13-.61,2.49-1.05,3.76-1.05m0-8h0c-3.16,0-5.85,1.1-7.56,2.01-2.79,1.51-4.81,3.97-5.67,6.93-.89,3.05-.49,6.33,1.12,9.24,3.67,6.6,7.48,13.24,11.17,19.65l2.2,3.83c2.17,3.78,5.88,5.95,10.18,5.95,1.63,0,3.27-.32,4.89-.94,4.8-1.85,8.04-6.09,8.66-11.32.08-.71.07-1.43-.03-2.14v-.04c-.07-.66-.21-2.22-1.17-3.9-1.17-2.03-2.32-4.08-3.47-6.12-3.33-5.89-6.77-11.99-10.49-17.88-2.11-3.35-5.7-5.27-9.83-5.27h0Z"/>
      </g>
      <g>
        <path class="cls-1" d="m110.88,217.98c-5.34-.16-8.77-3.99-8.72-9.75.07-8.44.08-16.07.05-23.32-.02-3.18.85-5.67,2.57-7.4,1.1-1.1,3.1-2.42,6.41-2.42h.23c4.2.08,8.7,2.65,8.71,9.65,0,2.68,0,5.36,0,8.05v2.85c.02.18.04.36.04.55v3.6c.01,2.79.02,5.58,0,8.37-.05,5.97-3.55,9.82-8.93,9.82-.12,0-.23,0-.35,0Z"/>
        <path class="cls-2" d="m111.18,179.1c.05,0,.11,0,.16,0,3.59.06,4.77,2.43,4.78,5.66,0,3.81,0,7.62,0,11.44h.04c0,3.98.03,7.96,0,11.93-.03,3.35-1.44,5.86-4.93,5.86-.08,0-.15,0-.23,0-3.31-.1-4.87-2.35-4.84-5.71.06-7.79.09-15.58.05-23.37-.02-3.5,1.28-5.8,4.98-5.8m0-8c-4.69,0-7.61,1.95-9.25,3.59-2.5,2.51-3.75,5.96-3.73,10.24.04,7.25.02,14.86-.05,23.26-.06,7.88,5.11,13.55,12.59,13.78.16,0,.32,0,.48,0,7.54,0,12.86-5.67,12.93-13.79.02-2.81.02-5.66.01-8.4,0-1.2,0-2.4,0-3.6,0-.26-.01-.53-.04-.78v-2.65c0-2.67,0-5.34,0-8.01-.02-9.27-6.36-13.53-12.64-13.64-.1,0-.2,0-.3,0h0Z"/>
      </g>
      <g>
        <path class="cls-1" d="m159.81,205.11c-4.81,0-7.14-4.23-7.91-5.62-1.72-3.12-3.56-6.28-5.34-9.33-2.07-3.55-4.22-7.23-6.22-10.94-2.47-4.56-1.38-7.73-.51-9.22.81-1.4,2.84-3.72,7.36-3.95.53-.11,1.06-.17,1.58-.17,4.32,0,6.46,3.53,7.74,5.64,4.13,6.82,7.77,13.08,11.13,19.17,1.59,2.88,2.04,5.54,1.34,7.92-.44,1.51-1.59,3.63-4.52,5.21-1.59.85-3.15,1.29-4.64,1.29Z"/>
        <path class="cls-2" d="m148.76,169.88c2.09,0,3.27,1.99,4.35,3.77,3.79,6.25,7.48,12.57,11.02,18.97,1.55,2.81,2,5.75-1.58,7.67-1.04.56-1.94.81-2.75.81-1.87,0-3.21-1.38-4.41-3.55-3.75-6.8-7.85-13.41-11.55-20.24-2.29-4.23-.69-7.2,3.87-7.29.37-.1.71-.15,1.04-.15m0-8h0c-.7,0-1.4.06-2.1.19-4.56.33-8.28,2.45-10.3,5.92-1.29,2.21-2.95,6.86.45,13.14,2.04,3.76,4.19,7.46,6.28,11.04,1.77,3.03,3.6,6.17,5.3,9.25,3.5,6.35,8.14,7.69,11.41,7.69,2.16,0,4.35-.59,6.53-1.76,4.15-2.23,5.81-5.37,6.47-7.6,1.02-3.45.45-7.14-1.67-10.99-3.4-6.15-7.05-12.45-11.18-19.25l-.04-.06c-1.37-2.26-4.58-7.56-11.16-7.56h0Z"/>
      </g>
      <g>
        <path class="cls-1" d="m25.44,168.91c-2.76,0-4.63-1.62-5.94-3.03-1.99-2.13-2.96-4.86-2.66-7.49.25-2.19,1.36-4.04,3.11-5.23,5.8-3.9,11.89-7.46,17.79-10.89,1.69-.98,3.38-1.97,5.06-2.96.66-.39,1.43-.6,2.22-.6.7,0,1.28.16,1.74.32.32-.03.64-.04.96-.04,4.03,0,7.25,2.33,8.38,6.09.76,2.53,1.05,7.3-5.59,10.9-1.46.79-2.93,1.57-4.39,2.36-5.25,2.81-10.69,5.71-15.72,8.91-1.81,1.15-3.38,1.68-4.96,1.68Z"/>
        <path class="cls-2" d="m45.01,142.71c.33,0,.84.29,1.3.42.48-.09.95-.14,1.4-.14,2.14,0,3.89,1.07,4.55,3.25.89,2.96-1.11,4.84-3.66,6.22-6.84,3.7-13.8,7.24-20.35,11.4-1.14.72-2.03,1.06-2.82,1.06-1.08,0-1.96-.63-3.02-1.76-2.1-2.25-2.18-5.36-.24-6.67,7.31-4.93,15.04-9.24,22.64-13.73.05-.03.11-.04.18-.04m0-8c-1.5,0-2.97.4-4.25,1.16-1.68.99-3.37,1.98-5.06,2.96-5.94,3.46-12.09,7.05-17.99,11.02-2.71,1.82-4.47,4.77-4.85,8.09-.43,3.79.92,7.68,3.71,10.67.99,1.06,4.01,4.3,8.87,4.3,2.34,0,4.66-.75,7.11-2.31,4.9-3.12,10.03-5.85,15.45-8.75,1.47-.79,2.95-1.57,4.42-2.37,9.74-5.27,8.21-13.25,7.51-15.57-1.64-5.43-6.43-8.93-12.21-8.93-.17,0-.33,0-.5,0-.62-.16-1.36-.28-2.21-.28h0Z"/>
      </g>
      <g>
        <path class="cls-1" d="m111.24,46.21c-5.13,0-8.8-3.5-8.93-8.51-.21-8-.22-16.38-.04-25.64.09-4.71,3.31-7.79,8.41-8.04.21-.01.41-.02.61-.02,4.95,0,8.3,3.22,8.74,8.4.27,3.11.21,6.19.15,9.16-.02,1.07-.04,2.13-.04,3.19.02.15.03.3.03.46,0,1.19,0,2.39,0,3.58,0,2.77.02,5.63-.02,8.46-.07,5.14-3.29,8.64-8.2,8.94-.24.01-.47.02-.71.02Z"/>
        <path class="cls-2" d="m111.28,8c3.27,0,4.53,2.1,4.76,4.74.35,4.13.09,8.31.09,12.47,0,0,.02,0,.03,0,0,3.99.04,7.99-.01,11.98-.04,2.9-1.43,4.82-4.44,5-.16,0-.31.01-.47.01-2.9,0-4.86-1.67-4.93-4.61-.22-8.48-.2-16.97-.04-25.46.05-2.62,1.71-3.98,4.61-4.13.14,0,.27-.01.41-.01m0-8c-.26,0-.53,0-.81.02-7.17.36-12.08,5.17-12.21,11.96-.18,9.31-.17,17.76.04,25.82.18,7.19,5.62,12.41,12.93,12.41.31,0,.62,0,.94-.03,7.06-.42,11.87-5.59,11.97-12.88.04-2.86.03-5.74.02-8.52,0-1.19,0-2.38,0-3.57,0-.22,0-.43-.03-.64,0-.96.02-1.92.04-2.93.06-3.08.12-6.27-.17-9.58-.62-7.21-5.74-12.06-12.73-12.06h0Z"/>
      </g>
      <g>
        <path class="cls-1" d="m197.07,168.49c-1.29,0-2.55-.32-3.73-.94-7.18-3.79-14.81-8.12-24.02-13.61-1.81-1.08-4.61-3.82-2.95-10,1.33-4.93,6.1-4.94,7.67-4.94h.56c2.3,0,4.25.46,5.98,1.43,2.34,1.3,4.69,2.59,7.04,3.88,4.57,2.5,9.3,5.09,13.9,7.78,4.04,2.36,5.29,6.92,3.12,11.36-1.53,3.12-4.43,5.05-7.58,5.05Z"/>
        <path class="cls-2" d="m174.61,143c1.41,0,2.75.21,4.04.93,6.96,3.87,14,7.59,20.87,11.61,2.23,1.31,2.76,3.66,1.54,6.14-.89,1.82-2.41,2.82-3.99,2.82-.62,0-1.25-.16-1.86-.48-8.08-4.26-16-8.83-23.84-13.51-1.92-1.14-1.67-3.54-1.13-5.52.56-2.09,2.4-1.97,4.08-1.98.1,0,.19,0,.29,0m0-8c-.13,0-.25,0-.38,0h-.19c-1.2,0-3.02,0-5.01.73-3.22,1.16-5.6,3.78-6.51,7.18-2.44,9.04,2.52,13.13,4.76,14.47,9.27,5.53,16.96,9.89,24.2,13.72,1.74.92,3.67,1.4,5.6,1.4,4.68,0,8.96-2.79,11.17-7.29,3.11-6.33,1.18-13.14-4.69-16.57-4.66-2.72-9.42-5.33-14.02-7.85-2.33-1.28-4.67-2.55-6.99-3.85-2.34-1.3-4.93-1.94-7.93-1.94h0Z"/>
      </g>
      <g>
        <path class="cls-1" d="m33.27,119.41c-2.1,0-4.2,0-6.3-.01h-9.43c-1.64-.01-3.28,0-4.93,0-3.29,0-5.25-1.3-6.32-2.39-1.08-1.1-2.36-3.09-2.3-6.34.09-5.28,3.38-8.69,8.39-8.69,2.8.01,5.55.02,8.3.02,3.79,0,7.59,0,11.38-.02h5.79c5.45-.01,8.98,3.49,9.02,8.9.03,5.07-3.51,8.5-8.81,8.53-1.6.01-3.2.01-4.8.01Z"/>
        <path class="cls-2" d="m37.89,105.95c3.3,0,4.97,1.87,4.99,4.94.02,2.98-1.87,4.48-4.84,4.5-1.58.01-3.16.01-4.74.01-2.75,0-5.49-.01-8.24-.02-2.5,0-5,0-7.5,0-1.66,0-3.32,0-4.98.01-.02,0-.03,0-.05,0-3.12,0-4.6-1.83-4.55-4.67.05-2.65,1.12-4.77,4.39-4.77.01,0,.02,0,.04,0,2.77.01,5.55.02,8.32.02,5.71,0,11.42-.02,17.12-.03h.02m0-8h-5.68c-3.82.02-7.64.03-11.46.03-2.76,0-5.52,0-8.29-.02-.01,0-.06,0-.07,0C5.11,97.96.14,103.03,0,110.59c-.08,4.64,1.83,7.57,3.45,9.22,1.61,1.64,4.49,3.59,9.1,3.59.02,0,.08,0,.1,0,1.64,0,3.29-.01,4.93-.01,1.25,0,2.49,0,3.74,0,1.25,0,2.51,0,3.76,0h1.94c2.1.01,4.2.02,6.3.02,1.6,0,3.19,0,4.79-.01,7.57-.05,12.83-5.21,12.78-12.56-.05-7.59-5.39-12.89-12.99-12.89h0Z"/>
      </g>
      <g>
        <path class="cls-1" d="m196.57,119.43h-11.93c-5.08,0-8.53-3.28-8.79-8.34-.13-2.56.62-4.79,2.17-6.46,1.53-1.64,3.75-2.56,6.24-2.61,4.87-.08,9.16-.13,13.12-.13,4.44,0,8.5.05,12.43.15,2.55.07,4.81,1.04,6.36,2.73,1.06,1.16,2.29,3.2,2.1,6.33-.31,5.03-3.74,8.3-8.74,8.32-1.58,0-3.15,0-4.73,0-2.18,0-8.23-.01-8.23-.01Z"/>
        <path class="cls-2" d="m197.39,105.89c4.11,0,8.22.04,12.33.15,2.65.07,4.76,1.69,4.57,4.82-.18,2.88-1.75,4.55-4.77,4.57-1.55,0-3.11,0-4.66,0-2.76,0-5.52,0-8.28-.01-2.38,0-4.76,0-7.14,0-1.6,0-3.2,0-4.8,0h-.01c-3.04,0-4.63-1.71-4.78-4.55-.16-2.97,1.61-4.81,4.49-4.86,4.35-.08,8.7-.13,13.05-.13m0-8c-3.99,0-8.3.04-13.19.13-3.59.06-6.82,1.44-9.1,3.88-2.28,2.44-3.43,5.78-3.24,9.39.37,7.15,5.62,12.14,12.77,12.14,1.62,0,3.22,0,4.82,0h3.57s3.57,0,3.57,0h1.49c2.26,0,4.52.01,6.78.01,1.56,0,3.13,0,4.69,0,7.17-.03,12.28-4.88,12.72-12.08.22-3.54-.9-6.83-3.14-9.28-2.29-2.5-5.56-3.93-9.21-4.03-3.96-.1-8.07-.16-12.54-.16h0Z"/>
      </g>
    </g>
  </g>
</svg>