<?xml version="1.0" encoding="UTF-8"?>
<svg id="Camada_2" data-name="Camada 2" xmlns="http://www.w3.org/2000/svg" viewBox="0 0 183.46 194.5">
  <defs>
    <style>
      .cls-1 {
        fill: #a11d45;
      }
    </style>
  </defs>
  <g id="Camada_1-2" data-name="Camada 1">
    <g>
      <path class="cls-1" d="m169.45,119.66c0,22.97-.1,45.93.09,68.9.04,4.54-1.23,6.07-5.91,5.94-11.31-.33-22.63-.23-33.95-.04-3.66.06-4.93-1.02-4.92-4.79.12-33.45.08-66.9.08-100.35,0-2.93.85-5.16,3.21-7.34,12.09-11.18,23.92-22.65,35.85-34.01,1.29-1.23,2.5-3.19,4.57-2.21,1.86.88.93,2.98.93,4.51.06,23.13.04,46.26.05,69.39Z"/>
      <path class="cls-1" d="m183.39,2.45c-2.08,9.68-4.02,19.12-6.18,28.51-.6,2.6-2,.91-3.33.28-2.55-1.22-3.05-6.17-6.67-4.6-2.56,1.11-4.4,3.94-6.51,6.05-22.13,22.12-44.3,44.19-66.32,66.43-2.91,2.94-4.7,2.52-7.31-.16-8.14-8.35-16.62-16.37-24.63-24.84-2.92-3.09-4.46-2.45-7.06.18-14.14,14.36-28.53,28.48-42.62,42.89-2.84,2.9-4.56,3.41-7.43.16-6.81-7.72-7.51-4.51.32-12.71,11.03-11.54,22.83-22.32,33.66-34.07,5.49-5.95,11.69-11.24,17.37-17.03,2.1-2.14,3.18-1.23,4.8.41,8.18,8.3,16.68,16.31,24.6,24.85,3.57,3.86,5.74,3.63,9.23.06,13.74-14.06,27.72-27.88,41.61-41.78,6-6.01,11.88-12.16,18.08-17.96,2.89-2.7,2.89-4.41-.03-7.06-4.95-4.5-4.83-4.78,1.51-6.5,7.95-2.15,16.27-2.69,24.13-5.3,2.32-.77,3.11.19,2.77,2.18Z"/>
      <path class="cls-1" d="m113.73,147.14c0,13.98-.13,27.97.08,41.95.06,4.19-1.39,5.46-5.48,5.38-11.15-.22-22.31-.21-33.46-.01-3.96.07-5.64-.96-5.61-5.28.15-27.8.06-55.6.11-83.4,0-1.54-.8-3.74,1.2-4.42,1.82-.62,2.87,1.39,4,2.5,4.26,4.21,8.59,8.37,12.57,12.84,2.55,2.86,4.29,3.27,7.06.17,4.43-4.96,9.25-9.58,14.04-14.2,1.19-1.15,1.87-3.69,4.16-2.82,2.25.85,1.27,3.18,1.28,4.84.09,14.15.05,28.3.05,42.45Z"/>
      <path class="cls-1" d="m57.31,143.78c0,15.14-.09,30.29.06,45.43.04,3.79-1.01,5.34-5.09,5.26-11.48-.23-22.97-.2-34.45-.01-3.96.06-5.19-1.4-5.16-5.26.15-17.14.11-34.28.03-51.42-.01-3.37,1.07-5.74,3.66-8.13,12.11-11.16,23.94-22.62,35.92-33.92,1.12-1.06,2.19-3.03,4.11-2.01,1.54.82.88,2.71.88,4.14.04,15.31.03,30.62.03,45.93Z"/>
    </g>
  </g>
</svg>