<?xml version="1.0" encoding="UTF-8"?>
<svg id="Camada_2" data-name="Camada 2" xmlns="http://www.w3.org/2000/svg" viewBox="0 0 199.46 210.5">
  <defs>
    <style>
      .cls-1 {
        fill: #a11d45;
      }

      .cls-2 {
        fill: #1d1d1b;
      }
    </style>
  </defs>
  <g id="Camada_1-2" data-name="Camada 1">
    <g>
      <g>
        <path class="cls-1" d="m172.17,206.5c-.22,0-.44,0-.67-.01-4.96-.14-10.18-.21-15.94-.21-5.16,0-10.82.06-17.82.18h-.36c-1.82,0-4.48-.22-6.43-2.18-1.98-1.99-2.2-4.73-2.19-6.62.1-26.72.09-53.89.08-80.17v-20.17c0-4.17,1.42-7.44,4.49-10.28,8.69-8.04,17.4-16.37,25.82-24.43,3.33-3.18,6.65-6.37,9.99-9.54.17-.17.35-.35.52-.54,1.07-1.14,2.86-3.04,5.72-3.04.94,0,1.88.22,2.79.65,4.06,1.91,3.48,6.09,3.3,7.46-.03.22-.08.55-.08.66.04,16.42.04,32.83.05,49.25v20.15c0,5.97,0,11.94,0,17.91-.02,16.71-.04,33.98.1,50.96.02,2.4-.23,5.44-2.38,7.6-2.11,2.13-5,2.37-6.99,2.37Z"/>
        <path class="cls-2" d="m175.38,53.49c.34,0,.69.08,1.08.26,1.86.88.93,2.98.93,4.51.06,23.13.04,46.26.05,69.39,0,22.97-.1,45.93.09,68.9.04,4.36-1.13,5.95-5.37,5.95-.18,0-.36,0-.55,0-5.35-.16-10.7-.22-16.05-.22-5.97,0-11.93.08-17.9.18-.1,0-.2,0-.29,0-3.44,0-4.64-1.12-4.62-4.79.12-33.45.08-66.9.08-100.35,0-2.93.85-5.16,3.21-7.34,12.09-11.18,23.92-22.65,35.85-34.01,1.05-1,2.04-2.48,3.48-2.48m0-8h0c-4.59,0-7.42,3.01-8.64,4.3-.12.13-.24.26-.36.38-3.34,3.18-6.68,6.37-10.01,9.56-8.41,8.04-17.1,16.36-25.76,24.37-3.89,3.6-5.78,7.92-5.78,13.22,0,6.71,0,13.42,0,20.13,0,26.28.02,53.46-.08,80.18,0,1.5-.02,6.06,3.36,9.46,3.35,3.36,7.8,3.36,9.26,3.36.14,0,.29,0,.43,0,6.98-.12,12.63-.18,17.76-.18,5.72,0,10.9.07,15.82.21.27,0,.53.01.78.01,1.56,0,6.3,0,9.83-3.56,3.22-3.25,3.56-7.52,3.54-10.45-.14-16.96-.12-34.23-.1-50.93,0-5.97.01-11.93.01-17.9,0-6.67,0-13.34,0-20.01,0-16.13,0-32.81-.05-49.23.01-.09.03-.19.04-.28,1.01-7.35-3.05-10.43-5.55-11.62-1.45-.68-2.96-1.03-4.5-1.03h0Z"/>
      </g>
      <g>
        <path class="cls-1" d="m16.87,131.58c-3.03,0-5.18-2.05-6.54-3.59-1.25-1.42-2.28-2.44-3.11-3.26-1.73-1.72-3.22-3.2-3.22-5.6,0-2.49,1.56-4.03,3.91-6.36.77-.77,1.72-1.7,2.85-2.88,4.91-5.14,10.03-10.19,14.99-15.07,6.21-6.12,12.64-12.46,18.63-18.95,3.25-3.53,6.75-6.83,10.14-10.03,2.44-2.3,4.96-4.69,7.32-7.09.6-.61,2.41-2.45,5.06-2.45s4.32,1.72,5.44,2.86c2.87,2.91,5.83,5.83,8.69,8.66,5.31,5.25,10.8,10.68,15.99,16.28.9.98,1.44,1.35,1.67,1.48.24-.13.79-.5,1.76-1.5,10.08-10.32,20.45-20.67,30.49-30.68,3.72-3.71,7.44-7.42,11.15-11.14,1.71-1.71,3.41-3.43,5.11-5.16,4.22-4.28,8.58-8.7,13.07-12.9.26-.25.46-.45.6-.6-.14-.15-.33-.34-.58-.57-3.05-2.77-5.46-4.96-4.68-8.19.78-3.22,3.89-4.06,7.84-5.12,3.65-.99,7.35-1.65,10.93-2.28,4.55-.81,8.84-1.57,12.98-2.95.95-.31,1.81-.47,2.64-.47,1.68,0,3.16.66,4.18,1.86.78.92,1.62,2.59,1.16,5.26,0,.06-.02.11-.03.17-.57,2.66-1.13,5.29-1.69,7.92-1.51,7.1-2.93,13.8-4.51,20.64-.96,4.18-4.05,4.51-4.97,4.51-1.59,0-2.78-.76-3.57-1.26-.14-.09-.28-.18-.42-.26-1.94-.93-3.06-2.59-3.88-3.8-.06-.09-.13-.19-.2-.3-.83.62-1.71,1.63-2.57,2.62-.62.71-1.26,1.44-1.97,2.14l-13.63,13.61c-17.3,17.27-35.19,35.14-52.67,52.8-1.37,1.38-3.52,3.22-6.44,3.22-2.9,0-5.04-1.82-6.58-3.4-3.37-3.46-6.88-6.93-10.26-10.29-4.77-4.73-9.7-9.61-14.41-14.6-.2-.22-.37-.38-.51-.51-.19.17-.45.41-.79.75-6.46,6.56-13.07,13.17-19.46,19.56-7.62,7.62-15.5,15.5-23.15,23.32-1.74,1.78-3.9,3.6-6.75,3.6Z"/>
        <path class="cls-2" d="m190,8c1.25,0,1.65.92,1.39,2.45-2.08,9.68-4.02,19.12-6.18,28.51-.24,1.06-.62,1.41-1.07,1.41-.66,0-1.47-.75-2.26-1.12-2.21-1.05-2.88-4.91-5.37-4.91-.39,0-.81.09-1.3.3-2.56,1.11-4.4,3.94-6.51,6.05-22.13,22.12-44.3,44.19-66.32,66.43-1.38,1.4-2.51,2.03-3.59,2.03-1.2,0-2.35-.78-3.72-2.19-8.14-8.35-16.62-16.37-24.63-24.84-1.35-1.43-2.41-2.07-3.42-2.07-1.16,0-2.25.84-3.64,2.25-14.14,14.36-28.53,28.48-42.62,42.89-1.5,1.53-2.68,2.39-3.89,2.39-1.08,0-2.18-.7-3.54-2.23-6.81-7.72-7.51-4.51.32-12.71,11.03-11.54,22.83-22.32,33.66-34.07,5.49-5.95,11.69-11.24,17.37-17.03.88-.89,1.57-1.25,2.21-1.25.89,0,1.65.71,2.59,1.67,8.18,8.3,16.68,16.31,24.6,24.85,1.77,1.91,3.19,2.81,4.6,2.81s2.87-.95,4.63-2.75c13.74-14.06,27.72-27.88,41.61-41.78,6-6.01,11.88-12.16,18.08-17.96,2.89-2.7,2.89-4.41-.03-7.06-4.95-4.5-4.83-4.78,1.51-6.5,7.95-2.15,16.27-2.69,24.13-5.3.54-.18,1-.27,1.38-.27m0-8c-1.26,0-2.54.22-3.9.67-3.87,1.28-8.03,2.02-12.43,2.81-3.66.65-7.45,1.33-11.27,2.36-4.16,1.12-9.35,2.53-10.68,8.05-1,4.13.97,7.2,3.37,9.71-3.68,3.53-7.25,7.16-10.73,10.69-1.7,1.72-3.39,3.44-5.1,5.15-3.71,3.72-7.43,7.43-11.15,11.14-9.65,9.63-19.63,19.58-29.35,29.52-4.89-5.21-9.98-10.24-14.92-15.12-2.85-2.82-5.8-5.73-8.65-8.62-1.3-1.31-3.99-4.05-8.29-4.05-2.88,0-5.54,1.23-7.92,3.65-2.31,2.35-4.69,4.6-7.22,6.98-3.44,3.24-6.99,6.6-10.33,10.23-5.92,6.42-12.31,12.72-18.49,18.81-4.98,4.9-10.12,9.98-15.08,15.16-1.08,1.13-1.98,2.02-2.77,2.8C2.48,112.51,0,114.96,0,119.12c0,4.07,2.44,6.5,4.4,8.45.79.78,1.76,1.75,2.93,3.07,1.08,1.22,4.36,4.94,9.54,4.94,4.91,0,8.2-3.36,9.61-4.8,7.64-7.81,15.52-15.69,23.14-23.31,5.7-5.7,11.57-11.56,17.35-17.42,4.02,4.17,8.14,8.26,12.15,12.23,3.38,3.35,6.87,6.81,10.23,10.25,1.93,1.98,5,4.6,9.45,4.6,4.92,0,8.2-3.32,9.28-4.4,17.49-17.66,35.38-35.53,52.68-52.81,4.53-4.53,9.07-9.06,13.6-13.59.53-.53,1.03-1.08,1.49-1.59.68.6,1.48,1.16,2.41,1.63.05.03.11.07.16.1.96.61,2.96,1.89,5.72,1.89,3.28,0,7.57-1.99,8.86-7.61,1.58-6.87,3.08-13.9,4.52-20.69.56-2.63,1.12-5.27,1.69-7.93.02-.11.05-.22.06-.34.71-4.19-.72-6.94-2.05-8.51-1.78-2.11-4.35-3.28-7.23-3.28h0Z"/>
      </g>
      <g>
        <path class="cls-1" d="m116.26,206.47c-5.4-.11-10.99-.16-16.61-.16s-11.03.05-16.7.15h-.43c-1.99,0-4.87-.24-6.94-2.32-2.1-2.11-2.33-5-2.32-6.98.1-17.72.1-35.74.1-53.16,0-10.07,0-20.14.02-30.22,0-.21-.03-.43-.05-.66-.41-3.97.93-6.51,3.97-7.54.64-.22,1.29-.33,1.95-.33,2.92,0,4.69,2.09,5.64,3.21.17.2.33.4.5.56l1.73,1.7c3.68,3.62,7.49,7.36,11.02,11.32.25.28.46.5.62.65.13-.12.28-.29.46-.49,4.31-4.83,9-9.35,13.53-13.73l.71-.69c.06-.06.25-.35.38-.54.8-1.16,2.47-3.58,5.67-3.58.76,0,1.54.15,2.3.44,4.65,1.77,4.11,6.33,3.93,7.83-.03.25-.07.59-.07.72.07,10.81.06,21.79.05,32.41v10.06c0,3.87-.01,7.74-.02,11.62-.03,9.93-.05,20.19.1,30.27.03,2.03-.17,4.97-2.27,7.1-2.07,2.1-4.9,2.34-6.84,2.34h-.44Z"/>
        <path class="cls-2" d="m119.52,107.68c.27,0,.56.05.88.18,2.25.85,1.27,3.18,1.28,4.84.09,14.15.05,28.3.05,42.45,0,13.98-.13,27.97.08,41.95.06,4.07-1.3,5.38-5.12,5.38-.12,0-.23,0-.36,0-5.56-.11-11.12-.16-16.69-.16s-11.18.05-16.77.15c-.12,0-.24,0-.36,0-3.7,0-5.28-1.09-5.25-5.28.15-27.8.06-55.6.11-83.4,0-1.54-.8-3.74,1.2-4.42.23-.08.46-.12.67-.12,1.43,0,2.35,1.64,3.33,2.62,4.26,4.21,8.59,8.37,12.57,12.84,1.34,1.5,2.45,2.32,3.61,2.32,1.05,0,2.13-.68,3.45-2.16,4.43-4.96,9.25-9.58,14.04-14.2,1.02-.99,1.67-3,3.28-3m0-8h0c-5.3,0-8.06,3.99-8.96,5.31-.04.06-.08.12-.12.17l-.49.47c-3.72,3.59-7.54,7.27-11.19,11.17-2.91-3.1-5.91-6.05-8.83-8.93l-1.69-1.67c-.1-.1-.19-.22-.29-.33-1.17-1.38-3.92-4.62-8.69-4.62-1.09,0-2.18.18-3.23.54-2.29.77-7.52,3.46-6.67,11.73.01.12.03.23.03.34-.02,10.04-.02,20.07-.02,30.11,0,17.43,0,35.45-.1,53.17,0,1.56-.03,6.29,3.48,9.82,3.48,3.5,8.22,3.5,9.77,3.5.16,0,.33,0,.5,0,5.65-.1,11.24-.15,16.63-.15s11.16.05,16.53.16c.18,0,.35,0,.52,0,1.54,0,6.21,0,9.69-3.53,3.52-3.57,3.45-8.39,3.42-9.97-.15-10.04-.12-20.28-.1-30.19.01-3.88.02-7.76.02-11.64,0-3.37,0-6.75,0-10.12,0-10.57.01-21.49-.05-32.25.01-.11.03-.23.04-.35.95-7.97-3.65-10.97-6.48-12.04-1.22-.47-2.48-.7-3.73-.7h0Z"/>
      </g>
      <g>
        <path class="cls-1" d="m60.19,206.47c-5.29-.11-10.89-.16-16.62-.16s-11.39.05-17.67.15c0,0-.32,0-.32,0-1.09,0-4.35,0-6.62-2.3-2.08-2.1-2.3-5-2.28-7,.14-16.21.12-32.26.03-51.37-.02-4.49,1.51-7.91,4.96-11.09,7.88-7.26,15.79-14.79,23.43-22.07,4.15-3.95,8.29-7.9,12.45-11.82.14-.14.28-.3.43-.46.92-1.02,2.62-2.92,5.39-2.92.99,0,1.97.25,2.91.75,3.55,1.89,3.19,5.62,3.05,7.02-.02.22-.05.43-.05.63.03,11.68.03,23.37.03,35.05v10.89c0,4.09,0,8.18-.01,12.26-.02,10.86-.03,22.09.07,33.13.02,2.19-.22,4.97-2.25,7.03-2.25,2.27-5.47,2.27-6.53,2.27h-.39Z"/>
        <path class="cls-2" d="m63.37,101.44c.32,0,.66.08,1.03.28,1.54.82.88,2.71.88,4.14.04,15.31.03,30.62.03,45.93,0,15.14-.09,30.29.06,45.43.04,3.69-.96,5.26-4.79,5.26-.1,0-.2,0-.3,0-5.57-.11-11.14-.16-16.71-.16-5.91,0-11.83.06-17.74.15-.08,0-.17,0-.25,0-3.76,0-4.95-1.48-4.91-5.26.15-17.14.11-34.28.03-51.42-.01-3.37,1.07-5.74,3.66-8.13,12.11-11.16,23.94-22.62,35.92-33.92.9-.85,1.77-2.29,3.08-2.29m0-8c-4.55,0-7.22,2.97-8.36,4.24-.08.09-.16.18-.24.26-4.15,3.92-8.35,7.92-12.41,11.78-7.64,7.28-15.54,14.8-23.4,22.04-4.29,3.95-6.27,8.41-6.25,14.05.08,19.09.11,35.13-.03,51.31-.01,1.56-.06,6.32,3.44,9.85,2.29,2.31,5.48,3.48,9.47,3.48.12,0,.25,0,.38,0,6.26-.1,12.02-.15,17.61-.15s11.28.05,16.55.16c.16,0,.31,0,.47,0,3.95,0,7.11-1.16,9.38-3.46,3.11-3.14,3.43-7.14,3.41-9.88-.11-11.01-.09-22.22-.07-33.07,0-4.09.01-8.19.01-12.28v-10.66c0-11.54,0-23.46-.03-35.2,0-.1.02-.21.03-.32.63-6.45-2.45-9.51-5.15-10.95-1.52-.81-3.14-1.22-4.79-1.22h0Z"/>
      </g>
    </g>
  </g>
</svg>