<?xml version="1.0" encoding="UTF-8"?>
<svg id="Camada_2" data-name="Camada 2" xmlns="http://www.w3.org/2000/svg" viewBox="0 0 195.34 196.49">
  <defs>
    <style>
      .cls-1 {
        fill: #ed6a2d;
      }
    </style>
  </defs>
  <g id="Camada_1-2" data-name="Camada 1">
    <path class="cls-1" d="m.05,138.7c0-8.17.1-16.33-.05-24.49-.06-3.03,1.02-4.87,3.66-6.4,13.52-7.83,26.89-15.9,40.44-23.68,2.6-1.49,3.17-3.23,3.15-5.97-.11-15,.04-29.99-.11-44.99-.04-3.59,1.28-5.59,4.32-7.58,13.6-8.89,28.38-15.7,42.14-24.27,2.77-1.73,5-1.75,7.8-.09,10.85,6.43,21.82,12.65,32.72,18.99,2.95,1.72,6.09,2.99,9.01,4.89,3.7,2.4,5.09,4.86,5,9.25-.28,14.49.01,28.99-.19,43.49-.05,3.63,1.07,5.68,4.29,7.47,12.74,7.09,25.26,14.58,37.97,21.73,3.55,2,5.17,4.31,5.08,8.63-.29,15.32-.38,30.67.04,45.98.13,4.79-1.81,7.37-5.43,9.47-14.2,8.23-28.42,16.44-42.62,24.68-2,1.16-3.74.73-5.61-.35-13.3-7.71-26.72-15.21-39.89-23.13-3.28-1.97-5.62-1.65-8.61.11-11.29,6.65-22.69,13.1-34.01,19.69-9.17,5.35-12.27,5.24-20.77-1.25-5.04-3.85-10.68-6.57-16.25-9.52-6.84-3.62-13.3-7.94-19.92-11.95-1.99-1.21-2.21-3.11-2.2-5.2.05-8.5.02-17,.02-25.49Zm7.15-20.91c-1.32,1.62-.93,2.99-.93,4.25-.03,12.8.11,25.6-.1,38.4-.05,3.38,1.31,4.95,4.08,6.51,10.99,6.19,21.85,12.62,32.72,19.03,1.18.7,2.39,1.59,3.61,1.02,1.21-.57.59-2.09.6-3.17.04-13.13,0-26.27.06-39.4,0-1.95-.71-2.95-2.28-4.34-4.43-3.94-10.01-5.73-14.86-8.83-7.47-4.78-15.28-9.03-22.9-13.47Zm140.84,45.77h-.02c0,6.49.17,12.99-.06,19.48-.15,4.29,1.25,4.44,4.51,2.53,11.3-6.61,22.66-13.14,34.06-19.58,1.88-1.07,2.48-2.41,2.47-4.43-.04-13.49-.04-26.97-.02-40.46,0-2.58-.25-3.9-3.31-2.08-11.45,6.79-22.99,13.41-34.57,19.97-2.34,1.33-3.2,2.94-3.13,5.6.17,6.32.05,12.65.05,18.98Zm-2.92-28.94c.24-.1.88-.29,1.44-.61,12.13-6.86,24.29-13.69,36.37-20.64,3.16-1.81.61-2.85-.86-3.7-11.6-6.71-23.24-13.36-34.85-20.06-1.36-.79-2.62-1.41-4.17-.52-12.27,7.01-24.57,13.97-36.78,21.07-1.29.75-2.74,2.22.01,3.54,11.87,5.67,22.79,13.02,34.32,19.29,1.3.71,2.47,1.74,4.51,1.63Zm-44.51-49.93c0,5.82.04,11.64-.02,17.47-.03,2.79.28,4.22,3.55,2.28,10.05-5.99,20.21-11.82,30.4-17.58,2.43-1.38,3.46-2.04.41-4.14-10.1-6.97-21.5-11.71-31.66-18.56-2.43-1.64-2.7.12-2.69,2.08.03,6.15.01,12.31,0,18.46Zm-47.24,59.88c0,13.82.02,26.97-.01,40.12,0,2.76.55,3.08,3.09,1.57,9.72-5.77,19.63-11.21,29.43-16.84,5.48-3.14,5.45-3.18-.28-6.45-10.49-5.98-20.98-11.98-32.23-18.4Zm.3-108.79v43.21c12.5-7.28,24.49-14.26,37.04-21.57-12.5-7.87-24.31-14.74-37.04-21.64Zm3.22,48.62c11.65,7.63,23.61,13.12,34.33,20.65,2.47,1.73,3.13-.1,3.12-2.33-.01-6.67,0-13.33,0-20,0-6.39,0-12.78,0-20.01-12.91,7.47-24.9,14.42-37.46,21.69Zm37.31,32.94c-12.86,7.45-24.94,14.44-37.61,21.78,12.92,7.4,25.02,14.33,37.61,21.53v-43.31Zm9.62-60.14c12.1,6.99,23.29,13.45,34.47,19.93,2.28,1.32,3.28.81,3.27-1.91-.04-11.96-.03-23.93,0-35.89,0-2.66-.95-3.31-3.31-1.94-11.13,6.43-22.28,12.82-34.45,19.82Z"/>
  </g>
</svg>