<?xml version="1.0" encoding="UTF-8"?>
<svg id="Camada_2" data-name="Camada 2" xmlns="http://www.w3.org/2000/svg" viewBox="0 0 211.34 212.49">
  <defs>
    <style>
      .cls-1 {
        fill: #ed6a2d;
      }

      .cls-2 {
        fill: #1d1d1b;
      }
    </style>
  </defs>
  <g id="Camada_1-2" data-name="Camada 1">
    <g>
      <path class="cls-1" d="m152.9,208.49c-2.24,0-4.05-.9-5.23-1.58-4.3-2.49-8.61-4.96-12.92-7.43-8.89-5.09-18.08-10.36-27.03-15.74-.87-.52-1.56-.78-2.11-.78-.37,0-1.02.09-2.4.91-6.5,3.83-13.14,7.65-19.55,11.34-4.83,2.78-9.66,5.56-14.47,8.36-4.63,2.7-8.28,4.37-12.13,4.37-4.45,0-8.31-2.26-13.08-5.9-3.99-3.05-8.43-5.36-13.12-7.81-.86-.45-1.72-.9-2.58-1.35-4.89-2.58-9.6-5.53-14.16-8.38-1.98-1.24-3.97-2.48-5.96-3.69-4.16-2.52-4.13-6.81-4.12-8.65.03-5.95.03-11.89.03-17.83v-7.64c0-2.32,0-4.64.01-6.97.02-5.73.04-11.65-.07-17.45-.08-4.5,1.72-7.65,5.66-9.93,6.15-3.56,12.38-7.24,18.4-10.79,7.21-4.25,14.66-8.65,22.05-12.9.96-.55,1.15-.66,1.14-2.47-.05-7.01-.05-14.12-.04-21,0-7.86,0-15.99-.07-23.98-.05-4.85,1.79-8.13,6.13-10.97,7.47-4.88,15.35-9.18,22.97-13.34,6.39-3.49,13.01-7.09,19.24-10.98,2.07-1.29,4.06-1.92,6.06-1.92s3.86.58,5.89,1.79c6.78,4.02,13.73,8.02,20.45,11.9,4.08,2.35,8.17,4.71,12.24,7.08,1.14.67,2.34,1.27,3.6,1.91,1.82.92,3.71,1.87,5.57,3.08,4.89,3.18,6.93,6.97,6.82,12.68-.15,7.78-.14,15.72-.12,23.39.01,6.57.03,13.37-.07,20.07-.03,2.21.35,2.87,2.23,3.92,6.91,3.85,13.86,7.87,20.58,11.76,5.7,3.3,11.59,6.7,17.41,9.98,5.03,2.83,7.23,6.59,7.12,12.19-.34,17.88-.32,32.43.04,45.8.16,5.87-2.2,10.01-7.42,13.04-6.21,3.6-12.42,7.19-18.63,10.79-8,4.63-15.99,9.25-23.98,13.89-1.41.82-2.89,1.23-4.39,1.23ZM18.27,132.17c0,3.55,0,7.1.01,10.64.02,8.41.04,17.11-.1,25.69-.02,1.42.05,1.84,2.04,2.96,10.42,5.86,20.87,12.03,30.97,18,.01-5.48.02-10.96.02-16.44,0-6.87,0-13.74.03-20.62,0-.3-.03-.4-.03-.4-.02-.04-.14-.26-.9-.93-2.36-2.09-5.22-3.55-8.25-5.08-2.01-1.02-4.09-2.08-6.11-3.37-5.16-3.3-10.62-6.42-15.89-9.43-.6-.34-1.19-.68-1.79-1.02Zm141.76,39.76c0,1.8.02,3.61.03,5.41.03,3.88.06,7.87-.03,11.86,10.34-6.04,21.28-12.32,32.55-18.7.27-.15.37-.25.4-.28,0,0,.05-.19.05-.66-.04-11.41-.05-23.39-.03-37.5-9.4,5.54-19.62,11.44-31.9,18.4-.98.55-1.13.74-1.1,2.01.12,4.57.1,9.18.07,13.64,0,1.81-.02,3.63-.02,5.44,0,.13,0,.25-.02.38Zm-94.65-8.5c0,8.69,0,17.18,0,25.64,5.38-3.15,10.83-6.23,16.13-9.22,3.28-1.85,6.56-3.7,9.82-5.58-7.29-4.16-14.59-8.32-22.14-12.64l-3.81-2.18v3.97Zm32.82-1.69v-29.47l-25.59,14.82,25.59,14.65Zm21.25-41.96c6.17,3.14,12.12,6.67,17.9,10.1,4.3,2.55,8.74,5.18,13.17,7.59.31.17.61.35.91.53.54.33.84.49,1.06.57.04-.02.07-.03.09-.05l7.38-4.17c8.44-4.77,17.14-9.68,25.73-14.6-5.46-3.15-10.92-6.29-16.39-9.43-5.36-3.08-10.73-6.16-16.09-9.26-.22-.13-.4-.23-.55-.3-3.28,1.88-6.56,3.75-9.85,5.62-7.68,4.38-15.59,8.88-23.38,13.4Zm-46.81-27.26c3.44,2.07,6.9,4.02,10.29,5.93,5.12,2.89,10.38,5.85,15.41,9.15,0-3.6,0-16.9,0-16.9v-13.07l-25.71,14.89Zm39.97-14.77c0,3.49,0,6.97,0,10.46v4.48c0,1.69,0,3.39,0,5.08,0,3.19.01,6.46,0,9.72,7.55-4.47,15.72-9.19,25.89-14.95-4.4-2.85-9.1-5.4-13.68-7.87-4.04-2.18-8.18-4.43-12.21-6.92Zm10.43-10.7c7.71,4.46,15.13,8.74,22.51,13.02-.02-8.71-.02-18.09,0-29.68-7.27,4.19-14.57,8.39-22.2,12.78l-3.53,2.03,3.21,1.85Zm-57.37,12.97l25.29-14.73c-8.3-5.11-16.54-9.93-25.29-14.77v29.5Z"/>
      <path class="cls-2" d="m105.55,8c1.23,0,2.47.41,3.85,1.23,10.85,6.43,21.82,12.65,32.72,18.99,2.95,1.72,6.09,2.99,9.01,4.89,3.7,2.4,5.09,4.86,5,9.25-.28,14.49.01,28.99-.19,43.49-.05,3.63,1.07,5.68,4.29,7.47,12.74,7.09,25.26,14.58,37.97,21.73,3.55,1.99,5.17,4.31,5.08,8.63-.29,15.33-.38,30.67.04,45.98.13,4.79-1.81,7.37-5.43,9.47-14.2,8.23-28.42,16.44-42.62,24.68-.83.48-1.62.69-2.39.69-1.08,0-2.13-.41-3.22-1.04-13.3-7.71-26.72-15.21-39.89-23.13-1.54-.93-2.88-1.35-4.17-1.35-1.45,0-2.85.53-4.43,1.46-11.29,6.65-22.69,13.1-34.01,19.69-4.32,2.52-7.3,3.83-10.12,3.83-3.17,0-6.15-1.65-10.65-5.08-5.04-3.85-10.68-6.57-16.25-9.52-6.84-3.62-13.3-7.94-19.92-11.95-1.99-1.21-2.21-3.11-2.2-5.2.05-8.5.02-17,.02-25.49,0-8.17.1-16.33-.05-24.49-.06-3.03,1.02-4.87,3.66-6.4,13.52-7.83,26.89-15.9,40.44-23.68,2.6-1.49,3.17-3.23,3.15-5.97-.11-15,.04-29.99-.11-44.99-.04-3.59,1.28-5.59,4.32-7.58,13.6-8.89,28.38-15.7,42.14-24.27,1.41-.88,2.68-1.32,3.95-1.32m-43.87,78.99c12.5-7.28,24.49-14.26,37.04-21.57-12.5-7.87-24.31-14.74-37.04-21.64v43.21m86.55-1.16c.93,0,1.35-.84,1.34-2.61-.04-11.96-.03-23.93,0-35.89,0-1.76-.41-2.64-1.37-2.64-.49,0-1.13.23-1.93.69-11.13,6.43-22.28,12.82-34.45,19.82,12.1,6.99,23.29,13.45,34.47,19.93.8.46,1.43.7,1.93.7m-47.34,27.9c1.12,0,1.47-1.41,1.47-3.02-.01-6.67,0-13.33,0-20,0-6.39,0-12.78,0-20.01-12.91,7.47-24.9,14.42-37.46,21.69,11.65,7.63,23.61,13.12,34.33,20.65.68.48,1.23.69,1.66.69m8.95-.4c.52,0,1.27-.28,2.31-.9,10.05-5.99,20.21-11.82,30.4-17.58,2.43-1.38,3.46-2.04.41-4.14-10.1-6.97-21.5-11.71-31.66-18.56-.67-.45-1.18-.65-1.56-.65-1,0-1.14,1.31-1.13,2.73.03,6.15.01,12.31,0,18.46,0,5.82.04,11.64-.02,17.47-.02,1.9.12,3.17,1.24,3.17m42.98,29.3c.1,0,.2,0,.3,0,.24-.1.88-.29,1.44-.61,12.13-6.86,24.29-13.69,36.37-20.64,3.16-1.81.61-2.85-.86-3.7-11.6-6.71-23.24-13.36-34.85-20.06-.89-.51-1.73-.95-2.64-.95-.49,0-.99.13-1.53.44-12.27,7.01-24.57,13.97-36.78,21.07-1.29.75-2.74,2.22.01,3.54,11.87,5.67,22.79,13.02,34.32,19.29,1.24.67,2.35,1.64,4.2,1.64m-50.62,26.02v-43.31c-12.86,7.45-24.94,14.44-37.61,21.78,12.92,7.4,25.02,14.33,37.61,21.53m-48.45,26.53c.27,0,.55-.06.82-.19,1.21-.57.59-2.09.6-3.17.04-13.13,0-26.27.06-39.4,0-1.95-.71-2.95-2.28-4.34-4.43-3.94-10.01-5.73-14.86-8.83-7.47-4.78-15.28-9.03-22.9-13.47-1.32,1.62-.93,2.99-.93,4.25-.03,12.8.11,25.6-.1,38.4-.05,3.38,1.31,4.95,4.08,6.51,10.99,6.19,21.85,12.62,32.72,19.03.92.54,1.85,1.2,2.79,1.2m103.75-.44c.72,0,1.71-.43,2.97-1.17,11.3-6.61,22.66-13.14,34.06-19.58,1.88-1.07,2.48-2.41,2.47-4.43-.04-13.49-.04-26.97-.02-40.46,0-1.75-.12-2.93-1.15-2.93-.49,0-1.18.26-2.16.84-11.45,6.79-22.99,13.41-34.57,19.97-2.34,1.33-3.2,2.94-3.13,5.6.17,6.32.05,12.65.05,18.98h-.02c0,6.49.17,12.99-.06,19.48-.09,2.63.4,3.7,1.54,3.7m-95.2.42c.47,0,1.16-.31,2.15-.9,9.72-5.77,19.63-11.21,29.43-16.84,5.48-3.14,5.45-3.18-.28-6.45-10.49-5.98-20.98-11.98-32.23-18.4,0,13.82.02,26.97-.01,40.12,0,1.69.2,2.47.95,2.47M105.55,0c-2.78,0-5.45.83-8.18,2.53-6.14,3.83-12.7,7.41-19.05,10.87-7.69,4.19-15.64,8.53-23.24,13.5-3.45,2.25-8.02,6.19-7.94,14.36.08,7.96.07,16.08.07,23.93,0,6.72,0,13.66.04,20.51-7.13,4.1-14.3,8.33-21.24,12.43-6.01,3.55-12.23,7.22-18.35,10.76C2.47,111.88-.1,116.42,0,122.35c.11,5.76.09,11.66.07,17.36,0,2.33-.02,4.66-.02,6.98,0,2.55,0,5.11,0,7.66,0,5.84,0,11.87-.03,17.79-.01,2.08-.05,8.4,6.05,12.09,1.97,1.19,3.97,2.45,5.92,3.66,4.62,2.89,9.4,5.87,14.41,8.52.87.46,1.74.91,2.6,1.37,4.53,2.36,8.81,4.6,12.53,7.44,5.43,4.15,9.92,6.72,15.5,6.72,4.76,0,8.94-1.88,14.15-4.92,4.81-2.8,9.73-5.63,14.48-8.37,6.42-3.69,13.05-7.51,19.56-11.34.13-.08.25-.14.35-.2.02.01.05.03.08.04,8.99,5.41,18.2,10.69,27.12,15.79,4.23,2.42,8.61,4.93,12.89,7.41,2.47,1.43,4.83,2.12,7.23,2.12,2.22,0,4.38-.6,6.4-1.77,8.04-4.67,16.09-9.33,24.14-13.98,6.16-3.56,12.32-7.12,18.47-10.69,6.54-3.79,9.62-9.22,9.42-16.61-.36-13.31-.37-27.8-.04-45.62.13-7.05-2.86-12.2-9.16-15.75-5.8-3.26-11.68-6.67-17.37-9.96-6.73-3.9-13.69-7.92-20.63-11.79-.07-.04-.13-.07-.18-.1,0-.08,0-.17,0-.27.09-6.73.08-13.54.07-20.13-.01-7.66-.03-15.57.12-23.31.14-7.07-2.61-12.19-8.64-16.12-2.05-1.33-4.12-2.38-5.95-3.3-1.21-.61-2.35-1.19-3.4-1.79-4.08-2.37-8.17-4.73-12.26-7.09-6.71-3.87-13.66-7.87-20.41-11.87-2.66-1.58-5.26-2.35-7.93-2.35h0Zm22.3,65.22c4.67-2.68,9.21-5.29,13.71-7.88,0,5.73-.01,10.92,0,15.8-4.51-2.61-9.06-5.23-13.7-7.92h0Zm-58.17,7.86v-15.71c4.57,2.59,9.03,5.2,13.47,7.87l-13.47,7.84h0Zm10.92,19.47l11.45-6.63,2.3-1.33v6.13s0,6.17,0,6.17c0,1.18,0,2.35,0,3.53-3.15-1.88-6.33-3.67-9.45-5.43-1.42-.8-2.86-1.61-4.3-2.43h0Zm36.02,7.95c0-.92,0-1.83,0-2.73,0-1.69,0-3.38,0-5.07v-4.46c0-1.15,0-2.32,0-3.49,2.11,1.18,4.22,2.33,6.3,3.45,2.63,1.43,5.2,2.81,7.69,4.24-5.09,2.91-9.68,5.55-13.98,8.07h0Zm11.07,19.16c5.73-3.29,11.46-6.56,17.08-9.76,2.64-1.5,5.28-3.01,7.91-4.51,4.88,2.82,9.77,5.63,14.66,8.43,3.4,1.95,6.85,3.94,10.32,5.93-6.56,3.74-13.14,7.45-19.57,11.08l-5.61,3.17s-.04-.02-.05-.03c-4.37-2.38-8.78-4.99-13.05-7.52-3.82-2.26-7.71-4.57-11.7-6.79h0Zm36.32,33.75c9.34-5.29,17.48-9.97,24.97-14.35,0,10.44,0,19.97.03,28.87-8.55,4.84-16.89,9.63-24.93,14.29,0-1.65-.02-3.28-.03-4.9-.01-1.74-.03-3.48-.03-5.22.01-.18.02-.35.02-.53,0-1.81,0-3.61.02-5.42.02-4.16.04-8.45-.05-12.74h0Zm-141.83,14.58c.13-8.42.11-16.93.09-25.17,0-1.25,0-2.49,0-3.74,3.88,2.24,7.79,4.54,11.52,6.92,2.19,1.4,4.35,2.5,6.45,3.56,2.6,1.32,5.07,2.57,6.99,4.15-.02,6.47-.02,13.02-.03,19.37,0,3.13,0,6.26,0,9.38-8.22-4.85-16.62-9.76-25.02-14.49h0Zm58.45-20.9l13.57-7.86v15.63l-13.57-7.77h0Zm-11.25,35.06c0-5.19,0-10.41,0-15.78,4.69,2.68,9.29,5.31,13.86,7.92-1.24.7-2.48,1.4-3.71,2.1-3.34,1.89-6.75,3.81-10.16,5.77h0Z"/>
    </g>
  </g>
</svg>