<?xml version="1.0" encoding="UTF-8"?>
<svg id="Camada_2" data-name="Camada 2" xmlns="http://www.w3.org/2000/svg" viewBox="0 0 677.33 702.71">
  <defs>
    <style>
      .cls-1 {
        stroke: #2b8e2d;
        stroke-miterlimit: 10;
      }

      .cls-1, .cls-2 {
        fill: #2b8e2d;
      }

      .cls-3 {
        fill: #e6ffbb;
      }
    </style>
  </defs>
  <g id="_2" data-name="2">
    <g id="br">
      <path class="cls-3" d="m76,113.62c0-16.1,0-32.2,0-48.3,0-5.44.41-5.89,5.84-5.92,7.44-.04,14.88-.03,22.32,0,4.25.01,7.88,1.29,10.86,4.61,3.4,3.8,7.14,7.3,10.79,10.87,2.41,2.35,5.21,3.86,8.72,3.83,5.22-.05,10.43-.05,15.65,0,3.67.04,6.52-1.75,8.98-4.12,6-5.77,11.84-11.71,17.78-17.54.79-.78,1.1-1.62,1.11-2.64,0-2.82-.63-5.4-2.82-7.4-1.06-.97-2.05-2.03-3.03-3.09-1.52-1.65-2.45-3.49-2.36-5.85.13-3.55-.05-7.11.12-10.65.13-2.73.46-3.02,3.16-3.04,7.88-.08,15.76-.13,23.64-.04,4.02.05,7.83-.28,11.44-2.39,1.79-1.05,3.08-2.54,4.44-3.91,3.58-3.63,7.23-7.19,10.85-10.78,1.94-1.92,4.3-2.94,6.92-3.41,2.98-.53,5.98-.32,8.96,0,2.53.26,3.49,1.27,3.76,3.74.13,1.21.11,2.44.11,3.66.05,13.1.08,26.2.14,39.3,0,1.11.14,2.21.28,3.31.31,2.5,1.47,3.92,3.93,3.94,6.64.03,13.26,1.08,19.91.3,1.21-.14,2.44-.11,3.66-.11,16.1,0,32.2.03,48.3-.03,3.57-.01,6.98,1.33,10.54,1.04,6.85-.55,13.72-.1,20.56-.49,2.64-.15,4.95-1.52,6.85-3.4,3.94-3.91,7.8-7.9,11.81-11.74,2.18-2.09,3.27-4.66,3.39-7.51.16-3.95,1.34-7.2,4.47-9.82,2.37-1.98,4.33-4.45,6.59-6.57,2.05-1.93,3.7-1.89,5.26.37,1,1.44,2.64,1.89,3.67,3.22,3.09,3.98,4.95,8.34,4.27,13.43-.61,4.56-.29,9.09-.07,13.63.24,4.73,1.78,6.22,6.48,6.47.33.02.67,0,1,.03,2.65.33,3.59,1.13,3.95,3.76.33,2.42.4,4.87.08,7.31-.59,4.5,1.41,7.82,4.38,11.02,3.09,3.31,6.31,6.49,9.39,9.8,3.79,4.07,8.28,6.11,13.95,5.97,8.1-.21,16.21-.04,24.31-.06,3.92,0,7.11,1.09,9.68,4.45,2.34,3.06,5.41,5.55,8.15,8.3,2.3,2.3,2.3,3.93,0,6.24-4.77,4.79-9.54,9.57-14.34,14.34-1.77,1.76-2.56,3.95-2.91,6.33-.5,3.41-.42,6.86-.32,10.29.11,3.66-1.17,6.59-3.79,9.13-4.54,4.4-8.86,9.04-13.48,13.35-3.65,3.4-5.18,7.44-5.09,12.33.1,5.88.04,11.77.08,17.65.03,3.7-1.1,6.76-4.03,9.27-4.33,3.71-6.56,8.52-6.77,14.31-.19,5.11.03,10.21.12,15.31.07,3.83-1.54,6.69-4.22,9.2-2.23,2.09-4.37,4.28-6.47,6.5-3.79,4.02-8.33,5.97-13.91,5.42-1.87-.19-3.77-.07-5.66-.07-28.09,0-56.18,0-84.28-.01-1.88,0-3.76.06-5.65-.04-3.06-.17-5.4-1.59-7.44-3.63-9.37-9.32-18.7-18.67-28.04-28.02-.78-.78-1.49-1.58-2-2.6-.43-.86-1.25-1.79-2.36-1.29-1.21.55-2.78.86-2.68,2.85.12,2.44.03,4.88.03,7.33,0,1.22.04,2.44-.01,3.66-.15,3.41-1.02,4.32-4.37,4.39-3.11.07-6.22.02-9.33.02-8.99,0-17.99.08-26.98-.04-2.75-.04-4.39.85-5.82,3.3-1.57,2.68-2.2,5.37-2.19,8.37.03,6.55,0,13.1.02,19.65,0,1.11.02,2.23.2,3.32.45,2.71,2.42,4.3,5.13,4.31,4.77.01,9.55.03,14.32.05,2.93.01,4.72,1.57,4.73,4.5.03,8.44.16,16.88-.18,25.31-.21,5.2-2.77,9.23-7.69,11.65-1.85.91-3.64,1.22-5.59,1.21-3.11-.01-6.23-.16-9.32.05-4.05.28-7.16-1.32-9.89-4.09-4.21-4.27-8.52-8.44-12.69-12.75-2.49-2.58-5.56-3.73-8.98-3.9-3.65-.18-7.34-.27-10.98,0-2.96.21-5.05-1.18-6.92-2.99-4.3-4.16-8.27-8.68-12.72-12.66-3.98-3.56-5.83-7.85-5.18-12.91.58-4.56-1.59-6.65-5.26-8.3-1.03-.46-1.88-.39-2.83-.37-4.86.08-9.7,1.31-14.57.53-4.08-.65-8.18-.54-12.28-.69-3.39-.12-6.44.73-9.2,2.74-.73.53-1.42,1.08-1.89,1.82-3.17,4.96-8.04,6.77-13.51,6.6-9.77-.31-19.53-.3-29.3-.06-.22,0-.44,0-.67,0-4.35-.1-4.94-.75-4.81-5.1.06-1.99-.04-3.99-.05-5.99-.02-4.57-2.21-6.91-7.25-7.06-3.77-.11-7.55,0-11.32-.01-4.44-.02-8.88,0-13.32-.16-4.27-.16-7.23-3.05-7.78-7.25-.4-3.04-.75-6.05-2.59-8.75-1.55-2.29-3.78-3.65-5.9-5.15-1.51-1.07-2.29-2.3-2.53-4.01-.5-3.62-.99-7.24-.87-10.92.12-3.88.07-7.77.02-11.65-.06-4.03,1.05-7.41,4.09-10.35,7.82-7.56,15.55-15.23,23.06-23.1,2.82-2.95,5.97-3.68,9.73-3.65,8.99.07,17.98.04,26.97,0,.72,0,1.42.08,2.22-.18,3.85-1.25,4.78-2.24,5.2-6.49.15-1.54.12-3.11.12-4.66,0-15.32,0-30.65,0-45.97Z"/>
      <path class="cls-3" d="m478.74,275.74c.04,6.54.12,13.08.11,19.62,0,4.43.33,8.85-.45,13.27-.54,3.09.54,6.15.53,9.25-.03,8.22-.1,16.43.02,24.65.08,5.11-1.6,9.14-5.35,12.77-3.48,3.37-7.43,6.26-10.54,9.98-2.2,2.62-4.9,4.93-5.63,8.6-.17.84-.38,1.62-.38,2.49,0,6.11-.2,12.22-.02,18.31.12,4.05-1.56,7.19-4.13,9.93-3.41,3.63-6.96,7.15-10.6,10.57-2.7,2.54-6.08,3.79-9.7,4.49-5.2,1.01-10.4.17-15.6.17-2.44,0-4.92.21-7.32-.14-3.51-.52-5.62,1.36-7.53,3.74-.77.96-.91,1.99-.79,3.45.41,5.03.77,10.14-.46,15.15-.37,1.51-1.13,2.93-2.39,3.86-4.2,3.12-7.63,7.05-11.31,10.71-12.9,12.85-25.74,25.76-38.58,38.67-2.02,2.03-4.02,4.11-5.89,6.28-2.9,3.36-6.67,4.46-10.89,4.46-2.32,0-4.62-.2-6.95.11-1.64.22-2.91-.78-3.32-2.37-.34-1.3-.39-2.63-.39-3.96.01-5.66.08-11.33-.03-16.99-.11-5.52-1.66-7.05-7.24-7.1-9.66-.08-19.32-.02-28.98-.03-1,0-2,.03-3-.02-3.46-.18-3.61-.26-3.76-3.58-.14-3.33-.16-6.66-.16-9.99.02-12.32.05-24.65.13-36.97.04-5.65.24-11.32.21-16.95-.06-10.75.02-21.51-.34-32.26-.18-5.34-.87-7.69-8.66-8.13-4.32-.24-8.66-.1-12.99-.05-1.97.02-3.59-.55-5.01-1.96-5.13-5.07-10.34-10.06-15.23-15.36-.7-.76-1.08-1.42-1.07-2.55.08-7.55.08-15.09-.02-22.64-.02-1.36.4-2.28,1.31-3.17,1.43-1.39,2.87-2.78,4.17-4.29,2.68-3.12,3.67-6.98,3.77-10.91.21-7.99.04-15.99.01-23.98-.02-5.44-1.85-7.95-7.97-8.25-3.88-.19-7.77-.03-11.66-.06-1,0-1.99-.12-2.99-.14-1.2-.03-1.86-.62-1.98-1.79-.09-.88-.19-1.77-.19-2.65-.02-7.44-.01-14.88,0-22.31,0-.78.08-1.55.12-2.32.08-1.4.64-2.3,2.2-2.34,1.33-.03,2.65-.25,3.98-.25,10.99-.02,21.98,0,32.98-.02,1.22,0,2.45.03,3.66-.1,4.25-.48,5.53-1.79,5.76-6.14.15-2.88.03-5.77.03-8.65,1.58-.64,2.3.48,3.11,1.29,8,8.01,16,16.03,23.98,24.06,2.17,2.18,4.3,4.38,7.23,5.65,2.03.88,4.05,1.54,6.27,1.54,7.55,0,15.1,0,22.65,0,23.32.02,46.63,0,69.95.08,4.32.01,8.5-.95,12.74-1.45.29-.03.69-.21.8-.44,1.58-3.06,4.76-4.47,7.04-6.81,2.14-2.21,4.07-4.6,6.07-6.91,2.17-2.51,2.79-5.85,2.8-9.21,0-5.77.1-11.55,0-17.32-.06-2.9,1.04-5.15,3.23-6.82,6.3-4.81,8.23-11.4,8-18.94-.02-.55-.05-1.11-.02-1.66.22-3.82,2.69-5.76,6.25-4.4,3.42,1.3,3.32.27,3.35,4.55.05,7.1.08,14.19,0,21.29-.01,1.22.62,1.97,1.14,2.87,1.85,3.24,4.68,5.6,7.27,8.17,2.33,2.31,4.68,4.58,5.9,7.76.57,1.49.78,2.98.79,4.53.02,3.11.06,6.22.01,9.33-.04,3.32,1.35,5.95,3.75,8.11,1.73,1.56,3.4,3.12,4.63,5.16,2.99,4.99,4.56,10.25,3.57,16.1-.92.42-.93.86-.04,1.33Z"/>
      <path class="cls-3" d="m482.27,306.42c0-12.32.01-24.65,0-36.97,0-2.72.54-5.41-.5-8.17-.61-1.61-1.35-2.92-2.53-4.1-2.51-2.48-4.97-4.99-7.16-7.78-1.79-2.27-2.21-4.74-2.08-7.45.04-.89.15-1.77.26-2.65.99-8.01-2.31-14.16-8.46-18.91-4.95-3.82-6.94-8.86-6.81-14.91.08-3.43.55-6.86.33-10.3-.13-1.99-.11-3.99-.23-5.99-.25-4.01-1.88-5.74-5.9-6.16-1.2-.13-2.44.06-3.65.05-2.09-.02-2.57-.56-3.32-2.54-.92-2.47.04-4.82.16-7.22.01-.3.26-.5.51-.74,5.44-5.32,10.35-11.16,16.15-16.15,3.37-2.9,4.99-6.98,5.24-11.46.15-2.77.2-5.56-.01-8.32-.23-2.98.95-5.31,2.89-7.3,4.65-4.76,9.34-9.5,14.16-14.09,1.12-1.07,2.36-2.26,3.97-2.72,2.65-.75,5.03-.17,7.05,1.7,4.05,3.74,8.12,7.45,11.78,11.62,2.44,2.77,5.62,4.66,9.68,4.59,6.66-.12,13.32-.04,19.98-.01,5.99.02,10.43,2.8,13.35,7.92.76,1.32,1.7,2.18,2.97,2.81,1.07.53,1.91.82,3.27.02,1.71-1.01,3.92-.46,5.84.05,2.3.61,4.52.71,6.81-.05,1.02-.34,2.18-.34,3.28-.35,6.66-.03,13.32.03,19.98-.03,3.36-.03,6.09,1.01,8.48,3.49,5.95,6.14,12.06,12.12,18.13,18.14,1.01,1,2.2,1.83,3.22,2.83,2.35,2.31,4.77,4.53,6.62,7.35,1.12,1.7,2.45,3.27,4.73,4.17,1.45.57,2.73,2.03,4.54,2.48.84.21,1.59.45,2.49.45,6.1-.05,12.21.11,18.31-.06,4.14-.11,7.39,1.48,10.2,4.3.31.31.59.68.95.93,6.71,4.83,7.31,11.83,6.82,19.21-.4,5.98-.15,11.97-.14,17.96.02,5.55-.09,11.1.26,16.64.39,6.31-3,10.68-7.62,14.38-4.99,4-9.65,8.39-13.87,13.17-1.43,1.62-3.26,2.54-4.73,3.98-.59.58-1.58,1.01-1.95,1.72-1.93,3.71-5.48,5.89-8.18,8.86-8.6,9.47-17.8,18.35-26.82,27.41-1.72,1.73-3.47,3.44-5.26,5.09-3.28,3-4.75,6.72-4.74,11.13.05,20.32.05,40.63.12,60.95.01,3.85-.01,7.58-1.8,11.21-1.27,2.58-3.13,4.49-5.18,6.29-.89.78-1.89.96-3.09-.15-3.65-3.39-3.94-3.67-3.96-8.7-.03-8.33,0-16.65-.01-24.98,0-1.33.07-2.69-.37-3.96-1.13-3.25-3.73-5.18-7.28-5.26-3.44-.08-6.93-.37-10.31.06-5.01.62-8.51-1.52-11.57-5.05-5.3-6.1-11.19-11.64-16.81-17.44-3.25-3.35-7.18-4.77-11.72-4.82-3.66-.04-7.33.07-10.99-.03-4.58-.11-8.57,1.14-11.53,4.79-2.43,3-5.66,5.13-8.2,8.08-2.32,2.7-5.94,3.72-9.73,3.64-5.68-.12-5.98-.29-5.99-6-.02-12.21,0-24.43,0-36.64Z"/>
      <path class="cls-3" d="m404.91,442.33c.02-4.52.07-9.05.06-13.57-.02-4.94-.04-4.95,4.91-4.96,7.11-.01,14.21-.08,21.32.02,5.82.08,10.26-2.27,14.08-6.63,3.05-3.48,6.46-6.67,9.92-9.78,3.58-3.22,5.49-7.52,5.61-12.39.15-6.33.17-12.66.04-18.99-.05-2.27.73-3.95,2.24-5.46,3.3-3.3,6.61-6.58,9.88-9.9,1.99-2.02,3.66-4.34,6-6.02,2.08-1.5,4.34-2.56,6.9-2.27,7.24.81,12.81-2.22,17.56-7.29,1.74-1.86,3.49-3.73,5.28-5.55,2.11-2.15,4.65-3.24,7.72-3.16,2.55.07,5.13.16,7.65-.14,3.74-.44,7.11.97,10.59,1.8,1.2.28,2.46,1.05,3.31,1.95,5.79,6.18,12.17,11.77,17.93,17.97,3.7,3.98,8.09,5.83,13.46,5.66,3.11-.09,6.22-.05,9.33,0,3.34.05,4.25.87,4.26,4.1.04,8.66,0,17.32-.02,25.98,0,.44.11.99-.1,1.31-1.86,2.86.37,4.72,1.68,6.72.65,1,1.65,1.81,2.62,2.54,2.48,1.89,3.34,4.58,3.59,7.46.25,2.76.26,5.55.19,8.32-.06,2.87-1.59,5.2-3.33,7.32-1.11,1.35-2.51,2.48-3.82,3.67-3.71,3.38-5.1,7.6-4.53,12.5.47,3.98-.52,7.54-3.5,10.17-4.87,4.3-8,9.38-8.92,15.92-.29,2.06-1.45,4.03-3.12,5.61-2.82,2.67-5.57,5.43-8.21,8.28-2.88,3.11-6.29,4.45-10.55,4.38-9.77-.15-19.54-.05-29.32-.05-3.77,0-7.34.64-10.5,2.94-.54.39-.99.81-1.45,1.26-4.09,4.07-8.17,8.14-12.28,12.19-1.57,1.54-3.49,2.66-5.03,4.26-1.25,1.29-3,1.05-4.65,1.03-2.72-.04-5.47-.32-7.94,1.35-1.54,1.04-3.18,1.91-4.44,3.32-3.61,4.03-7.62,7.65-11.29,11.63-2.26,2.45-4.83,4.78-7.35,7.07-.85.77-1.69,1.18-2.56.25-3.79-4.12-8.55-7.38-11.09-12.6-.23-.48-.65-.92-.7-1.42-.11-1.09.1-2.28-1.06-2.95-1.51-.86-2.97-1.83-4.83-1.81-1.55.01-3.11.02-4.66-.09-1.3-.09-2.69-.02-3.66-1.18-.16-.27-.31-.54-.47-.81-.05-3.66-.3-7.33-.11-10.97.34-6.62-4.33-14.65-11.2-16.49-1.91-.51-3.73-1.1-5.71-1.1-11.65,0-23.29,0-34.94,0-.78,0-1.55-.01-2.33,0-1.33.02-1.14-.97-.8-1.57.41-.74,1.12-1.33,1.79-1.89,4.32-3.63,8.07-7.84,12.1-11.77,4.84-4.72,9.64-9.48,14.46-14.22,2.58-2.54,4.72-5.54,7.91-7.47,1.04-.63,1.77-1.69,1.48-3.09q.88-.8.58-1.35Z"/>
      <path class="cls-2" d="m352.84,561.61c1.54-5.65.2-10.71-3.1-15.4-.52-.74-1.08-1.45-1.81-1.9-5.12-3.14-6.99-7.91-6.97-13.65.03-6.99.11-13.97.16-20.96.15-.27.3-.54.45-.82.71-2.31,2.43-3.85,4.06-5.48,4.02-3.99,8.03-7.99,12-12.02,2.56-2.6,5.55-3.91,9.27-3.88,12.66.09,25.32.17,37.97.04,7.59-.08,13.16,5.63,13.33,13.19.08,3.44-.02,6.88.03,10.33.07,4.93,1.6,6.49,6.49,6.67,1.33.05,2.66-.01,3.99,0,2.78.01,4.61.97,5.3,3.57,1.31,4.98,4.89,8.19,8.45,11.38,1.26,1.13,1.92,2.52,2.84,3.79.47.65.32,1.33-.27,2.07-.94,1.19-1.77,2.48-2.95,3.44-3.76,3.07-5.05,7.3-5.2,11.85-.23,6.77-.12,13.54-.14,20.31-.01,3.44-.02,6.88,0,10.33.03,3.26-1.13,6.05-3.41,8.32-5.02,4.98-10.1,9.89-15.15,14.84-2.95,2.89-4.38,6.32-4.09,10.54.18,2.59-.69,5.05-2.44,6.97-3.08,3.38-4.72,7.25-4.78,11.82-.05,3.56-1.8,6.11-4.61,8.13-1.05-1.25-.09-2.24.19-2.63,1.33-1.87.54-3.3-.69-4.52-1.41-1.4-3.12-2.55-5.29-1.81-2.02.68-3.97,1.52-5.53,3.08-4.54,4.56-9.14,9.06-13.65,13.65-1.68,1.71-2.24,3.92-2.41,6.27-.37,5.21-.42,10.44-.18,15.64.2,4.15-1.16,7.58-3.84,10.44-4.09,4.37-8.44,8.49-12.69,12.71-.13.13-.4.12-.62.17-.92-.32-.53-1.11-.54-1.68-.04-3-.22-6.01.03-8.99.42-5.05-1.6-9.15-4.69-12.77-1.92-2.25-4.24-4.18-6.42-6.22-5.58-5.24-11.08-10.57-16.17-16.3-3.02-3.39-6.27-6.31-10.51-8.21-2.49-1.12-4.94-1.2-7.4-1.01-3.19.24-5.37-1.29-7.18-3.45-2.65-3.17-5.52-6.12-8.45-9.02-1.18-1.17-2.4-2.29-3.62-3.43-2.28-2.12-2.36-4.15-.12-6.36,6.36-6.25,12.78-12.43,19.13-18.69,5.61-5.54,11.13-11.17,16.74-16.71,2.91-2.87,5.97-5.6,8.89-8.46,1.83-1.8,3.99-2.55,6.49-2.54,1.67,0,3.33.02,5-.01.6-.01,1.31.21,1.58-.73,1-3.49,2.78-6.79,2.49-10.59.39-.43.74-.87.04-1.34Z"/>
      <path class="cls-1" d="m1.06,219.68c.73-3.86.38-7.74.13-11.61-.11-1.67.11-3.28.34-4.94.49-3.45,2.36-6.1,4.63-8.43,5.96-6.13,11.98-12.19,18.14-18.11,2.29-2.2,4.65-4.35,6.99-6.51,2.59-2.39,6.02-2.92,9.49-2.91,7.99.02,15.98,0,23.97,0,.89,0,1.78,0,2.66,0,4.54-.03,4.93-.39,4.93-4.94,0-31.52,0-63.03.01-94.55,0-2,.05-3.99.15-5.99.16-3.24,1.71-4.81,4.92-5.27,3.21-.46,6.42-.22,9.64-.26,6.1-.07,12.2-.09,18.31-.11,4.75-.02,8.71,1.91,11.97,5.23,3.41,3.47,7.01,6.74,10.17,10.47,2.37,2.8,5.69,3.93,9.41,3.72,3.77-.21,7.54-.15,11.31-.03,3.33.11,6.11-1.12,8.48-3.53,5.6-5.7,11.23-11.37,16.98-16.92,2.05-1.98,1.74-2.94-.29-4.45-4.36-3.26-6.64-7.54-7.09-12.97-.33-4.01-.13-7.98.17-11.96.17-2.27,2.04-4.29,4.33-4.45,3.21-.21,6.43-.3,9.64-.31,5.77-.01,11.54.11,17.31.11,5.31,0,9.35-2.11,13.01-6.21,4.79-5.37,9.51-11.05,16.27-14.27,5.57.01,11.13.02,16.7.03,2.27,2.32,3.02,5.16,3.01,8.33-.03,13.1,0,26.2,0,39.3,0,.89-.03,1.78.02,2.66.21,3.24.62,3.64,3.99,3.79,3.76.17,7.55.01,11.24,1.02.6.16,1.36.13,1.95-.09,2.76-1.05,5.63-.95,8.5-.93,15.65.09,31.31-.29,46.96.19,9.54.29,19.09.38,28.63.55,3.13.06,5.66-1.19,7.89-3.39,3.23-3.18,6.26-6.56,9.78-9.46,2.62-2.16,4.13-5.19,3.85-8.65-.29-3.48,1.15-6,3.39-8.4,2.78-2.98,5.66-5.87,8.65-8.63,3.18-2.95,5.36-3.26,8.65-.61,2.66,2.14,5.07,4.67,7.24,7.31,2.34,2.85,2.82,6.49,2.92,10.05.15,5.44.03,10.88.05,16.32.01,2.47.6,3.04,3.03,3.31,1.3.14,2.6.3,3.9.51,2.95.48,4.03,2.26,4.48,4.85.25,1.43.3,2.86.15,4.31-.19,1.76-.14,3.56-.43,5.31-.77,4.72,1.97,7.7,5.22,10.23,1.86,1.45,3.37,3.07,4.88,4.85,3.85,4.52,8.6,7.74,14.74,7.92,8.09.24,16.19-.44,24.3-.11,4.54.18,8.49,1.45,11.66,4.92,3.37,3.68,6.95,7.17,10.36,10.82,1.15,1.23,2.37,1.95,4.08,1.64,1.49-.27,2.87.22,4.08.95,2.49,1.5,5.11,2.82,7.1,5.09,2.68,3.07,5.87,5.65,8.39,8.91,1.92,2.49,4.5,3.84,7.97,3.67,6.42-.32,12.86-.07,19.29-.24,5.58-.15,10.72,2.02,14.22,6.89.64.89,1.32,1.74,1.94,2.63.87,1.24,2.13,1.65,3.46,1.18,1.44-.5,2.85-.38,4.27-.24,4.54.45,9.09.37,13.64.11,5.77-.32,11.54-.46,17.31-.3,4.89.14,9.22,2.13,12.62,5.39,8.57,8.22,16.82,16.77,25.23,25.16,1.62,1.62,2.59,3.7,4.34,5.27,3.38,3.01,7.45,3.32,11.57,3.44,5.21.15,10.44.07,15.65.02,2.71-.03,5.01.67,7.24,2.38,4.26,3.27,8.46,6.49,10.69,11.6.15.34.67.51,1.01.76v54.64c-1.28.74-1.85,2.1-2.81,3.11-5.17,5.46-10.31,10.96-15.72,16.19-3.48,3.36-7.69,6.01-10.74,9.78-3.76,4.66-8.07,8.78-12.17,13.08-5.66,5.93-11.6,11.6-17.49,17.3-3.89,3.77-7.38,7.92-11.41,11.58-1.59,1.44-2.37,3.54-2.4,6.05-.2,21.53-.33,43.05.04,64.58.07,3.76-.4,7.39-2.18,10.81-1.21,2.31-3.03,4.07-4.96,5.68-2.19,1.84-3.34,3.8-2.98,6.83.45,3.78.26,7.71-.51,11.38-.69,3.26-1.96,6.62-4.43,9.18-1,1.03-2.07,2.01-3.2,2.91-2.44,1.92-3.44,4.27-3.17,7.46.65,7.66-2.45,13.81-8.4,18.5-1.22.97-2.09,2.26-3.39,3.11-.89.58-.83,1.51-.72,2.39.63,5.2-1.19,9.34-5.09,12.8-2.81,2.49-5.5,5.17-7.97,7.99-3.02,3.45-7,4.49-11.19,4.57-9.65.17-19.31.14-28.97-.07-5-.11-9.28,1.24-12.66,4.89-3.29,3.55-6.78,6.91-10.01,10.53-3.42,3.84-7.55,7.02-13.43,6.33-4.31-.51-7.51,1.86-10.23,4.9-4.8,5.38-9.43,10.93-15.51,14.98-2.21,3.44-6.1,5.33-8.23,8.81-1.23,2-2.91,3.59-4.81,4.65-2.03,1.13-2.38,2.65-2.36,4.58.03,4.11.04,8.21.1,12.32.1,6.88.36,13.76.29,20.64-.04,4.06-1.28,7.85-4.2,10.88-5.46,5.66-10.89,11.35-16.46,16.9-1.65,1.64-2.37,3.3-2,5.59.68,4.2-.97,7.82-3.6,10.8-2.1,2.38-3.27,4.87-3.15,7.94.15,3.99-1.59,7.23-4.16,9.92-5.91,6.17-12.05,12.12-18.1,18.16-1.08,1.07-2.25,2.21-3.89,1.59-1.41-.54-1.74-2.53-1.04-4.71.48-1.49,1.24-2.72,2.43-3.81,4.33-3.93,8-8.5,12.03-12.71.23-.24.55-.46.65-.74.34-.97,1.58-1.78.74-2.96-.96-1.35-2.4-.99-3.62-.57-.87.3-1.65,1-2.33,1.67-4.19,4.13-8.33,8.31-12.5,12.45-1.79,1.78-2.72,3.73-2.59,6.41.23,4.65-.27,9.35.13,13.98.49,5.71-2.03,9.94-5.7,13.71-4.44,4.56-9.13,8.87-14.02,12.94-.4.33-.37.77-.41,1.2h-3.33c-.92-1.52-1.36-3.14-1.31-4.96.09-3.33-.11-6.67.04-9.99.21-4.44-1.31-7.87-4.6-10.98-5.79-5.47-11.2-11.34-16.78-17.04-3.48-3.55-7.28-6.76-10.72-10.36-1.74-1.82-4.22-2.62-6.89-2.42-3.94.29-7.71-.37-10.75-3.02-3.08-2.68-6.03-5.53-8.81-8.51-1.43-1.53-2.76-3.22-4.42-4.46-1.21-.91-1.89-2.06-2.58-3.24-1.71-2.95-1.39-5.03.96-7.42.54-.55,1.1-1.1,1.64-1.65,14.13-14.13,28.29-28.24,42.39-42.42,3.34-3.36,7.2-5.11,11.94-4.83.11,0,.22.01.33.01,3.93.02,4.12-.16,4.16-4.07.02-2,.2-3.97.46-5.96.71-5.24-.38-9.94-4.47-13.7-2.18-2.01-4.46-4.01-5.89-6.68-2.29-4.28-2.96-8.91-2.43-13.67.55-4.99.12-9.99.29-14.97.03-1.06-.33-1.43-1.43-1.71-1.4-.36-2.76-.53-4.19-.52-3,.02-5.99,0-8.99-.04-2.98-.04-4.52-1.96-4.78-5.04-.6-6.98-.08-13.96-.29-20.94-.12-4.05-.59-4.58-4.71-4.6-10.55-.05-21.1,0-31.65-.05-1.28,0-2.57.16-3.83-.62-2.03-1.26-3.27-2.85-3.24-5.32.02-1.78-.07-3.55-.07-5.33.01-30.43.03-60.86.04-91.28,0-3.47-1.51-4.93-5.02-4.84-3.31.09-6.56.61-9.93.42-4.89-.28-8.71-2.54-12.35-5.26-5.3-3.96-9.5-9.03-13.6-14.18-1.41-1.77-2.14-3.65-2.13-6.02.03-6.32-.27-12.65.09-18.97.16-2.95-.2-3.27-3.12-3.26-3.89,0-7.77.07-11.66.03-3.98-.03-7.37-1.29-10.22-4.3-4.2-4.43-8.71-8.55-12.97-12.92-2.37-2.43-5.19-3.52-8.48-3.57-3.55-.05-7.1-.1-10.65,0-2.66.07-4.82-1.03-6.87-2.49-2.62-1.87-4.91-4.12-7.15-6.42-2.79-2.86-5.58-5.71-8.41-8.53-3.99-3.98-5.49-8.85-5.21-14.36.02-.33.09-.66.12-.99.32-3.41-.58-4.43-3.92-4.43-6.66,0-13.33.03-19.99.04-2.33,0-4.66.01-6.99-.06-3.53-.11-6.45,1.06-8.77,3.78-3.12,3.65-6.87,6.26-11.68,7.31-1.21.26-2.4.38-3.57.38-10.88.01-21.76-.02-32.64-.11-4.25-.03-5.9-1.59-6.24-5.88-.19-2.43-.18-4.88-.17-7.32.01-3.59-1.51-5.24-5.15-5.26-6.44-.03-12.88,0-19.32,0-1.22,0-2.44-.04-3.66-.06-7.15-.09-10.95-4.79-11.62-10.9-.42-3.83-1.8-7.11-4.85-9.71-3.19-2.72-5.63-6.04-6.51-10.31-.08-.41-.31-1.29-1.21-1.12v-2c1.44-.67.85-1.33,0-2v-1.33c1.05-.47.91-1.25.56-2.09Zm340.52,289.22c-.5.08-.75.3-.45.82-.06,6.99-.14,13.97-.16,20.96-.02,5.73,1.85,10.51,6.97,13.65.73.45,1.29,1.16,1.81,1.9,3.3,4.69,4.64,9.75,3.1,15.4-.91.42-.92.86-.04,1.34.3,3.8-1.48,7.1-2.49,10.59-.27.94-.98.71-1.58.73-1.66.03-3.33.02-5,.01-2.5-.01-4.66.74-6.49,2.54-2.92,2.86-5.98,5.59-8.89,8.46-5.61,5.54-11.12,11.17-16.74,16.71-6.35,6.26-12.77,12.44-19.13,18.69-2.25,2.21-2.16,4.24.12,6.36,1.22,1.13,2.44,2.25,3.62,3.43,2.92,2.91,5.79,5.85,8.45,9.02,1.8,2.16,3.99,3.68,7.18,3.45,2.46-.18,4.91-.1,7.4,1.01,4.24,1.91,7.49,4.82,10.51,8.21,5.09,5.72,10.59,11.06,16.17,16.3,2.17,2.04,4.49,3.97,6.42,6.22,3.1,3.62,5.12,7.73,4.69,12.77-.25,2.98-.07,5.99-.03,8.99,0,.58-.37,1.36.54,1.68.21-.06.49-.04.62-.17,4.25-4.22,8.6-8.34,12.69-12.71,2.68-2.86,4.04-6.29,3.84-10.44-.25-5.2-.2-10.43.18-15.64.17-2.35.74-4.57,2.41-6.27,4.51-4.59,9.11-9.09,13.65-13.65,1.56-1.57,3.51-2.4,5.53-3.08,2.18-.74,3.88.41,5.29,1.81,1.23,1.22,2.03,2.66.69,4.52-.28.39-1.24,1.38-.19,2.63,2.8-2.02,4.56-4.56,4.61-8.13.06-4.58,1.71-8.44,4.78-11.82,1.75-1.92,2.62-4.39,2.44-6.97-.3-4.22,1.14-7.65,4.09-10.54,5.05-4.95,10.13-9.86,15.15-14.84,2.28-2.27,3.44-5.06,3.41-8.32-.03-3.44-.02-6.88,0-10.33.02-6.77-.08-13.55.14-20.31.15-4.55,1.44-8.78,5.2-11.85,1.18-.96,2.01-2.26,2.95-3.44.59-.74.74-1.42.27-2.07-.92-1.27-1.59-2.66-2.84-3.79-3.56-3.19-7.13-6.4-8.45-11.38-.69-2.6-2.51-3.56-5.3-3.57-1.33,0-2.66.06-3.99,0-4.88-.18-6.42-1.74-6.49-6.67-.05-3.44.06-6.89-.03-10.33-.18-7.56-5.74-13.26-13.33-13.19-12.66.13-25.31.05-37.97-.04-3.72-.03-6.71,1.28-9.27,3.88-3.97,4.03-7.99,8.03-12,12.02-1.63,1.62-3.36,3.17-4.06,5.48Zm80.58,4.18c.97,1.16,2.37,1.09,3.66,1.18,1.55.11,3.11.1,4.66.09,1.85-.02,3.32.95,4.83,1.81,1.16.67.95,1.86,1.06,2.95.05.49.47.94.7,1.42,2.54,5.22,7.3,8.48,11.09,12.6.86.94,1.7.53,2.56-.25,2.52-2.29,5.09-4.62,7.35-7.07,3.67-3.98,7.69-7.6,11.29-11.63,1.26-1.41,2.91-2.28,4.44-3.32,2.47-1.67,5.22-1.4,7.94-1.35,1.64.03,3.4.27,4.65-1.03,1.54-1.6,3.47-2.72,5.03-4.26,4.11-4.05,8.19-8.12,12.28-12.19.46-.45.91-.87,1.45-1.26,3.16-2.3,6.73-2.94,10.5-2.94,9.77,0,19.55-.1,29.32.05,4.26.07,7.67-1.27,10.55-4.38,2.64-2.85,5.38-5.61,8.21-8.28,1.67-1.58,2.83-3.55,3.12-5.61.93-6.53,4.05-11.61,8.92-15.92,2.98-2.63,3.96-6.19,3.5-10.17-.58-4.9.82-9.12,4.53-12.5,1.31-1.19,2.7-2.32,3.82-3.67,1.74-2.12,3.27-4.45,3.33-7.32.06-2.77.05-5.56-.19-8.32-.26-2.88-1.12-5.57-3.59-7.46-.96-.74-1.97-1.55-2.62-2.54-1.31-2-3.54-3.86-1.68-6.72.21-.32.1-.87.1-1.31.01-8.66.05-17.32.02-25.98-.01-3.23-.92-4.05-4.26-4.1-3.11-.04-6.22-.09-9.33,0-5.37.16-9.76-1.69-13.46-5.66-5.76-6.2-12.14-11.79-17.93-17.97-.85-.91-2.11-1.67-3.31-1.95-3.48-.82-6.84-2.24-10.59-1.8-2.52.3-5.1.21-7.65.14-3.07-.08-5.61,1-7.72,3.16-1.79,1.82-3.53,3.69-5.28,5.55-4.76,5.08-10.32,8.11-17.56,7.29-2.55-.29-4.81.77-6.9,2.27-2.34,1.69-4.02,4-6,6.02-3.27,3.32-6.58,6.61-9.88,9.9-1.51,1.51-2.29,3.19-2.24,5.46.13,6.33.11,12.66-.04,18.99-.12,4.86-2.02,9.17-5.61,12.39-3.47,3.11-6.88,6.3-9.92,9.78-3.82,4.36-8.26,6.71-14.08,6.63-7.11-.1-14.21-.03-21.32-.02-4.95,0-4.93.02-4.91,4.96.02,4.52-.04,9.05-.06,13.57-.89.15-.73.75-.58,1.35.29,1.4-.45,2.46-1.48,3.09-3.18,1.93-5.32,4.93-7.91,7.47-4.82,4.74-9.62,9.5-14.46,14.22-4.03,3.93-7.79,8.13-12.1,11.77-.66.56-1.38,1.15-1.79,1.89-.33.6-.52,1.59.8,1.57.78,0,1.55,0,2.33,0,11.65,0,23.29,0,34.94,0,1.97,0,3.79.58,5.71,1.1,6.87,1.84,11.55,9.87,11.2,16.49-.19,3.65.06,7.31.11,10.97-.23.49.02.71.47.81Zm56.59-237.32c.47-.43.73-.87.04-1.33.99-5.85-.58-11.11-3.57-16.1-1.23-2.04-2.9-3.6-4.63-5.16-2.4-2.17-3.79-4.79-3.75-8.11.04-3.11,0-6.22-.01-9.33,0-1.55-.22-3.05-.79-4.53-1.22-3.18-3.57-5.45-5.9-7.76-2.6-2.57-5.43-4.93-7.27-8.17-.52-.91-1.15-1.66-1.14-2.87.07-7.09.05-14.19,0-21.29-.03-4.28.07-3.25-3.35-4.55-3.55-1.35-6.03.58-6.25,4.4-.03.55,0,1.11.02,1.66.23,7.54-1.71,14.13-8,18.94-2.19,1.67-3.29,3.92-3.23,6.82.11,5.77.02,11.55,0,17.32,0,3.36-.63,6.7-2.8,9.21-2,2.31-3.93,4.7-6.07,6.91-2.28,2.35-5.46,3.75-7.04,6.81-.12.23-.52.41-.8.44-4.25.5-8.42,1.46-12.74,1.45-23.32-.08-46.63-.07-69.95-.08-7.55,0-15.1,0-22.65,0-2.21,0-4.24-.66-6.27-1.54-2.93-1.27-5.05-3.47-7.23-5.65-7.99-8.03-15.98-16.05-23.98-24.06-.81-.81-1.52-1.93-3.11-1.29,0,2.88.12,5.77-.03,8.65-.23,4.35-1.51,5.66-5.76,6.14-1.21.14-2.44.1-3.66.1-10.99,0-21.98,0-32.98.02-1.33,0-2.65.21-3.98.25-1.56.04-2.13.94-2.2,2.34-.04.77-.12,1.55-.12,2.32,0,7.44-.01,14.88,0,22.31,0,.88.11,1.77.19,2.65.12,1.18.78,1.77,1.98,1.79,1,.02,1.99.14,2.99.14,3.89.02,7.78-.13,11.66.06,6.11.3,7.95,2.81,7.97,8.25.03,7.99.19,15.99-.01,23.98-.1,3.93-1.09,7.79-3.77,10.91-1.3,1.51-2.74,2.9-4.17,4.29-.91.89-1.33,1.81-1.31,3.17.1,7.55.1,15.09.02,22.64-.01,1.13.37,1.79,1.07,2.55,4.9,5.3,10.1,10.3,15.23,15.36,1.42,1.41,3.05,1.98,5.01,1.96,4.33-.04,8.67-.19,12.99.05,7.78.44,8.48,2.79,8.66,8.13.36,10.75.28,21.51.34,32.26.03,5.62-.17,11.3-.21,16.95-.08,12.32-.11,24.65-.13,36.97,0,3.33.01,6.66.16,9.99.14,3.32.3,3.41,3.76,3.58,1,.05,2,.02,3,.02,9.66,0,19.32-.05,28.98.03,5.58.04,7.14,1.58,7.24,7.1.11,5.66.04,11.33.03,16.99,0,1.34.05,2.67.39,3.96.41,1.59,1.68,2.59,3.32,2.37,2.32-.31,4.63-.1,6.95-.11,4.22,0,7.99-1.11,10.89-4.46,1.87-2.17,3.87-4.25,5.89-6.28,12.84-12.91,25.69-25.81,38.58-38.67,3.68-3.66,7.1-7.59,11.31-10.71,1.26-.93,2.02-2.35,2.39-3.86,1.22-5,.87-10.11.46-15.15-.12-1.46.03-2.49.79-3.45,1.91-2.38,4.01-4.26,7.53-3.74,2.39.36,4.87.14,7.32.14,5.2,0,10.4.84,15.6-.17,3.62-.7,7-1.96,9.7-4.49,3.63-3.42,7.18-6.94,10.6-10.57,2.58-2.74,4.25-5.89,4.13-9.93-.18-6.1.02-12.21.02-18.31,0-.88.21-1.66.38-2.49.73-3.67,3.43-5.97,5.63-8.6,3.12-3.72,7.06-6.62,10.54-9.98,3.75-3.62,5.43-7.66,5.35-12.77-.13-8.21-.05-16.43-.02-24.65.01-3.1-1.07-6.17-.53-9.25.78-4.42.44-8.85.45-13.27,0-6.54-.07-13.08-.11-19.62ZM76,113.62c0,15.32,0,30.65,0,45.97,0,1.55.03,3.12-.12,4.66-.42,4.26-1.35,5.24-5.2,6.49-.8.26-1.5.18-2.22.18-8.99.04-17.98.07-26.97,0-3.76-.03-6.92.7-9.73,3.65-7.51,7.87-15.23,15.54-23.06,23.1-3.04,2.94-4.14,6.32-4.09,10.35.05,3.88.11,7.77-.02,11.65-.12,3.69.37,7.3.87,10.92.23,1.7,1.02,2.94,2.53,4.01,2.11,1.49,4.35,2.86,5.9,5.15,1.83,2.7,2.19,5.71,2.59,8.75.55,4.2,3.51,7.09,7.78,7.25,4.44.16,8.88.14,13.32.16,3.77.02,7.55-.1,11.32.01,5.04.15,7.23,2.49,7.25,7.06,0,2,.11,3.99.05,5.99-.13,4.35.45,5,4.81,5.1.22,0,.44,0,.67,0,9.77-.25,19.53-.25,29.3.06,5.47.17,10.35-1.64,13.51-6.6.47-.74,1.16-1.29,1.89-1.82,2.76-2.01,5.81-2.87,9.2-2.74,4.1.15,8.2.03,12.28.69,4.87.78,9.7-.46,14.57-.53.95-.01,1.81-.09,2.83.37,3.67,1.65,5.85,3.74,5.26,8.3-.65,5.06,1.2,9.35,5.18,12.91,4.45,3.98,8.43,8.49,12.72,12.66,1.87,1.81,3.96,3.2,6.92,2.99,3.64-.26,7.33-.18,10.98,0,3.42.17,6.49,1.33,8.98,3.9,4.17,4.31,8.48,8.48,12.69,12.75,2.73,2.77,5.84,4.37,9.89,4.09,3.09-.21,6.21-.06,9.32-.05,1.96,0,3.74-.3,5.59-1.21,4.92-2.42,7.48-6.46,7.69-11.65.34-8.43.21-16.87.18-25.31-.01-2.93-1.8-4.49-4.73-4.5-4.77-.02-9.55-.04-14.32-.05-2.71,0-4.67-1.6-5.13-4.31-.18-1.09-.2-2.21-.2-3.32-.02-6.55,0-13.1-.02-19.65-.01-2.99.62-5.69,2.19-8.37,1.43-2.45,3.08-3.33,5.82-3.3,8.99.12,17.99.05,26.98.04,3.11,0,6.22.05,9.33-.02,3.35-.07,4.22-.98,4.37-4.39.05-1.22.01-2.44.01-3.66,0-2.44.1-4.89-.03-7.33-.1-1.99,1.47-2.3,2.68-2.85,1.11-.5,1.93.43,2.36,1.29.51,1.02,1.22,1.82,2,2.6,9.34,9.34,18.67,18.7,28.04,28.02,2.05,2.04,4.38,3.46,7.44,3.63,1.89.1,3.77.04,5.65.04,28.09.02,56.18,0,84.28.01,1.89,0,3.79-.12,5.66.07,5.58.55,10.12-1.4,13.91-5.42,2.1-2.22,4.24-4.41,6.47-6.5,2.68-2.51,4.29-5.38,4.22-9.2-.09-5.1-.31-10.2-.12-15.31.21-5.8,2.45-10.6,6.77-14.31,2.93-2.52,4.06-5.57,4.03-9.27-.04-5.88.02-11.77-.08-17.65-.09-4.88,1.44-8.92,5.09-12.33,4.62-4.31,8.94-8.95,13.48-13.35,2.62-2.53,3.89-5.47,3.79-9.13-.1-3.43-.18-6.87.32-10.29.35-2.38,1.14-4.57,2.91-6.33,4.79-4.76,9.56-9.55,14.34-14.34,2.3-2.3,2.29-3.94,0-6.24-2.74-2.75-5.81-5.24-8.15-8.3-2.57-3.36-5.76-4.46-9.68-4.45-8.1.01-16.21-.15-24.31.06-5.67.15-10.16-1.9-13.95-5.97-3.08-3.31-6.3-6.48-9.39-9.8-2.98-3.19-4.98-6.51-4.38-11.02.32-2.44.25-4.89-.08-7.31-.36-2.63-1.3-3.44-3.95-3.76-.33-.04-.67-.01-1-.03-4.7-.25-6.25-1.74-6.48-6.47-.23-4.54-.54-9.07.07-13.63.68-5.1-1.18-9.46-4.27-13.43-1.03-1.33-2.67-1.77-3.67-3.22-1.56-2.26-3.21-2.3-5.26-.37-2.26,2.13-4.22,4.59-6.59,6.57-3.13,2.62-4.31,5.87-4.47,9.82-.12,2.85-1.2,5.42-3.39,7.51-4.01,3.84-7.87,7.83-11.81,11.74-1.9,1.89-4.21,3.25-6.85,3.4-6.84.39-13.71-.06-20.56.49-3.56.29-6.98-1.05-10.54-1.04-16.1.06-32.2.02-48.3.03-1.22,0-2.45-.03-3.66.11-6.65.79-13.27-.27-19.91-.3-2.46-.01-3.62-1.44-3.93-3.94-.14-1.1-.27-2.21-.28-3.31-.06-13.1-.09-26.2-.14-39.3,0-1.22.02-2.45-.11-3.66-.27-2.48-1.23-3.48-3.76-3.74-2.98-.31-5.98-.52-8.96,0-2.62.47-4.98,1.49-6.92,3.41-3.62,3.59-7.27,7.15-10.85,10.78-1.36,1.38-2.64,2.87-4.44,3.91-3.61,2.11-7.42,2.44-11.44,2.39-7.88-.09-15.76-.03-23.64.04-2.69.03-3.03.31-3.16,3.04-.17,3.55.02,7.11-.12,10.65-.09,2.37.85,4.21,2.36,5.85.98,1.06,1.97,2.12,3.03,3.09,2.2,2.01,2.83,4.58,2.82,7.4,0,1.01-.31,1.86-1.11,2.64-5.95,5.83-11.79,11.76-17.78,17.54-2.46,2.37-5.31,4.16-8.98,4.12-5.22-.06-10.43-.06-15.65,0-3.51.04-6.32-1.48-8.72-3.83-3.66-3.57-7.39-7.07-10.79-10.87-2.98-3.33-6.6-4.6-10.86-4.61-7.44-.02-14.88-.04-22.32,0-5.43.03-5.84.48-5.84,5.92,0,16.1,0,32.2,0,48.3Zm406.26,192.8c0,12.21-.01,24.43,0,36.64,0,5.71.3,5.88,5.99,6,3.79.08,7.41-.94,9.73-3.64,2.54-2.95,5.77-5.08,8.2-8.08,2.96-3.65,6.95-4.9,11.53-4.79,3.66.09,7.33-.01,10.99.03,4.54.05,8.47,1.46,11.72,4.82,5.62,5.8,11.51,11.34,16.81,17.44,3.06,3.53,6.57,5.67,11.57,5.05,3.39-.42,6.88-.14,10.31-.06,3.55.09,6.15,2.01,7.28,5.26.44,1.28.37,2.63.37,3.96,0,8.33-.02,16.65.01,24.98.02,5.03.3,5.31,3.96,8.7,1.2,1.11,2.2.93,3.09.15,2.06-1.8,3.91-3.71,5.18-6.29,1.79-3.63,1.82-7.36,1.8-11.21-.07-20.32-.07-40.63-.12-60.95-.01-4.41,1.46-8.13,4.74-11.13,1.8-1.65,3.54-3.36,5.26-5.09,9.02-9.06,18.22-17.94,26.82-27.41,2.7-2.97,6.25-5.15,8.18-8.86.37-.71,1.35-1.14,1.95-1.72,1.48-1.45,3.3-2.37,4.73-3.98,4.22-4.78,8.88-9.17,13.87-13.17,4.62-3.71,8.02-8.07,7.62-14.38-.34-5.55-.24-11.09-.26-16.64-.02-5.99-.27-11.98.14-17.96.5-7.38-.1-14.38-6.82-19.21-.36-.26-.64-.62-.95-.93-2.81-2.82-6.06-4.41-10.2-4.3-6.1.16-12.21.01-18.31.06-.9,0-1.66-.24-2.49-.45-1.81-.45-3.09-1.91-4.54-2.48-2.28-.89-3.6-2.46-4.73-4.17-1.85-2.82-4.27-5.03-6.62-7.35-1.02-1-2.21-1.83-3.22-2.83-6.07-6.02-12.18-12-18.13-18.14-2.4-2.48-5.12-3.52-8.48-3.49-6.66.07-13.32,0-19.98.03-1.1,0-2.26.01-3.28.35-2.3.76-4.51.66-6.81.05-1.93-.51-4.13-1.05-5.84-.05-1.36.8-2.19.51-3.27-.02-1.27-.63-2.22-1.49-2.97-2.81-2.92-5.12-7.36-7.89-13.35-7.92-6.66-.03-13.32-.11-19.98.01-4.06.07-7.24-1.82-9.68-4.59-3.66-4.17-7.72-7.88-11.78-11.62-2.02-1.87-4.39-2.44-7.05-1.7-1.62.46-2.85,1.65-3.97,2.72-4.82,4.59-9.51,9.33-14.16,14.09-1.94,1.99-3.12,4.31-2.89,7.3.21,2.76.16,5.55.01,8.32-.24,4.47-1.86,8.55-5.24,11.46-5.8,4.99-10.7,10.83-16.15,16.15-.25.24-.49.44-.51.74-.12,2.4-1.08,4.75-.16,7.22.74,1.98,1.23,2.51,3.32,2.54,1.22.01,2.45-.17,3.65-.05,4.02.42,5.65,2.15,5.9,6.16.12,1.99.1,3.99.23,5.99.22,3.45-.25,6.87-.33,10.3-.14,6.05,1.85,11.09,6.81,14.91,6.16,4.75,9.45,10.9,8.46,18.91-.11.88-.21,1.77-.26,2.65-.13,2.71.29,5.18,2.08,7.45,2.2,2.79,4.66,5.3,7.16,7.78,1.19,1.17,1.92,2.49,2.53,4.1,1.05,2.76.5,5.45.5,8.17.02,12.32,0,24.65.01,36.97Z"/>
    </g>
  </g>
</svg>