<?xml version="1.0" encoding="UTF-8"?>
<svg id="Camada_2" data-name="Camada 2" xmlns="http://www.w3.org/2000/svg" viewBox="0 0 453.31 435.23">
  <defs>
    <style>
      .cls-1, .cls-2, .cls-3, .cls-4, .cls-5, .cls-6, .cls-7, .cls-8 {
        stroke: #2b8e2d;
        stroke-miterlimit: 10;
        stroke-width: 3px;
      }

      .cls-2 {
        fill: #ffffb8;
      }

      .cls-3 {
        fill: #ff733f;
      }

      .cls-4 {
        fill: #551900;
      }

      .cls-5 {
        fill: #fff;
      }

      .cls-6 {
        fill: #75aa53;
      }

      .cls-7 {
        fill: #fbff7a;
      }

      .cls-8 {
        fill: #94e66c;
      }
    </style>
  </defs>
  <g id="Camada_21" data-name="Camada 21">
    <circle class="cls-2" cx="244.93" cy="208.38" r="206.88"/>
  </g>
  <g id="_1" data-name="1">
    <g id="corpo_1" data-name="corpo 1">
      <path class="cls-8" d="m351.91,378.77c-.1-.03-.2-.05-.31-.06l-2.19-.26c-.6-.07-1.14-.38-1.51-.86-25.99-34.11-78.33-60.78-78.33-60.78l-1.63-.91c-.91-.51-2.06-.32-2.76.46-6.96,7.74-13.92,15.48-20.88,23.22-.42.47-.63,1.09-.56,1.71.68,6.9,5.66,47.73,27.79,49.91,13.28,1.31,24.7,8.98,32.3,15.64,19.61-5.78,38.01-14.39,54.73-25.36-3.56-1.81-6.02-2.54-6.66-2.71Z"/>
      <path class="cls-8" d="m198.89,326.82c-13.31,2.23-53.92,11.3-83.41,41.91-.16.17-.31.34-.47.51,10.36,8.39,21.54,15.79,33.41,22.08,2.53-14.83,36.6-36.93,41.13-39.81.33-.21.59-.5.77-.84l10.93-20.6c.87-1.64-.52-3.57-2.35-3.26Z"/>
      <path class="cls-8" d="m142.2,244.38l-38.43-29.45c-.54-.42-.87-1.05-.88-1.74-.08-6.21-2.86-37.84-50.41-42.85-.21-.02-.43-.02-.64.02-3.02.53-26.6,4.86-36.79,11.86s-12.57,21.59-12.9,23.78c-.03.18-.07.35-.14.52-.47,1.16-2.09,6.25,4.53,7.73,7.49,1.67,46.3,4.06,63.32,19.03s50.04,40.32,59.23,51.14c8.7,10.24,36.95,34.91,49.75,60.33.84,1.66,3.23,1.61,4.02-.08l15.83-34.15c.37-.81.24-1.75-.35-2.42l-55.83-63.42c-.1-.11-.2-.21-.32-.3Z"/>
      <path class="cls-8" d="m245.49,415.27c15.52,0,30.63-1.72,45.18-4.96-2.3-4.58-4.5-8.78-6.54-12.56-11.47-21.26-15.17-24.33-18.78-37.53-4.59-16.81-10.25-54.47,2.51-72.9.69-1,1.91-2.62-63.39,4.12-.79.08-1.49.57-1.82,1.29-8.36,18.35-16.75,40.61-23.13,66.47-3.65,14.82-6.21,29.03-7.93,42.47,22.95,8.78,47.86,13.6,73.89,13.6Z"/>
      <g id="gravata">
        <path class="cls-7" d="m226.88,338.16c.07.18.1.37.12.55,2.22,25.01,4.44,50.03,6.66,75.04.08.7-.16,1.39-.66,1.88l-16.9,16.78c-2.32,2.31-6.25,1.46-7.41-1.6l-7.05-18.57c-.17-.46-.2-.96-.06-1.44,6.24-24.51,12.48-49.02,18.71-73.53.17-.66.63-1.23,1.26-1.49s1.43-.45,2.37-.25c1.36.29,2.48,1.29,2.97,2.62Z"/>
        <path class="cls-7" d="m213.01,319.88c.72-.96,2.12-1.07,3.45-1.11,4.14-.11,7.43.45,8.94.72,0,0,3.39.61,8.47,2.26,1.27.41,2.53.86,3.06,2,.13.27.42.9-.21,3.74-.66,2.97-.82,2.73-.98,4.04-.32,2.73-.17,4.34-.17,4.34.07.71.17,1.28-.14,1.89-.42.83-1.33,1.2-1.99,1.38-1.67.42-2.86,1.04-3.65,1.54-1.91,1.21-2.26,2.21-4.35,3.27-1.21.61-2.13,1.07-3.19.81-1.13-.28-2.22-1.32-2.67-1.8-.14-.15-.25-.31-.35-.49-.84-1.59-1.74-2.69-2.43-3.41-2.05-2.17-4.95-3.91-5.51-5.84-.15-.51-.16-1-.14-1.29,0-.17.04-.34.09-.49.18-.58.4-1,.55-1.22,1.08-1.6,1.04-3.82.99-6.93-.04-2.36-.22-2.81.23-3.41Z"/>
      </g>
      <path class="cls-8" d="m352.21,385.38c-5.06-10.12-12.58-21.68-23.69-34.35-34.36-39.19-58.51-44.36-65.57-44.99-1.19-.11-2.24.76-2.4,1.94l-.7,5.26c-.01.1-.02.2-.02.31l.09,16.55c0,.06,0,.11,0,.17.08,1.05.17,2.09.25,3.14l5.86-.75s32.17,11.57,42.72,47.32c1.05,3.55,3.54,12.79,2.31,24.53,14.49-4.88,28.26-11.32,41.12-19.12Z"/>
    </g>
    <g id="cabeça_1" data-name="cabeça 1">
      <g id="boné">
        <path class="cls-7" d="m375.57,75.45c-13.33-13.72-20-20.57-27.06-25.87-6.61-4.96-22.18-16.64-26.89-12.77-3.94,3.24,1.52,15.87,2.89,19.06,2.1,4.86,6.02,12.2,20.09,25.87,13.64,13.26,22.81,18.84,38.81,28.6,6.38,3.89,13.71,8.01,16.85,5.45,1.71-1.39,1.53-4.23,1.43-5.85-.45-7.19-5.47-11.95-12.32-19.18-9.68-10.22-1.8-2.99-13.79-15.32Z"/>
        <path class="cls-7" d="m350.38,54.01c-4.88,1.33,4.58,15.47,13.96,25.19,10.09,10.46,21.5,14.07,26.38,15.32,3.98-5.17,9.39-11.28,16.51-17.36,7.39-6.31,14.53-10.8,20.43-13.96-1.68-.61-4.06-1.54-6.81-2.89-3.1-1.52-16.56-8.43-28.09-24.68-7.47-10.53-11.81-21.77-11.06-20.43,0,0-23.83,36.77-31.32,38.81Z"/>
        <path class="cls-7" d="m405.08,18.9c-9.87-4.69-19.05-4.22-23.38-3.7-.27,2.59-.4,6.4.55,10.81,2.01,9.34,7.49,15.13,12.13,20.04,3.37,3.57,10.3,10.72,21.83,14.68,4.55,1.56,8.56,2.19,11.45,2.47.79-3.84,1.8-11.49-1.02-20.26-5.09-15.8-18.62-22.65-21.55-24.04Z"/>
      </g>
      <g id="rosto">
        <path class="cls-8" d="m284.16,68.13c10.15,1.79,27.36,6.33,44.6,18.72,24.38,17.52,34.23,40.24,38.47,50.38,4.05,9.67,14.52,35.69,8.17,68.77-1.75,9.1-6.32,31.42-24.51,51.4-24.87,27.32-57.99,31.4-71.15,33.02-10.67,1.31-73.78,7.76-106.55-34.38-17-21.85-19.64-48.79-20.43-56.85-1.74-17.76.92-31.55,2.38-38.81,2.62-13.05,7.52-37.38,25.53-58.21,26.4-30.53,69.34-40.06,103.49-34.04Z"/>
        <path class="cls-1" d="m177.84,150.3c1.03-3.28,3.58-9.5,9.72-13.72,2.53-1.74,6.26-4.31,10.1-3.24,6.09,1.69,7.76,11.19,8.01,12.58.89,5.08-.43,7.44-2.29,17.92-1.34,7.57-2.01,11.36-2.1,15.63-.26,13.01-.4,19.51.38,23.63.1.51.3,1.51-.19,2.48-1.91,3.8-11.92,2.17-13.53,1.91-1.69-.28-15.46-2.53-16.96-9.91-.25-1.25-.08-2.24,0-2.67.86-4.88,1.73-13.23,2.48-28.02l12.58-7.81-8.2-8.77Z"/>
        <path class="cls-8" d="m201.78,202.6c-4.46-2.01-23.09-9.82-41.53-1.36-3.03,1.39-8.44,3.94-12.94,9.53-12.36,15.35-5.19,37.91-3.06,44.6,6.24,19.63,19.93,30.67,25.53,35.06,2,1.57,10.82,8.34,25.87,13.62,29.1,10.21,54.86,5.53,83.4.34,15.89-2.89,26.41-6.28,36.77-11.91,7.52-4.09,14.87-8.09,21.45-16.34,9.76-12.24,17.18-33.02,8.51-46.64-1.99-3.13-4.4-5.2-6.13-6.47"/>
        <path class="cls-1" d="m286.5,149.96c.23-1.07,2.5-10.99,11.96-15.11,1.12-.49,7.71-3.35,14.09-.6,11.22,4.84,11.77,22.76,11.87,26.3.31,10.29-3.14,10.33-5.78,26.19-2.9,17.47-1.01,31.2-4.52,31.85-.63.12-1.07-.25-2-.85-5.8-3.74-11.91-4.45-17.57-5.11-6.8-.79-10.47.42-13.02-1.53-.39-.3-1.68-1.38-3.32-1.28-1.46.09-1.95,1.03-2.55.94-1.73-.27-2.18-8.75-1.45-20.57.62-10.02,3.46-18.49,6.04-24.41,5.54.47,11.08.94,16.62,1.4-3.45-5.74-6.91-11.49-10.36-17.23Z"/>
        <path class="cls-8" d="m259.99,211.45c6.1-1.85,16.49-4.15,29.28-2.72,15.99,1.78,27.44,8.46,33.02,12.26"/>
        <path class="cls-4" d="m224.59,235.96c-.68.17-17.36-17.53-30.64-7.66s-8,30.81-8,30.81c0,0,8,24.51,41.7,28.94s51.4-31.37,51.4-31.37c0,0,6.13-17.65-10.38-25.48s-44.09,4.77-44.09,4.77Z"/>
        <path class="cls-5" d="m195.35,228.09c.83,3.02,4.02,13.14,14.18,20.38,1.58,1.13,10.19,7.08,22.2,6.81,20.22-.46,37.67-18.27,35.36-23.87-1.73-4.2-14.98-2.63-21.27-1.88-9.34,1.11-16.63,4-21.24,6.22-.2-.2-.51-.52-.91-.89-2.12-2-8.35-7.87-17.22-8.6-2.17-.18-6.2-.19-11.11,1.83Z"/>
        <path class="cls-3" d="m251.14,282.94c-3.33,1.53-10.68,4.45-20.44,4.37-15.05-.12-24.46-7.27-24.62-8.96-.11-1.15.19-2.25.19-2.25s.16-.59.44-1.16c4.75-9.5,21.11-13.62,21.11-13.62,17.09-4.12,39.59-.15,40.68,6.98.96,6.22-14.63,13.38-17.36,14.64Z"/>
        <path class="cls-8" d="m226.63,194.86c1.67-1.33,3.18-1.63,4-1.7,3.75-.35,7.72,2.52,9.79,7.23"/>
        <path class="cls-5" d="m231.31,189.75c.39-.28,1.52-1.01,3.06-.94,2.58.12,3.97,2.35,4.09,2.55"/>
        <path class="cls-8" d="m218.04,195.37c-1.09-.06-2.67-.04-4.51.34-1.85.39-6.37,1.33-8.94,5.19-.57.86-3.08,4.64-1.28,7.66,1.44,2.41,4.62,2.69,5.11,2.72"/>
        <path class="cls-5" d="m223.82,190.86c-1.02-.33-2.32-.63-3.83-.68-4.16-.15-7.31,1.64-8.68,2.55"/>
      </g>
      <g id="chifre_esquerda" data-name="chifre esquerda">
        <path class="cls-6" d="m141.82,66.26s.26-3.4-20.68,9.36c0,0-11.83,11.91-14.64,26.64,0,0,2.89,4.17,8.09-5.11,0,0,18.81-18.04,30.47-20.51,11.66-2.47,6.89-6.46,6.89-6.46l-10.13-3.93Z"/>
        <path class="cls-6" d="m179.61,66.86s-8.26-5.96-28.09-4c-19.83,1.96-11.91,9.53-11.91,9.53,0,0,3.57,1.79,8.43,2.3,0,0,6.21,1.02,7.15,2.47s24.51.68,25.11-1.11c.6-1.79-.68-9.19-.68-9.19Z"/>
        <path class="cls-6" d="m211.89,81.92c-.95-1.83-2.53-4.42-5.08-6.95-5.26-5.21-11.15-6.77-16.56-8.12-6.07-1.52-11.05-2.76-15.74-.17-.49.27-4.94,2.72-4.68,5.57.17,1.91,1.74,4.09,11.62,7.43,5.22,1.77,8.55,4.19,10.64,6.11,2.53,2.32,3.27,3.93,6.02,5.19,1.07.49,5.37,2.45,9.26.26,3.04-1.72,4.77-5.38,4.53-9.32Z"/>
      </g>
      <g id="chifre_direita" data-name="chifre direita">
        <path class="cls-6" d="m236.07,41.28c-.42.65-.97,1.64-1.38,2.93-.38,1.22-1.07,3.42-.34,5.21.89,2.17,3.79,3.5,7.13,3.41,0,0-23.05,7.39-38.37,27.94,0,0-3.52,1.82-5.54.28-2.57-1.97-.89-7.91-.36-9.78,3.18-11.08,13.25-17.61,18.35-20.82,3.94-2.48,11.73-7.06,20.5-9.17Z"/>
        <path class="cls-6" d="m282.98,54.16s-4.69-8.04-20.91-15.76c-3.15-1.5-7.5-2.74-13.1-2.25-7.17.63-12.25,4.18-14.51,6-1.96,1.77-3.07,4.24-2.56,6.41.77,3.29,5.27,5.91,10.24,4.42,6.92-1.12,12.17-.32,15.87.75,0,0,13.82,5.99,13.82,5.99h0s4.64-6.81,11.15-5.56Z"/>
        <path class="cls-6" d="m290.42,60.64c-.36-.84-2.25-5.03-6.86-6.63-1.13-.39-4.79-1.66-8.07.45-2.5,1.61-3.28,4.21-3.48,5.01,1.16,1.88,2.31,3.91,3.43,6.1,2.97,5.85,4.94,11.41,6.26,16.3,0,0,2.93,8.03,2.57,14.62-.36,6.6,3.3,11.01,3.3,11.01,0,0,11.35,2.81,11.73-9.33.16-1.4.27-2.84.33-4.33.47-13.65-4.38-25.14-9.2-33.22Z"/>
      </g>
    </g>
  </g>
</svg>