<?xml version="1.0" encoding="UTF-8"?>
<svg id="Camada_2" data-name="Camada 2" xmlns="http://www.w3.org/2000/svg" viewBox="0 0 449.6 744.21">
  <defs>
    <style>
      .cls-1 {
        fill: #ff733f;
      }

      .cls-1, .cls-2, .cls-3, .cls-4, .cls-5, .cls-6, .cls-7, .cls-8, .cls-9, .cls-10 {
        stroke: #000;
        stroke-miterlimit: 10;
        stroke-width: 3px;
      }

      .cls-2 {
        fill: #80bc5c;
      }

      .cls-4 {
        fill: #fbff7a;
      }

      .cls-5 {
        fill: #551900;
      }

      .cls-6 {
        fill: #75aa53;
      }

      .cls-7 {
        fill: #f5d642;
      }

      .cls-8 {
        fill: #fff;
      }

      .cls-9 {
        fill: #94e66c;
      }

      .cls-10 {
        fill: #8dce6a;
      }
    </style>
  </defs>
  <g id="corpo">
    <g id="perna_esquerda" data-name="perna esquerda">
      <path class="cls-4" d="m130.46,663.26c-1.19-7-14.11-14.39-17.32-16.13-.41-.22-.79-.47-1.16-.74-1.77-1.28-9.26-5.61-30.53-6.62-21.03-1-29.56,7.68-31.74,10.47-.44.57-.93,1.09-1.48,1.56-3.1,2.63-13.41,12.47-15.29,28.48-1.5,12.84-.65,21.9.05,26.39.39,2.51,1.68,4.8,3.65,6.41,21.91,18.02,108.32,14.26,121.3,13.58,1.12-.06,2.22-.29,3.27-.7,2.61-1.01,7.56-3.1,8.92-4.84,1.87-2.38,6.13-30.98,6.13-40.51,0-8.68,4.79-36.39,5.66-41.3.08-.47.19-.93.34-1.38,1.26-4,7.68-25.82,1.67-38-6.64-13.45-25.96-17.45-25.96-17.45,0,0-64.6-18.64-87.32,1.79,0,0-6.89,3.45-5.74,18.51,1,13.14.16,21.82-.07,23.81-.04.34-.06.67-.07,1.01-.04,2.31-.09,10.96,1.53,13.31"/>
      <path class="cls-4" d="m356.16,663.6c9.1-11.38,14.54-14.44,22.81-18.38,11.4-5.45,16.62-1.93,23.34-3.62,8.28-2.09,15.22-.2,17.4.39,22.59,6.13,24.08,19.53,24.18,21.26,0,.14.03.26.06.4.64,2.51,6.54,26.62,3.03,44.29-3.07,15.44-7.74,24.48-9.26,27.14-.3.53-.8.91-1.39,1.06-15.29,3.8-36.24,7.28-61.11,6.45-31.28-1.05-56.43-8.51-73.02-14.93-.34-.13-.63-.34-.87-.61-2.58-2.95-5.91-7.01-8.51-12.51-.09-.2-.16-.41-.19-.63-2.67-16.48-4.46-22.57-1.92-48.95.87-9.07.47-40.3.43-43.04,0-.13-.01-.25-.04-.37-.45-2.36-4.93-27.26,5.02-37.5,10.14-10.43,28.91-8.73,30.01-8.62.04,0,.07,0,.11,0,2.06.09,60.03,2.75,77.87,26.07,1.28,1.67,1.73,3.83,1.28,5.89-1.47,6.75-5.32,23.3-9.78,34.21"/>
      <path class="cls-7" d="m85.95,592c-5.68,9.39,33.61,15.67,36.13,16.07.08.01.16.02.25.02,2.65.11,47.37,1.77,38.94-10.42s-69.45-15.37-75.32-5.67Z"/>
      <path class="cls-2" d="m87.87,550.61c.08.33.24.63.46.88,1.99,2.34,12.69,13.88,24.43,6.75,11.7-7.11,18.24-23.9,19.45-27.24.14-.38.17-.78.1-1.17l-10.1-54.95c-.16-.85-.79-1.54-1.63-1.76l-52.76-14c-1.65-.44-3.17,1.06-2.74,2.72l22.79,88.77Z"/>
      <path class="cls-10" d="m198.99,491.54c.21.25.46.46.75.6,4.22,2.05,36.91,19.02,3.39,37.85-32.33,18.17-87.23-46.67-97.41-59.21-.87-1.07-2.5-1.1-3.41-.07l-3.19,3.62c-.1.12-.21.22-.34.31-1.07.79-6.5,4.62-11.39,4.62s-17.82-9.35-21.06-11.72c-.47-.34-.78-.85-.88-1.42-.92-5.35-5.65-33.37-4.68-37.37.05-.2.05-.41.04-.61-.22-3.75-1.55-32.79,8.79-37.03,11.06-4.53,14.55-4.36,14.55-4.36,0,0,16.43-2.47,31.57,9.11,14.55,11.11,78.21,89.46,83.26,95.68Z"/>
      <path class="cls-6" d="m102.35,603.5c6.78,2.01,14.64,3.63,20.64,4.55.09.01.17.02.26.03,5.25.23,11.82.22,18.04-.16,1.31-.08,2.28-1.26,2.09-2.56l-1.4-9.57-9.26-63.34c-.17-1.15-1.18-1.98-2.34-1.91l-44.27,2.5c-1.41.08-2.39,1.42-2.04,2.79l15.15,59.73,1.62,6.37c.19.76.77,1.37,1.52,1.6Z"/>
    </g>
    <g id="perna_direita" data-name="perna direita">
      <path class="cls-7" d="m393.09,601.7c.47-5.16-33.39-11.68-35.74-12.13-15.84-3-43.27-6.2-44.43-1.66-1.01,3.99,18.24,14.03,38.17,17.49,20.19,3.5,41.63.34,42-3.7Z"/>
      <path class="cls-2" d="m347.04,558c-.1.5-.04,1.02.2,1.47,1.49,2.89,7.7,13.64,18.29,15.63,11.38,2.13,25.4-16.64,27.35-19.34.15-.21.26-.44.33-.69l25.7-90.45c.41-1.43-.67-2.85-2.15-2.85h-22.95c-.76,0-1.47.39-1.88,1.02l-36.9,57.06c-.15.23-.26.49-.31.77l-7.68,37.39Z"/>
      <path class="cls-10" d="m276.4,519.66c-.28.31-.47.69-.54,1.1-.64,3.68-2.26,21.72,27.71,20.8,31.21-.96,57.36-47.49,60.6-53.49.23-.42.58-.75,1-.95l27.56-13.13c.24-.11.49-.18.75-.21,3.31-.3,27.07-2.95,27.07-16.01,0-14.04,3.06-54.3-11.11-60.73s-36.38,15.92-36.38,15.92l-96.65,106.69Z"/>
      <path class="cls-6" d="m352.12,605.4c7.84,1.36,15.47,1.66,21.96,1.39.92-.04,1.71-.65,2.01-1.51l16.11-47.2c.46-1.36-.45-2.79-1.88-2.95l-39.77-4.31c-1.13-.12-2.18.62-2.43,1.74l-10.55,47.05c-.25,1.13.39,2.28,1.5,2.62,4.06,1.27,8.47,2.37,13.06,3.17Z"/>
    </g>
    <path class="cls-9" d="m269.27,303.43s52.33,26.67,78.33,60.78c.37.48.91.79,1.51.86l2.19.26c.11.01.21.03.31.06,1.99.53,21.9,6.45,37.28,34.55,15.65,28.58,14.05,59.3,13.92,61.42,0,.08-.01.15-.03.22-.31,1.83-4.53,26.33-10.4,39.62-.03.07-.06.13-.1.2-.36.64-2.39,4.27-3.9,6.48l4.74-7.02c.11-.17.2-.35.27-.54l3.41-10.18s-2.68,1.13,10.51,3.6c13.19,2.47,28.09,4.94,31.32,10.55,3.23,5.62.09,14.13-30.89,27.4-29.16,12.5-62.69-1.55-66.53-3.24-.25-.11-.47-.26-.66-.45-1.85-1.82-11.6-12.14-9.74-25.25s19.1-46.18,22.91-53.41c.44-.84.31-1.87-.34-2.56l-39.87-43.02s-.08-.08-.11-.13c-1.05-1.34-18.73-23.5-42.16-25.81-22.12-2.18-27.11-43.01-27.79-49.91-.06-.63.14-1.24.56-1.71,6.96-7.74,13.92-15.48,20.88-23.22.7-.78,1.85-.97,2.76-.46.54.3,1.09.61,1.63.91Z"/>
    <path class="cls-9" d="m201.07,316.69c.87-1.64-.52-3.57-2.35-3.26-13.31,2.23-53.92,11.3-83.41,41.91-26.7,27.72-7.06,76.13,4.6,98.86,3.95,7.7,6.98,12.46,6.98,12.46l-6.21-10.48c-.47-.8-1.39-1.23-2.3-1.07-5.63.98-24.99,5.41-26.3,20.02-1.53,17.11-.64,11.62-.64,11.62,0,0,16.85-2.81,30.26,2.43,12.24,4.78,26.5,2,28.89,1.48.24-.05.45-.14.66-.26,3.78-2.22,40.15-25.23,13.89-76.27-.08-.15-.17-.29-.28-.42-1.59-1.93-14.77-18.29-16.69-33s36.39-39.52,41.21-42.58c.33-.21.59-.5.77-.84l10.93-20.6Z"/>
    <path class="cls-9" d="m142.2,231l-38.43-29.45c-.54-.42-.87-1.05-.88-1.74-.08-6.21-2.86-37.84-50.41-42.85-.21-.02-.43-.02-.64.02-3.02.53-26.6,4.86-36.79,11.86s-12.57,21.59-12.9,23.78c-.03.18-.07.35-.14.52-.47,1.16-2.09,6.25,4.53,7.73,7.49,1.67,46.3,4.06,63.32,19.03s50.04,40.32,59.23,51.14c8.7,10.24,36.95,34.91,49.75,60.33.84,1.66,3.23,1.61,4.02-.08l15.83-34.15c.37-.81.24-1.75-.35-2.42l-55.83-63.42c-.1-.11-.2-.21-.32-.3Z"/>
    <path class="cls-9" d="m203.92,278.05c-.79.08-1.49.57-1.82,1.29-8.36,18.35-16.75,40.61-23.13,66.47-10.76,43.61-11.99,82.03-10.55,110.64.41,7.33,2.6,29.72,19.91,50.21,15.68,18.56,34.8,24.96,42.23,27.02.1.03.19.06.29.1,2.84,1.26,34.2,14.34,61.4-4.14,22.54-15.31,32.36-45.59,22.98-73.79-11.11-31.18-22.82-55.12-31.66-71.49-11.47-21.26-15.17-24.33-18.78-37.53-4.59-16.81-10.25-54.47,2.51-72.9.69-1,1.91-2.62-63.39,4.12Z"/>
    <g id="gravata">
      <path class="cls-4" d="m226.88,324.78c.07.18.1.37.12.55,2.22,25.01,4.44,50.03,6.66,75.04.08.7-.16,1.39-.66,1.88l-16.9,16.78c-2.32,2.31-6.25,1.46-7.41-1.6l-7.05-18.57c-.17-.46-.2-.96-.06-1.44,6.24-24.51,12.48-49.02,18.71-73.53.17-.66.63-1.23,1.26-1.49s1.43-.45,2.37-.25c1.36.29,2.48,1.29,2.97,2.62Z"/>
      <path class="cls-4" d="m213.01,306.5c.72-.96,2.12-1.07,3.45-1.11,4.14-.11,7.43.45,8.94.72,0,0,3.39.61,8.47,2.26,1.27.41,2.53.86,3.06,2,.13.27.42.9-.21,3.74-.66,2.97-.82,2.73-.98,4.04-.32,2.73-.17,4.34-.17,4.34.07.71.17,1.28-.14,1.89-.42.83-1.33,1.2-1.99,1.38-1.67.42-2.86,1.04-3.65,1.54-1.91,1.21-2.26,2.21-4.35,3.27-1.21.61-2.13,1.07-3.19.81-1.13-.28-2.22-1.32-2.67-1.8-.14-.15-.25-.31-.35-.49-.84-1.59-1.74-2.69-2.43-3.41-2.05-2.17-4.95-3.91-5.51-5.84-.15-.51-.16-1-.14-1.29,0-.17.04-.34.09-.49.18-.58.4-1,.55-1.22,1.08-1.6,1.04-3.82.99-6.93-.04-2.36-.22-2.81.23-3.41Z"/>
    </g>
    <path class="cls-9" d="m265.95,319.26s32.17,11.57,42.72,47.32c1.06,3.6,3.62,13.05,2.27,25.03-1.03,9.17-3.76,14.24-11.8,35.39-3.08,8.1-5.49,14.76-7.02,19.06-.08.23-.13.48-.13.73-.42,22.68,9.02,42.19,25.09,50.44,10.75,5.51,21.21,4.35,25.13,3.82,29.84-3.99,51.45-46.35,54.04-51.63.18-.37.26-.78.22-1.2-.22-2.29-1.6-10.06-10-16.02-8.25-5.85-21.57-3.12-25.91-2.01-.79.2-1.41.82-1.6,1.61-1.1,4.55-6.67,12.82-7.6,14.17-.09.13-.18.24-.3.35l-9.11,8.69c17.56-13.84,19.35-36.37,19.48-38.55,0-.11.02-.22.05-.33.55-2.44,6.46-33.41-33.06-78.48-34.36-39.19-58.51-44.36-65.57-44.99-1.19-.11-2.24.76-2.4,1.94l-.7,5.26c-.01.1-.02.2-.02.31l.09,16.55c0,.06,0,.11,0,.17.08,1.05.17,2.09.25,3.14"/>
  </g>
  <g id="cabeça">
    <g id="boné">
      <path class="cls-4" d="m375.57,62.07c-13.33-13.72-20-20.57-27.06-25.87-6.61-4.96-22.18-16.64-26.89-12.77-3.94,3.24,1.52,15.87,2.89,19.06,2.1,4.86,6.02,12.2,20.09,25.87,13.64,13.26,22.81,18.84,38.81,28.6,6.38,3.89,13.71,8.01,16.85,5.45,1.71-1.39,1.53-4.23,1.43-5.85-.45-7.19-5.47-11.95-12.32-19.18-9.68-10.22-1.8-2.99-13.79-15.32Z"/>
      <path class="cls-4" d="m350.38,40.62c-4.88,1.33,4.58,15.47,13.96,25.19,10.09,10.46,21.5,14.07,26.38,15.32,3.98-5.17,9.39-11.28,16.51-17.36,7.39-6.31,14.53-10.8,20.43-13.96-1.68-.61-4.06-1.54-6.81-2.89-3.1-1.52-16.56-8.43-28.09-24.68-7.47-10.53-11.81-21.77-11.06-20.43,0,0-23.83,36.77-31.32,38.81Z"/>
      <path class="cls-4" d="m405.08,5.52c-9.87-4.69-19.05-4.22-23.38-3.7-.27,2.59-.4,6.4.55,10.81,2.01,9.34,7.49,15.13,12.13,20.04,3.37,3.57,10.3,10.72,21.83,14.68,4.55,1.56,8.56,2.19,11.45,2.47.79-3.84,1.8-11.49-1.02-20.26-5.09-15.8-18.62-22.65-21.55-24.04Z"/>
    </g>
    <g id="rosto">
      <path class="cls-9" d="m284.16,54.75c10.15,1.79,27.36,6.33,44.6,18.72,24.38,17.52,34.23,40.24,38.47,50.38,4.05,9.67,14.52,35.69,8.17,68.77-1.75,9.1-6.32,31.42-24.51,51.4-24.87,27.32-57.99,31.4-71.15,33.02-10.67,1.31-73.78,7.76-106.55-34.38-17-21.85-19.64-48.79-20.43-56.85-1.74-17.76.92-31.55,2.38-38.81,2.62-13.05,7.52-37.38,25.53-58.21,26.4-30.53,69.34-40.06,103.49-34.04Z"/>
      <path class="cls-3" d="m180.84,143.09c.92-2.93,3.2-8.48,8.68-12.26,2.26-1.55,5.59-3.84,9.02-2.89,5.44,1.51,6.93,9.99,7.15,11.23.8,4.54-.39,6.65-2.04,16-1.2,6.76-1.79,10.14-1.87,13.96-.24,11.62-.35,17.42.34,21.11.09.45.27,1.35-.17,2.21-1.71,3.4-10.65,1.94-12.09,1.7-1.51-.25-13.8-2.26-15.15-8.85-.23-1.12-.07-2,0-2.38.77-4.35,1.55-11.82,2.21-25.02l11.23-6.98-7.32-7.83Z"/>
      <path class="cls-9" d="m201.78,189.22c-4.46-2.01-23.09-9.82-41.53-1.36-3.03,1.39-8.44,3.94-12.94,9.53-12.36,15.35-5.19,37.91-3.06,44.6,6.24,19.63,19.93,30.67,25.53,35.06,2,1.57,10.82,8.34,25.87,13.62,29.1,10.21,54.86,5.53,83.4.34,15.89-2.89,26.41-6.28,36.77-11.91,7.52-4.09,14.87-8.09,21.45-16.34,9.76-12.24,17.18-33.02,8.51-46.64-1.99-3.13-4.4-5.2-6.13-6.47"/>
      <path class="cls-3" d="m286.5,136.58c.23-1.07,2.5-10.99,11.96-15.11,1.12-.49,7.71-3.35,14.09-.6,11.22,4.84,11.77,22.76,11.87,26.3.31,10.29-3.14,10.33-5.78,26.19-2.9,17.47-1.01,31.2-4.52,31.85-.63.12-1.07-.25-2-.85-5.8-3.74-11.91-4.45-17.57-5.11-6.8-.79-10.47.42-13.02-1.53-.39-.3-1.68-1.38-3.32-1.28-1.46.09-1.95,1.03-2.55.94-1.73-.27-2.18-8.75-1.45-20.57.62-10.02,3.46-18.49,6.04-24.41,5.54.47,11.08.94,16.62,1.4-3.45-5.74-6.91-11.49-10.36-17.23Z"/>
      <path class="cls-9" d="m259.99,198.07c6.1-1.85,16.49-4.15,29.28-2.72,15.99,1.78,27.44,8.46,33.02,12.26"/>
      <path class="cls-5" d="m224.59,222.58c-.68.17-17.36-17.53-30.64-7.66s-8,30.81-8,30.81c0,0,8,24.51,41.7,28.94s51.4-31.37,51.4-31.37c0,0,6.13-17.65-10.38-25.48s-44.09,4.77-44.09,4.77Z"/>
      <path class="cls-8" d="m195.35,214.71c.83,3.02,4.02,13.14,14.18,20.38,1.58,1.13,10.19,7.08,22.2,6.81,20.22-.46,37.67-18.27,35.36-23.87-1.73-4.2-14.98-2.63-21.27-1.88-9.34,1.11-16.63,4-21.24,6.22-.2-.2-.51-.52-.91-.89-2.12-2-8.35-7.87-17.22-8.6-2.17-.18-6.2-.19-11.11,1.83Z"/>
      <path class="cls-1" d="m251.14,269.56c-3.33,1.53-10.68,4.45-20.44,4.37-15.05-.12-24.46-7.27-24.62-8.96-.11-1.15.19-2.25.19-2.25s.16-.59.44-1.16c4.75-9.5,21.11-13.62,21.11-13.62,17.09-4.12,39.59-.15,40.68,6.98.96,6.22-14.63,13.38-17.36,14.64Z"/>
      <path class="cls-9" d="m226.63,181.48c1.67-1.33,3.18-1.63,4-1.7,3.75-.35,7.72,2.52,9.79,7.23"/>
      <path class="cls-8" d="m231.31,176.37c.39-.28,1.52-1.01,3.06-.94,2.58.12,3.97,2.35,4.09,2.55"/>
      <path class="cls-9" d="m218.04,181.99c-1.09-.06-2.67-.04-4.51.34-1.85.39-6.37,1.33-8.94,5.19-.57.86-3.08,4.64-1.28,7.66,1.44,2.41,4.62,2.69,5.11,2.72"/>
      <path class="cls-8" d="m223.82,177.48c-1.02-.33-2.32-.63-3.83-.68-4.16-.15-7.31,1.64-8.68,2.55"/>
    </g>
    <g id="chifre_esquerda" data-name="chifre esquerda">
      <path class="cls-6" d="m141.82,52.88s.26-3.4-20.68,9.36c0,0-11.83,11.91-14.64,26.64,0,0,2.89,4.17,8.09-5.11,0,0,18.81-18.04,30.47-20.51,11.66-2.47,6.89-6.46,6.89-6.46l-10.13-3.93Z"/>
      <path class="cls-6" d="m179.61,53.48s-8.26-5.96-28.09-4c-19.83,1.96-11.91,9.53-11.91,9.53,0,0,3.57,1.79,8.43,2.3,0,0,6.21,1.02,7.15,2.47s24.51.68,25.11-1.11c.6-1.79-.68-9.19-.68-9.19Z"/>
      <path class="cls-6" d="m211.89,68.54c-.95-1.83-2.53-4.42-5.08-6.95-5.26-5.21-11.15-6.77-16.56-8.12-6.07-1.52-11.05-2.76-15.74-.17-.49.27-4.94,2.72-4.68,5.57.17,1.91,1.74,4.09,11.62,7.43,5.22,1.77,8.55,4.19,10.64,6.11,2.53,2.32,3.27,3.93,6.02,5.19,1.07.49,5.37,2.45,9.26.26,3.04-1.72,4.77-5.38,4.53-9.32Z"/>
    </g>
    <g id="chifre_direita" data-name="chifre direita">
      <path class="cls-6" d="m236.07,27.9c-.42.65-.97,1.64-1.38,2.93-.38,1.22-1.07,3.42-.34,5.21.89,2.17,3.79,3.5,7.13,3.41,0,0-23.05,7.39-38.37,27.94,0,0-3.52,1.82-5.54.28-2.57-1.97-.89-7.91-.36-9.78,3.18-11.08,13.25-17.61,18.35-20.82,3.94-2.48,11.73-7.06,20.5-9.17Z"/>
      <path class="cls-6" d="m282.98,40.78s-4.69-8.04-20.91-15.76c-3.15-1.5-7.5-2.74-13.1-2.25-7.17.63-12.25,4.18-14.51,6-1.96,1.77-3.07,4.24-2.56,6.41.77,3.29,5.27,5.91,10.24,4.42,6.92-1.12,12.17-.32,15.87.75,0,0,13.82,5.99,13.82,5.99h0s4.64-6.81,11.15-5.56Z"/>
      <path class="cls-6" d="m290.42,47.26c-.36-.84-2.25-5.03-6.86-6.63-1.13-.39-4.79-1.66-8.07.45-2.5,1.61-3.28,4.21-3.48,5.01,1.16,1.88,2.31,3.91,3.43,6.1,2.97,5.85,4.94,11.41,6.26,16.3,0,0,2.93,8.03,2.57,14.62-.36,6.6,3.3,11.01,3.3,11.01,0,0,11.35,2.81,11.73-9.33.16-1.4.27-2.84.33-4.33.47-13.65-4.38-25.14-9.2-33.22Z"/>
    </g>
  </g>
</svg>