<?xml version="1.0" encoding="UTF-8"?>
<svg id="Camada_2" data-name="Camada 2" xmlns="http://www.w3.org/2000/svg" viewBox="0 0 420.63 756.5">
  <defs>
    <style>
      .cls-1 {
        fill: #80bc5c;
      }

      .cls-1, .cls-2, .cls-3, .cls-4, .cls-5, .cls-6, .cls-7, .cls-8 {
        stroke: #000;
        stroke-miterlimit: 10;
        stroke-width: 3px;
      }

      .cls-3 {
        fill: #fbff7a;
      }

      .cls-4 {
        fill: #75aa53;
      }

      .cls-5 {
        fill: #f5d642;
      }

      .cls-9, .cls-7 {
        fill: #94e66c;
      }

      .cls-6 {
        fill: #fff;
      }

      .cls-8 {
        fill: #8dce6a;
      }
    </style>
  </defs>
  <g id="corpo_cópia" data-name="corpo cópia">
    <g id="perna_esquerda_cópia" data-name="perna esquerda cópia">
      <path class="cls-3" d="m321.13,688.26c1.87-6.85,15.45-12.94,18.82-14.36.43-.18.83-.39,1.23-.62,1.88-1.1,9.77-4.68,31.03-3.61,21.03,1.06,28.67,10.53,30.57,13.52.39.61.82,1.18,1.32,1.7,2.83,2.92,12.13,13.72,12.43,29.84.24,12.92-1.49,21.86-2.63,26.26-.64,2.46-2.15,4.61-4.26,6.03-23.57,15.79-109.19,3.6-122.05,1.66-1.11-.17-2.18-.51-3.19-1.02-2.5-1.26-7.22-3.83-8.41-5.68-1.63-2.55-3.07-31.43-2.14-40.92.85-8.63-1.22-36.68-1.59-41.65-.04-.48-.1-.94-.2-1.41-.86-4.1-5.12-26.45,2.06-37.98,7.92-12.73,27.54-14.83,27.54-14.83,0,0,66.11-12.24,86.73,10.31,0,0,6.52,4.1,3.91,18.98-2.28,12.98-2.29,21.7-2.25,23.71,0,.34,0,.67-.03,1.02-.18,2.31-.98,10.92-2.82,13.1"/>
      <path class="cls-3" d="m96.48,666.54c-7.95-12.22-13.06-15.79-20.9-20.52-10.82-6.54-16.35-3.54-22.88-5.89-8.04-2.89-15.12-1.69-17.36-1.31-23.08,3.9-25.88,17.08-26.14,18.8-.02.14-.05.26-.1.39-.88,2.44-9.11,25.85-7.35,43.78,1.54,15.67,5.31,25.12,6.56,27.92.25.56.71.98,1.28,1.19,14.85,5.27,35.35,10.79,60.19,12.39,31.23,2.02,56.99-2.95,74.13-7.72.35-.1.66-.27.93-.52,2.85-2.68,6.57-6.39,9.69-11.61.11-.19.2-.4.25-.61,4.27-16.14,6.64-22.02,6.69-48.52.02-9.11,3.47-40.15,3.78-42.88.01-.13.04-.24.07-.37.68-2.3,7.57-26.65-1.33-37.81-9.07-11.38-27.92-11.52-29.03-11.51-.04,0-.07,0-.11,0-2.05-.11-60.02-3.13-80.04,18.33-1.44,1.54-2.1,3.64-1.85,5.73.81,6.86,3.01,23.71,6.39,35.01"/>
      <path class="cls-5" d="m372.4,621.69c4.74,9.9-34.98,12.31-37.53,12.46-.08,0-.17,0-.25,0-2.64-.15-47.31-2.87-37.74-14.18,9.87-11.65,70.62-8.51,75.51,1.72Z"/>
      <path class="cls-1" d="m374.53,580.3c-.12.32-.3.6-.54.84-2.21,2.14-13.99,12.58-24.98,4.33-10.94-8.22-15.82-25.57-16.7-29.01-.1-.39-.09-.79.02-1.18l15.43-53.7c.24-.83.94-1.45,1.79-1.59l53.87-8.77c1.69-.27,3.05,1.37,2.46,2.98l-31.36,86.12Z"/>
      <path class="cls-8" d="m269.71,510.66c-.23.23-.5.41-.81.52-4.4,1.63-38.59,15.32-7.08,37.33,30.4,21.24,91.37-37.92,102.73-49.41.97-.98,2.59-.85,3.4.27l2.82,3.91c.09.13.19.24.31.34.99.89,6.02,5.24,10.88,5.71s18.65-7.56,22.1-9.6c.5-.3.86-.77,1.02-1.33,1.44-5.24,8.89-32.65,8.31-36.74-.03-.21-.01-.41.02-.61.58-3.72,4.75-32.48-5.13-37.71-10.57-5.59-14.06-5.76-14.06-5.76,0,0-16.11-4.06-32.31,5.98-15.56,9.64-86.58,81.39-92.21,87.09Z"/>
      <path class="cls-4" d="m354.95,631.53c-6.95,1.34-14.92,2.18-20.99,2.51-.09,0-.17,0-.26,0-5.25-.29-11.79-.93-17.94-1.92-1.3-.21-2.14-1.48-1.83-2.75l2.33-9.39,15.41-62.13c.28-1.13,1.37-1.85,2.52-1.67l43.81,6.81c1.39.22,2.24,1.65,1.76,2.97l-20.92,57.96-2.23,6.18c-.27.74-.9,1.29-1.67,1.44Z"/>
    </g>
    <g id="perna_direita_cópia" data-name="perna direita cópia">
      <path class="cls-5" d="m65.77,601.32c.04-5.18,34.37-8.36,36.76-8.58,16.06-1.44,43.67-1.95,44.38,2.69.62,4.07-19.52,12.18-39.7,13.68-20.44,1.51-41.47-3.73-41.44-7.79Z"/>
      <path class="cls-1" d="m115.88,562.33c.05.51-.06,1.01-.34,1.44-1.77,2.73-8.99,12.82-19.73,13.76-11.53,1.01-23.65-19.04-25.32-21.92-.13-.23-.22-.47-.27-.72l-16.74-92.53c-.26-1.46.94-2.77,2.42-2.63l22.84,2.24c.76.07,1.42.53,1.77,1.2l31.14,60.4c.13.25.21.52.24.79l3.98,37.96Z"/>
      <path class="cls-8" d="m189.92,531.08c.25.34.4.73.43,1.15.28,3.72.13,21.83-29.61,17.99-30.97-4-52.44-52.87-55.08-59.16-.18-.44-.5-.8-.91-1.05l-26.15-15.76c-.23-.14-.47-.23-.72-.28-3.27-.63-26.65-5.58-25.37-18.58,1.37-13.98,2.26-54.34,16.99-59.35s34.65,19.4,34.65,19.4l85.76,115.63Z"/>
      <path class="cls-4" d="m106.19,609.01c-7.93.59-15.56.14-21.99-.76-.91-.13-1.64-.81-1.85-1.7l-11.42-48.54c-.33-1.4.72-2.74,2.16-2.75l40-.4c1.14-.01,2.1.83,2.24,1.96l5.91,47.85c.14,1.15-.61,2.23-1.75,2.46-4.17.86-8.66,1.54-13.31,1.88Z"/>
    </g>
    <path class="cls-7" d="m218.15,316.58s-54.69,21.43-83.89,52.83c-.41.44-.98.7-1.59.71l-2.2.04c-.11,0-.21.01-.32.03-2.03.33-22.42,4.28-40.48,30.74-18.36,26.92-19.78,57.64-19.86,59.76,0,.08,0,.15,0,.23.13,1.85,1.94,26.64,6.48,40.45.02.07.05.14.08.21.29.67,1.96,4.48,3.25,6.83l-4.04-7.45c-.1-.18-.17-.37-.21-.56l-2.4-10.46s2.56,1.38-10.81,2.55c-13.37,1.17-28.43,2.17-32.2,7.44-3.77,5.27-1.47,14.05,28.07,30.29,27.8,15.29,62.54,4.59,66.53,3.28.26-.09.49-.21.7-.38,2.02-1.63,12.73-10.94,12.17-24.17-.55-12.98-14.5-47.83-17.58-55.4-.36-.88-.12-1.89.59-2.52l43.88-38.92s.08-.08.13-.12c1.18-1.23,20.93-21.56,44.48-21.56,22.23,0,31.18-40.16,32.53-46.95.12-.62-.02-1.25-.39-1.76-6.17-8.38-12.34-16.77-18.51-25.15-.62-.84-1.74-1.14-2.7-.72-.57.25-1.14.5-1.71.75Z"/>
    <path class="cls-7" d="m270.3,335.62c-.71-1.72.86-3.5,2.66-3.01,13.03,3.52,52.56,16.51,78.92,49.86,23.86,30.19-.42,76.46-14.24,97.94-4.68,7.28-8.16,11.71-8.16,11.71l7.2-9.83c.55-.75,1.5-1.09,2.39-.84,5.51,1.53,24.35,7.83,24.22,22.49-.15,17.17-.5,11.62-.5,11.62,0,0-16.5-4.44-30.35-.54-12.65,3.56-26.57-.6-28.89-1.35-.23-.07-.44-.18-.63-.32-3.55-2.58-37.5-29.03-6.37-77.27.09-.14.2-.27.31-.39,1.78-1.77,16.49-16.76,19.84-31.21,3.34-14.42-32.35-42.89-36.85-46.4-.3-.24-.54-.55-.69-.91l-8.86-21.57Z"/>
    <path class="cls-7" d="m285.67,297.71c.78.16,1.43.71,1.68,1.47,6.53,19.08,12.7,42.05,16.52,68.42,6.44,44.45,3.92,82.81-.31,111.14-1.12,7.25-5.49,29.32-24.73,48.03-17.42,16.93-37.08,21.44-44.67,22.76-.1.02-.2.04-.3.07-2.95.98-35.43,10.93-60.7-10.13-20.94-17.44-27.75-48.53-15.66-75.68,14.1-29.95,28.1-52.63,38.49-68.05,13.5-20.04,17.48-22.74,22.36-35.52,6.21-16.28,15.52-53.21,4.62-72.8-.59-1.06-1.64-2.8,62.68,10.29Z"/>
    <g id="gravata_cópia" data-name="gravata cópia">
      <path class="cls-3" d="m271.78,342.38c-.08.17-.13.35-.17.54-4.65,24.68-9.3,49.35-13.96,74.03-.15.68.03,1.4.47,1.94l15.18,18.35c2.09,2.52,6.08,2.06,7.53-.87l8.84-17.79c.22-.44.29-.94.2-1.43-3.81-25-7.63-50-11.44-75.01-.1-.68-.5-1.28-1.11-1.61s-1.38-.58-2.34-.48c-1.38.15-2.59,1.04-3.22,2.32Z"/>
      <path class="cls-3" d="m287.37,325.54c-.63-1.03-2-1.27-3.32-1.44-4.11-.52-7.44-.27-8.96-.15,0,0-3.44.27-8.65,1.42-1.3.29-2.6.6-3.24,1.69-.15.25-.51.85-.15,3.75.37,3.03.55,2.8.58,4.12.05,2.75-.25,4.34-.25,4.34-.14.7-.3,1.26-.04,1.9.34.86,1.21,1.32,1.84,1.57,1.62.58,2.75,1.32,3.48,1.89,1.78,1.39,2.03,2.42,4.01,3.68,1.14.72,2.01,1.27,3.1,1.12,1.16-.16,2.34-1.1,2.84-1.53.15-.13.28-.29.39-.45.99-1.5,2-2.51,2.75-3.16,2.25-1.96,5.3-3.41,6.05-5.27.2-.5.25-.98.26-1.27,0-.17,0-.34-.04-.5-.12-.6-.3-1.04-.43-1.27-.92-1.7-.66-3.9-.3-7,.27-2.34.5-2.77.11-3.42Z"/>
    </g>
    <path class="cls-7" d="m219.91,332.66s-33.15,8.38-47.14,42.92c-1.41,3.48-4.88,12.63-4.7,24.69.13,9.23,2.35,14.54,8.28,36.38,2.27,8.36,4.02,15.22,5.13,19.65.06.24.08.49.06.74-1.8,22.61-13.1,41.11-29.9,47.74-11.23,4.44-21.53,2.25-25.38,1.35-29.31-6.89-46.68-51.16-48.73-56.67-.15-.39-.18-.81-.1-1.21.45-2.26,2.58-9.86,11.52-14.97,8.78-5.02,21.77-1,25.98.53.77.28,1.32.95,1.43,1.76.65,4.64,5.39,13.41,6.18,14.84.08.14.16.26.26.38l8.22,9.54c-16.12-15.49-15.7-38.08-15.62-40.27,0-.11,0-.22-.01-.33-.3-2.49-3.16-33.89,40.57-74.88,38.03-35.64,62.56-38.42,69.65-38.37,1.19,0,2.16.97,2.2,2.16l.18,5.3c0,.1,0,.2-.01.31l-1.71,16.46c0,.06-.01.11-.02.17-.19,1.03-.37,2.07-.56,3.1"/>
  </g>
  <g id="cabeça_cópia" data-name="cabeça cópia">
    <g id="boné_cópia" data-name="boné cópia">
      <path class="cls-3" d="m155.16,63.32c14.88-12.02,22.32-18.03,29.96-22.45,7.16-4.13,24.01-13.86,28.23-9.46,3.53,3.69-3.4,15.58-5.15,18.58-2.67,4.57-7.43,11.39-23.04,23.28-15.13,11.53-24.9,15.98-41.95,23.75-6.79,3.1-14.57,6.31-17.38,3.39-1.53-1.59-1.01-4.38-.72-5.97,1.31-7.08,6.86-11.21,14.53-17.57,10.83-8.99,2.14-2.75,15.52-13.56Z"/>
      <path class="cls-3" d="m182.74,45.04c4.68,1.9-6.4,14.81-16.87,23.34-11.27,9.18-23.03,11.4-28.03,12.05-3.34-5.61-7.97-12.32-14.32-19.21-6.58-7.15-13.14-12.46-18.61-16.3,1.74-.4,4.21-1.05,7.11-2.06,3.26-1.14,17.45-6.39,30.84-21.14,8.67-9.56,14.33-20.21,13.43-18.96,0,0,19.26,39.35,26.45,42.28Z"/>
      <path class="cls-3" d="m132.63,3.64c10.36-3.47,19.42-1.91,23.66-.88-.04,2.61-.37,6.4-1.84,10.66-3.11,9.03-9.24,14.13-14.44,18.45-3.77,3.14-11.51,9.42-23.43,11.96-4.71,1.01-8.76,1.15-11.66,1.08-.32-3.9-.42-11.62,3.44-19.99,6.95-15.08,21.19-20.26,24.27-21.29Z"/>
    </g>
    <g id="chifre_esquerda_cópia" data-name="chifre esquerda cópia">
      <path class="cls-4" d="m388.33,82.14s.15-3.41,19.41,11.77c0,0,10.32,13.24,11.35,28.2,0,0-3.37,3.79-7.42-6.04,0,0-16.52-20.16-27.8-24.01-11.28-3.84-6.07-7.23-6.07-7.23l10.52-2.69Z"/>
      <path class="cls-4" d="m350.74,78.22s8.91-4.93,28.36-.61c19.45,4.31,10.69,10.89,10.69,10.89,0,0-3.76,1.35-8.64,1.27,0,0-6.29.27-7.39,1.6s-24.42-2.26-24.79-4.1c-.38-1.85,1.78-9.04,1.78-9.04Z"/>
      <path class="cls-4" d="m316.9,89.31c1.16-1.71,3.04-4.08,5.88-6.29,5.84-4.55,11.88-5.38,17.41-6.08,6.21-.78,11.3-1.42,15.65,1.71.45.32,4.58,3.29,3.99,6.09-.4,1.88-2.21,3.86-12.43,5.99-5.4,1.13-8.99,3.14-11.29,4.8-2.79,2-3.72,3.51-6.6,4.43-1.13.36-5.62,1.79-9.22-.85-2.82-2.07-4.09-5.91-3.38-9.79Z"/>
    </g>
    <g id="rosto_cópia" data-name="rosto cópia">
      <path class="cls-7" d="m246.79,66.98c-10.29.56-27.92,3.01-46.51,13.26-26.3,14.48-38.79,35.86-44.22,45.42-5.17,9.12-18.68,33.7-16.34,67.3.65,9.24,2.52,31.95,18.19,53.97,21.42,30.1,53.82,38.11,66.69,41.29,10.44,2.58,72.32,16.53,109.9-21.39,19.49-19.66,25.33-46.09,27.08-54,3.85-17.43,2.86-31.44,2.28-38.81-1.04-13.27-2.99-38.01-18.39-60.85-22.56-33.47-64.05-48.07-98.68-46.17Z"/>
      <path class="cls-2" d="m343.55,159.68c-.65-3.48-2.49-10.15-8.25-15.22-2.37-2.09-5.87-5.17-9.93-4.56-6.43.97-9.31,10.48-9.73,11.87-1.54,5.08-.47,7.66.13,18.59.44,7.9.66,11.86.22,16.23-1.33,13.33-2,19.99-3.3,24.11-.16.51-.49,1.5-.11,2.56,1.49,4.12,11.92,3.68,13.6,3.61,1.76-.07,16.11-.68,18.56-8.04.41-1.25.35-2.28.33-2.73-.28-5.09-.14-13.74.92-28.94l-11.9-9.54,9.46-7.95Z"/>
      <path class="cls-7" d="m312.5,210.34c4.67-1.47,24.1-6.99,41.4,3.61,2.84,1.74,7.91,4.93,11.7,11.01,11.33,18.17-.67,41.51-2.29,44.64-6.71,12.99-16.69,19.88-23.51,24.47-14.24,9.59-27.59,12.38-37.28,14.3-34.19,6.78-62.05-1.19-78.92-6.22-18.07-5.4-28.23-11.35-35.08-16.23-6.98-4.96-13.79-9.81-19.34-18.79-8.23-13.32-13.11-34.84-2.87-47.32,2.35-2.87,4.99-4.64,6.86-5.69"/>
      <path class="cls-2" d="m235.08,154.45c-.09-.99-1.06-10.16-9.13-14.89-.95-.56-6.58-3.85-12.61-2.06-10.63,3.14-13.06,19.21-13.54,22.38-1.4,9.23,1.71,9.64,2.36,24.2.72,16.04-2.47,28.19.62,29.16.55.17.99-.11,1.89-.55,5.63-2.74,11.21-2.71,16.37-2.69,6.2.03,9.38,1.51,11.89.03.38-.23,1.66-1.06,3.13-.79,1.3.24,1.64,1.14,2.2,1.12,1.59-.05,2.91-7.64,3.53-18.35.53-9.08-1.11-17.02-2.79-22.63-5.04-.18-10.07-.36-15.11-.54,3.73-4.8,7.47-9.59,11.2-14.39Z"/>
      <path class="cls-7" d="m253.64,212.16c-5.84-2.57-15.88-6.09-28.74-6.21-16.09-.14-28.25,5.12-34.25,8.22"/>
      <path class="cls-7" d="m288.75,199.67c-1.5-1.52-2.97-1.99-3.77-2.17-3.68-.8-7.96,1.58-10.58,6.01"/>
      <path class="cls-6" d="m284.71,194.04c-.36-.33-1.39-1.18-2.93-1.3-2.57-.19-4.22,1.86-4.36,2.05"/>
      <path class="cls-7" d="m297.22,201.21c1.09.07,2.66.28,4.44.88,1.58.53,5.67,2.02,8.25,6.22,1.89,3.08,1.93,6.11,1.97,8.15.06,3.37-.74,6.06-1.36,7.66"/>
      <path class="cls-6" d="m292.02,196.04c1.06-.21,2.38-.35,3.88-.22,4.15.35,7.06,2.5,8.31,3.57"/>
      <g>
        <path class="cls-9" d="m227.11,118.79c7.05,2.84,14.43,10.13,13.23,16.12-.87,4.33-5.75,5.72-18.19,11.18-25.53,11.21-30.37,16.49-34.43,13.6-5.22-3.72-3.42-16.91,1.53-25.53,7.44-12.96,24.87-20.6,37.85-15.37Z"/>
        <path class="cls-7" d="m246.16,129.5c-.25,5.17-1.48,12.29-6.67,16.94-6.19,5.54-13.98,3.96-25.43,5.64-7.28,1.07-17.65,3.7-29.79,10.85"/>
      </g>
      <path class="cls-7" d="m308.31,132.52c1.02-1.22,5.75-6.59,13.56-7.28,7.42-.65,14.76,3.17,19.05,9.84"/>
      <path class="cls-7" d="m302.69,245.74c-10.45,2.43-18.6,1.94-24.17,1.02-10.62-1.76-16.81-5.93-24.17-3.06-4.82,1.88-7.8,5.86-9.53,8.85"/>
      <path class="cls-7" d="m296.74,341.57c1.36.19,2.33.11,3.08.07,10.1-.54,23.61,3.34,30.27,8.09,4.95,3.53,5.3,7,13.27,34.96,7.38,25.9,9.23,30.49,13.02,35.84,3.6,5.08,14.57,20.58,27.15,18.31,10.58-1.91,18.25-15.8,19.06-27.82.02-.31,0-.59-.01-1.08-.6-22.48-10.57-46.63-10.57-46.63-4.81-11.65-9.39-22.46-19.79-33.32-5.23-5.46-4.77-3.46-8.68-7.87-11.28-12.72-25.86-41.47-26.96-42.49-1.27-1.17-1.57-.64-2.67-2.38-3.42-5.41-14.18-21.29-22.63-21.62-7.93-.31-4.88,10.91-3.15,15.89.52,1.48,1.51,2.74,2.81,3.61l6.93,4.62s-11.16-10.42-28.44-7.01c-1.01.2-2.05.15-3.06-.09-20.85-4.93-28.02-.37-35.29.9-5.83,1.02-10.98,1.97-11.41,4.44-.64,3.6,9.04,8.65,9.53,8.9,2.05,1.05,4.87,2.71,10.22,5.19.39.18.77.4,1.12.64,1.63,1.15,6.5,4.7,8.66,7.68,1.91,2.64,3.31,9.64,3.92,13.23.26,1.53,1,2.93,2.12,3.99.77.73,1.18,1.03,1.74,1.55,2.06,1.9,2.34,4.74,2.53,5.87,1.07,6.2,8.99,15.35,17.24,16.53Z"/>
    </g>
    <g id="chifre_direita_cópia" data-name="chifre direita cópia">
      <path class="cls-4" d="m271.41,56.03c.22.74.47,1.85.49,3.2.02,1.28.06,3.58-1.14,5.09-1.47,1.84-4.62,2.29-7.8,1.26,0,0,20.04,13.58,28.95,37.61,0,0,2.87,2.74,5.24,1.82,3.02-1.16,3.08-7.34,3.09-9.28.06-11.52-7.76-20.62-11.75-25.15-3.08-3.49-9.27-10.08-17.09-14.57Z"/>
      <path class="cls-4" d="m222.77,55.18s6.77-6.4,24.5-9.23c3.45-.55,7.97-.52,13.2,1.53,6.71,2.62,10.58,7.46,12.23,9.84,1.38,2.25,1.75,4.93.65,6.88-1.67,2.94-6.72,4.19-11.07,1.35-6.32-3.02-11.59-3.74-15.44-3.75,0,0-14.95,1.85-14.95,1.85h0s-2.53-7.84-9.13-8.47Z"/>
      <path class="cls-4" d="m213.81,59.31c.58-.7,3.58-4.19,8.45-4.43,1.19-.06,5.06-.24,7.62,2.71,1.94,2.25,1.96,4.97,1.93,5.78-1.64,1.48-3.32,3.1-5.01,4.89-4.5,4.78-7.95,9.56-10.6,13.88,0,0-5.07,6.88-6.58,13.31-1.51,6.43-6.27,9.64-6.27,9.64,0,0-11.68-.5-8.63-12.26.24-1.39.54-2.8.9-4.24,3.39-13.23,11.28-22.89,18.18-29.28Z"/>
    </g>
  </g>
</svg>