<?xml version="1.0" encoding="UTF-8"?>
<svg id="Camada_2" data-name="Camada 2" xmlns="http://www.w3.org/2000/svg" viewBox="0 0 416.77 445.25">
  <defs>
    <style>
      .cls-1, .cls-2, .cls-3, .cls-4, .cls-5, .cls-6 {
        stroke: #2b8e2d;
        stroke-miterlimit: 10;
        stroke-width: 3px;
      }

      .cls-2 {
        fill: #ffffb8;
      }

      .cls-3 {
        fill: #fff;
      }

      .cls-4 {
        fill: #75aa53;
      }

      .cls-5 {
        fill: #fbff7a;
      }

      .cls-6, .cls-7 {
        fill: #94e66c;
      }
    </style>
  </defs>
  <g id="Camada_21" data-name="Camada 21">
    <circle class="cls-2" cx="208.38" cy="208.38" r="206.88"/>
  </g>
  <g id="_2" data-name="2">
    <g id="corpo_cópia" data-name="corpo cópia">
      <path class="cls-6" d="m180.8,312.56c-2.07-.07-2.76,4.92-9.23,8.14-.73.36-1.34.61-1.71.75,0,0-54.69,21.43-83.89,52.83-.04.04-.09.08-.13.11,15.29,11.39,32.22,20.71,50.36,27.57,7.05-3.72,15.47-6.68,24.44-6.68,22.23,0,31.18-40.16,32.53-46.95.04-.21.05-.42.03-.63-.06-.63-.39-1.07-.43-1.13-.86-1.27-6.72-33.83-11.99-34.01Z"/>
      <path class="cls-6" d="m223.27,337.47c-1.79-.49-3.36,1.29-2.66,3.01l8.86,21.57c.15.36.38.67.69.91,4.23,3.31,36.03,28.67,37.04,43.67,13.16-3.93,25.77-9.13,37.69-15.47-.83-1.3-1.72-2.58-2.71-3.83-26.36-33.35-65.89-46.34-78.92-49.86Z"/>
      <path class="cls-6" d="m207.95,416.16c17.16,0,33.83-2.1,49.78-6.04-.54-11.69-1.65-23.98-3.51-36.77-3.82-26.36-9.99-49.34-16.52-68.42-.26-.75-.9-1.31-1.68-1.47-64.32-13.09-63.27-11.35-62.68-10.29,10.9,19.59,1.59,56.52-4.62,72.8-4.88,12.78-8.86,15.48-22.36,35.52-.94,1.4-1.92,2.88-2.92,4.4,20.3,6.66,41.98,10.27,64.51,10.27Z"/>
      <g id="gravata_cópia" data-name="gravata cópia">
        <path class="cls-5" d="m222.56,347.24c-.08.17-.13.35-.17.54-4.65,24.68-9.3,49.35-13.96,74.03-.15.68.03,1.4.47,1.94l15.18,18.35c2.09,2.52,6.08,2.06,7.53-.87l8.84-17.79c.22-.44.29-.94.2-1.43-3.81-25-7.63-50-11.44-75.01-.1-.68-.5-1.28-1.11-1.61s-1.38-.58-2.34-.48c-1.38.15-2.59,1.04-3.22,2.32Z"/>
        <path class="cls-5" d="m238.15,330.4c-.63-1.03-2-1.27-3.32-1.44-4.11-.52-7.44-.27-8.96-.15,0,0-3.44.27-8.65,1.42-1.3.29-2.6.6-3.24,1.69-.15.25-.51.85-.15,3.75.37,3.03.55,2.8.58,4.12.05,2.75-.25,4.34-.25,4.34-.14.7-.3,1.26-.04,1.9.34.86,1.21,1.32,1.84,1.57,1.62.58,2.75,1.32,3.48,1.89,1.78,1.39,2.03,2.42,4.01,3.68,1.14.72,2.01,1.27,3.1,1.12,1.16-.16,2.34-1.1,2.84-1.53.15-.13.28-.29.39-.45.99-1.5,2-2.51,2.75-3.16,2.25-1.96,5.3-3.41,6.05-5.27.2-.5.25-.98.26-1.27,0-.17,0-.34-.04-.5-.12-.6-.3-1.04-.43-1.27-.92-1.7-.66-3.9-.3-7,.27-2.34.5-2.77.11-3.42Z"/>
      </g>
      <path class="cls-6" d="m178.58,313.52c-.04-1.19-1.01-2.15-2.2-2.16-7.09-.06-31.62,2.72-69.65,38.37-9.26,8.68-16.42,16.93-21.97,24.56,10.82,8.07,22.45,15.11,34.76,20.97,1.04-7.1,3.05-12.36,4.04-14.81,14-34.54,47.14-42.92,47.14-42.92"/>
    </g>
    <g id="cabeça_cópia" data-name="cabeça cópia">
      <g id="boné_cópia" data-name="boné cópia">
        <path class="cls-5" d="m105.95,68.18c14.88-12.02,22.32-18.03,29.96-22.45,7.16-4.13,24.01-13.86,28.23-9.46,3.53,3.69-3.4,15.58-5.15,18.58-2.67,4.57-7.43,11.39-23.04,23.28-15.13,11.53-24.9,15.98-41.95,23.75-6.79,3.1-14.57,6.31-17.38,3.39-1.53-1.59-1.01-4.38-.72-5.97,1.31-7.08,6.86-11.21,14.53-17.57,10.83-8.99,2.14-2.75,15.52-13.56Z"/>
        <path class="cls-5" d="m133.52,49.9c4.68,1.9-6.4,14.81-16.87,23.34-11.27,9.18-23.03,11.4-28.03,12.05-3.34-5.61-7.97-12.32-14.32-19.21-6.58-7.15-13.14-12.46-18.61-16.3,1.74-.4,4.21-1.05,7.11-2.06,3.26-1.14,17.45-6.39,30.84-21.14,8.67-9.56,14.33-20.21,13.43-18.96,0,0,19.26,39.35,26.45,42.28Z"/>
        <path class="cls-5" d="m83.41,8.51c10.36-3.47,19.42-1.91,23.66-.88-.04,2.61-.37,6.4-1.84,10.66-3.11,9.03-9.24,14.13-14.44,18.45-3.77,3.14-11.51,9.42-23.43,11.96-4.71,1.01-8.76,1.15-11.66,1.08-.32-3.9-.42-11.62,3.44-19.99,6.95-15.08,21.19-20.26,24.27-21.29Z"/>
      </g>
      <g id="chifre_esquerda_cópia" data-name="chifre esquerda cópia">
        <path class="cls-4" d="m339.11,87.01s.15-3.41,19.41,11.77c0,0,10.32,13.24,11.35,28.2,0,0-3.37,3.79-7.42-6.04,0,0-16.52-20.16-27.8-24.01-11.28-3.84-6.07-7.23-6.07-7.23l10.52-2.69Z"/>
        <path class="cls-4" d="m301.53,83.08s8.91-4.93,28.36-.61c19.45,4.31,10.69,10.89,10.69,10.89,0,0-3.76,1.35-8.64,1.27,0,0-6.29.27-7.39,1.6s-24.42-2.26-24.79-4.1c-.38-1.85,1.78-9.04,1.78-9.04Z"/>
        <path class="cls-4" d="m267.68,94.18c1.16-1.71,3.04-4.08,5.88-6.29,5.84-4.55,11.88-5.38,17.41-6.08,6.21-.78,11.3-1.42,15.65,1.71.45.32,4.58,3.29,3.99,6.09-.4,1.88-2.21,3.86-12.43,5.99-5.4,1.13-8.99,3.14-11.29,4.8-2.79,2-3.72,3.51-6.6,4.43-1.13.36-5.62,1.79-9.22-.85-2.82-2.07-4.09-5.91-3.38-9.79Z"/>
      </g>
      <g id="rosto_cópia" data-name="rosto cópia">
        <path class="cls-6" d="m197.57,71.85c-10.29.56-27.92,3.01-46.51,13.26-26.3,14.48-38.79,35.86-44.22,45.42-5.17,9.12-18.68,33.7-16.34,67.3.65,9.24,2.52,31.95,18.19,53.97,21.42,30.1,53.82,38.11,66.69,41.29,10.44,2.58,72.32,16.53,109.9-21.39,19.49-19.66,25.33-46.09,27.08-54,3.85-17.43,2.86-31.44,2.28-38.81-1.04-13.27-2.99-38.01-18.39-60.85-22.56-33.47-64.05-48.07-98.68-46.17Z"/>
        <path class="cls-1" d="m294.34,164.54c-.65-3.48-2.49-10.15-8.25-15.22-2.37-2.09-5.87-5.17-9.93-4.56-6.43.97-9.31,10.48-9.73,11.87-1.54,5.08-.47,7.66.13,18.59.44,7.9.66,11.86.22,16.23-1.33,13.33-2,19.99-3.3,24.11-.16.51-.49,1.5-.11,2.56,1.49,4.12,11.92,3.68,13.6,3.61,1.76-.07,16.11-.68,18.56-8.04.41-1.25.35-2.28.33-2.73-.28-5.09-.14-13.74.92-28.94l-11.9-9.54,9.46-7.95Z"/>
        <path class="cls-6" d="m263.28,215.2c4.67-1.47,24.1-6.99,41.4,3.61,2.84,1.74,7.91,4.93,11.7,11.01,11.33,18.17-.67,41.51-2.29,44.64-6.71,12.99-16.69,19.88-23.51,24.47-14.24,9.59-27.59,12.38-37.28,14.3-34.19,6.78-62.05-1.19-78.92-6.22-18.07-5.4-28.23-11.35-35.08-16.23-6.98-4.96-13.79-9.81-19.34-18.79-8.23-13.32-13.11-34.84-2.87-47.32,2.35-2.87,4.99-4.64,6.86-5.69"/>
        <path class="cls-1" d="m185.87,159.32c-.09-.99-1.06-10.16-9.13-14.89-.95-.56-6.58-3.85-12.61-2.06-10.63,3.14-13.06,19.21-13.54,22.38-1.4,9.23,1.71,9.64,2.36,24.2.72,16.04-2.47,28.19.62,29.16.55.17.99-.11,1.89-.55,5.63-2.74,11.21-2.71,16.37-2.69,6.2.03,9.38,1.51,11.89.03.38-.23,1.66-1.06,3.13-.79,1.3.24,1.64,1.14,2.2,1.12,1.59-.05,2.91-7.64,3.53-18.35.53-9.08-1.11-17.02-2.79-22.63-5.04-.18-10.07-.36-15.11-.54,3.73-4.8,7.47-9.59,11.2-14.39Z"/>
        <path class="cls-6" d="m204.43,217.03c-5.84-2.57-15.88-6.09-28.74-6.21-16.09-.14-28.25,5.12-34.25,8.22"/>
        <path class="cls-6" d="m239.54,204.54c-1.5-1.52-2.97-1.99-3.77-2.17-3.68-.8-7.96,1.58-10.58,6.01"/>
        <path class="cls-3" d="m235.5,198.91c-.36-.33-1.39-1.18-2.93-1.3-2.57-.19-4.22,1.86-4.36,2.05"/>
        <path class="cls-6" d="m248.01,206.08c1.09.07,2.66.28,4.44.88,1.58.53,5.67,2.02,8.25,6.22,1.89,3.08,1.93,6.11,1.97,8.15.06,3.37-.74,6.06-1.36,7.66"/>
        <path class="cls-3" d="m242.8,200.91c1.06-.21,2.38-.35,3.88-.22,4.15.35,7.06,2.5,8.31,3.57"/>
        <g>
          <path class="cls-7" d="m177.9,123.65c7.05,2.84,14.43,10.13,13.23,16.12-.87,4.33-5.75,5.72-18.19,11.18-25.53,11.21-30.37,16.49-34.43,13.6-5.22-3.72-3.42-16.91,1.53-25.53,7.44-12.96,24.87-20.6,37.85-15.37Z"/>
          <path class="cls-6" d="m196.94,134.36c-.25,5.17-1.48,12.29-6.67,16.94-6.19,5.54-13.98,3.96-25.43,5.64-7.28,1.07-17.65,3.7-29.79,10.85"/>
        </g>
        <path class="cls-6" d="m259.09,137.38c1.02-1.22,5.75-6.59,13.56-7.28,7.42-.65,14.76,3.17,19.05,9.84"/>
        <path class="cls-6" d="m253.48,250.6c-10.45,2.43-18.6,1.94-24.17,1.02-10.62-1.76-16.81-5.93-24.17-3.06-4.82,1.88-7.8,5.86-9.53,8.85"/>
        <path class="cls-6" d="m323.01,335.33c-5.23-5.46-4.77-3.46-8.68-7.87-11.28-12.72-25.86-41.47-26.96-42.49-1.27-1.17-1.57-.64-2.67-2.38-3.42-5.41-14.18-21.29-22.63-21.62-7.93-.31-4.88,10.91-3.15,15.89.52,1.48,1.51,2.74,2.81,3.61l1.23.82c-4.93-2.57-12.82-5.16-22.74-3.21-1.01.2-2.05.15-3.06-.09-20.85-4.93-28.02-.37-35.29.9-5.83,1.02-10.98,1.97-11.41,4.44-.64,3.6,9.04,8.65,9.53,8.9,2.05,1.05,4.87,2.71,10.22,5.19.39.18.77.4,1.12.64,1.63,1.15,6.5,4.7,8.66,7.68,1.91,2.64,3.31,9.64,3.92,13.23.26,1.53,1,2.93,2.12,3.99.77.73,1.18,1.03,1.74,1.55,2.06,1.9,2.34,4.74,2.53,5.87,1.07,6.2,8.99,15.35,17.24,16.53,1.36.19,2.33.11,3.08.07,10.1-.54,23.61,3.34,30.27,8.09,4.95,3.53,5.3,7,13.27,34.96.64,2.26,1.24,4.35,1.81,6.29,16.69-7.81,32.17-17.78,46.07-29.56-4.54-10.94-9.17-21.17-19.01-31.44Z"/>
      </g>
      <g id="chifre_direita_cópia" data-name="chifre direita cópia">
        <path class="cls-4" d="m222.19,60.9c.22.74.47,1.85.49,3.2.02,1.28.06,3.58-1.14,5.09-1.47,1.84-4.62,2.29-7.8,1.26,0,0,20.04,13.58,28.95,37.61,0,0,2.87,2.74,5.24,1.82,3.02-1.16,3.08-7.34,3.09-9.28.06-11.52-7.76-20.62-11.75-25.15-3.08-3.49-9.27-10.08-17.09-14.57Z"/>
        <path class="cls-4" d="m173.56,60.05s6.77-6.4,24.5-9.23c3.45-.55,7.97-.52,13.2,1.53,6.71,2.62,10.58,7.46,12.23,9.84,1.38,2.25,1.75,4.93.65,6.88-1.67,2.94-6.72,4.19-11.07,1.35-6.32-3.02-11.59-3.74-15.44-3.75,0,0-14.95,1.85-14.95,1.85h0s-2.53-7.84-9.13-8.47Z"/>
        <path class="cls-4" d="m164.59,64.17c.58-.7,3.58-4.19,8.45-4.43,1.19-.06,5.06-.24,7.62,2.71,1.94,2.25,1.96,4.97,1.93,5.78-1.64,1.48-3.32,3.1-5.01,4.89-4.5,4.78-7.95,9.56-10.6,13.88,0,0-5.07,6.88-6.58,13.31-1.51,6.43-6.27,9.64-6.27,9.64,0,0-11.68-.5-8.63-12.26.24-1.39.54-2.8.9-4.24,3.39-13.23,11.28-22.89,18.18-29.28Z"/>
      </g>
    </g>
  </g>
</svg>