<?xml version="1.0" encoding="UTF-8"?>
<svg id="Camada_2" data-name="Camada 2" xmlns="http://www.w3.org/2000/svg" viewBox="0 0 340.01 241.56">
  <defs>
    <style>
      .cls-1 {
        fill: #2b8e2d;
      }
    </style>
  </defs>
  <g id="Camada_21" data-name="Camada 21">
    <path class="cls-1" d="m118.56,188.39c-1.54-17.08-6.73-28.34-12.22-40.27-4.25-9.22-8.64-18.75-11.29-31.4-1.81-8.63-6.65-39.29,7.06-71.62,9-21.22,18.46-33.34,25.32-32.46,2.88.38,6.02,3.1,8.62,7.48,5.07,8.55,8.2,23.71,3.11,36.78-4.73,12.14-16.35,21.51-24.9,24.16-3.2.99-5.77.99-7.25,0-3.35-2.27-3.71-11.54-.89-22.54,3.16-12.32,9.1-21.94,13.8-22.38,3.73-.35,8.58,4.68,9.27,9.61.83,5.96-4.22,12.59-12.02,15.76l1.13,2.78c9.19-3.74,14.89-11.54,13.86-18.96-.93-6.66-7.13-12.7-12.52-12.18-7.15.68-13.4,12.85-16.43,24.62-2.57,10.02-3.37,22.05,2.11,25.77,2.28,1.55,5.67,1.68,9.82.39,9.21-2.86,21.73-12.93,26.8-25.94,5.46-14.01,2.1-30.25-3.33-39.4-3.11-5.25-6.96-8.42-10.81-8.93-11.51-1.5-22.77,20.83-28.47,34.26-14.05,33.13-9.09,64.56-7.24,73.4,2.72,12.97,7.18,22.67,11.5,32.04,5.38,11.68,10.47,22.72,11.96,39.28,1.52,16.87-1.19,34.2-8.07,51.5l1.98.79h.93c6.96-17.64,9.7-35.32,8.15-52.56Z"/>
    <path class="cls-1" d="m142.56,224.81c.13-8.43,3.67-13.46,7.43-18.79,3.67-5.21,7.47-10.61,8.4-19.38.94-8.9-1.85-14-5.38-20.46-3.2-5.85-7.17-13.13-9.45-25.92-2.22-12.53-4.74-26.72,3.31-37.66,8.17-11.09,27.44-18.3,38.29-10.89,6.29,4.3,9.7,13.85,8.9,24.94-.8,11.18-5.74,20.85-12.29,24.05-6.62,3.25-17.7,1.53-22.61-5.63-5.22-7.6-1.69-19.12,4.88-25.11,4.52-4.12,13.11-7.98,17.46-4.53,2.44,1.93,3.68,6.25,3.09,10.76-.55,4.2-2.53,7.43-5.32,8.65-3.58,1.56-8.66.04-12.66-3.79l-2.08,2.16c4.86,4.66,11.26,6.42,15.94,4.38,3.76-1.64,6.41-5.76,7.09-11.01.73-5.6-.92-10.89-4.21-13.5-5.98-4.74-16.08-.13-21.35,4.66-7.48,6.81-11.64,19.84-5.33,29.02,5.93,8.63,18.67,10.42,26.41,6.62,7.59-3.72,13.07-14.13,13.96-26.53.89-12.33-2.93-22.66-10.2-27.63-12.48-8.53-33.4-.64-42.39,11.58-8.81,11.97-6.17,26.84-3.84,39.96,2.36,13.28,6.47,20.79,9.77,26.84,3.4,6.23,5.86,10.73,5.03,18.7-.84,7.99-4.25,12.83-7.86,17.96-3.85,5.46-7.83,11.11-7.97,20.47-.08,5.39,1.13,10.8,3.59,16.19h3.32c-2.68-5.4-3.99-10.8-3.91-16.15Z"/>
    <path class="cls-1" d="m228.35,184.5c.92-24.42-5.41-42.99-10.99-59.38-6.49-19.04-12.09-35.48-4.42-55.55,2.52-6.58,5.7-11.58,8.51-16,4.63-7.28,8.64-13.56,6.88-23.11-1.81-9.83-9.36-20.32-18.8-26.12-6.54-4.01-13.23-5.31-18.84-3.65-6.56,1.94-12.12,8.11-15.25,16.9-4.19,11.78-3.11,25.4,2.69,33.89,3.38,4.96,12.25,13.59,21.58,10.8,4.35-1.3,8.24-5.02,10.41-9.96,2.25-5.1,2.33-10.75.21-15.11-2.71-5.59-8.77-9.06-13.26-9.92-2.96-.57-5.44-.11-6.98,1.3-3.73,3.41-1.55,11.34,1.73,17.63l2.66-1.39c-3.75-7.2-4.03-12.51-2.36-14.03.81-.74,2.41-.95,4.39-.57,3.9.75,8.97,3.83,11.12,8.28,1.73,3.58,1.64,8.29-.26,12.6-1.82,4.14-5.01,7.24-8.52,8.29-7.67,2.29-15.29-5.29-18.25-9.62-5.28-7.74-6.22-20.28-2.34-31.2,2.81-7.88,7.64-13.36,13.27-15.03,4.78-1.42,10.61-.24,16.42,3.33,8.76,5.38,15.76,15.06,17.42,24.1,1.54,8.39-1.81,13.66-6.46,20.95-2.89,4.53-6.16,9.67-8.78,16.54-8.05,21.08-2.29,38,4.39,57.59,5.5,16.14,11.73,34.43,10.83,58.29-.71,18.74-5.81,37.76-15.16,56.57h3.35c9.12-18.75,14.1-37.73,14.81-56.45Z"/>
    <path class="cls-1" d="m88.37,198.31c-2.82-9.33-8.11-13.64-13.71-18.2-5.01-4.08-10.19-8.3-13.93-16.7-5.73-12.86-2.7-23.52.52-34.8,3.3-11.58,6.71-23.56,1.58-39.1-6.7-20.31-26.78-41.45-41.66-37.23-6.73,1.91-13.06,9.65-16.12,19.72-3.14,10.33-1.97,20.08,3.13,26.1,5.56,6.55,15.67,8.84,23.23,8.2,5.49-.46,9.64-2.41,11.37-5.34,1.6-2.71,1.53-6.8-.19-10.95-1.97-4.73-5.48-8.15-9.41-9.14-3.26-.82-7.33-.13-10.14,1.72-1.69,1.12-2.71,2.53-2.95,4.1-.57,3.69,3.33,8.57,10.84,10.37l.7-2.92c-5.77-1.38-8.88-5-8.57-6.99.11-.7.69-1.43,1.64-2.05,2.07-1.37,5.33-1.93,7.75-1.32,2.97.75,5.79,3.58,7.37,7.38,1.32,3.18,1.47,6.43.38,8.27-1.22,2.05-4.6,3.5-9.05,3.88-6.79.57-15.82-1.41-20.69-7.15-4.44-5.23-5.4-13.94-2.55-23.28,2.73-8.98,8.39-16.1,14.07-17.71,11.71-3.32,31.25,14.81,38,35.28,4.84,14.66,1.55,26.19-1.62,37.34-3.36,11.82-6.54,22.99-.37,36.84,4.04,9.06,9.74,13.71,14.78,17.81,5.46,4.45,10.18,8.29,12.73,16.74,3.6,11.92.57,25.95-9.02,41.78h3.47c9.31-15.96,12.16-30.28,8.42-42.65Z"/>
    <path class="cls-1" d="m243.49,191.79c5.47-10.25,13.81-16.02,21.16-21.12,7.79-5.4,14.52-10.06,14.76-18.36.23-7.94-5.57-12.58-12.28-17.95-7.22-5.78-15.41-12.33-18.4-24.83-2.78-11.6-1.28-27.07,8.56-33.64,6.04-4.03,14.66-4.4,21.47-.93,8.35,4.26,12.02,13.16,11.95,20.09-.09,8.71-5.77,16.69-11.35,20.73-3.57,2.59-7.19,3.66-9.67,2.88-3.68-1.17-6.84-7.08-7.88-14.71-.91-6.68.2-12.68,2.63-14.26,1.32-.86,3.68-.89,6.02-.09,2.72.94,4.79,2.78,5.53,4.94,1.18,3.43-.7,7.77-4.56,10.55l1.75,2.43c4.93-3.55,7.25-9.29,5.65-13.96-1.04-3.02-3.8-5.56-7.39-6.8-3.23-1.11-6.54-.96-8.64.41-4.27,2.78-4.81,10.99-3.97,17.18.96,7.08,4.08,15.31,9.95,17.17,3.43,1.09,7.93-.11,12.34-3.3,5.74-4.16,12.49-12.71,12.59-23.13.07-7.28-3.44-17.62-13.58-22.8-7.74-3.95-17.58-3.5-24.49,1.11-11.04,7.36-12.83,24.25-9.82,36.83,3.23,13.49,12.22,20.69,19.44,26.47,6.34,5.07,11.34,9.08,11.16,15.52-.19,6.78-6.05,10.84-13.47,15.98-7.26,5.03-16.29,11.28-22.1,22.17-7.17,13.43-7.71,30.44-1.62,50.58h3.13c-6.13-19.74-5.75-36.27,1.14-49.17Z"/>
    <path class="cls-1" d="m337.13,208.93c3.47-33.68,1.53-51.91-.35-69.54-1.73-16.27-3.37-31.64-.51-58.01.58-5.38,1.26-10.33,1.86-14.7,2.34-17.08,3.88-28.37-4.11-37.45-8.92-10.14-27.27-15.32-40.37-6.85-10.96,7.08-18.05,23.72-11.12,35.38,4.76,8,14.57,11.32,21.53,11.72,5.6.34,10.13-1.04,12.12-3.65,1.36-1.79,1.83-4.51,1.28-7.46-.74-3.94-3.07-7.45-6.24-9.4-5.02-3.08-11.92-2.21-16.78,2.13l2,2.24c3.88-3.46,9.31-4.2,13.21-1.81,2.46,1.51,4.28,4.27,4.86,7.39.39,2.09.12,3.99-.72,5.09-1.34,1.76-5.09,2.73-9.56,2.48-6.23-.36-14.97-3.26-19.12-10.25-6.08-10.24.35-24.98,10.17-31.33,11.8-7.62,28.4-2.89,36.49,6.31,7.08,8.05,5.69,18.22,3.39,35.07-.6,4.38-1.28,9.35-1.87,14.78-2.9,26.69-1.24,42.22.51,58.65,1.86,17.47,3.79,35.54.35,68.91-1.12,10.84-2.64,21.68-4.53,32.33h3.05c1.86-10.56,3.36-21.29,4.47-32.02Z"/>
    <path class="cls-1" d="m272.77,223.33c.35-6.91,3.38-10.64,7.57-15.8,3.8-4.68,8.54-10.5,12.25-20.52,3.63-9.79,4.32-18.09,4.88-24.76.64-7.64,1.13-11.7,4.53-13.2,4.13-1.81,10.27,1.05,13.6,4.74,6.28,6.96,2.9,18.16.19,27.16-3.13,10.39-8.15,18.38-9.92,18.38-.04,0-.07,0-.1,0-1.1-.22-1.97-5.45-2.38-7.96-.8-4.86-1.78-17.98,3.25-20.36,1.38-.65,3.21-.58,3.85.15.72.81.5,3.06-1.11,5.28l2.43,1.76c2.36-3.26,2.74-6.97.93-9.02-1.76-2-5.12-1.94-7.38-.88-7.95,3.75-5.26,21.54-4.92,23.56.83,5.04,1.62,9.8,4.77,10.42.2.04.4.06.6.06,6.5,0,12.81-20.29,12.87-20.5,2.78-9.21,6.58-21.82-.83-30.03-4.06-4.5-11.41-7.95-17.04-5.47-5.19,2.28-5.66,7.91-6.31,15.7-.54,6.48-1.21,14.55-4.7,23.96-3.54,9.56-7.91,14.93-11.77,19.67-4.21,5.17-7.84,9.64-8.24,17.54-.29,5.8,1.28,11.75,4.69,17.78h3.49c-3.72-6.04-5.47-11.94-5.18-17.63Z"/>
    <path class="cls-1" d="m196.99,202.57c-2.2-3.71-5.1-6.06-7.91-8.34-3.77-3.06-7.02-5.69-8.26-11.14-1.6-7.04.65-16.92,7.99-21.36,5.85-3.54,14.98-4.08,19.53,1.22,2.27,2.64,3.54,6.83,3.17,10.42-.18,1.75-.84,4.18-2.94,5.79-3.68,2.82-9.82,1.58-12.84-1.41-1.76-1.74-2.6-3.86-2.35-4.25.42-.65,4.56-.26,9.43,1.61l1.08-2.8c-3.21-1.23-10.91-3.75-13.03-.43-1.64,2.55,1.09,6.35,2.76,8,3.99,3.95,11.68,5.56,16.78,1.66,2.34-1.79,3.75-4.51,4.1-7.87.46-4.43-1.06-9.41-3.88-12.69-5.65-6.58-16.31-6.1-23.36-1.84-8.64,5.23-11.25,16.33-9.37,24.59,1.47,6.46,5.45,9.69,9.29,12.81,2.6,2.11,5.29,4.3,7.22,7.54,4.83,8.14,3.28,20.52-4.55,36.85h3.32c7.75-16.7,9.04-29.58,3.81-38.38Z"/>
    <path class="cls-1" d="m21.03,196.68c-.16-15.23-.34-32.5,7.67-36.15,2.7-1.23,7.67-1.5,16.02,4.21,8.09,5.54,16.51,17.94,11.82,25.55-2.02,3.29-6.63,5.77-11.74,6.33-4.91.53-9.27-.75-11.95-3.52-2.36-2.44-3.82-6.41-3.72-10.12.05-1.89.53-4.53,2.52-6.38,2.4-2.23,6.9-3.31,9.99-1.14,3.16,2.21,4.07,6.98,2.08,10.85l2.67,1.37c2.71-5.27,1.4-11.58-3.03-14.68-4.38-3.06-10.43-1.69-13.75,1.41-2.15,2-3.38,5.02-3.47,8.5-.12,4.54,1.63,9.24,4.56,12.28,3.33,3.45,8.59,5.05,14.43,4.42,6.08-.66,11.44-3.63,13.97-7.74,5.83-9.48-3.8-23.52-12.69-29.6-7.63-5.22-14.01-6.72-18.96-4.47-9.79,4.46-9.61,21.98-9.43,38.91.15,14.65,1.89,29.49,5.13,44.24h3.07c-3.29-14.76-5.04-29.62-5.19-44.27Z"/>
    <path class="cls-1" d="m0,241.56v-11.16l9.06,4.62c.19.1.41.11.61.05l18.47-5.95c.58-.19,1.14.31,1.02.9l-1.56,7.3c-.11.53.34,1,.88.93l12.96-1.84c.22-.03.41-.15.54-.33l3.41-4.86c.2-.28.57-.4.9-.3l9.73,3.19.17.08,6.42,3.94c.26.16.6.16.86-.01l8.37-5.54c.14-.09.3-.14.47-.13l4.44.15.3.07,12.12,5.49c.32.14.69.06.92-.19l5.06-5.7c.25-.29.68-.35,1.01-.15l9.97,6.07c.22.14.5.15.74.05l14.02-6.17c.38-.17.82-.02,1.02.34l4.24,7.87c.28.51,1.01.56,1.35.08l3.6-5.14c.27-.38.82-.45,1.17-.14l5.15,4.5c.61.54,1.55-.09,1.26-.85l-3.25-8.58c-.23-.6.34-1.19.96-1.02l15.25,4.33.07.03,6.63,2.61c.16.06.35.07.52.02l8.07-2.35c.51-.15,1.01.23,1.01.74v3.18c0,.41.31.74.73.77,2.53.19,10.76.79,9.88.41-.79-.34-.7-3.06-.62-4.37.03-.4.36-.71.76-.72l9-.31c.22,0,.43.07.58.22l5.73,5.54c.36.35.97.28,1.23-.16l2.76-4.56c.24-.39.76-.5,1.14-.23l5.58,3.91c.18.13.41.17.62.13l12.4-2.63c.76-.16,1.27.74.74,1.29-.49.51-.1,1.35.62,1.31l19.03-1.02c.58-.03,1,.55.77,1.07l-.72,1.7c-.26.62.34,1.25.98,1.03l13.09-4.37c.32-.11.68,0,.88.27l1.86,2.42c.49.64,1.53.22,1.41-.58-.54-3.52-1.06-8.76.55-8.76,2.19,0,12.47,6.83,14.41,8.13.2.14.45.17.68.09l18.6-5.99c.35-.11.72.02.92.33l3.3,5.23c.2.32.6.45.96.31l15.46-5.98c.52-.2,1.08.17,1.08.72v4.56c0,.49.45.85.94.76l24.19-4.66c.3-.06.61.06.79.3l1.74,2.33v5.38H0Z"/>
  </g>
</svg>