<?xml version="1.0" encoding="UTF-8"?>
<svg id="Camada_2" data-name="Camada 2" xmlns="http://www.w3.org/2000/svg" viewBox="0 0 107.09 80.73">
  <defs>
    <style>
      .cls-1 {
        fill: #fbff7a;
        stroke: #2b8e2d;
        stroke-miterlimit: 10;
        stroke-width: 3px;
      }
    </style>
  </defs>
  <g id="_2" data-name="2">
    <g id="cabeça_cópia" data-name="cabeça cópia">
      <g id="boné_cópia" data-name="boné cópia">
        <path class="cls-1" d="m45.58,54.97c17.89-.47,26.83-.71,34.86.35,7.52.99,25.22,3.32,25.15,8.94-.06,4.71-12.53,9.57-15.68,10.79-4.8,1.87-12.48,4.21-30.77,4.18-17.73-.03-27.21-2.26-43.75-6.15-6.59-1.55-13.92-3.57-13.89-7.3.02-2.03,2.21-3.8,3.45-4.81,5.54-4.48,11.98-4.39,21.3-4.76,13.18-.52,3.25-.82,19.33-1.25Z"/>
        <path class="cls-1" d="m80.91,61.4c2.29,4.51-14.54,6.99-28.04,6.57-14.53-.46-24.86-6.48-29.07-9.27,1.16-6.42,2.06-14.53,1.78-23.89-.29-9.71-1.76-18.02-3.37-24.51,1.58.84,3.87,1.97,6.72,3.1,3.21,1.27,17.37,6.61,37.15,4.24,12.81-1.54,24.07-5.87,22.57-5.51,0,0-11.25,42.34-7.73,49.27Z"/>
        <path class="cls-1" d="m70.08,3.59c2.06.49,18.81,4.44,18.56,8.54-.12,1.92-3.9,3.12-8.01,4.39-7.21,2.23-14.21,2.87-23.49,2.55-10.74-.37-16.44-.62-23.49-3.57-.95-.4-13.09-5.56-12.35-9.35.65-3.31,10.79-3.88,20.52-4.44,15.97-.91,25.76,1.28,28.26,1.87Z"/>
      </g>
    </g>
  </g>
</svg>